<?xml version="1.0" encoding="UTF-8" standalone="no"?>
<!DOCTYPE svg PUBLIC "-//W3C//DTD SVG 1.1//EN" "http://www.w3.org/Graphics/SVG/1.1/DTD/svg11.dtd">
<svg width="100%" height="100%" viewBox="0 0 160 100" version="1.1" xmlns="http://www.w3.org/2000/svg" xmlns:xlink="http://www.w3.org/1999/xlink" xml:space="preserve" xmlns:serif="http://www.serif.com/" style="fill-rule:evenodd;clip-rule:evenodd;stroke-linejoin:round;stroke-miterlimit:2;">
    <g id="Artboard1" transform="matrix(1.815,0,0,1.27708,-44.7622,-15.5755)">
        <rect x="24.662" y="12.196" width="88.154" height="78.304" style="fill:none;"/>
        <g transform="matrix(0.550965,0,0,0.783038,31.2314,11.2942)">
            <g id="Ebene_1">
                <g id="connect">
                    <path d="M49.5,90.5C48.3,90.5 47.1,90.2 46.2,89.5C44.3,88 43.4,85.6 43.8,82.8C44.1,80.3 44.7,71.8 39.3,65.4C34.5,59.7 31.6,58.2 29.2,57.4C27.2,56.8 25,55 24.7,52.2C24.5,50.1 25,47.3 28.6,45.5C32.2,43.7 37.1,40.7 40.2,36.1C44.8,29.5 44.1,21.6 43.7,19.3C43.4,16.9 44.1,14.7 45.7,13.5C48,11.8 51,11.8 53.4,13.3C56.6,15.5 62.9,19.1 68.7,19.1C74.5,19.1 81,15.5 84.1,13.3C85.7,12.2 87.8,11.9 89.6,12.5L89.8,12.5C92.5,13.5 94.2,16.2 93.9,19.1C93.4,23.8 93.2,30.8 97.4,36.2C102.2,42.5 106.3,44.9 108.9,45.8C111.1,46.6 112.7,48.6 112.8,51C113,53.6 111.4,55.9 108.5,57.3C104.7,59.1 99.9,61.9 96.8,67.2C92.8,74.1 93.3,81.5 93.7,84.3C94,86.3 93.1,88.3 91.4,89.4C90.1,90.2 87.3,91.3 83.7,88.9C83.4,88.7 83.1,88.5 82.8,88.3C81.5,87.4 79.9,86.3 78,85.6C74.9,84.4 73.3,84.1 72.5,84C71.3,83.9 70.2,83.1 69.8,81.9C69.5,81 69,81 68.8,81C68.6,81 68.1,81 67.8,81.9C67.6,82.6 66.9,83.8 64.9,83.9C63.8,83.9 61.8,84.5 59.5,85.5C57.8,86.3 56.1,87.3 53.9,89C52.8,89.8 51.2,90.4 49.6,90.4L49.5,90.5ZM47.5,15.8C46.6,16.4 46.5,17.8 46.6,18.9C47,21.4 47.7,30.2 42.6,37.7C39.1,42.8 33.8,46.1 29.9,48C28,48.9 27.3,50.1 27.5,51.9C27.7,53.9 29.8,54.7 30.1,54.8C32.9,55.7 36.2,57.4 41.4,63.6C47.5,70.9 46.9,80.4 46.5,83.2C46.4,84.2 46.4,86.2 47.8,87.3C48.7,88 50.7,87.8 51.9,86.9C54.3,85.1 56.2,83.9 58,83.1C60.3,82.1 62.6,81.4 64.4,81.2C64.8,81.2 64.9,81.1 64.9,81.1C65.5,79.3 66.8,78.3 68.6,78.3C70.4,78.3 71.7,79.3 72.3,81C72.3,81.1 72.5,81.2 72.6,81.2C74,81.3 76.1,81.9 78.8,82.9C81,83.8 82.8,84.9 84.2,85.9C84.5,86.1 84.8,86.3 85.1,86.5C86.9,87.7 88.4,87.8 89.7,86.9C90.5,86.4 90.9,85.5 90.8,84.6C90.4,81.4 89.8,73.3 94.3,65.6C97.8,59.6 103,56.6 107.2,54.6C108.5,54 110.1,52.9 109.9,51.1C109.9,49.9 109,48.8 107.9,48.4C104.9,47.4 100.3,44.8 95,37.9C90.2,31.7 90.4,24 91,18.8C91.2,17.2 90.2,15.8 88.8,15.3L88.6,15.3C87.6,14.9 86.5,15 85.6,15.6C82.2,18 75.6,21.9 68.5,21.9C61.4,21.9 55.8,18.5 51.6,15.6C50.3,14.7 48.5,14.7 47.2,15.7L47.5,15.8Z" style="fill:rgb(103,118,244);fill-rule:nonzero;"/>
                    <circle cx="55.1" cy="37.7" r="2.1" style="fill:rgb(103,118,244);"/>
                    <circle cx="62" cy="37.7" r="2.1" style="fill:rgb(103,118,244);"/>
                    <circle cx="68.9" cy="37.7" r="2.1" style="fill:rgb(103,118,244);"/>
                    <circle cx="75.7" cy="37.7" r="2.1" style="fill:rgb(103,118,244);"/>
                    <circle cx="55.1" cy="44.5" r="2.1" style="fill:rgb(103,118,244);"/>
                    <circle cx="62" cy="44.5" r="2.1" style="fill:rgb(103,118,244);"/>
                    <circle cx="68.9" cy="44.5" r="2.1" style="fill:rgb(103,118,244);"/>
                    <circle cx="75.7" cy="44.5" r="2.1" style="fill:rgb(103,118,244);"/>
                    <circle cx="55.1" cy="51.2" r="2.1" style="fill:rgb(103,118,244);"/>
                    <circle cx="62" cy="51.2" r="2.1" style="fill:rgb(103,118,244);"/>
                    <circle cx="68.9" cy="51.2" r="2.1" style="fill:rgb(103,118,244);"/>
                    <circle cx="75.7" cy="51.2" r="2.1" style="fill:rgb(103,118,244);"/>
                    <circle cx="55.1" cy="57.9" r="2.1" style="fill:rgb(103,118,244);"/>
                    <circle cx="62" cy="57.9" r="2.1" style="fill:rgb(103,118,244);"/>
                    <circle cx="68.9" cy="57.9" r="2.1" style="fill:rgb(103,118,244);"/>
                    <circle cx="75.7" cy="57.9" r="2.1" style="fill:rgb(103,118,244);"/>
                    <circle cx="82.6" cy="37.7" r="2.1" style="fill:rgb(103,118,244);"/>
                    <circle cx="82.6" cy="44.5" r="2.1" style="fill:rgb(103,118,244);"/>
                    <circle cx="82.6" cy="51.2" r="2.1" style="fill:rgb(103,118,244);"/>
                    <circle cx="82.6" cy="57.9" r="2.1" style="fill:rgb(103,118,244);"/>
                    <circle cx="55.1" cy="64.6" r="2.1" style="fill:rgb(103,118,244);"/>
                    <circle cx="62" cy="64.6" r="2.1" style="fill:rgb(103,118,244);"/>
                    <circle cx="68.9" cy="64.6" r="2.1" style="fill:rgb(103,118,244);"/>
                    <circle cx="75.7" cy="64.6" r="2.1" style="fill:rgb(103,118,244);"/>
                    <circle cx="82.6" cy="64.6" r="2.1" style="fill:rgb(103,118,244);"/>
                </g>
            </g>
        </g>
    </g>
</svg>
