<?xml version="1.0" encoding="UTF-8"?>
<svg xmlns="http://www.w3.org/2000/svg" version="1.1" viewBox="0 0 164.1 130.8">
  <!-- Generator: Adobe Illustrator 28.6.0, SVG Export Plug-In . SVG Version: 1.2.0 Build 709)  -->
  <g>
    <g id="Ebene_1">
      <g id="connect">
        <path d="M49.5,90.5c-1.2,0-2.4-.3-3.3-1-1.9-1.5-2.8-3.9-2.4-6.7.3-2.5.9-11-4.5-17.4-4.8-5.7-7.7-7.2-10.1-8-2-.6-4.2-2.4-4.5-5.2-.2-2.1.3-4.9,3.9-6.7,3.6-1.8,8.5-4.8,11.6-9.4,4.6-6.6,3.9-14.5,3.5-16.8-.3-2.4.4-4.6,2-5.8h0c2.3-1.7,5.3-1.7,7.7-.2,3.2,2.2,9.5,5.8,15.3,5.8s12.3-3.6,15.4-5.8c1.6-1.1,3.7-1.4,5.5-.8h.2c2.7,1,4.4,3.7,4.1,6.6-.5,4.7-.7,11.7,3.5,17.1,4.8,6.3,8.9,8.7,11.5,9.6,2.2.8,3.8,2.8,3.9,5.2.2,2.6-1.4,4.9-4.3,6.3-3.8,1.8-8.6,4.6-11.7,9.9-4,6.9-3.5,14.3-3.1,17.1.3,2-.6,4-2.3,5.1-1.3.8-4.1,1.9-7.7-.5-.3-.2-.6-.4-.9-.6-1.3-.9-2.9-2-4.8-2.7-3.1-1.2-4.7-1.5-5.5-1.6-1.2-.1-2.3-.9-2.7-2.1-.3-.9-.8-.9-1-.9s-.7,0-1,.9c-.2.7-.9,1.9-2.9,2-1.1,0-3.1.6-5.4,1.6-1.7.8-3.4,1.8-5.6,3.5-1.1.8-2.7,1.4-4.3,1.4ZM47.5,15.8c-.9.6-1,2-.9,3.1.4,2.5,1.1,11.3-4,18.8-3.5,5.1-8.8,8.4-12.7,10.3-1.9.9-2.6,2.1-2.4,3.9.2,2,2.3,2.8,2.6,2.9,2.8.9,6.1,2.6,11.3,8.8,6.1,7.3,5.5,16.8,5.1,19.6-.1,1-.1,3,1.3,4.1.9.7,2.9.5,4.1-.4,2.4-1.8,4.3-3,6.1-3.8,2.3-1,4.6-1.7,6.4-1.9.4,0,.5-.1.5-.1.6-1.8,1.9-2.8,3.7-2.8s3.1,1,3.7,2.7c0,.1.2.2.3.2,1.4.1,3.5.7,6.2,1.7,2.2.9,4,2,5.4,3,.3.2.6.4.9.6,1.8,1.2,3.3,1.3,4.6.4.8-.5,1.2-1.4,1.1-2.3-.4-3.2-1-11.3,3.5-19,3.5-6,8.7-9,12.9-11,1.3-.6,2.9-1.7,2.7-3.5,0-1.2-.9-2.3-2-2.7-3-1-7.6-3.6-12.9-10.5-4.8-6.2-4.6-13.9-4-19.1.2-1.6-.8-3-2.2-3.5h-.2c-1-.4-2.1-.3-3,.3-3.4,2.4-10,6.3-17.1,6.3s-12.7-3.4-16.9-6.3c-1.3-.9-3.1-.9-4.4.1h0Z"/>
        <circle cx="55.1" cy="37.7" r="2.1"/>
        <circle cx="62" cy="37.7" r="2.1"/>
        <circle cx="68.9" cy="37.7" r="2.1"/>
        <circle cx="75.7" cy="37.7" r="2.1"/>
        <circle cx="55.1" cy="44.5" r="2.1"/>
        <circle cx="62" cy="44.5" r="2.1"/>
        <circle cx="68.9" cy="44.5" r="2.1"/>
        <circle cx="75.7" cy="44.5" r="2.1"/>
        <circle cx="55.1" cy="51.2" r="2.1"/>
        <circle cx="62" cy="51.2" r="2.1"/>
        <circle cx="68.9" cy="51.2" r="2.1"/>
        <circle cx="75.7" cy="51.2" r="2.1"/>
        <circle cx="55.1" cy="57.9" r="2.1"/>
        <circle cx="62" cy="57.9" r="2.1"/>
        <circle cx="68.9" cy="57.9" r="2.1"/>
        <circle cx="75.7" cy="57.9" r="2.1"/>
        <circle cx="82.6" cy="37.7" r="2.1"/>
        <circle cx="82.6" cy="44.5" r="2.1"/>
        <circle cx="82.6" cy="51.2" r="2.1"/>
        <circle cx="82.6" cy="57.9" r="2.1"/>
        <circle cx="55.1" cy="64.6" r="2.1"/>
        <circle cx="62" cy="64.6" r="2.1"/>
        <circle cx="68.9" cy="64.6" r="2.1"/>
        <circle cx="75.7" cy="64.6" r="2.1"/>
        <circle cx="82.6" cy="64.6" r="2.1"/>
      </g>
    </g>
  </g>
</svg>