<?xml version="1.0" encoding="UTF-8"?>
<svg xmlns="http://www.w3.org/2000/svg" version="1.1" viewBox="0 0 164.1 130.8">
  <!-- Generator: Adobe Illustrator 28.6.0, SVG Export Plug-In . SVG Version: 1.2.0 Build 709)  -->
  <g>
    <g id="Ebene_1">
      <g>
        <path d="M7.8,83.1c0-2.7,2.4-2.5,3.7-2.7,2-.2,4,0,6.3,0,0-1.2,0-3.2,0-4.2,0-18.4,0-36.9,0-55.3,0-7.6,3.9-11.4,11.5-11.4,25.5,0,51,0,76.5,0,7.6,0,11.5,3.9,11.5,11.5,0,18.4,0,36.9,0,55.3,0,.9,0,3,0,4.1,2.4,0,4.5,0,6.5,0,2.6,0,3.3.8,3.4,3.3.2,7.5-4.2,9-11.7,9-31.8,0-63.6,0-95.4,0-6.2,0-12.3-1.4-12.3-6.5s0-1.4,0-3.2ZM114.1,80.2c0-.9,0-1.7,0-2.5,0-19.4,0-38.8,0-58.3,0-4.6-1.8-7-6.5-7-26.7,0-53.4,0-80.1,0-4.8,0-6.6,2.3-6.6,7.2,0,19.3,0,38.7,0,58v2.6h93.2ZM124.2,83.5H10.9c0,3.8,2,6.2,6,6.2,33.8,0,67.6,0,101.4,0,.6,0,1.1,0,1.7,0,2.6-.4,4.2-3.1,4.3-6.1Z"/>
        <path d="M67.5,74.1c-12,0-23.9,0-35.9,0-3.2,0-3.9-.6-3.9-3.8,0-15.8,0-31.6,0-47.3,0-3,.6-3.6,3.5-3.6,24.2,0,48.4,0,72.5,0,2.9,0,3.5.6,3.5,3.6,0,15.9,0,31.7,0,47.6,0,2.8-.7,3.5-3.6,3.5-12.1,0-24.1,0-36.2,0ZM104.6,71.2c0-.9,0-1.7,0-2.5,0-14.2,0-29.6,0-43.7,0-2.1-.6-2.6-2.6-2.6-23,0-46,0-69,0-2,0-2.7.5-2.7,2.6,0,14.2,0,29.8,0,44,0,.7,0,1.4.1,2.3h74.1Z"/>
      </g>
      <path d="M52.8,65.3c-3.9,0-4.3-5.7-4.7-11.2-.3-3.6-.7-9.1-2.3-9.5-.5.1-1.7,2-2.4,3-1.1,1.7-2.2,3.3-3.6,3.9-2.5,1-4.5,0-4.7,0-.7-.3-1-1.2-.6-1.9s1.2-1,1.9-.6c0,0,1.1.5,2.4,0,.6-.2,1.6-1.7,2.3-2.8,1.5-2.3,3.1-4.7,5.4-4.1,3.6.9,4,6.3,4.5,12,.2,3.2.6,8.6,2,8.6s0,0,0,0c3-.2,2.5-8.8,2.1-15.8-.4-7.4-.8-14.4,1.8-17.3.8-.9,1.8-1.3,3-1.4,1,0,1.8.3,2.5.9,2.1,2,2.3,6.8,2.4,12.3.1,4.3.3,10.8,2.1,10.9h0c1,0,1.7-5.1,2-7.3.7-5.1,1.3-9.8,4.8-10,3.1-.2,4.1,3.9,4.9,7.9.5,2,1.3,5.8,2.2,5.9.4-.1,1.5-1.9,2.1-2.8,1.3-2,2.6-4.1,4.6-4.1s3.6,2.1,5,4.2c.8,1.1,1.8,2.5,2.4,2.8,2.4,1,4.8,0,4.8,0,.7-.3,1.6,0,1.9.7.3.7,0,1.5-.7,1.9-.1,0-3.5,1.5-7,0-1.4-.6-2.5-2.1-3.6-3.8-.7-1-2.1-3-2.7-3-.5.1-1.6,1.9-2.2,2.8-1.4,2.2-2.8,4.4-4.9,4.1-2.8-.5-3.7-4.2-4.5-8.1-.3-1.5-1.3-5.6-2-5.6h0c-1.1,0-1.8,5.1-2.1,7.5-.6,4.9-1.3,9.9-4.9,9.7-4.4-.2-4.6-6.7-4.8-13.6-.1-4.1-.2-9.1-1.5-10.3-.1-.1-.3-.2-.5-.2-.4,0-.7.2-1,.5-1.8,2-1.4,9-1.1,15.2.5,9.5,1,18.4-4.8,18.8,0,0-.2,0-.3,0Z"/>
    </g>
  </g>
</svg>