<?xml version="1.0" encoding="UTF-8" standalone="no"?>
<!DOCTYPE svg PUBLIC "-//W3C//DTD SVG 1.1//EN" "http://www.w3.org/Graphics/SVG/1.1/DTD/svg11.dtd">
<svg width="100%" height="100%" viewBox="0 0 160 100" version="1.1" xmlns="http://www.w3.org/2000/svg" xmlns:xlink="http://www.w3.org/1999/xlink" xml:space="preserve" xmlns:serif="http://www.serif.com/" style="fill-rule:evenodd;clip-rule:evenodd;stroke-linejoin:round;stroke-miterlimit:2;">
    <g id="Artboard1" transform="matrix(1.0684,0,0,1.06488,-2.20952,-7.29814)">
        <rect x="2.068" y="6.854" width="149.757" height="93.908" style="fill:none;"/>
        <g transform="matrix(0.935978,0,0,0.939077,4.30752,5.85979)">
            <g id="Ebene_1">
                <path d="M61.8,63.2C57.9,63.2 57.6,59.5 57.2,54C56.9,50.4 56.5,44.9 54.9,44.5C54.4,44.6 54.1,46.5 53.4,47.5C52.3,49.2 51.2,50.8 49.8,51.4C47.3,52.4 45.3,51.4 45.1,51.4C44.4,51.1 44.1,50.2 44.5,49.5C44.9,48.8 45.7,48.5 46.4,48.9C46.4,48.9 47.5,49.4 48.8,48.9C49.4,48.7 50.4,47.2 51.1,46.1C52.6,43.8 53.3,41.4 55.6,41.9C59.2,42.8 59.6,48.2 60.1,53.9C60.3,57.1 60.6,60.5 61.9,60.5C63.2,60.5 61.9,60.5 61.9,60.5C64.9,60.3 65.3,53.8 65,46.8C64.7,39.8 64.7,35.4 66.8,32.6C68.9,29.8 68.4,31 69.5,30.9C70.5,30.9 71.1,31.3 71.8,31.9C73.9,33.9 74.6,36.2 74.7,41.7C74.8,46 75,52.1 76.8,52.2C77.8,52.2 78.5,47.1 78.8,44.9C79.5,39.8 80.1,33.6 83.6,33.5C86.7,33.3 87.7,38.9 88.6,42.8C89.1,44.8 89.9,49.3 90.8,49.5C91.2,49.4 92.3,46.9 92.9,46C94.2,44 95.5,41.9 97.5,41.9C99.5,41.9 101.1,44 102.5,46.1C103.3,47.2 104.3,48.6 104.9,48.9C107.3,49.9 109.7,48.9 109.7,48.9C110.4,48.6 111.3,48.9 111.6,49.6C111.9,50.3 111.6,51.1 110.9,51.5C110.8,51.5 107.4,53 103.9,51.5C102.5,50.9 101.4,49.4 100.3,47.7C99.6,46.7 98.2,44.7 97.6,44.7C97.1,44.8 96,46.6 95.4,47.5C94,49.7 92.6,52.7 90.5,52.3C87.7,51.8 86.9,47.4 86,43.4C85.7,41.9 84.7,36.3 83.9,36.3C82.8,36.3 82.1,42.8 81.8,45.3C81.2,50.2 80.5,55.2 76.9,55C72.5,54.8 72.3,48.7 72.1,41.8C72,37.7 71.4,35.2 70.1,34C70,33.9 70.3,34.2 70.1,34C69.8,33.7 69.3,34 69.1,34.5C68,36.7 68,43.2 68.1,46.6C68.3,56.1 68.1,62.9 62.3,63.3L62,63.3L61.8,63.2Z" style="fill:rgb(103,118,244);fill-rule:nonzero;"/>
                <g>
                    <path d="M112.1,22.3L43.1,22.3C41.1,22.3 40.4,22.8 40.4,24.9L40.4,49.5C40.4,49.5 40.4,49.6 40.5,49.7C42.8,52.7 44.8,53.9 46,54.3C47.3,54.7 48.2,55.9 48.3,57.3C48.4,58.8 47.5,60.1 45.9,60.9C44.1,61.7 41.9,63 40.4,65.4L40.4,69C40.4,69.7 40.4,70.4 40.5,71.3L114.6,71.3L114.6,49.1C112.3,46.4 111,45.7 109.9,45.4C108.8,45 107.5,44 107.3,42.4C107.1,40.7 107.9,39.3 109.5,38.5C111,37.7 113.1,36.5 114.6,34.7L114.6,25.1C114.6,23 114,22.5 112,22.5L112.1,22.3Z" style="fill:none;fill-rule:nonzero;"/>
                    <path d="M31.1,72.6C32.3,73 33.2,73.7 33.9,74.1C34,74.2 34.2,74.3 34.3,74.4C35.2,75 35.7,74.8 36.1,74.6C36.3,74.5 36.4,74.2 36.4,73.9C36.2,72.4 35.9,68.7 37.7,65C37.8,64.7 38,64.4 38.2,64.1C38.8,63 39.6,62.1 40.4,61.3C41.8,59.9 43.4,59.1 44.8,58.4C45.3,58.2 45.9,57.7 45.9,57.1C45.9,56.7 45.6,56.3 45.2,56.2C44,55.8 42.3,54.9 40.4,52.9C39.8,52.3 39.2,51.6 38.6,50.8C38.3,50.3 38,49.9 37.7,49.4C36.1,46.5 36.2,43.2 36.5,40.9C36.5,40.4 36.2,39.9 35.7,39.7C35.3,39.6 34.9,39.7 34.6,39.8C33.7,40.4 32.4,41.2 30.9,41.9C29.9,42.3 28.8,42.7 27.7,42.9C27.1,43 26.5,43.1 25.8,43.1C22.5,43.1 19.3,41.4 17.1,39.9C16.6,39.6 16,39.6 15.5,39.9C15.3,40.1 15.2,40.5 15.3,41C15.5,42.3 15.9,46.8 13.2,50.7C11.4,53.3 8.7,55 6.7,56C5.9,56.4 5.7,56.8 5.8,57.4C5.8,58.1 6.7,58.4 6.7,58.4C8.2,58.9 9.9,59.8 12.6,62.9C15.8,66.7 15.4,71.6 15.3,73C15.3,73.4 15.3,74.2 15.8,74.6C16,74.8 16.8,74.8 17.3,74.4C18.5,73.5 19.5,72.9 20.4,72.4C21.5,71.9 22.8,71.5 23.7,71.4C24.1,70.5 24.9,69.9 25.9,69.9C26.9,69.9 27.3,70.2 27.8,70.8C27.9,71 28.1,71.2 28.2,71.4C28.9,71.4 29.8,71.8 31,72.2L31.2,72.2L31.1,72.6ZM32.7,49.6C33.3,49.6 33.8,50.1 33.8,50.7C33.8,51.3 33.3,51.8 32.7,51.8C32.1,51.8 31.6,51.3 31.6,50.7C31.6,50.1 32.1,49.6 32.7,49.6ZM32.7,52.9C33.3,52.9 33.8,53.4 33.8,54C33.8,54.6 33.3,55.1 32.7,55.1C32.1,55.1 31.6,54.6 31.6,54C31.6,53.4 32.1,52.9 32.7,52.9ZM32.7,56.2C33.3,56.2 33.8,56.7 33.8,57.3C33.8,57.9 33.3,58.4 32.7,58.4C32.1,58.4 31.6,57.9 31.6,57.3C31.6,56.7 32.1,56.2 32.7,56.2ZM32.7,59.6C33.3,59.6 33.8,60.1 33.8,60.7C33.8,61.3 33.3,61.8 32.7,61.8C32.1,61.8 31.6,61.3 31.6,60.7C31.6,60.1 32.1,59.6 32.7,59.6ZM32.7,62.9C33.3,62.9 33.8,63.4 33.8,64C33.8,64.6 33.3,65.1 32.7,65.1C32.1,65.1 31.6,64.6 31.6,64C31.6,63.4 32.1,62.9 32.7,62.9ZM19.1,65C18.5,65 18,64.5 18,63.9C18,63.3 18.5,62.8 19.1,62.8C19.7,62.8 20.2,63.3 20.2,63.9C20.2,64.5 19.7,65 19.1,65ZM19.1,61.7C18.5,61.7 18,61.2 18,60.6C18,60 18.5,59.5 19.1,59.5C19.7,59.5 20.2,60 20.2,60.6C20.2,61.2 19.7,61.7 19.1,61.7ZM19.1,58.3C18.5,58.3 18,57.8 18,57.2C18,56.6 18.5,56.1 19.1,56.1C19.7,56.1 20.2,56.6 20.2,57.2C20.2,57.8 19.7,58.3 19.1,58.3ZM19.1,55C18.5,55 18,54.5 18,53.9C18,53.3 18.5,52.8 19.1,52.8C19.7,52.8 20.2,53.3 20.2,53.9C20.2,54.5 19.7,55 19.1,55ZM19.1,51.7C18.5,51.7 18,51.2 18,50.6C18,50 18.5,49.5 19.1,49.5C19.7,49.5 20.2,50 20.2,50.6C20.2,51.2 19.7,51.7 19.1,51.7ZM22.5,65C21.9,65 21.4,64.5 21.4,63.9C21.4,63.3 21.9,62.8 22.5,62.8C23.1,62.8 23.6,63.3 23.6,63.9C23.6,64.5 23.1,65 22.5,65ZM22.5,61.7C21.9,61.7 21.4,61.2 21.4,60.6C21.4,60 21.9,59.5 22.5,59.5C23.1,59.5 23.6,60 23.6,60.6C23.6,61.2 23.1,61.7 22.5,61.7ZM22.5,58.3C21.9,58.3 21.4,57.8 21.4,57.2C21.4,56.6 21.9,56.1 22.5,56.1C23.1,56.1 23.6,56.6 23.6,57.2C23.6,57.8 23.1,58.3 22.5,58.3ZM22.5,55C21.9,55 21.4,54.5 21.4,53.9C21.4,53.3 21.9,52.8 22.5,52.8C23.1,52.8 23.6,53.3 23.6,53.9C23.6,54.5 23.1,55 22.5,55ZM22.5,51.7C21.9,51.7 21.4,51.2 21.4,50.6C21.4,50 21.9,49.5 22.5,49.5C23.1,49.5 23.6,50 23.6,50.6C23.6,51.2 23.1,51.7 22.5,51.7ZM25.9,65C25.3,65 24.8,64.5 24.8,63.9C24.8,63.3 25.3,62.8 25.9,62.8C26.5,62.8 27,63.3 27,63.9C27,64.5 26.5,65 25.9,65ZM25.9,61.7C25.3,61.7 24.8,61.2 24.8,60.6C24.8,60 25.3,59.5 25.9,59.5C26.5,59.5 27,60 27,60.6C27,61.2 26.5,61.7 25.9,61.7ZM25.9,58.3C25.3,58.3 24.8,57.8 24.8,57.2C24.8,56.6 25.3,56.1 25.9,56.1C26.5,56.1 27,56.6 27,57.2C27,57.8 26.5,58.3 25.9,58.3ZM25.9,55C25.3,55 24.8,54.5 24.8,53.9C24.8,53.3 25.3,52.8 25.9,52.8C26.5,52.8 27,53.3 27,53.9C27,54.5 26.5,55 25.9,55ZM25.9,51.7C25.3,51.7 24.8,51.2 24.8,50.6C24.8,50 25.3,49.5 25.9,49.5C26.5,49.5 27,50 27,50.6C27,51.2 26.5,51.7 25.9,51.7ZM29.3,65C28.7,65 28.2,64.5 28.2,63.9C28.2,63.3 28.7,62.8 29.3,62.8C29.9,62.8 30.4,63.3 30.4,63.9C30.4,64.5 29.9,65 29.3,65ZM29.3,61.7C28.7,61.7 28.2,61.2 28.2,60.6C28.2,60 28.7,59.5 29.3,59.5C29.9,59.5 30.4,60 30.4,60.6C30.4,61.2 29.9,61.7 29.3,61.7ZM29.3,58.3C28.7,58.3 28.2,57.8 28.2,57.2C28.2,56.6 28.7,56.1 29.3,56.1C29.9,56.1 30.4,56.6 30.4,57.2C30.4,57.8 29.9,58.3 29.3,58.3ZM29.3,55C28.7,55 28.2,54.5 28.2,53.9C28.2,53.3 28.7,52.8 29.3,52.8C29.9,52.8 30.4,53.3 30.4,53.9C30.4,54.5 29.9,55 29.3,55ZM29.3,51.7C28.7,51.7 28.2,51.2 28.2,50.6C28.2,50 28.7,49.5 29.3,49.5C29.9,49.5 30.4,50 30.4,50.6C30.4,51.2 29.9,51.7 29.3,51.7Z" style="fill:none;fill-rule:nonzero;"/>
                    <path d="M113.7,74.1L41.6,74.1C40.2,74.1 39.4,74 38.8,73.6C39,74.8 38.4,76 37.4,76.6C36.6,77.1 35.1,77.7 33,76.4L32.6,76.1C32.1,75.7 31.5,75.4 30.9,75L30.9,80.1L124.1,80.1L124.1,59.7C123.6,60 123.1,60.3 122.5,60.8C121.8,61.3 120.9,61.6 120.1,61.6C119.3,61.6 118.7,61.4 118.2,61C117.8,60.7 117.6,60.4 117.3,60L117.3,70.5C117.3,73.3 116.6,74 113.7,74L113.7,74.1Z" style="fill:none;fill-rule:nonzero;"/>
                    <path d="M26.8,89.7L129.9,89.7C132.5,89.3 134.1,86.6 134.2,83.6L20.9,83.6C20.9,87.4 22.9,89.8 26.9,89.8L26.8,89.7Z" style="fill:none;fill-rule:nonzero;"/>
                    <path d="M117.6,12.5L37.5,12.5C32.7,12.5 30.9,14.8 30.9,19.7L30.9,39.5C31.8,39 32.7,38.5 33.2,38.1C34.1,37.4 35.3,37.3 36.4,37.7C36.9,37.9 37.3,38.1 37.7,38.5L37.7,23.1C37.7,20.1 38.3,19.5 41.2,19.5L113.7,19.5C116.6,19.5 117.2,20.1 117.2,23.1L117.2,23.3C117.4,23 117.6,22.8 117.9,22.6C119.2,21.6 121,21.6 122.3,22.5C122.8,22.8 123.4,23.2 124,23.6L124,19.6C124,15 122.2,12.6 117.5,12.6L117.6,12.5Z" style="fill:none;fill-rule:nonzero;"/>
                    <path d="M149.1,40.8C147.6,40.3 145.2,38.9 142.5,35.4C140,32.2 140.1,28.2 140.4,25.5C140.4,25 140.1,24.5 139.6,24.3C139.2,24.2 138.8,24.3 138.5,24.4C136.8,25.6 133.4,27.6 129.7,27.6C126,27.6 128.1,27.5 127.3,27.3C126.2,27 125.1,26.6 124.1,26.2C122.9,25.6 121.9,25 121,24.4C120.5,24.1 119.9,24.1 119.4,24.4C119.2,24.6 119.1,25 119.2,25.5C119.4,26.8 119.7,31.1 117.3,34.9C117.3,35 117.2,35.1 117.1,35.2C116.4,36.2 115.5,37.1 114.6,37.9C113.2,39 111.8,39.9 110.6,40.5C109.8,40.9 109.6,41.3 109.7,41.9C109.7,42.6 110.6,42.9 110.6,42.9C111.7,43.3 112.9,43.8 114.6,45.4C115.2,45.9 115.8,46.6 116.5,47.4C116.8,47.7 117,48.1 117.3,48.5C119.6,52.1 119.3,56.3 119.2,57.6C119.2,58 119.2,58.8 119.7,59.2C119.9,59.4 120.7,59.4 121.2,59C122.4,58.1 123.3,57.5 124.2,57.1L124.3,57.1C125.4,56.6 126.5,56.3 127.3,56.2L127.5,56.2C127.9,55.3 128.7,54.7 129.7,54.7C130.7,54.7 131.5,55.3 131.9,56.2C132.6,56.2 133.7,56.6 134.9,57.1C136.1,57.5 137,58.1 137.7,58.6L138.1,58.9C139,59.5 139.5,59.3 139.9,59.1C140.1,59 140.2,58.7 140.2,58.4C140,56.8 139.7,52.6 142,48.7C143.8,45.6 146.5,44.1 148.6,43C149.1,42.8 149.7,42.3 149.7,41.7C149.7,41.3 149.4,40.9 149,40.8L149.1,40.8ZM122.9,49.4C122.3,49.4 121.8,48.9 121.8,48.3C121.8,47.7 122.3,47.2 122.9,47.2C123.5,47.2 124,47.7 124,48.3C124,48.9 123.5,49.4 122.9,49.4ZM122.9,46C122.3,46 121.8,45.5 121.8,44.9C121.8,44.3 122.3,43.8 122.9,43.8C123.5,43.8 124,44.3 124,44.9C124,45.5 123.5,46 122.9,46ZM122.9,42.7C122.3,42.7 121.8,42.2 121.8,41.6C121.8,41 122.3,40.5 122.9,40.5C123.5,40.5 124,41 124,41.6C124,42.2 123.5,42.7 122.9,42.7ZM122.9,39.4C122.3,39.4 121.8,38.9 121.8,38.3C121.8,37.7 122.3,37.2 122.9,37.2C123.5,37.2 124,37.7 124,38.3C124,38.9 123.5,39.4 122.9,39.4ZM122.9,36C122.3,36 121.8,35.5 121.8,34.9C121.8,34.3 122.3,33.8 122.9,33.8C123.5,33.8 124,34.3 124,34.9C124,35.5 123.5,36 122.9,36ZM126.4,49.4C125.8,49.4 125.3,48.9 125.3,48.3C125.3,47.7 125.8,47.2 126.4,47.2C127,47.2 127.5,47.7 127.5,48.3C127.5,48.9 127,49.4 126.4,49.4ZM126.4,46C125.8,46 125.3,45.5 125.3,44.9C125.3,44.3 125.8,43.8 126.4,43.8C127,43.8 127.5,44.3 127.5,44.9C127.5,45.5 127,46 126.4,46ZM126.4,42.7C125.8,42.7 125.3,42.2 125.3,41.6C125.3,41 125.8,40.5 126.4,40.5C127,40.5 127.5,41 127.5,41.6C127.5,42.2 127,42.7 126.4,42.7ZM126.4,39.4C125.8,39.4 125.3,38.9 125.3,38.3C125.3,37.7 125.8,37.2 126.4,37.2C127,37.2 127.5,37.7 127.5,38.3C127.5,38.9 127,39.4 126.4,39.4ZM126.4,36C125.8,36 125.3,35.5 125.3,34.9C125.3,34.3 125.8,33.8 126.4,33.8C127,33.8 127.5,34.3 127.5,34.9C127.5,35.5 127,36 126.4,36ZM129.8,49.4C129.2,49.4 128.7,48.9 128.7,48.3C128.7,47.7 129.2,47.2 129.8,47.2C130.4,47.2 130.9,47.7 130.9,48.3C130.9,48.9 130.4,49.4 129.8,49.4ZM129.8,46C129.2,46 128.7,45.5 128.7,44.9C128.7,44.3 129.2,43.8 129.8,43.8C130.4,43.8 130.9,44.3 130.9,44.9C130.9,45.5 130.4,46 129.8,46ZM129.8,42.7C129.2,42.7 128.7,42.2 128.7,41.6C128.7,41 129.2,40.5 129.8,40.5C130.4,40.5 130.9,41 130.9,41.6C130.9,42.2 130.4,42.7 129.8,42.7ZM129.8,39.4C129.2,39.4 128.7,38.9 128.7,38.3C128.7,37.7 129.2,37.2 129.8,37.2C130.4,37.2 130.9,37.7 130.9,38.3C130.9,38.9 130.4,39.4 129.8,39.4ZM129.8,36C129.2,36 128.7,35.5 128.7,34.9C128.7,34.3 129.2,33.8 129.8,33.8C130.4,33.8 130.9,34.3 130.9,34.9C130.9,35.5 130.4,36 129.8,36ZM133.2,49.4C132.6,49.4 132.1,48.9 132.1,48.3C132.1,47.7 132.6,47.2 133.2,47.2C133.8,47.2 134.3,47.7 134.3,48.3C134.3,48.9 133.8,49.4 133.2,49.4ZM133.2,46C132.6,46 132.1,45.5 132.1,44.9C132.1,44.3 132.6,43.8 133.2,43.8C133.8,43.8 134.3,44.3 134.3,44.9C134.3,45.5 133.8,46 133.2,46ZM133.2,42.7C132.6,42.7 132.1,42.2 132.1,41.6C132.1,41 132.6,40.5 133.2,40.5C133.8,40.5 134.3,41 134.3,41.6C134.3,42.2 133.8,42.7 133.2,42.7ZM133.2,39.4C132.6,39.4 132.1,38.9 132.1,38.3C132.1,37.7 132.6,37.2 133.2,37.2C133.8,37.2 134.3,37.7 134.3,38.3C134.3,38.9 133.8,39.4 133.2,39.4ZM133.2,36C132.6,36 132.1,35.5 132.1,34.9C132.1,34.3 132.6,33.8 133.2,33.8C133.8,33.8 134.3,34.3 134.3,34.9C134.3,35.5 133.8,36 133.2,36ZM136.6,49.4C136,49.4 135.5,48.9 135.5,48.3C135.5,47.7 136,47.2 136.6,47.2C137.2,47.2 137.7,47.7 137.7,48.3C137.7,48.9 137.2,49.4 136.6,49.4ZM136.6,46C136,46 135.5,45.5 135.5,44.9C135.5,44.3 136,43.8 136.6,43.8C137.2,43.8 137.7,44.3 137.7,44.9C137.7,45.5 137.2,46 136.6,46ZM136.6,42.7C136,42.7 135.5,42.2 135.5,41.6C135.5,41 136,40.5 136.6,40.5C137.2,40.5 137.7,41 137.7,41.6C137.7,42.2 137.2,42.7 136.6,42.7ZM136.6,39.4C136,39.4 135.5,38.9 135.5,38.3C135.5,37.7 136,37.2 136.6,37.2C137.2,37.2 137.7,37.7 137.7,38.3C137.7,38.9 137.2,39.4 136.6,39.4ZM136.6,36C136,36 135.5,35.5 135.5,34.9C135.5,34.3 136,33.8 136.6,33.8C137.2,33.8 137.7,34.3 137.7,34.9C137.7,35.5 137.2,36 136.6,36Z" style="fill:none;fill-rule:nonzero;"/>
                    <path d="M149.9,38.5C148.7,38.1 146.7,37 144.4,33.9C142.4,31.3 142.5,28 142.8,25.8C143,24.1 142,22.6 140.3,22C139.2,21.6 138,21.8 137.1,22.4C135.6,23.4 132.7,25.2 129.7,25.2C126.7,25.2 128.1,25 127.3,24.8C126.2,24.5 125.1,24 124.1,23.4C123.4,23 122.8,22.6 122.4,22.3C121.1,21.4 119.3,21.4 118,22.4C117.7,22.6 117.5,22.8 117.3,23.1C116.8,23.8 116.7,24.7 116.8,25.7C117,26.8 117.3,30.5 115.1,33.7C114.9,33.9 114.8,34.1 114.6,34.3C113.1,36.1 111.1,37.4 109.5,38.1C107.9,38.9 107.1,40.3 107.3,42C107.5,43.7 108.8,44.7 109.9,45C111,45.4 112.3,46.1 114.6,48.7C117.1,51.7 116.9,55.8 116.7,57C116.6,58 116.7,59 117.2,59.8C117.4,60.2 117.7,60.5 118.1,60.8C118.6,61.2 119.3,61.4 120,61.4C120.7,61.4 121.8,61.1 122.4,60.6C123,60.2 123.5,59.8 124,59.5C124.4,59.3 124.8,59 125.1,58.9C125.9,58.5 126.6,58.3 127.1,58.2L127.6,58.2C128.9,58.1 129.4,57.2 129.5,56.9L129.5,56.8C129.8,57.6 130.5,58.1 131.3,58.2C131.6,58.2 132.3,58.4 133.9,58.9C134.8,59.2 135.5,59.7 136.2,60.2C136.4,60.3 136.5,60.4 136.7,60.5C138.7,61.8 140.3,61.2 141.1,60.7C142.1,60.1 142.7,58.9 142.5,57.7C142.3,56.3 142.1,52.8 144,49.5C145.5,47 147.8,45.7 149.6,44.8C151.3,44 152.2,42.7 152,41.2C152,39.8 151,38.6 149.7,38.2L149.9,38.5ZM148.7,42.9C146.6,43.9 143.9,45.5 142.1,48.6C139.8,52.5 140.1,56.7 140.3,58.3C140.3,58.6 140.3,58.8 140,59C139.7,59.2 139.2,59.4 138.2,58.8L137.8,58.5C137.1,58 136.2,57.4 135,57C133.7,56.5 132.7,56.2 132,56.1C131.6,55.2 130.8,54.6 129.8,54.6C128.8,54.6 128,55.1 127.6,56.1L127.4,56.1C126.5,56.2 125.4,56.6 124.4,57L124.3,57C123.4,57.4 122.5,58 121.3,58.9C120.8,59.3 120.1,59.3 119.8,59.1C119.3,58.7 119.3,57.9 119.3,57.5C119.5,56.2 119.8,52 117.4,48.4C117.2,48 116.9,47.7 116.6,47.3C115.9,46.5 115.3,45.8 114.7,45.3C113,43.7 111.8,43.2 110.7,42.8C110.7,42.8 109.8,42.5 109.8,41.8C109.8,41.2 109.8,40.8 110.7,40.4C111.9,39.8 113.3,39 114.7,37.8C115.6,37 116.5,36.1 117.2,35.1C117.2,35 117.3,34.9 117.4,34.8C119.8,31 119.5,26.7 119.3,25.4C119.3,24.9 119.3,24.5 119.5,24.3C120,23.9 120.6,23.9 121.1,24.3C122,24.9 123,25.5 124.2,26.1C125.2,26.6 126.3,27 127.4,27.2C128.2,27.4 129,27.5 129.8,27.5C133.4,27.5 136.8,25.5 138.6,24.3C138.9,24.1 139.3,24 139.7,24.2C140.2,24.4 140.5,24.9 140.5,25.4C140.2,28.1 140.1,32 142.6,35.3C145.3,38.8 147.7,40.2 149.2,40.7C149.6,40.8 149.8,41.2 149.9,41.6C149.9,42.2 149.3,42.6 148.8,42.9L148.7,42.9Z" style="fill:rgb(103,118,244);fill-rule:nonzero;"/>
                    <circle cx="122.9" cy="35" r="1.1" style="fill:rgb(103,118,244);"/>
                    <circle cx="126.4" cy="35" r="1.1" style="fill:rgb(103,118,244);"/>
                    <circle cx="129.8" cy="35" r="1.1" style="fill:rgb(103,118,244);"/>
                    <circle cx="133.2" cy="35" r="1.1" style="fill:rgb(103,118,244);"/>
                    <circle cx="122.9" cy="38.3" r="1.1" style="fill:rgb(103,118,244);"/>
                    <circle cx="126.4" cy="38.3" r="1.1" style="fill:rgb(103,118,244);"/>
                    <circle cx="129.8" cy="38.3" r="1.1" style="fill:rgb(103,118,244);"/>
                    <circle cx="133.2" cy="38.3" r="1.1" style="fill:rgb(103,118,244);"/>
                    <circle cx="122.9" cy="41.6" r="1.1" style="fill:rgb(103,118,244);"/>
                    <circle cx="126.4" cy="41.6" r="1.1" style="fill:rgb(103,118,244);"/>
                    <circle cx="129.8" cy="41.6" r="1.1" style="fill:rgb(103,118,244);"/>
                    <circle cx="133.2" cy="41.6" r="1.1" style="fill:rgb(103,118,244);"/>
                    <circle cx="122.9" cy="45" r="1.1" style="fill:rgb(103,118,244);"/>
                    <circle cx="126.4" cy="45" r="1.1" style="fill:rgb(103,118,244);"/>
                    <circle cx="129.8" cy="45" r="1.1" style="fill:rgb(103,118,244);"/>
                    <circle cx="133.2" cy="45" r="1.1" style="fill:rgb(103,118,244);"/>
                    <circle cx="136.6" cy="35" r="1.1" style="fill:rgb(103,118,244);"/>
                    <circle cx="136.6" cy="38.3" r="1.1" style="fill:rgb(103,118,244);"/>
                    <circle cx="136.6" cy="41.6" r="1.1" style="fill:rgb(103,118,244);"/>
                    <circle cx="136.6" cy="45" r="1.1" style="fill:rgb(103,118,244);"/>
                    <circle cx="122.9" cy="48.3" r="1.1" style="fill:rgb(103,118,244);"/>
                    <circle cx="126.4" cy="48.3" r="1.1" style="fill:rgb(103,118,244);"/>
                    <circle cx="129.8" cy="48.3" r="1.1" style="fill:rgb(103,118,244);"/>
                    <circle cx="133.2" cy="48.3" r="1.1" style="fill:rgb(103,118,244);"/>
                    <circle cx="136.6" cy="48.3" r="1.1" style="fill:rgb(103,118,244);"/>
                    <path d="M124.1,59.9L124.1,80.3L30.9,80.3L30.9,75.2C30.7,75.1 30.5,75 30.3,74.9C28.8,74.3 28.1,74.2 27.8,74.2L27.8,80.4C25.5,80.4 23.5,80.2 21.5,80.4C20.2,80.6 17.8,80.4 17.8,83.1L17.8,86.3C17.8,91.3 24,92.8 30.1,92.8C61.9,92.6 93.7,92.8 125.5,92.8C133,92.8 137.4,91.2 137.2,83.8C137.2,81.3 136.4,80.5 133.8,80.5L127.3,80.5L127.3,58.8C126.8,58.9 126.1,59.1 125.3,59.5C124.9,59.7 124.6,59.9 124.2,60.1L124.1,59.9ZM134.2,83.5C134.2,86.6 132.6,89.3 129.9,89.6L26.8,89.6C22.8,89.6 20.9,87.2 20.8,83.4L134.1,83.4L134.2,83.5Z" style="fill:rgb(103,118,244);fill-rule:nonzero;"/>
                    <path d="M30.9,19.7C30.9,14.9 32.7,12.5 37.5,12.5L117.6,12.5C122.3,12.5 124.1,14.9 124.1,19.5L124.1,23.5C125,24 126.1,24.5 127.3,24.9L127.3,20.9C127.3,13.3 123.4,9.4 115.8,9.4L39.3,9.4C31.7,9.4 27.8,13.3 27.8,20.8L27.8,40.6C28.9,40.4 30,39.9 31,39.4L31,19.6L30.9,19.7Z" style="fill:rgb(103,118,244);fill-rule:nonzero;"/>
                    <path d="M114.6,71.2L40.6,71.2C40.6,70.3 40.5,69.6 40.5,68.9L40.5,65.3C40.5,65.3 40.5,65.4 40.4,65.5C38.5,68.8 38.7,72.3 38.9,73.7C39.5,74.1 40.4,74.2 41.7,74.2L113.8,74.2C116.7,74.2 117.4,73.5 117.4,70.7L117.4,60.2C116.9,59.4 116.8,58.5 116.9,57.4C117,56.2 117.3,52.1 114.8,49.1L114.8,71.3L114.6,71.2Z" style="fill:rgb(103,118,244);fill-rule:nonzero;"/>
                    <path d="M114,19.4L41.3,19.4C38.4,19.4 37.8,20 37.8,23L37.8,38.4C38.7,39.2 39.1,40.3 39,41.4C38.8,43.6 38.7,46.8 40.5,49.4L40.5,24.8C40.5,22.7 41.2,22.2 43.2,22.2L112.2,22.2C114.3,22.2 114.9,22.8 114.8,24.8L114.8,34.4C115,34.2 115.1,34 115.3,33.8C117.5,30.7 117.1,26.9 117,25.8C116.9,24.8 117,23.9 117.5,23.2L117.5,23C117.5,20 116.9,19.4 114,19.4Z" style="fill:rgb(103,118,244);fill-rule:nonzero;"/>
                    <path d="M30.9,75.1C31.5,75.4 32.1,75.8 32.6,76.2L33,76.5C35,77.8 36.6,77.2 37.4,76.7C38.4,76.1 38.9,74.9 38.8,73.7C38.6,72.3 38.4,68.8 40.3,65.5C40.3,65.5 40.3,65.4 40.4,65.3C41.9,62.9 44.1,61.7 45.9,60.8C47.6,60 48.5,58.7 48.3,57.2C48.3,55.8 47.3,54.6 46,54.2C44.8,53.8 42.8,52.7 40.5,49.6C40.5,49.6 40.5,49.5 40.4,49.4C38.6,46.9 38.6,43.6 38.9,41.4C39,40.2 38.6,39.1 37.7,38.4C37.3,38.1 36.9,37.8 36.4,37.6C35.3,37.2 34.1,37.4 33.2,38C32.6,38.4 31.8,38.9 30.9,39.4C30,39.9 28.9,40.3 27.7,40.6C27.1,40.7 26.5,40.8 25.8,40.8C23,40.8 20,39 18.5,38C17.2,37.1 15.4,37.1 14.1,38.1C13.2,38.8 12.7,40 12.9,41.4C13.1,42.5 13.4,46.2 11.2,49.4C9.7,51.6 7.3,53 5.6,53.9C4,54.7 3.2,56.1 3.4,57.8C3.6,59.5 4.9,60.5 6,60.8C7.1,61.2 8.5,61.9 10.8,64.6C13.3,67.6 13.1,71.7 12.9,72.9C12.7,74.5 13.2,75.9 14.3,76.7C14.8,77.1 15.5,77.3 16.2,77.3C16.9,77.3 18,77 18.6,76.5C19.7,75.7 20.5,75.2 21.3,74.8C22.4,74.3 23.4,74.1 23.8,74C25.1,73.9 25.6,73 25.7,72.7L25.7,72.6C26,73.4 26.7,73.9 27.5,74C27.8,74 28.6,74.2 30,74.7C30.2,74.7 30.4,74.9 30.6,75L30.9,75.1ZM27.7,71.1C27.2,70.5 26.6,70.2 25.8,70.2C25,70.2 24,70.7 23.6,71.7C22.7,71.7 21.5,72.1 20.3,72.7C19.3,73.1 18.4,73.7 17.2,74.7C16.7,75.1 16,75.1 15.7,74.9C15.2,74.5 15.2,73.7 15.2,73.3C15.4,71.9 15.7,66.9 12.5,63.2C9.8,60 8.1,59.1 6.6,58.7C6.6,58.7 5.7,58.4 5.7,57.7C5.7,57.1 5.7,56.7 6.6,56.3C8.6,55.3 11.3,53.6 13.1,51C15.8,47.1 15.4,42.6 15.2,41.3C15.2,40.8 15.2,40.4 15.4,40.2C15.9,39.8 16.5,39.8 17,40.2C19.2,41.7 22.4,43.4 25.7,43.4C29,43.4 27,43.4 27.6,43.2C28.7,43 29.8,42.7 30.8,42.2C32.3,41.5 33.7,40.7 34.5,40.1C34.8,39.9 35.2,39.8 35.6,40C36.1,40.2 36.4,40.7 36.4,41.2C36.2,43.5 36.1,46.7 37.6,49.7C37.9,50.2 38.1,50.6 38.5,51.1C39.1,51.9 39.7,52.6 40.3,53.2C42.2,55.2 43.9,56.1 45.1,56.5C45.5,56.6 45.7,57 45.8,57.4C45.8,58 45.2,58.4 44.7,58.7C43.3,59.4 41.7,60.2 40.3,61.6C39.5,62.4 38.7,63.3 38.1,64.4C37.9,64.7 37.8,65 37.6,65.3C35.8,69 36.1,72.7 36.3,74.2C36.3,74.5 36.3,74.7 36,74.9C35.7,75.1 35.2,75.3 34.2,74.7C34.1,74.7 33.9,74.5 33.8,74.4C33.1,73.9 32.2,73.3 31,72.9L30.8,72.9C29.6,72.5 28.7,72.2 28,72.1C27.9,71.9 27.8,71.7 27.6,71.5L27.7,71.1Z" style="fill:rgb(103,118,244);fill-rule:nonzero;"/>
                    <circle cx="19.1" cy="50.6" r="1.1" style="fill:rgb(103,118,244);"/>
                    <circle cx="22.5" cy="50.6" r="1.1" style="fill:rgb(103,118,244);"/>
                    <circle cx="25.9" cy="50.6" r="1.1" style="fill:rgb(103,118,244);"/>
                    <circle cx="29.3" cy="50.6" r="1.1" style="fill:rgb(103,118,244);"/>
                    <circle cx="19.1" cy="53.9" r="1.1" style="fill:rgb(103,118,244);"/>
                    <circle cx="22.5" cy="53.9" r="1.1" style="fill:rgb(103,118,244);"/>
                    <circle cx="25.9" cy="53.9" r="1.1" style="fill:rgb(103,118,244);"/>
                    <circle cx="29.3" cy="53.9" r="1.1" style="fill:rgb(103,118,244);"/>
                    <path d="M19.1,56.2C18.5,56.2 18,56.7 18,57.3C18,57.9 18.5,58.4 19.1,58.4C19.7,58.4 20.2,57.9 20.2,57.3C20.2,56.7 19.7,56.2 19.1,56.2Z" style="fill:rgb(103,118,244);fill-rule:nonzero;"/>
                    <path d="M22.5,56.2C21.9,56.2 21.4,56.7 21.4,57.3C21.4,57.9 21.9,58.4 22.5,58.4C23.1,58.4 23.6,57.9 23.6,57.3C23.6,56.7 23.1,56.2 22.5,56.2Z" style="fill:rgb(103,118,244);fill-rule:nonzero;"/>
                    <path d="M25.9,56.2C25.3,56.2 24.8,56.7 24.8,57.3C24.8,57.9 25.3,58.4 25.9,58.4C26.5,58.4 27,57.9 27,57.3C27,56.7 26.5,56.2 25.9,56.2Z" style="fill:rgb(103,118,244);fill-rule:nonzero;"/>
                    <path d="M29.3,56.2C28.7,56.2 28.2,56.7 28.2,57.3C28.2,57.9 28.7,58.4 29.3,58.4C29.9,58.4 30.4,57.9 30.4,57.3C30.4,56.7 29.9,56.2 29.3,56.2Z" style="fill:rgb(103,118,244);fill-rule:nonzero;"/>
                    <circle cx="19.1" cy="60.6" r="1.1" style="fill:rgb(103,118,244);"/>
                    <circle cx="22.5" cy="60.6" r="1.1" style="fill:rgb(103,118,244);"/>
                    <circle cx="25.9" cy="60.6" r="1.1" style="fill:rgb(103,118,244);"/>
                    <circle cx="29.3" cy="60.6" r="1.1" style="fill:rgb(103,118,244);"/>
                    <circle cx="32.7" cy="50.6" r="1.1" style="fill:rgb(103,118,244);"/>
                    <circle cx="32.7" cy="53.9" r="1.1" style="fill:rgb(103,118,244);"/>
                    <path d="M32.7,58.3C33.3,58.3 33.8,57.8 33.8,57.2C33.8,56.6 33.3,56.1 32.7,56.1C32.1,56.1 31.6,56.6 31.6,57.2C31.6,57.8 32.1,58.3 32.7,58.3Z" style="fill:rgb(103,118,244);fill-rule:nonzero;"/>
                    <circle cx="32.7" cy="60.6" r="1.1" style="fill:rgb(103,118,244);"/>
                    <circle cx="19.1" cy="64" r="1.1" style="fill:rgb(103,118,244);"/>
                    <circle cx="22.5" cy="64" r="1.1" style="fill:rgb(103,118,244);"/>
                    <circle cx="25.9" cy="64" r="1.1" style="fill:rgb(103,118,244);"/>
                    <circle cx="29.3" cy="64" r="1.1" style="fill:rgb(103,118,244);"/>
                    <circle cx="32.7" cy="64" r="1.1" style="fill:rgb(103,118,244);"/>
                </g>
            </g>
        </g>
    </g>
</svg>
