<?xml version="1.0" encoding="UTF-8"?>
<svg xmlns="http://www.w3.org/2000/svg" version="1.1" viewBox="0 0 164.1 130.8">
  <defs>
    <style>
      .cls-1 {
        fill: none;
      }
    </style>
  </defs>
  <!-- Generator: Adobe Illustrator 28.6.0, SVG Export Plug-In . SVG Version: 1.2.0 Build 709)  -->
  <g>
    <g id="Ebene_1">
      <path d="M61.8,63.2c-3.9,0-4.2-3.7-4.6-9.2-.3-3.6-.7-9.1-2.3-9.5-.5.1-.8,2-1.5,3-1.1,1.7-2.2,3.3-3.6,3.9-2.5,1-4.5,0-4.7,0-.7-.3-1-1.2-.6-1.9s1.2-1,1.9-.6c0,0,1.1.5,2.4,0,.6-.2,1.6-1.7,2.3-2.8,1.5-2.3,2.2-4.7,4.5-4.2,3.6.9,4,6.3,4.5,12,.2,3.2.5,6.6,1.8,6.6s0,0,0,0c3-.2,3.4-6.7,3.1-13.7s-.3-11.4,1.8-14.2,1.6-1.6,2.7-1.7c1,0,1.6.4,2.3,1,2.1,2,2.8,4.3,2.9,9.8.1,4.3.3,10.4,2.1,10.5h0c1,0,1.7-5.1,2-7.3.7-5.1,1.3-11.3,4.8-11.4,3.1-.2,4.1,5.4,5,9.3.5,2,1.3,6.5,2.2,6.7.4-.1,1.5-2.6,2.1-3.5,1.3-2,2.6-4.1,4.6-4.1s3.6,2.1,5,4.2c.8,1.1,1.8,2.5,2.4,2.8,2.4,1,4.8,0,4.8,0,.7-.3,1.6,0,1.9.7.3.7,0,1.5-.7,1.9-.1,0-3.5,1.5-7,0-1.4-.6-2.5-2.1-3.6-3.8-.7-1-2.1-3-2.7-3-.5.1-1.6,1.9-2.2,2.8-1.4,2.2-2.8,5.2-4.9,4.8-2.8-.5-3.6-4.9-4.5-8.9-.3-1.5-1.3-7.1-2.1-7.1h0c-1.1,0-1.8,6.5-2.1,9-.6,4.9-1.3,9.9-4.9,9.7-4.4-.2-4.6-6.3-4.8-13.2-.1-4.1-.7-6.6-2-7.8-.1-.1.2.2,0,0-.3-.3-.8,0-1,.5-1.1,2.2-1.1,8.7-1,12.1.2,9.5,0,16.3-5.8,16.7,0,0-.2,0-.3,0Z"/>
      <g>
        <path class="cls-1" d="M112.1,22.3c-23,0-46,0-69,0-2,0-2.7.5-2.7,2.6,0,7.9,0,16.3,0,24.6,0,0,0,.1.1.2,2.3,3,4.3,4.2,5.5,4.6,1.3.4,2.2,1.6,2.3,3,.1,1.5-.8,2.8-2.4,3.6-1.8.8-4,2.1-5.5,4.5,0,1.2,0,2.4,0,3.6,0,.7,0,1.4.1,2.3h74.1v-2.5c0-6.4,0-13,0-19.7-2.3-2.7-3.6-3.4-4.7-3.7-1.1-.4-2.4-1.4-2.6-3-.2-1.7.6-3.1,2.2-3.9,1.5-.8,3.6-2,5.1-3.8,0-3.2,0-6.5,0-9.6,0-2.1-.6-2.6-2.6-2.6Z"/>
        <path class="cls-1" d="M31.1,72.6c1.2.4,2.1,1.1,2.8,1.5.1.1.3.2.4.3.9.6,1.4.4,1.8.2.2-.1.3-.4.3-.7-.2-1.5-.5-5.2,1.3-8.9.1-.3.3-.6.5-.9.6-1.1,1.4-2,2.2-2.8,1.4-1.4,3-2.2,4.4-2.9.5-.2,1.1-.7,1.1-1.3,0-.4-.3-.8-.7-.9-1.2-.4-2.9-1.3-4.8-3.3-.6-.6-1.2-1.3-1.8-2.1-.3-.5-.6-.9-.9-1.4-1.6-2.9-1.5-6.2-1.2-8.5,0-.5-.3-1-.8-1.2-.4-.1-.8,0-1.1.1-.9.6-2.2,1.4-3.7,2.1-1,.4-2.1.8-3.2,1-.6.1-1.2.2-1.9.2-3.3,0-6.5-1.7-8.7-3.2-.5-.3-1.1-.3-1.6,0-.2.2-.3.6-.2,1.1.2,1.3.6,5.8-2.1,9.7-1.8,2.6-4.5,4.3-6.5,5.3-.8.4-1,.8-.9,1.4,0,.7.9,1,.9,1,1.5.5,3.2,1.4,5.9,4.5,3.2,3.8,2.8,8.7,2.7,10.1,0,.4,0,1.2.5,1.6.2.2,1,.2,1.5-.2,1.2-.9,2.2-1.5,3.1-2,1.1-.5,2.4-.9,3.3-1,.4-.9,1.2-1.5,2.2-1.5s1.4.3,1.9.9c.1.2.3.4.4.6.7,0,1.6.4,2.8.8,0,0,.1,0,.2,0ZM32.7,49.6c.6,0,1.1.5,1.1,1.1s-.5,1.1-1.1,1.1-1.1-.5-1.1-1.1.5-1.1,1.1-1.1ZM32.7,52.9c.6,0,1.1.5,1.1,1.1s-.5,1.1-1.1,1.1-1.1-.5-1.1-1.1.5-1.1,1.1-1.1ZM32.7,56.2c.6,0,1.1.5,1.1,1.1s-.5,1.1-1.1,1.1-1.1-.5-1.1-1.1.5-1.1,1.1-1.1ZM32.7,59.6c.6,0,1.1.5,1.1,1.1s-.5,1.1-1.1,1.1-1.1-.5-1.1-1.1.5-1.1,1.1-1.1ZM32.7,62.9c.6,0,1.1.5,1.1,1.1s-.5,1.1-1.1,1.1-1.1-.5-1.1-1.1.5-1.1,1.1-1.1ZM19.1,65c-.6,0-1.1-.5-1.1-1.1s.5-1.1,1.1-1.1,1.1.5,1.1,1.1-.5,1.1-1.1,1.1ZM19.1,61.7c-.6,0-1.1-.5-1.1-1.1s.5-1.1,1.1-1.1,1.1.5,1.1,1.1-.5,1.1-1.1,1.1ZM19.1,58.3c-.6,0-1.1-.5-1.1-1.1s.5-1.1,1.1-1.1,1.1.5,1.1,1.1-.5,1.1-1.1,1.1ZM19.1,55c-.6,0-1.1-.5-1.1-1.1s.5-1.1,1.1-1.1,1.1.5,1.1,1.1-.5,1.1-1.1,1.1ZM19.1,51.7c-.6,0-1.1-.5-1.1-1.1s.5-1.1,1.1-1.1,1.1.5,1.1,1.1-.5,1.1-1.1,1.1ZM22.5,65c-.6,0-1.1-.5-1.1-1.1s.5-1.1,1.1-1.1,1.1.5,1.1,1.1-.5,1.1-1.1,1.1ZM22.5,61.7c-.6,0-1.1-.5-1.1-1.1s.5-1.1,1.1-1.1,1.1.5,1.1,1.1-.5,1.1-1.1,1.1ZM22.5,58.3c-.6,0-1.1-.5-1.1-1.1s.5-1.1,1.1-1.1,1.1.5,1.1,1.1-.5,1.1-1.1,1.1ZM22.5,55c-.6,0-1.1-.5-1.1-1.1s.5-1.1,1.1-1.1,1.1.5,1.1,1.1-.5,1.1-1.1,1.1ZM22.5,51.7c-.6,0-1.1-.5-1.1-1.1s.5-1.1,1.1-1.1,1.1.5,1.1,1.1-.5,1.1-1.1,1.1ZM25.9,65c-.6,0-1.1-.5-1.1-1.1s.5-1.1,1.1-1.1,1.1.5,1.1,1.1-.5,1.1-1.1,1.1ZM25.9,61.7c-.6,0-1.1-.5-1.1-1.1s.5-1.1,1.1-1.1,1.1.5,1.1,1.1-.5,1.1-1.1,1.1ZM25.9,58.3c-.6,0-1.1-.5-1.1-1.1s.5-1.1,1.1-1.1,1.1.5,1.1,1.1-.5,1.1-1.1,1.1ZM25.9,55c-.6,0-1.1-.5-1.1-1.1s.5-1.1,1.1-1.1,1.1.5,1.1,1.1-.5,1.1-1.1,1.1ZM25.9,51.7c-.6,0-1.1-.5-1.1-1.1s.5-1.1,1.1-1.1,1.1.5,1.1,1.1-.5,1.1-1.1,1.1ZM29.3,65c-.6,0-1.1-.5-1.1-1.1s.5-1.1,1.1-1.1,1.1.5,1.1,1.1-.5,1.1-1.1,1.1ZM29.3,61.7c-.6,0-1.1-.5-1.1-1.1s.5-1.1,1.1-1.1,1.1.5,1.1,1.1-.5,1.1-1.1,1.1ZM29.3,58.3c-.6,0-1.1-.5-1.1-1.1s.5-1.1,1.1-1.1,1.1.5,1.1,1.1-.5,1.1-1.1,1.1ZM29.3,55c-.6,0-1.1-.5-1.1-1.1s.5-1.1,1.1-1.1,1.1.5,1.1,1.1-.5,1.1-1.1,1.1ZM29.3,51.7c-.6,0-1.1-.5-1.1-1.1s.5-1.1,1.1-1.1,1.1.5,1.1,1.1-.5,1.1-1.1,1.1Z"/>
        <path class="cls-1" d="M113.7,74.1c-12.1,0-24.1,0-36.2,0-12,0-23.9,0-35.9,0-1.4,0-2.2-.1-2.8-.5.2,1.2-.4,2.4-1.4,3-.8.5-2.3,1.1-4.4-.2l-.4-.3c-.5-.4-1.1-.7-1.7-1.1,0,.8,0,1.7,0,2.5v2.6h93.2v-2.5c0-6,0-11.9,0-17.9-.5.3-1,.6-1.6,1.1-.7.5-1.6.8-2.4.8s-1.4-.2-1.9-.6c-.4-.3-.6-.6-.9-1,0,3.5,0,7,0,10.5,0,2.8-.7,3.5-3.6,3.5Z"/>
        <path class="cls-1" d="M26.8,89.7c33.8,0,67.6,0,101.4,0,.6,0,1.1,0,1.7,0,2.6-.4,4.2-3.1,4.3-6.1H20.9c0,3.8,2,6.2,6,6.2Z"/>
        <path class="cls-1" d="M117.6,12.5c-26.7,0-53.4,0-80.1,0-4.8,0-6.6,2.3-6.6,7.2,0,6.6,0,13.2,0,19.8.9-.5,1.8-1,2.3-1.4.9-.7,2.1-.8,3.2-.4.5.2.9.4,1.3.8,0-5.1,0-10.3,0-15.4,0-3,.6-3.6,3.5-3.6,24.2,0,48.4,0,72.5,0,2.9,0,3.5.6,3.5,3.6,0,0,0,.2,0,.2.2-.3.4-.5.7-.7,1.3-1,3.1-1,4.4-.1.5.3,1.1.7,1.7,1.1,0-1.3,0-2.7,0-4,0-4.6-1.8-7-6.5-7Z"/>
        <path class="cls-1" d="M149.1,40.8c-1.5-.5-3.9-1.9-6.6-5.4-2.5-3.2-2.4-7.2-2.1-9.9,0-.5-.3-1-.8-1.2-.4-.1-.8,0-1.1.1-1.7,1.2-5.1,3.2-8.8,3.2s-1.6-.1-2.4-.3c-1.1-.3-2.2-.7-3.2-1.1-1.2-.6-2.2-1.2-3.1-1.8-.5-.3-1.1-.3-1.6,0-.2.2-.3.6-.2,1.1.2,1.3.5,5.6-1.9,9.4,0,.1-.1.2-.2.3-.7,1-1.6,1.9-2.5,2.7-1.4,1.1-2.8,2-4,2.6-.8.4-1,.8-.9,1.4,0,.7.9,1,.9,1,1.1.4,2.3.9,4,2.5.6.5,1.2,1.2,1.9,2,.3.3.5.7.8,1.1,2.3,3.6,2,7.8,1.9,9.1,0,.4,0,1.2.5,1.6.2.2,1,.2,1.5-.2,1.2-.9,2.1-1.5,3-1.9,0,0,0,0,.1,0,1.1-.5,2.2-.8,3-.9,0,0,.1,0,.2,0,.4-.9,1.2-1.5,2.2-1.5s1.8.6,2.2,1.5c.7,0,1.8.4,3,.9,1.2.4,2.1,1,2.8,1.5l.4.3c.9.6,1.4.4,1.8.2.2-.1.3-.4.3-.7-.2-1.6-.5-5.8,1.8-9.7,1.8-3.1,4.5-4.6,6.6-5.7.5-.2,1.1-.7,1.1-1.3,0-.4-.3-.8-.7-.9ZM122.9,49.4c-.6,0-1.1-.5-1.1-1.1s.5-1.1,1.1-1.1,1.1.5,1.1,1.1-.5,1.1-1.1,1.1ZM122.9,46c-.6,0-1.1-.5-1.1-1.1s.5-1.1,1.1-1.1,1.1.5,1.1,1.1-.5,1.1-1.1,1.1ZM122.9,42.7c-.6,0-1.1-.5-1.1-1.1s.5-1.1,1.1-1.1,1.1.5,1.1,1.1-.5,1.1-1.1,1.1ZM122.9,39.4c-.6,0-1.1-.5-1.1-1.1s.5-1.1,1.1-1.1,1.1.5,1.1,1.1-.5,1.1-1.1,1.1ZM122.9,36c-.6,0-1.1-.5-1.1-1.1s.5-1.1,1.1-1.1,1.1.5,1.1,1.1-.5,1.1-1.1,1.1ZM126.4,49.4c-.6,0-1.1-.5-1.1-1.1s.5-1.1,1.1-1.1,1.1.5,1.1,1.1-.5,1.1-1.1,1.1ZM126.4,46c-.6,0-1.1-.5-1.1-1.1s.5-1.1,1.1-1.1,1.1.5,1.1,1.1-.5,1.1-1.1,1.1ZM126.4,42.7c-.6,0-1.1-.5-1.1-1.1s.5-1.1,1.1-1.1,1.1.5,1.1,1.1-.5,1.1-1.1,1.1ZM126.4,39.4c-.6,0-1.1-.5-1.1-1.1s.5-1.1,1.1-1.1,1.1.5,1.1,1.1-.5,1.1-1.1,1.1ZM126.4,36c-.6,0-1.1-.5-1.1-1.1s.5-1.1,1.1-1.1,1.1.5,1.1,1.1-.5,1.1-1.1,1.1ZM129.8,49.4c-.6,0-1.1-.5-1.1-1.1s.5-1.1,1.1-1.1,1.1.5,1.1,1.1-.5,1.1-1.1,1.1ZM129.8,46c-.6,0-1.1-.5-1.1-1.1s.5-1.1,1.1-1.1,1.1.5,1.1,1.1-.5,1.1-1.1,1.1ZM129.8,42.7c-.6,0-1.1-.5-1.1-1.1s.5-1.1,1.1-1.1,1.1.5,1.1,1.1-.5,1.1-1.1,1.1ZM129.8,39.4c-.6,0-1.1-.5-1.1-1.1s.5-1.1,1.1-1.1,1.1.5,1.1,1.1-.5,1.1-1.1,1.1ZM129.8,36c-.6,0-1.1-.5-1.1-1.1s.5-1.1,1.1-1.1,1.1.5,1.1,1.1-.5,1.1-1.1,1.1ZM133.2,49.4c-.6,0-1.1-.5-1.1-1.1s.5-1.1,1.1-1.1,1.1.5,1.1,1.1-.5,1.1-1.1,1.1ZM133.2,46c-.6,0-1.1-.5-1.1-1.1s.5-1.1,1.1-1.1,1.1.5,1.1,1.1-.5,1.1-1.1,1.1ZM133.2,42.7c-.6,0-1.1-.5-1.1-1.1s.5-1.1,1.1-1.1,1.1.5,1.1,1.1-.5,1.1-1.1,1.1ZM133.2,39.4c-.6,0-1.1-.5-1.1-1.1s.5-1.1,1.1-1.1,1.1.5,1.1,1.1-.5,1.1-1.1,1.1ZM133.2,36c-.6,0-1.1-.5-1.1-1.1s.5-1.1,1.1-1.1,1.1.5,1.1,1.1-.5,1.1-1.1,1.1ZM136.6,49.4c-.6,0-1.1-.5-1.1-1.1s.5-1.1,1.1-1.1,1.1.5,1.1,1.1-.5,1.1-1.1,1.1ZM136.6,46c-.6,0-1.1-.5-1.1-1.1s.5-1.1,1.1-1.1,1.1.5,1.1,1.1-.5,1.1-1.1,1.1ZM136.6,42.7c-.6,0-1.1-.5-1.1-1.1s.5-1.1,1.1-1.1,1.1.5,1.1,1.1-.5,1.1-1.1,1.1ZM136.6,39.4c-.6,0-1.1-.5-1.1-1.1s.5-1.1,1.1-1.1,1.1.5,1.1,1.1-.5,1.1-1.1,1.1ZM136.6,36c-.6,0-1.1-.5-1.1-1.1s.5-1.1,1.1-1.1,1.1.5,1.1,1.1-.5,1.1-1.1,1.1Z"/>
        <path d="M149.9,38.5c-1.2-.4-3.2-1.5-5.5-4.6-2-2.6-1.9-5.9-1.6-8.1.2-1.7-.8-3.2-2.5-3.8-1.1-.4-2.3-.2-3.2.4-1.5,1-4.4,2.8-7.4,2.8s-1.6-.2-2.4-.4c-1.1-.3-2.2-.8-3.2-1.4-.7-.4-1.3-.8-1.7-1.1-1.3-.9-3.1-.9-4.4.1-.3.2-.5.4-.7.7-.5.7-.6,1.6-.5,2.6.2,1.1.5,4.8-1.7,8-.2.2-.3.4-.5.6-1.5,1.8-3.5,3.1-5.1,3.8-1.6.8-2.4,2.2-2.2,3.9.2,1.7,1.5,2.7,2.6,3,1.1.4,2.4,1.1,4.7,3.7,0,0,0,0,0,0,2.5,3,2.3,7.1,2.1,8.3-.1,1,0,2,.5,2.8.2.4.5.7.9,1,.5.4,1.2.6,1.9.6s1.8-.3,2.4-.8c.6-.4,1.1-.8,1.6-1.1.4-.2.8-.5,1.1-.6.8-.4,1.5-.6,2-.7.2,0,.4,0,.5,0,1.3-.1,1.8-1,1.9-1.3,0,0,0,0,0-.1,0,0,0,0,0,0,.3.8,1,1.3,1.8,1.4.3,0,1,.2,2.6.7.9.3,1.6.8,2.3,1.3.2.1.3.2.5.3,2,1.3,3.6.7,4.4.2,1-.6,1.6-1.8,1.4-3-.2-1.4-.4-4.9,1.5-8.2,1.5-2.5,3.8-3.8,5.6-4.7,1.7-.8,2.6-2.1,2.4-3.6,0-1.4-1-2.6-2.3-3ZM148.7,42.9c-2.1,1-4.8,2.6-6.6,5.7-2.3,3.9-2,8.1-1.8,9.7,0,.3,0,.5-.3.7-.3.2-.8.4-1.8-.2l-.4-.3c-.7-.5-1.6-1.1-2.8-1.5-1.3-.5-2.3-.8-3-.9-.4-.9-1.2-1.5-2.2-1.5s-1.8.5-2.2,1.5c0,0-.1,0-.2,0-.9.1-2,.5-3,.9,0,0,0,0-.1,0-.9.4-1.8,1-3,1.9-.5.4-1.2.4-1.5.2-.5-.4-.5-1.2-.5-1.6.2-1.3.5-5.5-1.9-9.1-.2-.4-.5-.7-.8-1.1-.7-.8-1.3-1.5-1.9-2-1.7-1.6-2.9-2.1-4-2.5,0,0-.9-.3-.9-1,0-.6,0-1,.9-1.4,1.2-.6,2.6-1.4,4-2.6.9-.8,1.8-1.7,2.5-2.7,0-.1.1-.2.2-.3,2.4-3.8,2.1-8.1,1.9-9.4,0-.5,0-.9.2-1.1.5-.4,1.1-.4,1.6,0,.9.6,1.9,1.2,3.1,1.8,1,.5,2.1.9,3.2,1.1.8.2,1.6.3,2.4.3,3.6,0,7-2,8.8-3.2.3-.2.7-.3,1.1-.1.5.2.8.7.8,1.2-.3,2.7-.4,6.6,2.1,9.9,2.7,3.5,5.1,4.9,6.6,5.4.4.1.6.5.7.9,0,.6-.6,1-1.1,1.3Z"/>
        <circle cx="122.9" cy="35" r="1.1"/>
        <circle cx="126.4" cy="35" r="1.1"/>
        <circle cx="129.8" cy="35" r="1.1"/>
        <circle cx="133.2" cy="35" r="1.1"/>
        <circle cx="122.9" cy="38.3" r="1.1"/>
        <circle cx="126.4" cy="38.3" r="1.1"/>
        <circle cx="129.8" cy="38.3" r="1.1"/>
        <circle cx="133.2" cy="38.3" r="1.1"/>
        <circle cx="122.9" cy="41.6" r="1.1"/>
        <circle cx="126.4" cy="41.6" r="1.1"/>
        <circle cx="129.8" cy="41.6" r="1.1"/>
        <circle cx="133.2" cy="41.6" r="1.1"/>
        <circle cx="122.9" cy="45" r="1.1"/>
        <circle cx="126.4" cy="45" r="1.1"/>
        <circle cx="129.8" cy="45" r="1.1"/>
        <circle cx="133.2" cy="45" r="1.1"/>
        <circle cx="136.6" cy="35" r="1.1"/>
        <circle cx="136.6" cy="38.3" r="1.1"/>
        <circle cx="136.6" cy="41.6" r="1.1"/>
        <circle cx="136.6" cy="45" r="1.1"/>
        <circle cx="122.9" cy="48.3" r="1.1"/>
        <circle cx="126.4" cy="48.3" r="1.1"/>
        <circle cx="129.8" cy="48.3" r="1.1"/>
        <circle cx="133.2" cy="48.3" r="1.1"/>
        <circle cx="136.6" cy="48.3" r="1.1"/>
        <path d="M124.1,59.9c0,6,0,11.9,0,17.9v2.5H30.9v-2.6c0-.8,0-1.7,0-2.5-.2-.1-.4-.2-.6-.3-1.5-.6-2.2-.7-2.5-.7,0,.7,0,1.4,0,2v4.2c-2.3,0-4.3-.2-6.3,0-1.3.2-3.7,0-3.7,2.7v3.2c0,5,6.2,6.5,12.3,6.5,31.8-.2,63.6,0,95.4,0,7.5,0,11.9-1.6,11.7-9,0-2.5-.8-3.3-3.4-3.3-2.1,0-4.2,0-6.5,0v-4.1c0-5.9,0-11.7,0-17.6-.5.1-1.2.3-2,.7-.4.2-.7.4-1.1.6ZM134.2,83.5c0,3.1-1.6,5.8-4.3,6.1-.6,0-1.1,0-1.7,0-33.8,0-67.6,0-101.4,0-4,0-5.9-2.4-6-6.2h113.3Z"/>
        <path d="M30.9,19.7c0-4.8,1.8-7.2,6.6-7.2,26.7,0,53.4,0,80.1,0,4.7,0,6.5,2.4,6.5,7,0,1.3,0,2.7,0,4,.9.5,2,1,3.2,1.4,0-1.3,0-2.7,0-4,0-7.6-3.9-11.5-11.5-11.5-25.5,0-51,0-76.5,0-7.6,0-11.5,3.9-11.5,11.4,0,6.6,0,13.2,0,19.8,1.1-.2,2.2-.7,3.2-1.2,0-6.6,0-13.2,0-19.8Z"/>
        <path d="M114.6,71.2H40.6c0-.9-.1-1.6-.1-2.3,0-1.2,0-2.4,0-3.6,0,0,0,.1-.1.2-1.9,3.3-1.7,6.8-1.5,8.2,0,0,0,0,0,0,.6.4,1.5.5,2.8.5,12,0,23.9,0,35.9,0,12.1,0,24.1,0,36.2,0,2.9,0,3.6-.7,3.6-3.5,0-3.5,0-7,0-10.5-.5-.8-.6-1.7-.5-2.8.1-1.2.4-5.3-2.1-8.3,0,0,0,0,0,0,0,6.7,0,13.3,0,19.7v2.5Z"/>
        <path d="M113.8,19.4c-24.2,0-48.4,0-72.5,0-2.9,0-3.5.6-3.5,3.6,0,5.1,0,10.3,0,15.4.9.8,1.3,1.9,1.2,3-.2,2.2-.3,5.4,1.5,8,0-8.3,0-16.6,0-24.6,0-2.1.7-2.6,2.7-2.6,23,0,46,0,69,0,2.1,0,2.7.6,2.6,2.6,0,3.1,0,6.4,0,9.6.2-.2.3-.4.5-.6,2.2-3.1,1.8-6.9,1.7-8-.1-1,0-1.9.5-2.6,0,0,0-.2,0-.2,0-3-.6-3.6-3.5-3.6Z"/>
        <path d="M30.9,75.1c.6.3,1.2.7,1.7,1.1l.4.3c2,1.3,3.6.7,4.4.2,1-.6,1.5-1.8,1.4-3,0,0,0,0,0,0-.2-1.4-.4-4.9,1.5-8.2,0,0,0-.1.1-.2,1.5-2.4,3.7-3.6,5.5-4.5,1.7-.8,2.6-2.1,2.4-3.6,0-1.4-1-2.6-2.3-3-1.2-.4-3.2-1.5-5.5-4.6,0,0,0-.1-.1-.2-1.8-2.5-1.8-5.8-1.5-8,.1-1.2-.3-2.3-1.2-3-.4-.3-.8-.6-1.3-.8-1.1-.4-2.3-.2-3.2.4-.6.4-1.4.9-2.3,1.4-.9.5-2,.9-3.2,1.2-.6.1-1.2.2-1.9.2-2.8,0-5.8-1.8-7.3-2.8-1.3-.9-3.1-.9-4.4.1-.9.7-1.4,1.9-1.2,3.3.2,1.1.5,4.8-1.7,8-1.5,2.2-3.9,3.6-5.6,4.5-1.6.8-2.4,2.2-2.2,3.9.2,1.7,1.5,2.7,2.6,3,1.1.4,2.5,1.1,4.8,3.8,2.5,3,2.3,7.1,2.1,8.3-.2,1.6.3,3,1.4,3.8.5.4,1.2.6,1.9.6s1.8-.3,2.4-.8c1.1-.8,1.9-1.3,2.7-1.7,1.1-.5,2.1-.7,2.5-.8,1.3-.1,1.8-1,1.9-1.3,0,0,0,0,0-.1,0,0,0,0,0,0,.3.8,1,1.3,1.8,1.4,0,0,0,0,0,0,.3,0,1.1.2,2.5.7.2,0,.4.2.6.3ZM27.7,71.1c-.5-.6-1.1-.9-1.9-.9s-1.8.5-2.2,1.5c-.9,0-2.1.4-3.3,1-1,.4-1.9,1-3.1,2-.5.4-1.2.4-1.5.2-.5-.4-.5-1.2-.5-1.6.2-1.4.5-6.4-2.7-10.1-2.7-3.2-4.4-4.1-5.9-4.5,0,0-.9-.3-.9-1,0-.6,0-1,.9-1.4,2-1,4.7-2.7,6.5-5.3,2.7-3.9,2.3-8.4,2.1-9.7,0-.5,0-.9.2-1.1.5-.4,1.1-.4,1.6,0,2.2,1.5,5.4,3.2,8.7,3.2s1.3,0,1.9-.2c1.1-.2,2.2-.5,3.2-1,1.5-.7,2.9-1.5,3.7-2.1.3-.2.7-.3,1.1-.1.5.2.8.7.8,1.2-.2,2.3-.3,5.5,1.2,8.5.3.5.5.9.9,1.4.6.8,1.2,1.5,1.8,2.1,1.9,2,3.6,2.9,4.8,3.3.4.1.6.5.7.9,0,.6-.6,1-1.1,1.3-1.4.7-3,1.5-4.4,2.9-.8.8-1.6,1.7-2.2,2.8-.2.3-.3.6-.5.9-1.8,3.7-1.5,7.4-1.3,8.9,0,.3,0,.5-.3.7-.3.2-.8.4-1.8-.2-.1,0-.3-.2-.4-.3-.7-.5-1.6-1.1-2.8-1.5,0,0-.1,0-.2,0-1.2-.4-2.1-.7-2.8-.8-.1-.2-.2-.4-.4-.6Z"/>
        <circle cx="19.1" cy="50.6" r="1.1"/>
        <circle cx="22.5" cy="50.6" r="1.1"/>
        <circle cx="25.9" cy="50.6" r="1.1"/>
        <circle cx="29.3" cy="50.6" r="1.1"/>
        <circle cx="19.1" cy="53.9" r="1.1"/>
        <circle cx="22.5" cy="53.9" r="1.1"/>
        <circle cx="25.9" cy="53.9" r="1.1"/>
        <circle cx="29.3" cy="53.9" r="1.1"/>
        <path d="M19.1,56.2c-.6,0-1.1.5-1.1,1.1s.5,1.1,1.1,1.1,1.1-.5,1.1-1.1-.5-1.1-1.1-1.1Z"/>
        <path d="M22.5,56.2c-.6,0-1.1.5-1.1,1.1s.5,1.1,1.1,1.1,1.1-.5,1.1-1.1-.5-1.1-1.1-1.1Z"/>
        <path d="M25.9,56.2c-.6,0-1.1.5-1.1,1.1s.5,1.1,1.1,1.1,1.1-.5,1.1-1.1-.5-1.1-1.1-1.1Z"/>
        <path d="M29.3,56.2c-.6,0-1.1.5-1.1,1.1s.5,1.1,1.1,1.1,1.1-.5,1.1-1.1-.5-1.1-1.1-1.1Z"/>
        <circle cx="19.1" cy="60.6" r="1.1"/>
        <circle cx="22.5" cy="60.6" r="1.1"/>
        <circle cx="25.9" cy="60.6" r="1.1"/>
        <circle cx="29.3" cy="60.6" r="1.1"/>
        <circle cx="32.7" cy="50.6" r="1.1"/>
        <circle cx="32.7" cy="53.9" r="1.1"/>
        <path d="M32.7,58.3c.6,0,1.1-.5,1.1-1.1s-.5-1.1-1.1-1.1-1.1.5-1.1,1.1.5,1.1,1.1,1.1Z"/>
        <circle cx="32.7" cy="60.6" r="1.1"/>
        <circle cx="19.1" cy="64" r="1.1"/>
        <circle cx="22.5" cy="64" r="1.1"/>
        <circle cx="25.9" cy="64" r="1.1"/>
        <circle cx="29.3" cy="64" r="1.1"/>
        <circle cx="32.7" cy="64" r="1.1"/>
      </g>
    </g>
  </g>
</svg>