<svg id="Ebene_1" xmlns="http://www.w3.org/2000/svg" xmlns:xlink="http://www.w3.org/1999/xlink" x="0px" y="0px" viewBox="0 0 116 28.2" xml:space="preserve"><style type="text/css">
	.horizontalLogoGray{fill:#C5CFCE;}
	.horizontalLogoWhite{fill:#FEFEFE;}
</style><g><path class="horizontalLogoGray" d="M7.8,13.4H6.4l-0.2-1.3C6,12,5.8,11.8,5.5,11.7s-0.6-0.2-1-0.2c-0.8,0-1.4,0.3-1.9,0.9 c-0.4,0.6-0.7,1.4-0.7,2.3V15c0,1,0.2,1.7,0.7,2.3c0.4,0.7,1,1,1.8,1c0.4,0,0.7-0.1,1-0.2s0.5-0.3,0.7-0.4l0.2-1.3h1.4v1.9 c-0.4,0.4-0.9,0.8-1.5,1c-0.6,0.3-1.2,0.4-2,0.4c-1.3,0-2.3-0.4-3.1-1.3s-1.2-2-1.2-3.4v-0.3c0-1.4,0.4-2.5,1.2-3.4 C1.9,10.4,2.9,10,4.2,10c0.7,0,1.4,0.1,2,0.4c0.6,0.3,1.1,0.6,1.5,1.1L7.8,13.4z"></path><path class="horizontalLogoGray" d="M8.7,18.5l0.7-0.1l2.9-8.2h1.9l2.8,8.2l0.7,0.1v1.1h-3.2v-1.1l0.7-0.1l-0.4-1.3h-3l-0.4,1.3l0.7,0.1v1.1H8.9 L8.7,18.5z M12.1,15.7h2.2l-1.1-3.3l0,0L12.1,15.7z"></path><path class="horizontalLogoGray" d="M19.6,19.7v-1.1l1-0.2v-6.7l-1-0.2v-1.1h1h1.9h1v1.1l-1,0.2v6.6h2.7l0.1-1.2h1.4v2.6L19.6,19.7z"></path><path class="horizontalLogoGray" d="M28.1,19.7v-1.1l1-0.2v-6.7l-1-0.2v-1.1h1H31h1v1.1l-1,0.2v6.6h2.7l0.1-1.2h1.4v2.6L28.1,19.7z"></path><path class="horizontalLogoGray" d="M36.8,11.4v-1.1h3.9v1.1l-1,0.2v6.7l1,0.2v1.1h-3.9v-1.1l1-0.2v-6.7L36.8,11.4z"></path><path class="horizontalLogoGray" d="M50.8,15.1c0,1.4-0.4,2.5-1.2,3.4s-1.8,1.3-3.1,1.3s-2.3-0.5-3.1-1.4s-1.2-2-1.2-3.4v-0.1 c0-1.4,0.4-2.5,1.2-3.4s1.8-1.4,3.1-1.4s2.3,0.5,3.1,1.4s1.2,2,1.2,3.4V15.1z M48.9,14.9c0-1-0.2-1.8-0.6-2.4 c-0.4-0.6-1-0.9-1.8-0.9s-1.4,0.3-1.8,0.9c-0.4,0.6-0.6,1.4-0.6,2.4v0.2c0,1,0.2,1.8,0.6,2.4s1,0.9,1.8,0.9s1.4-0.3,1.8-0.9 c0.4-0.6,0.6-1.4,0.6-2.4V14.9z"></path><path class="horizontalLogoGray" d="M56.8,10.3c1.1,0,1.9,0.3,2.5,0.8c0.6,0.6,0.9,1.3,0.9,2.2s-0.3,1.6-0.9,2.2c-0.6,0.5-1.5,0.8-2.5,0.8h-1.6 v2.1l1,0.2v1.1h-3.9v-1.1l1-0.2v-6.7l-1-0.2v-1.1h1L56.8,10.3z M55.2,14.8h1.6c0.5,0,0.9-0.1,1.2-0.4c0.3-0.3,0.4-0.7,0.4-1.1 c0-0.5-0.1-0.8-0.4-1.1c-0.3-0.3-0.7-0.4-1.2-0.4h-1.6V14.8z"></path><path class="horizontalLogoGray" d="M67.7,15.6h-3.2v2.7h3l0.1-1.1H69v2.6h-7.4v-1.1l1-0.2v-6.7l-1-0.2v-1.1h1H69v2.6h-1.4L67.5,12h-3v2.4h3.2 V15.6z"></path><path class="horizontalLogoWhite" d="M76.7,10.2l0.1,1c0.2-0.4,0.4-0.7,0.8-0.9c0.3-0.2,0.7-0.3,1.2-0.3c0.4,0,0.7,0.1,1,0.2s0.5,0.4,0.6,0.8 c0.2-0.3,0.4-0.5,0.7-0.7c0.3-0.2,0.7-0.3,1.1-0.3c0.3,0,0.6,0.1,0.9,0.2c0.3,0.1,0.5,0.3,0.7,0.5s0.3,0.5,0.4,0.9 c0.1,0.3,0.2,0.8,0.2,1.3v7h-2v-7c0-0.4-0.1-0.6-0.2-0.8c-0.2-0.1-0.4-0.2-0.6-0.2S81.2,12,81,12.1c-0.1,0.1-0.2,0.3-0.3,0.5V20 h-1.9v-7c0-0.4-0.1-0.6-0.2-0.8C78.4,12,78.2,12,78,12s-0.4,0.1-0.6,0.2c-0.1,0.1-0.3,0.3-0.3,0.4V20h-2v-9.6L76.7,10.2z"></path><path class="horizontalLogoWhite" d="M86.9,10.2H92V18h2.8v1.8h-8V18h3v-6.1h-3L86.9,10.2z M89.7,8.1c0-0.3,0.1-0.6,0.3-0.8C90.2,7.1,90.5,7,90.9,7 s0.7,0.1,0.9,0.3c0.2,0.2,0.3,0.5,0.3,0.8S92,8.7,91.8,8.9c-0.2,0.2-0.5,0.3-0.9,0.3S90.2,9.1,90,8.9C89.8,8.7,89.7,8.4,89.7,8.1z"></path><path class="horizontalLogoWhite" d="M99.3,10.3l0.1,1.3c0.3-0.5,0.8-0.8,1.3-1.1s1-0.4,1.6-0.4c0.5,0,0.9,0.1,1.3,0.2c0.4,0.1,0.8,0.4,1,0.7 c0.3,0.3,0.5,0.7,0.7,1.2s0.2,1.1,0.2,1.7v6h-2.1v-6c0-0.4,0-0.7-0.1-1s-0.2-0.5-0.4-0.6c-0.2-0.2-0.4-0.3-0.6-0.3 c-0.2-0.1-0.5-0.1-0.8-0.1c-0.5,0-0.9,0.1-1.2,0.3c-0.3,0.2-0.6,0.5-0.8,0.8v6.9h-2.1v-9.6L99.3,10.3z"></path><path class="horizontalLogoWhite" d="M108.1,10.3h5.1v7.8h2.8v1.8h-8v-1.8h3V12h-3L108.1,10.3z M110.9,8.2c0-0.3,0.1-0.6,0.3-0.8 c0.2-0.2,0.5-0.3,0.9-0.3s0.7,0.1,0.9,0.3c0.2,0.2,0.3,0.5,0.3,0.8S113.2,8.8,113,9c-0.2,0.2-0.5,0.3-0.9,0.3s-0.7-0.1-0.9-0.3 S110.9,8.5,110.9,8.2z"></path></g></svg>