<?xml version="1.0" encoding="utf-8"?>
<!-- Generator: Adobe Illustrator 28.0.0, SVG Export Plug-In . SVG Version: 6.00 Build 0)  -->
<svg version="1.1" id="Ebene_1" xmlns="http://www.w3.org/2000/svg" xmlns:xlink="http://www.w3.org/1999/xlink" x="0px" y="0px"
	 viewBox="0 0 254 171" style="enable-background:new 0 0 254 171;" xml:space="preserve">
<style type="text/css">
	.st0{fill:#FBF2A8;}
	.st1{fill:#EBE7E7;}
	.st2{fill:#D9D8D7;}
	.st3{fill:#F1E9A1;}
	.st4{fill:#1E1E21;}
	.st5{opacity:0.9;}
	.st6{fill-rule:evenodd;clip-rule:evenodd;fill:#FFFFFF;}
	.st7{fill-rule:evenodd;clip-rule:evenodd;fill:#4E4E51;}
	.st8{fill:#FFD700;}
	.st9{fill:#FFFFFF;stroke:#000000;stroke-miterlimit:10;}
	.st10{fill:#C2C5C6;}
	.st11{fill:#C77C11;}
	.st12{fill:#B4B5B5;}
	.st13{fill:#C43B3A;}
	.st14{fill:#D3CCA5;}
	.st15{fill:#E6E2C2;}
	.st16{fill:#B6B083;}
	.st17{fill:#EAE8E7;}
	.st18{fill:#D2CAA4;}
	.st19{fill:#E5E0C0;}
	.st20{fill:#D6D2D1;}
	.st21{fill:#181716;}
	.st22{opacity:0.9;fill:#FFFFFF;enable-background:new    ;}
	.st23{clip-path:url(#SVGID_00000171694042467571416400000010648009390115164335_);}
	.st24{clip-path:url(#SVGID_00000046335613315261878460000011421496409209346491_);}
	.st25{clip-path:url(#SVGID_00000008830431790950866390000012879397793319045534_);}
	.st26{fill:#C8CCCF;}
	.st27{fill:#59595A;}
	.st28{fill:#FFFFFF;}
	.st29{fill:#6B6D6D;}
	.st30{fill-rule:evenodd;clip-rule:evenodd;fill:#1E1E21;}
	.st31{fill:#3AA5C6;}
	.st32{display:none;}
	.st33{display:inline;fill:#6B6D6D;}
	.st34{fill:#EA3D3D;}
	.st35{fill:none;stroke:#FF0000;stroke-width:2;}
	.st36{fill:#FF0000;}
</style>
<symbol  id="Calliope_x5F_3_x5F_Small_x5F_LED" viewBox="-0.7 -1.4 1.4 2.8">
	<g>
		<rect x="-0.7" y="-0.9" class="st0" width="1.4" height="1.8"/>
		<rect x="-0.7" y="-1.1" class="st1" width="1.4" height="0.2"/>
		<rect x="-0.7" y="-1.4" class="st2" width="1.4" height="0.2"/>
		<rect x="-0.7" y="1.2" class="st2" width="1.4" height="0.2"/>
		<rect x="-0.7" y="1" class="st1" width="1.4" height="0.2"/>
		<circle class="st3" cx="0" cy="0" r="0.1"/>
	</g>
</symbol>
<path id="Platine" class="st4" d="M213.6,95.4c-0.2,0.1-0.3,0.1-0.5,0.2c-0.2,0.1-0.4,0.2-0.6,0.2c-0.1,0-0.2,0-0.2,0.1
	c-0.2,0.1-0.4,0.1-0.6,0.2c-0.2,0-0.5,0.1-0.6,0.1c-0.1,0-0.2,0-0.2,0c-0.2,0-0.5,0-0.7,0c-5.7,0-10.2-4.6-10.2-10.2
	c0-1.7,0.4-3.3,1.2-4.7c0.5-0.9,1.1-1.8,1.8-2.5c0.1-0.1,0.2-0.1,0.2-0.2c0.1-0.1,0.2-0.2,0.3-0.3c0.1-0.1,0.2-0.2,0.3-0.2
	c0.2-0.2,0.4-0.3,0.6-0.4c0.2-0.2,0.4-0.2,0.6-0.4c0.2-0.1,0.3-0.2,0.5-0.3c0.2-0.1,0.4-0.2,0.6-0.3c0.2-0.2,0.4-0.2,0.5-0.2
	c0.3-0.2,0.6-0.2,0.9-0.3c0.2,0,0.2-0.1,0.4-0.1c0.2-0.1,0.5-0.1,0.8-0.2c0.3-0.1,0.6-0.1,0.9-0.1c0.1,0,0.2,0,0.3,0
	c0.2,0,0.2,0,0.4,0c0.5,0,0.9,0,1.4,0.1c0.1,0,0.2,0,0.3,0.1c0.6,0.1,1.1,0.2,1.6,0.4c-24.7-10-39.7-36.1-35.8-62.6
	c-0.1,0.2-0.2,1.1-0.3,1.3c-0.2,0.6-0.3,1-0.6,1.5c-0.1,0.2-0.2,0.3-0.3,0.5s-0.1,0.4-0.2,0.5c-0.1,0.2-0.2,0.4-0.3,0.6
	c-0.1,0.2-0.2,0.3-0.3,0.5c-0.1,0.2-0.2,0.2-0.3,0.3c-0.1,0.2-0.2,0.3-0.4,0.4c-0.2,0.2-0.2,0.2-0.4,0.4c-0.2,0.2-0.2,0.2-0.4,0.4
	c-0.2,0.2-0.3,0.2-0.5,0.3s-0.3,0.2-0.5,0.3c-0.2,0.1-0.2,0.3-0.4,0.4c-0.2,0.2-0.4,0.2-0.6,0.3c-0.2,0.1-0.2,0.2-0.5,0.3
	c-0.1,0.1-0.3,0.2-0.4,0.2c-0.9,0.3-1.6,0.5-2.6,0.6c-0.3,0-0.6,0.1-0.9,0.1c-2,0-4-0.6-5.6-1.6c-1.1-0.7-2.1-1.7-2.8-2.7
	c-1.1-1.6-1.8-3.6-1.8-5.8c0-0.2,0-0.4,0-0.5c0-0.1,0-0.2,0-0.3c0-0.2,0.1-0.4,0.1-0.5c0-0.1,0-0.2,0.1-0.3c0-0.1,0-0.2,0.1-0.3
	c0.1-0.2,0.1-0.4,0.2-0.6c0.1-0.2,0.2-0.5,0.2-0.8c0-0.1,0.1-0.2,0.1-0.2c0-0.1,0.1-0.2,0.1-0.3c0.1-0.2,0.2-0.4,0.3-0.6
	c0.1-0.2,0.2-0.4,0.3-0.5c0.3-0.5,0.7-1.1,1.2-1.6c0.2-0.2,0.3-0.3,0.5-0.5c0.1-0.1,0.2-0.2,0.2-0.2c0.1-0.1,0.2-0.2,0.2-0.2
	c0.2-0.2,0.3-0.3,0.5-0.4l0,0c0.2-0.2,0.3-0.2,0.6-0.4c0.2-0.1,0.3-0.2,0.5-0.3c-0.2,0.1-0.3,0.2-0.4,0.2c-0.2,0.2-0.5,0.3-0.7,0.5
	c-7.6,6-16.4,10.4-25.8,12.6v14.9c0,0.2-0.2,0.5-0.3,0.5c-0.3,0.2-0.7,0.1-0.9-0.2c-0.2-0.2-0.3-0.3-0.6-0.3H117
	c-0.2,0-0.5,0.2-0.6,0.3c-0.2,0.2-0.3,0.3-0.5,0.3c-0.4,0-0.7-0.3-0.7-0.6v-15c-9-2.2-17.4-6.2-24.7-11.8C90.7,5,90.8,5.2,91,5.4
	l0,0c0.2,0.2,0.3,0.4,0.5,0.6c0.1,0.1,0.2,0.2,0.2,0.3c0.1,0.2,0.2,0.3,0.2,0.4c0.1,0.2,0.2,0.3,0.2,0.5c0.5,0.9,0.8,1.8,0.9,2.7
	c0,0.1,0.1,0.2,0.1,0.3c0,0.2,0.1,0.4,0.1,0.5s0,0.2,0,0.4c0,0,0,0,0,0.1l0,0c0,0.2,0,0.4,0,0.6c0,5.7-4.6,10.3-10.3,10.3
	c-0.2,0-0.4,0-0.5,0c-0.4,0-0.8-0.1-1.3-0.2c-0.2-0.1-0.5-0.1-0.7-0.2c-0.3-0.1-0.6-0.2-0.9-0.3c-0.2-0.1-0.5-0.2-0.8-0.3
	c-0.2-0.1-0.5-0.2-0.7-0.3c0,0-0.1-0.1-0.2-0.1c-0.2-0.1-0.5-0.2-0.6-0.4c-0.2-0.2-0.5-0.3-0.7-0.5c-0.2-0.2-0.3-0.2-0.5-0.4
	s-0.3-0.3-0.5-0.4c-0.5-0.5-0.9-0.9-1.3-1.5c-0.1-0.1-0.2-0.2-0.2-0.3c-0.1-0.2-0.2-0.2-0.2-0.4c-0.1-0.2-0.2-0.2-0.2-0.4
	c-0.1-0.2-0.2-0.3-0.2-0.4c-0.2-0.3-0.3-0.6-0.4-1c0-0.1-0.1-0.2-0.1-0.3c-0.1-0.2-0.1-0.3-0.2-0.5c-0.1-0.2-0.1-0.5-0.2-0.6
	c0-0.1,0-0.2-0.1-0.3v-0.1c0,0.1,0,0.1,0,0.2C76.4,40.2,61.9,65.8,37.2,76c0.6-0.2,1.3-0.3,1.9-0.4c0.2,0,0.3,0,0.5-0.1
	c0.2,0,0.3,0,0.5,0c2.8,0,5.3,1.1,7.2,3c1.9,1.9,3.1,4.5,3.1,7.3c0,5.7-4.6,10.3-10.3,10.3c-0.3,0-0.7,0-1-0.1c-0.2,0-0.3,0-0.5-0.1
	c-0.2,0-0.3-0.1-0.5-0.1c-0.3-0.1-0.6-0.2-0.9-0.2c-0.3-0.1-0.6-0.2-0.9-0.3c0.1,0,0.2,0.1,0.2,0.1c24.7,9.7,39.5,34.8,36.3,61
	c0.1-0.2,0.1-0.3,0.2-0.5c0-0.1,0.1-0.2,0.1-0.2c0-0.1,0.1-0.2,0.1-0.2c0.1-0.2,0.2-0.3,0.2-0.5v-0.1c0.1-0.2,0.2-0.2,0.2-0.3v-0.1
	c0.1-0.2,0.2-0.4,0.4-0.6c0.1-0.1,0.1-0.2,0.2-0.2l0.1-0.1c0.1-0.1,0.2-0.2,0.2-0.3c0.2-0.2,0.4-0.5,0.6-0.7c0,0,0,0,0.1-0.1
	c0,0,0,0,0.1-0.1c0.1-0.1,0.2-0.2,0.3-0.3l0,0c0.2-0.2,0.2-0.2,0.4-0.3c0.2-0.2,0.2-0.2,0.4-0.3c0.2-0.1,0.2-0.2,0.4-0.3l0.1-0.1
	c0.1-0.1,0.2-0.2,0.3-0.2c0.6-0.4,1.1-0.6,1.7-0.9c0.3-0.2,0.7-0.3,1.1-0.4c0.5-0.2,1-0.2,1.5-0.3c0.2,0,0.4-0.1,0.5-0.1
	c0.3,0,0.7-0.1,1.1-0.1c0.3,0,0.7,0,1,0.1c0.2,0,0.3,0,0.4,0.1c0.2,0,0.3,0,0.4,0.1c0.2,0,0.2,0.1,0.4,0.1c0.6,0.2,1.3,0.4,1.9,0.6
	c0.2,0.1,0.5,0.2,0.7,0.3c0.2,0.2,0.5,0.2,0.7,0.4c0.2,0.2,0.5,0.3,0.6,0.5c0.2,0.2,0.5,0.4,0.7,0.6c0.2,0.2,0.3,0.3,0.5,0.5l0,0
	c0.2,0.2,0.3,0.3,0.4,0.5c0.1,0.1,0.2,0.2,0.2,0.2c0.2,0.2,0.3,0.3,0.4,0.5c0.2,0.2,0.2,0.4,0.4,0.6c0.2,0.2,0.3,0.5,0.5,0.8
	c0.1,0.2,0.2,0.4,0.3,0.6c0,0.1,0.1,0.2,0.1,0.2c0.1,0.2,0.2,0.4,0.2,0.6v0.1c0.1,0.2,0.2,0.5,0.2,0.7l-1.4-8.2
	c-0.2-1,0.3-2,1.3-2.4l1.6-0.3c1.2-0.2,2.4,0.6,2.6,1.8l1.6,9c0.2,0.9,1.1,1.7,2,1.4l0,0l10.5-1.9l0.5-0.1c0.9-0.2,1.6-1.1,1.4-2
	l-1.5-8.6l-0.1-0.5c-0.2-1.2,0.6-2.4,1.8-2.6l1.4-0.2c1.1,0,2,0.8,2.2,1.8l1.6,8.9c0.2,1.1,1.3,2,2.4,1.8c3-0.2,6-0.2,9,0
	c1.2,0.1,2.2-0.7,2.4-1.8l1.6-8.9c0.2-1,1-1.8,2-1.9l1.6,0.2c1.2,0.2,2,1.3,1.8,2.6l-1.6,9c-0.2,0.9,0.5,1.9,1.4,2l0,0l10.5,1.9
	l0.5,0.1c0.9,0.2,1.9-0.5,2-1.4l1.5-8.6l0.1-0.5c0.2-1.2,1.3-2,2.6-1.8l1.4,0.2c1,0.4,1.6,1.4,1.4,2.4l-1.4,7.8
	c0.1-0.2,0.1-0.2,0.2-0.4c0.2-0.4,0.2-0.7,0.4-1.1s0.4-0.8,0.6-1.2c0.2-0.2,0.3-0.5,0.5-0.7c1-1.3,2.4-2.4,3.8-3.1
	c0.2-0.1,0.3-0.2,0.5-0.2c0.2-0.1,0.3-0.2,0.5-0.2c0.2-0.1,0.3-0.2,0.5-0.2c0.5-0.2,0.9-0.2,1.3-0.3c0.2,0,0.3-0.1,0.4-0.1
	c0.2,0,0.5-0.1,0.8-0.1c0.2,0,0.3,0,0.6,0s0.4,0,0.6,0c0.2,0,0.4,0,0.5,0s0.3,0,0.5,0.1c0.2,0,0.4,0.1,0.6,0.1
	c0.2,0,0.3,0.1,0.4,0.1c0.3,0.1,0.7,0.2,1,0.3c0.2,0.1,0.2,0.1,0.4,0.2c0.2,0.1,0.6,0.2,0.8,0.4c0.2,0.1,0.2,0.2,0.4,0.2
	c0.2,0.1,0.3,0.2,0.5,0.3c0.1,0.1,0.2,0.1,0.2,0.2c0.2,0.1,0.2,0.2,0.4,0.3c0.2,0.1,0.3,0.2,0.5,0.4c0.1,0.1,0.2,0.2,0.3,0.3
	c0.6,0.6,1.1,1.2,1.6,1.8c0.1,0.1,0.1,0.2,0.2,0.2c0.3,0.5,0.5,0.9,0.8,1.4c0.1,0.1,0.1,0.2,0.2,0.2c0.2,0.4,0.3,0.8,0.4,1.3
	c0.1,0.2,0.1,0.2,0.1,0.4C174,130.7,188.9,105.2,213.6,95.4z M142.8,145c0-0.2,0.1-0.4,0.2-0.5c0.2-0.2,0.3-0.2,0.6-0.2
	c0.4,0,0.8,0.3,0.8,0.8s-0.3,0.8-0.8,0.8C143.2,145.8,142.8,145.5,142.8,145z M101.1,146.9c-0.4,0-0.8-0.3-0.8-0.8
	c0-0.5,0.4-0.8,0.8-0.8c0.4,0,0.8,0.3,0.8,0.8C101.9,146.5,101.5,146.9,101.1,146.9z M103.9,146.3c-0.4,0-0.8-0.3-0.8-0.8
	s0.4-0.8,0.8-0.8c0.4,0,0.8,0.3,0.8,0.8S104.3,146.3,103.9,146.3z M106.7,145.8c-0.4,0-0.8-0.4-0.8-0.8c0-0.5,0.3-0.8,0.8-0.8
	s0.8,0.3,0.8,0.8C107.4,145.5,107.1,145.8,106.7,145.8z M146.4,144.8c0.4,0,0.8,0.3,0.8,0.8c0,0.5-0.3,0.8-0.8,0.8s-0.8-0.3-0.8-0.8
	C145.6,145.1,145.9,144.8,146.4,144.8z M149.1,145.3c0.5,0,0.8,0.3,0.8,0.8c0,0.4-0.3,0.8-0.8,0.8c-0.4,0-0.8-0.3-0.8-0.8
	C148.3,145.6,148.7,145.3,149.1,145.3z M99.5,153.1c-0.1,0-0.1,0-0.2,0c-0.4,0-0.7-0.2-0.8-0.6l-0.3-1.7c-0.1-0.4,0.2-0.9,0.6-0.9
	c0.4-0.1,0.9,0.2,0.9,0.6l0.3,1.7C100.2,152.7,99.9,153.1,99.5,153.1z M110.5,151.2c-0.4,0.1-0.9-0.2-0.9-0.6l-0.3-1.7
	c-0.1-0.4,0.2-0.9,0.6-0.9c0.4-0.1,0.8,0.2,0.9,0.6l0.3,1.7C111.3,150.7,111,151.1,110.5,151.2z M140.6,150.5
	c-0.1,0.4-0.5,0.7-0.9,0.6c-0.4-0.1-0.7-0.5-0.6-0.9l0.3-1.7c0.1-0.4,0.5-0.7,0.9-0.6c0.4,0.1,0.7,0.5,0.6,0.9L140.6,150.5z
	 M151.6,152.5c-0.1,0.4-0.5,0.7-0.9,0.6c-0.4-0.1-0.6-0.4-0.6-0.8c0-0.1,0-0.1,0-0.2l0.3-1.7c0.1-0.4,0.5-0.7,0.9-0.6
	s0.7,0.5,0.6,0.9L151.6,152.5z"/>
<g id="Silk-Screen" class="st5">
	<path id="Motoren-Pinleiste" class="st6" d="M151.1,137h11.7v-5.3h-11.7"/>
	<path id="Motoren-Pinleiste_00000107589385642390016050000006671797075869069747_" class="st6" d="M151.1,122.9h11.7v-6.5h-11.7
		V122.9z"/>
	<g id="Power">
		<path class="st6" d="M195.6,100.7h2l-2.5,3.5l0.5-2.5H193l3.1-3.5L195.6,100.7z"/>
	</g>
	<g id="Taste_B_00000082349505263425710090000011385801950500053397_">
		<path class="st6" d="M160.8,72.1v-0.5l0.1-0.4l0.1-0.4l0.1-0.4l0.1-0.4l0.2-0.4l0.2-0.4l0.2-0.4l0.2-0.4l0.2-0.4l0.2-0.3l0.2-0.3
			l0.2-0.3l0.2-0.3l0.3-0.3l0.3-0.3l0.3-0.2l0.3-0.2l0.3-0.2l0.3-0.2l0.4-0.2l0.4-0.2l0.4-0.2l0.4-0.2l0.4-0.2l0.4-0.1l0.4-0.1
			l0.4-0.1l0.4-0.1h0.5h0.5h0.5h0.5l0.4,0.1l0.4,0.1l0.4,0.1l0.4,0.1l0.4,0.2l0.5,0.1l0.4,0.2l0.4,0.2l0.4,0.2l0.3,0.2l0.3,0.2
			l0.3,0.2l0.3,0.2l0.3,0.3l0.3,0.3L176,67l0.2,0.3l0.2,0.3l0.2,0.3l0.2,0.4l0.2,0.4l0.2,0.4l0.2,0.4l0.2,0.4l0.1,0.4l0.1,0.4
			l0.1,0.4l0.1,0.4V72v0.5v0.5v0.5l-0.1,0.4l-0.1,0.4l-0.1,0.4l-0.1,0.4l-0.2,0.4l-0.2,0.4l-0.2,0.4l-0.2,0.4l-0.2,0.4l-0.2,0.3
			l-0.2,0.3l-0.2,0.3l-0.2,0.3l-0.3,0.3l-0.3,0.3l-0.3,0.2l-0.3,0.2l-0.3,0.2l-0.3,0.2l-0.4,0.2l-0.4,0.2l-0.4,0.2l-0.4,0.2
			l-0.4,0.2l-0.4,0.1l-0.4,0.1l-0.4,0.1l-0.4,0.1h-0.5h-0.5h-0.5h-0.5l-0.4-0.1l-0.4-0.1l-0.4-0.1l-0.4-0.1l-0.4-0.2l-0.4-0.2
			l-0.4-0.2l-0.4-0.2l-0.4-0.2l-0.3-0.2l-0.3-0.2L164,79l-0.3-0.2l-0.3-0.3l-0.3-0.3l-0.2-0.3l-0.2-0.3l-0.2-0.3l-0.2-0.3l-0.2-0.4
			l-0.2-0.4l-0.2-0.4l-0.2-0.4l-0.2-0.4l-0.1-0.4l-0.1-0.4l-0.1-0.4l-0.1-0.4v-0.5v-0.5h1.5v0.4v0.4l0.1,0.3l0.1,0.3l0.1,0.3
			l0.1,0.3l0.1,0.3l0.2,0.3l0.2,0.3l0.2,0.3l0.2,0.3l0.2,0.3l0.2,0.3l0.2,0.2l0.2,0.2l0.2,0.2l0.2,0.2l0.2,0.2l0.2,0.2l0.3,0.2
			l0.3,0.2l0.3,0.2l0.3,0.2l0.3,0.2l0.3,0.2l0.3,0.1l0.3,0.1l0.3,0.1l0.3,0.1l0.3,0.1h0.4h0.4h0.4h0.4l0.3-0.1l0.3-0.1l0.3-0.1
			l0.3-0.1l0.3-0.1l0.3-0.2l0.3-0.2l0.3-0.2l0.3-0.2l0.3-0.2l0.3-0.2l0.2-0.2l0.2-0.2l0.2-0.2l0.2-0.2l0.2-0.2l0.2-0.2l0.2-0.3
			l0.2-0.3l0.2-0.3l0.2-0.3l0.2-0.3l0.2-0.3l0.1-0.3l0.1-0.3l0.1-0.3l0.1-0.3l0.1-0.3v-0.4v-0.4v-0.4v-0.4l-0.1-0.3l-0.1-0.3
			l-0.1-0.3l-0.1-0.3l-0.1-0.3l-0.2-0.3l-0.2-0.3l-0.2-0.3l-0.2-0.3l-0.2-0.3l-0.2-0.3l-0.2-0.2l-0.2-0.2l-0.2-0.2l-0.2-0.2L174,67
			l-0.2-0.2l-0.3-0.2l-0.3-0.2l-0.3-0.2l-0.3-0.2l-0.3-0.2l-0.3-0.2l-0.3-0.1l-0.3-0.1l-0.3-0.1l-0.3-0.1l-0.3-0.1h-0.4h-0.4h-0.4
			h-0.4l-0.3,0.1l-0.3,0.1l-0.3,0.1l-0.3,0.1l-0.3,0.1l-0.3,0.2l-0.3,0.2l-0.3,0.2l-0.3,0.2l-0.3,0.2l-0.3,0.2L165,67l-0.2,0.2
			l-0.2,0.2l-0.2,0.2l-0.2,0.2l-0.2,0.2l-0.2,0.3l-0.2,0.3l-0.2,0.3l-0.2,0.3l-0.2,0.3l-0.2,0.3l-0.1,0.3l-0.1,0.3l-0.1,0.3
			l-0.1,0.3l-0.1,0.3v0.4v0.4h-1.5l0,0L160.8,72.1z"/>
	</g>
	<g id="Taste_A_00000173864098007574672720000003462884650823797891_">
		<path class="st6" d="M79.8,72.7l1.6,5.3h-1.1l-0.3-1.1l0,0h-1.4l-0.3,1.1h-1.1l0.6-2h1h0.9l-0.5-1.9L78.9,76h-1l1-3.3H79.8z"/>
		<path class="st6" d="M79.4,63.9L67.8,75.4l11.5,11.5l11.5-11.5L79.4,63.9z M69.9,75.4l9.4-9.4l9.4,9.4l-9.4,9.4L69.9,75.4z"/>
	</g>
	<g>
		<path class="st7" d="M142.6,52.9h0.2l0.2,0.1l0.1,0.2v0.2v1.1v0.2l-0.1,0.2l-0.2,0.1h-0.2h-1.2h-0.2l-0.2-0.1l-0.1-0.2v-0.2v-0.9
			v-0.2l0.1-0.2l0.2-0.1h0.2h1.2V52.9z"/>
		<path class="st7" d="M142.6,49.3h0.2l0.2,0.1l0.1,0.2v0.2v0.9v0.2l-0.1,0.2l-0.2,0.1h-0.2h-1.2h-0.2l-0.2-0.1l-0.1-0.2v-0.2v-0.9
			v-0.2l0.1-0.2l0.2-0.1h0.2H142.6z"/>
		<path class="st7" d="M115.9,52.9h0.2l0.2,0.1l0.1,0.2v0.2v1.1v0.2l-0.1,0.2l-0.2,0.1h-0.2h-1.2h-0.2l-0.2-0.1l-0.1-0.2v-0.2v-0.9
			v-0.2l0.1-0.2l0.2-0.1h0.2h1.2V52.9z"/>
		<path class="st7" d="M115.9,49.3h0.2l0.2,0.1l0.1,0.2v0.2v0.9v0.2l-0.1,0.2l-0.2,0.1h-0.2h-1.2h-0.2l-0.2-0.1l-0.1-0.2v-0.2v-0.9
			v-0.2l0.1-0.2l0.2-0.1h0.2H115.9z"/>
		<path class="st7" d="M106.9,52.9h0.2l0.2,0.1l0.1,0.2v0.2v1.1v0.2l-0.1,0.2l-0.2,0.1h-0.2h-1.2h-0.2l-0.2-0.1l-0.1-0.2v-0.2v-0.9
			v-0.2l0.1-0.2l0.2-0.1h0.2h1.2V52.9z"/>
		<path class="st7" d="M106.9,49.3h0.2l0.2,0.1l0.1,0.2v0.2v0.9v0.2l-0.1,0.2l-0.2,0.1h-0.2h-1.2h-0.2l-0.2-0.1l-0.1-0.2v-0.2v-0.9
			v-0.2l0.1-0.2l0.2-0.1h0.2H106.9z"/>
		<path class="st7" d="M115.9,61.8h0.2l0.2,0.1l0.1,0.2v0.2v0.9v0.2l-0.1,0.2l-0.2,0.1h-0.2h-1.2h-0.2l-0.2-0.1l-0.1-0.2v-0.2v-0.9
			v-0.2l0.1-0.2l0.2-0.1h0.2C114.7,61.8,115.9,61.8,115.9,61.8z"/>
		<path class="st7" d="M115.9,58.3h0.2l0.2,0.1l0.1,0.2v0.2v0.9v0.2l-0.1,0.2L116,60h-0.2h-1.2h-0.2l-0.2-0.1l-0.1-0.2v-0.2v-0.9
			v-0.2l0.1-0.2l0.2-0.1h0.2H115.9z"/>
		<path class="st7" d="M106.9,79.7h0.2l0.2,0.1l0.1,0.2v0.2V81v0.2l-0.1,0.2l-0.2,0.1h-0.2h-1.2h-0.2l-0.2-0.1l-0.1-0.2V81v-0.9
			v-0.2l0.1-0.2l0.2-0.1h0.2H106.9z"/>
		<path class="st7" d="M106.9,76.1h0.2l0.2,0.1l0.1,0.2v0.2v0.9v0.2l-0.1,0.2l-0.2,0.1h-0.2h-1.2h-0.2l-0.2-0.1l-0.1-0.2v-0.2v-0.9
			v-0.2l0.1-0.2l0.2-0.1h0.2C105.8,76.1,106.9,76.1,106.9,76.1z"/>
		<path class="st7" d="M125.5,104.5v-1.6h1.6v1.6H125.5z"/>
		<path class="st7" d="M125.5,102.1v-1.6h1.6v1.6H125.5z"/>
		<path class="st7" d="M121.4,102.1v-1.6h1.6v1.6H121.4z"/>
		<path class="st7" d="M121.4,104.5v-1.6h1.6v1.6H121.4z"/>
		<path class="st7" d="M115.9,70.7h0.2l0.2,0.1l0.1,0.2v0.2v0.9v0.2l-0.1,0.2l-0.2,0.1h-0.2h-1.2h-0.2l-0.2-0.1l-0.1-0.2v-0.2v-0.9
			V71l0.1-0.2l0.2-0.1h0.2H115.9z"/>
		<path class="st7" d="M115.9,67.2h0.2l0.2,0.1l0.1,0.2v0.2v0.9v0.2l-0.1,0.2l-0.2,0.1h-0.2h-1.2h-0.2l-0.2-0.1l-0.1-0.2v-0.2v-0.8
			v-0.2l0.1-0.2l0.2-0.1h0.2h1.2V67.2z"/>
		<path class="st7" d="M124.8,70.7h0.2l0.2,0.1l0.1,0.2v0.2v0.9v0.2l-0.1,0.2l-0.2,0.1h-0.2h-1.2h-0.2l-0.2-0.1l-0.1-0.2v-0.2v-0.9
			V71l0.1-0.2l0.2-0.1h0.2H124.8z"/>
		<path class="st7" d="M124.8,67.2h0.2l0.2,0.1l0.1,0.2v0.2v0.9v0.2l-0.1,0.2l-0.2,0.1h-0.2h-1.2h-0.2l-0.2-0.1l-0.1-0.2v-0.2v-0.8
			v-0.2l0.1-0.2l0.2-0.1h0.2h1.2V67.2z"/>
		<path class="st7" d="M142.6,79.7h0.2l0.2,0.1l0.1,0.2v0.2V81v0.2l-0.1,0.2l-0.2,0.1h-0.2h-1.2h-0.2l-0.2-0.1l-0.1-0.2V81v-0.9
			v-0.2l0.1-0.2l0.2-0.1h0.2H142.6z"/>
		<path class="st7" d="M142.6,76.1h0.2l0.2,0.1l0.1,0.2v0.2v0.9v0.2l-0.1,0.2l-0.2,0.1h-0.2h-1.2h-0.2l-0.2-0.1l-0.1-0.2v-0.2v-0.9
			v-0.2l0.1-0.2l0.2-0.1h0.2C141.4,76.1,142.6,76.1,142.6,76.1z"/>
		<path class="st7" d="M106.9,70.7h0.2l0.2,0.1l0.1,0.2v0.2v0.9v0.2l-0.1,0.2l-0.2,0.1h-0.2h-1.2h-0.2l-0.2-0.1l-0.1-0.2v-0.2v-0.9
			V71l0.1-0.2l0.2-0.1h0.2L106.9,70.7L106.9,70.7z"/>
		<path class="st7" d="M106.9,67.2h0.2l0.2,0.1l0.1,0.2v0.2v0.9v0.2l-0.1,0.2l-0.2,0.1h-0.2h-1.2h-0.2l-0.2-0.1l-0.1-0.2v-0.2v-0.8
			v-0.2l0.1-0.2l0.2-0.1h0.2h1.2V67.2z"/>
		<path class="st7" d="M142.6,88.6h0.2l0.2,0.1l0.1,0.2v0.2v0.9V90l-0.1,0.2l-0.1,0.3h-0.2h-1.2h-0.2l-0.2-0.1l-0.1-0.2v-0.2v-0.9
			V89l0.1-0.2l0.2-0.1h0.2h1.1V88.6z"/>
		<path class="st7" d="M142.6,85.1h0.2l0.2,0.1l0.1,0.2v0.2v0.9v0.2l-0.1,0.2l-0.2,0.1h-0.2h-1.2h-0.2l-0.2-0.1l-0.1-0.2v-0.2v-0.9
			v-0.2l0.1-0.2l0.2-0.1h0.2H142.6z"/>
		<path class="st7" d="M133.7,61.8h0.2l0.2,0.1l0.1,0.2v0.2v0.9v0.2l-0.1,0.2l-0.2,0.1h-0.2h-1.2h-0.2l-0.2-0.1l-0.1-0.2v-0.2v-0.9
			v-0.2l0.1-0.2l0.2-0.1h0.2C132.5,61.8,133.7,61.8,133.7,61.8z"/>
		<path class="st7" d="M133.7,58.3h0.2l0.2,0.1l0.1,0.2v0.2v0.9v0.2L134,60l-0.2,0.1h-0.2h-1.2h-0.2l-0.2-0.1l-0.1-0.2v-0.2v-0.9
			v-0.2l0.1-0.2l0.2-0.1h0.2H133.7z"/>
		<path class="st7" d="M124.8,79.7h0.2l0.2,0.1l0.1,0.2v0.2V81v0.2l-0.1,0.2l-0.2,0.1h-0.2h-1.2h-0.2l-0.2-0.1l-0.1-0.2V81v-0.9
			v-0.2l0.1-0.2l0.2-0.1h0.2H124.8z"/>
		<path class="st7" d="M124.8,76.1h0.2l0.2,0.1l0.1,0.2v0.2v0.9v0.2l-0.1,0.2l-0.2,0.1h-0.2h-1.2h-0.2l-0.2-0.1l-0.1-0.2v-0.2v-0.9
			v-0.2l0.1-0.2l0.2-0.1h0.2C123.6,76.1,124.8,76.1,124.8,76.1z"/>
		<path class="st7" d="M124.8,61.8h0.2l0.2,0.1l0.1,0.2v0.2v0.9v0.2l-0.1,0.2l-0.2,0.1h-0.2h-1.2h-0.2l-0.2-0.1l-0.1-0.2v-0.2v-0.9
			v-0.2l0.1-0.2l0.2-0.1h0.2C123.6,61.8,124.8,61.8,124.8,61.8z"/>
		<path class="st7" d="M124.8,58.3h0.2l0.2,0.1l0.1,0.2v0.2v0.9v0.2l-0.1,0.2l-0.2,0.1h-0.2h-1.2h-0.2l-0.2-0.1l-0.1-0.2v-0.2v-0.9
			v-0.2l0.1-0.2l0.2-0.1h0.2H124.8z"/>
		<path class="st7" d="M142.6,70.7h0.2l0.2,0.1L143,71v0.2v0.9v0.2l-0.1,0.2l-0.2,0.1h-0.2h-1.2h-0.2l-0.2-0.1l-0.1-0.2v-0.2v-0.9
			V71l0.1-0.2l0.2-0.1h0.2H142.6z"/>
		<path class="st7" d="M142.6,67.2h0.2l0.2,0.1l0.1,0.2v0.2v0.9v0.2l-0.1,0.2l-0.2,0.1h-0.2h-1.2h-0.2l-0.2-0.1l-0.1-0.2v-0.2v-0.8
			v-0.2l0.1-0.2l0.2-0.1h0.2h1.2V67.2z"/>
		<path class="st7" d="M124.8,88.6h0.2l0.2,0.1l0.1,0.2v0.2v0.9V90l-0.1,0.2l-0.2,0.1h-0.2h-1.2h-0.2l-0.2-0.1l-0.1-0.2v-0.2v-0.9
			v-0.2l0.1-0.2l0.2-0.1h0.2C123.6,88.6,124.8,88.6,124.8,88.6z"/>
		<path class="st7" d="M124.8,85.1h0.2l0.2,0.1l0.1,0.2v0.2v0.9v0.2l-0.1,0.2l-0.2,0.1h-0.2h-1.2h-0.2l-0.2-0.1l-0.1-0.2v-0.2v-0.9
			v-0.2l0.1-0.2l0.2-0.1h0.2L124.8,85.1L124.8,85.1z"/>
		<path class="st7" d="M136.6,104.5v-1.6h1.6v1.6H136.6z"/>
		<path class="st7" d="M136.6,102.1v-1.6h1.6v1.6H136.6z"/>
		<path class="st7" d="M132.5,102.1v-1.6h1.6v1.6H132.5z"/>
		<path class="st7" d="M132.5,104.5v-1.6h1.6v1.6H132.5z"/>
		<path class="st7" d="M115.9,88.6h0.2l0.2,0.1l0.1,0.2v0.2v0.9V90l-0.1,0.2l-0.2,0.1h-0.2h-1.2h-0.2l-0.2-0.1l-0.1-0.2v-0.2v-0.9
			v-0.2l0.1-0.2l0.2-0.1h0.2C114.7,88.6,115.9,88.6,115.9,88.6z"/>
		<path class="st7" d="M115.9,85.1h0.2l0.2,0.1l0.1,0.2v0.2v0.9v0.2l-0.1,0.2l-0.2,0.1h-0.2h-1.2h-0.2l-0.2-0.1l-0.1-0.2v-0.2v-0.9
			v-0.2l0.1-0.2l0.2-0.1h0.2H115.9z"/>
		<path class="st7" d="M114.3,104.5v-1.6h1.6v1.6H114.3z"/>
		<path class="st7" d="M114.3,102.1v-1.6h1.6v1.6H114.3z"/>
		<path class="st7" d="M110.2,102.1v-1.6h1.6v1.6H110.2z"/>
		<path class="st7" d="M110.2,104.5v-1.6h1.6v1.6H110.2z"/>
		<path class="st7" d="M115.9,79.7h0.2l0.2,0.1l0.1,0.2v0.2V81v0.2l-0.1,0.2l-0.2,0.1h-0.2h-1.2h-0.2l-0.2-0.1l-0.1-0.2V81v-0.9
			v-0.2l0.1-0.2l0.2-0.1h0.2H115.9z"/>
		<path class="st7" d="M115.9,76.1h0.2l0.2,0.1l0.1,0.2v0.2v0.9v0.2l-0.1,0.2l-0.2,0.1h-0.2h-1.2h-0.2l-0.2-0.1l-0.1-0.2v-0.2v-0.9
			v-0.2l0.1-0.2l0.2-0.1h0.2C114.7,76.1,115.9,76.1,115.9,76.1z"/>
		<path class="st7" d="M133.7,52.9h0.2L134,53l0.1,0.2v0.2v1.1v0.2l-0.1,0.2l-0.2,0.1h-0.2h-1.2h-0.2l-0.2-0.1l-0.1-0.2v-0.2v-0.9
			v-0.2l0.1-0.2l0.2-0.1h0.2h1.2V52.9z"/>
		<path class="st7" d="M133.7,49.3h0.2l0.2,0.1l0.1,0.2v0.2v0.9v0.2L134,51l-0.2,0.1h-0.2h-1.2h-0.2l-0.2-0.1l-0.1-0.2v-0.2v-0.9
			v-0.2l0.1-0.2l0.2-0.1h0.2H133.7z"/>
		<path class="st7" d="M133.7,79.7h0.2l0.2,0.1l0.1,0.2v0.2V81v0.2l-0.1,0.2l-0.2,0.1h-0.2h-1.2h-0.2l-0.2-0.1l-0.1-0.2V81v-0.9
			v-0.2l0.1-0.2l0.2-0.1h0.2H133.7z"/>
		<path class="st7" d="M133.7,76.1h0.2l0.2,0.1l0.1,0.2v0.2v0.9v0.2l-0.1,0.2l-0.2,0.1h-0.2h-1.2h-0.2l-0.2-0.1l-0.1-0.2v-0.2v-0.9
			v-0.2l0.1-0.2l0.2-0.1h0.2C132.5,76.1,133.7,76.1,133.7,76.1z"/>
		<path class="st7" d="M133.7,88.6h0.2l0.2,0.1l0.1,0.2v0.2v0.9V90l-0.1,0.2l-0.2,0.1h-0.2h-1.2h-0.2l-0.2-0.1l-0.1-0.2v-0.2v-0.9
			v-0.2l0.1-0.2l0.2-0.1h0.2C132.5,88.6,133.7,88.6,133.7,88.6z"/>
		<path class="st7" d="M133.7,85.1h0.2l0.2,0.1l0.1,0.2v0.2v0.9v0.2l-0.1,0.2l-0.2,0.1h-0.2h-1.2h-0.2l-0.2-0.1l-0.1-0.2v-0.2v-0.9
			v-0.2l0.1-0.2l0.2-0.1h0.2H133.7z"/>
		<path class="st7" d="M106.9,88.6h0.2l0.2,0.1l0.1,0.2v0.2v0.9V90l-0.1,0.2l-0.2,0.1h-0.2h-1.2h-0.2l-0.2-0.1l-0.1-0.2v-0.2v-0.9
			v-0.2l0.1-0.2l0.2-0.1h0.2C105.8,88.6,106.9,88.6,106.9,88.6z"/>
		<path class="st7" d="M106.9,85.1h0.2l0.2,0.1l0.1,0.2v0.2v0.9v0.2l-0.1,0.2l-0.2,0.1h-0.2h-1.2h-0.2l-0.2-0.1l-0.1-0.2v-0.2v-0.9
			v-0.2l0.1-0.2l0.2-0.1h0.2H106.9z"/>
		<path class="st7" d="M124.8,52.9h0.2l0.2,0.1l0.1,0.2v0.2v1.1v0.2l-0.1,0.2l-0.2,0.1h-0.2h-1.2h-0.2l-0.2-0.1l-0.1-0.2v-0.2v-0.9
			v-0.2l0.1-0.2l0.2-0.1h0.2h1.2V52.9z"/>
		<path class="st7" d="M124.8,49.3h0.2l0.2,0.1l0.1,0.2v0.2v0.9v0.2l-0.1,0.2l-0.2,0.1h-0.2h-1.2h-0.2l-0.2-0.1l-0.1-0.2v-0.2v-0.9
			v-0.2l0.1-0.2l0.2-0.1h0.2H124.8z"/>
		<path class="st7" d="M106.9,61.8h0.2l0.2,0.1l0.1,0.2v0.2v0.9v0.2l-0.1,0.2l-0.2,0.1h-0.2h-1.2h-0.2l-0.2-0.1l-0.1-0.2v-0.2v-0.9
			v-0.2l0.1-0.2l0.2-0.1h0.2C105.8,61.8,106.9,61.8,106.9,61.8z"/>
		<path class="st7" d="M106.9,58.3h0.2l0.2,0.1l0.1,0.2v0.2v0.9v0.2l-0.1,0.2l-0.2,0.1h-0.2h-1.2h-0.2l-0.2-0.1l-0.1-0.2v-0.2v-0.9
			v-0.2l0.1-0.2l0.2-0.1h0.2H106.9z"/>
		<path class="st7" d="M142.6,61.8h0.2l0.2,0.1l0.1,0.2v0.2v0.9v0.2l-0.1,0.2l-0.2,0.1h-0.2h-1.2h-0.2l-0.2-0.1l-0.1-0.2v-0.2v-0.9
			v-0.2l0.1-0.2l0.2-0.1h0.2C141.4,61.8,142.6,61.8,142.6,61.8z"/>
		<path class="st7" d="M142.6,58.3h0.2l0.2,0.1l0.1,0.2v0.2v0.9v0.2l-0.1,0.2l-0.2,0.1h-0.2h-1.2h-0.2l-0.2-0.1l-0.1-0.2v-0.2v-0.9
			v-0.2l0.1-0.2l0.2-0.1h0.2H142.6z"/>
		<path class="st7" d="M133.7,70.7h0.2l0.2,0.1l0.1,0.2v0.2v0.9v0.2l-0.1,0.2l-0.2,0.1h-0.2h-1.2h-0.2l-0.2-0.1l-0.1-0.2v-0.2v-0.9
			V71l0.1-0.2l0.2-0.1h0.2H133.7z"/>
		<path class="st7" d="M133.7,67.2h0.2l0.2,0.1l0.1,0.2v0.2v0.9v0.2l-0.1,0.2l-0.2,0.1h-0.2h-1.2h-0.2l-0.2-0.1l-0.1-0.2v-0.2v-0.8
			v-0.2l0.1-0.2l0.2-0.1h0.2h1.2V67.2z"/>
	</g>
</g>
<g id="Touchpins">
	<path id="Plus-Pin" class="st8" d="M167.6,2c-2,0-3.8,0.5-5.3,1.5c-0.2,0.1-0.3,0.2-0.4,0.2c0,0,0,0-0.1,0
		c-0.2,0.2-0.4,0.2-0.5,0.4l0,0c-0.2,0.2-0.3,0.2-0.5,0.4c-0.1,0.1-0.2,0.2-0.2,0.2s-0.2,0.2-0.2,0.2c-0.2,0.2-0.3,0.3-0.5,0.5
		c-0.5,0.5-0.8,1-1.2,1.6c-0.1,0.2-0.2,0.4-0.3,0.5c-0.1,0.2-0.2,0.4-0.3,0.6c-0.1,0.1-0.1,0.2-0.1,0.3c0,0.1-0.1,0.2-0.1,0.2
		c-0.1,0.2-0.2,0.5-0.2,0.8c-0.1,0.2-0.1,0.4-0.2,0.6c0,0.1,0,0.2-0.1,0.3c0,0.1,0,0.2-0.1,0.3c0,0.2-0.1,0.4-0.1,0.5
		c0,0.1,0,0.2,0,0.3s0,0.4,0,0.5c0,5.7,4.6,10.2,10.2,10.2c0.3,0,0.6,0,0.9-0.1c0.9-0.1,1.9-0.3,2.7-0.6c0.1,0,0.2-0.1,0.2-0.1
		c0.2-0.1,0.5-0.2,0.6-0.3c0.2-0.1,0.4-0.2,0.6-0.3c0.2-0.1,0.3-0.2,0.5-0.3c0.2-0.1,0.3-0.2,0.5-0.3c0.2-0.1,0.3-0.2,0.5-0.3
		c0.2-0.2,0.3-0.2,0.4-0.4c0.2-0.2,0.3-0.2,0.4-0.4c0.2-0.2,0.2-0.3,0.4-0.4c0.2-0.2,0.2-0.3,0.4-0.5c0.1-0.2,0.2-0.3,0.3-0.5
		c0.2-0.2,0.2-0.4,0.3-0.5c0.1-0.2,0.2-0.3,0.2-0.5c0.1-0.2,0.2-0.4,0.2-0.6c0.2-0.5,0.4-1,0.6-1.5c0.1-0.2,0.1-0.5,0.2-0.7l0,0
		c0.1-0.6,0.2-1.2,0.2-1.8C177.8,6.6,173.2,2,167.6,2z M167.6,16.7c-2.4,0-4.5-2-4.5-4.5c0-2.4,2-4.5,4.5-4.5c2.4,0,4.5,2,4.5,4.5
		S170.1,16.7,167.6,16.7z"/>
	<path id="Minus-Pin" class="st8" d="M93.3,11.6L93.3,11.6C93.4,11.5,93.4,11.5,93.3,11.6c0-0.2,0-0.3,0-0.5c0-0.2-0.1-0.4-0.1-0.5
		c0-0.1-0.1-0.2-0.1-0.3c-0.2-1-0.5-2-1-2.9C92.1,7.2,92,7,91.9,6.8c0-0.2-0.2-0.4-0.2-0.5c-0.1-0.2-0.2-0.2-0.2-0.3
		c-0.2-0.2-0.3-0.4-0.5-0.6l0,0c-0.2-0.2-0.3-0.4-0.5-0.5c-2-2-4.7-3.4-7.9-3.4c-6,0-10.8,4.8-10.8,10.8c0,0.5,0,1,0.1,1.5l0,0v0.1
		c0,0.1,0,0.2,0.1,0.3c0,0.2,0.1,0.5,0.2,0.6c0,0.2,0.1,0.3,0.2,0.5c0,0.1,0.1,0.2,0.1,0.3c0.1,0.3,0.2,0.7,0.4,1.1
		c0.1,0.2,0.2,0.3,0.2,0.4c0.1,0.2,0.2,0.2,0.2,0.4c0.1,0.2,0.2,0.2,0.2,0.4c0.1,0.1,0.1,0.2,0.2,0.3c0.4,0.6,0.8,1.1,1.3,1.6
		c0.2,0.2,0.3,0.3,0.5,0.4c0.2,0.2,0.3,0.2,0.5,0.4c0.2,0.2,0.5,0.3,0.7,0.5c0.2,0.2,0.4,0.2,0.6,0.4c0.1,0,0.1,0.1,0.2,0.1
		c0.2,0.2,0.5,0.2,0.7,0.3c0.2,0.1,0.5,0.2,0.8,0.3c0.3,0.1,0.6,0.2,1,0.3c0.2,0.1,0.5,0.1,0.7,0.2c0.4,0.1,0.8,0.2,1.3,0.2
		c0.2,0,0.3,0,0.5,0C88.8,22.9,93.3,17.5,93.3,11.6C93.2,11.4,93.4,11.7,93.3,11.6z M82.7,16.6c-2.4,0-4.5-2-4.5-4.5
		c0-2.4,2-4.5,4.5-4.5c2.4,0,4.5,2,4.5,4.5S85.1,16.6,82.7,16.6z"/>
	<path id="Pin_3" class="st8" d="M213.3,76.1c-0.5-0.2-1-0.3-1.6-0.4c-0.1,0-0.2,0-0.3-0.1c-0.5-0.1-0.9-0.1-1.4-0.1
		c-0.2,0-0.2,0-0.4,0c-0.1,0-0.2,0-0.3,0c-0.3,0-0.6,0-0.9,0.1c-0.2,0.1-0.5,0.1-0.8,0.2c-0.2,0-0.2,0.1-0.4,0.1
		c-0.3,0.1-0.6,0.2-0.9,0.3c-0.2,0.1-0.4,0.2-0.5,0.2c-0.2,0.1-0.4,0.2-0.6,0.3c-0.2,0.1-0.4,0.2-0.6,0.3c-0.2,0.2-0.4,0.2-0.5,0.4
		c-0.2,0.2-0.4,0.2-0.6,0.4c-0.1,0.1-0.2,0.2-0.3,0.2c-0.2,0.1-0.2,0.2-0.3,0.3c-0.1,0.1-0.2,0.1-0.2,0.2c-1.9,1.9-3,4.4-3,7.2
		c0,5.7,4.6,10.2,10.2,10.2c0.2,0,0.5,0,0.7,0c0.1,0,0.2,0,0.2,0c0.2,0,0.5,0,0.6-0.1c0.2,0,0.5-0.1,0.6-0.2c0.1,0,0.2,0,0.2-0.1
		c0.2-0.1,0.4-0.1,0.6-0.2c0.2-0.1,0.3-0.1,0.5-0.2c3.9-1.4,6.7-5.2,6.7-9.6C220.3,81.3,217.4,77.5,213.3,76.1z M210.1,90.3
		c-2.4,0-4.5-2-4.5-4.5c0-2.5,2-4.5,4.5-4.5c2.4,0,4.5,2,4.5,4.5C214.6,88.3,212.5,90.3,210.1,90.3z"/>
	<path id="Pin_2" class="st8" d="M177.6,157.1c0-0.2-0.1-0.2-0.1-0.4c-0.1-0.5-0.2-0.9-0.4-1.3c-0.1-0.1-0.1-0.2-0.2-0.2
		c-0.2-0.5-0.5-0.9-0.8-1.4c-0.1-0.1-0.1-0.2-0.2-0.2c-0.5-0.7-0.9-1.3-1.6-1.8c-0.1-0.1-0.2-0.2-0.3-0.3c-0.2-0.2-0.3-0.2-0.5-0.4
		c-0.2-0.1-0.2-0.2-0.4-0.3c-0.2-0.2-0.5-0.3-0.7-0.5c-0.2-0.1-0.2-0.2-0.4-0.2c-0.2-0.2-0.6-0.2-0.8-0.4c-0.2-0.1-0.2-0.1-0.4-0.2
		c-0.3-0.2-0.6-0.2-1-0.3c-0.2-0.1-0.2-0.1-0.4-0.1c-0.2-0.1-0.4-0.1-0.6-0.1c-0.2,0-0.3,0-0.5-0.1c-0.2,0-0.3,0-0.6,0
		c-0.2,0-0.3,0-0.6,0c-0.2,0-0.4,0-0.5,0c-0.2,0-0.6,0-0.8,0.1c-0.2,0-0.3,0-0.4,0.1c-0.5,0.1-0.9,0.2-1.3,0.3
		c-0.2,0.1-0.3,0.1-0.5,0.2c-0.2,0.1-0.3,0.2-0.5,0.2c-0.2,0.1-0.3,0.2-0.5,0.2c-1.5,0.7-2.8,1.8-3.8,3.1c-0.2,0.2-0.3,0.5-0.5,0.7
		c-0.2,0.4-0.5,0.8-0.6,1.2c-0.2,0.3-0.3,0.7-0.4,1.1c-0.1,0.2-0.1,0.2-0.2,0.4c-0.2,0.9-0.4,1.9-0.4,2.9c0,5.7,4.6,10.4,10.4,10.4
		c5.7,0,10.4-4.6,10.4-10.4C177.9,158.6,177.8,157.8,177.6,157.1z M167.4,163.8c-2.4,0-4.5-2-4.5-4.5c0-2.4,2-4.5,4.5-4.5
		s4.5,2,4.5,4.5S169.9,163.8,167.4,163.8z"/>
	<path id="Pin_1" class="st8" d="M92.9,156.9c-0.1-0.2-0.2-0.5-0.2-0.7v-0.1c-0.1-0.2-0.2-0.4-0.2-0.6c0-0.1-0.1-0.1-0.1-0.2
		c-0.1-0.2-0.2-0.4-0.3-0.6c-0.2-0.2-0.3-0.6-0.5-0.8c-0.2-0.2-0.2-0.4-0.4-0.5c-0.2-0.2-0.2-0.4-0.4-0.6c-0.1-0.1-0.2-0.2-0.2-0.2
		c-0.2-0.2-0.2-0.3-0.4-0.5l0,0c-0.2-0.2-0.3-0.3-0.5-0.5c-0.2-0.2-0.5-0.4-0.7-0.6c-0.2-0.2-0.4-0.3-0.6-0.5
		c-0.2-0.2-0.5-0.2-0.7-0.4c-0.2-0.2-0.5-0.2-0.7-0.3c-0.6-0.2-1.3-0.5-1.9-0.6c-0.2,0-0.2-0.1-0.4-0.1s-0.2-0.1-0.4-0.1
		c-0.2,0-0.2,0-0.4-0.1c-0.3,0-0.7-0.1-1-0.1c-0.4,0-0.7,0-1.1,0.1c-0.2,0-0.3,0-0.5,0.1c-0.5,0.1-1,0.2-1.5,0.3
		c-0.9,0.3-1.9,0.8-2.7,1.3c-0.2,0.1-0.2,0.2-0.4,0.3c-0.2,0.1-0.2,0.2-0.4,0.3c-0.2,0.1-0.2,0.2-0.4,0.3c-0.2,0.1-0.2,0.2-0.4,0.3
		c-0.1,0.1-0.2,0.2-0.3,0.4c-0.3,0.4-0.6,0.8-0.9,1.2c-0.2,0.3-0.4,0.5-0.5,0.9c-0.1,0.2-0.2,0.3-0.2,0.5c-0.2,0.3-0.2,0.6-0.4,0.9
		c-0.4,1.1-0.6,2.4-0.6,3.6c0,5.8,4.7,10.4,10.4,10.4s10.4-4.7,10.4-10.4C93.2,158.6,93,157.7,92.9,156.9z M82.7,164
		c-2.5,0-4.5-2-4.5-4.5c0-2.4,2-4.5,4.5-4.5c2.4,0,4.5,2,4.5,4.5C87.2,161.9,85.2,164,82.7,164z"/>
	<path id="Pin_0" class="st8" d="M40.1,75.5c-0.2,0-0.3,0-0.5,0c-0.2,0-0.3,0-0.5,0.1c-0.6,0.1-1.3,0.2-1.9,0.4
		c-4.2,1.2-7.4,5.2-7.4,9.8c0,4.2,2.6,7.9,6.3,9.5c0.3,0.2,0.6,0.2,0.9,0.3c0.3,0.1,0.6,0.2,0.9,0.2c0.2,0.1,0.3,0.1,0.5,0.1
		c0.2,0,0.3,0.1,0.5,0.1c0.3,0,0.7,0.1,1,0.1c5.7,0,10.3-4.6,10.3-10.3C50.4,80.1,45.9,75.5,40.1,75.5z M40.1,90.3
		c-2.4,0-4.5-2-4.5-4.5c0-2.5,2-4.5,4.5-4.5s4.5,2,4.5,4.5C44.6,88.3,42.7,90.3,40.1,90.3z"/>
</g>
<g id="JacDac">
	<g>
		<g id="LWPOLYLINE_00000056389708305240723870000015083357615805203126_">
			<path class="st8" d="M102.2,146.5c0.1-0.2,0.2-0.5,0.1-0.7c-0.1-0.6-0.6-1-1.3-1c-0.1,0-0.1,0-0.2,0c-0.7,0.2-1.1,0.8-1,1.4
				c0.1,0.2,0.2,0.5,0.3,0.6l1.3,7.5c0.1,0.5,0.6,0.8,1,0.7h0.2c0.5-0.1,0.8-0.5,0.7-1L102.2,146.5z M101.1,146.9
				c-0.4,0-0.8-0.3-0.8-0.8c0-0.5,0.4-0.8,0.8-0.8c0.4,0,0.8,0.3,0.8,0.8C101.9,146.5,101.5,146.9,101.1,146.9z"/>
		</g>
		<g id="ARC_00000097474104168688435380000017146066176934872713_">
			<path class="st8" d="M105,146.1L105,146.1c0.1-0.2,0.2-0.5,0.1-0.7c-0.2-0.6-0.8-1.1-1.4-1c-0.7,0.2-1.1,0.8-1,1.4
				c0.1,0.2,0.2,0.5,0.3,0.6l1.5,8.6c0.1,0.5,0.5,0.8,1,0.7l0.2-0.1c0.5-0.1,0.8-0.5,0.7-1L105,146.1z M103.9,146.3
				c-0.4,0-0.8-0.3-0.8-0.8s0.4-0.8,0.8-0.8c0.4,0,0.8,0.3,0.8,0.8S104.3,146.3,103.9,146.3z"/>
		</g>
		<g id="LWPOLYLINE_00000170966461034420328180000007072736512868471690_">
			<path class="st8" d="M107.8,145.6c0.1-0.2,0.2-0.5,0.1-0.7c-0.1-0.2-0.2-0.5-0.3-0.6c-0.2-0.3-0.6-0.4-1.1-0.3
				c-0.6,0.2-1.1,0.8-1,1.4c0.1,0.2,0.2,0.5,0.3,0.6l1.5,8.6c0.1,0.5,0.6,0.8,1,0.7l0.2-0.1c0.5-0.1,0.8-0.6,0.7-1L107.8,145.6z
				 M106.7,145.8c-0.4,0-0.8-0.4-0.8-0.8c0-0.5,0.3-0.8,0.8-0.8s0.8,0.3,0.8,0.8C107.4,145.5,107.1,145.8,106.7,145.8z"/>
		</g>
	</g>
	<g>
		<g id="LINE_00000067943469928557821020000008144218218959454621_">
			<path class="st8" d="M146.5,144.3c-0.6-0.1-1.3,0.3-1.4,1c-0.1,0.2,0,0.5,0.1,0.7l0,0l-1.5,8.6c-0.1,0.5,0.2,0.9,0.7,1l0.2,0.1
				c0.5,0.1,0.9-0.2,1-0.7l1.5-8.6c0.2-0.2,0.3-0.4,0.3-0.6C147.6,145.1,147.2,144.5,146.5,144.3z M146.4,146.3
				c-0.4,0-0.8-0.3-0.8-0.8s0.3-0.8,0.8-0.8s0.8,0.3,0.8,0.8S146.8,146.3,146.4,146.3z"/>
		</g>
		<g id="LWPOLYLINE_00000111881289479611605620000015351086674710880703_">
			<path class="st8" d="M143.8,143.9c-0.4-0.1-0.9,0.1-1.1,0.4c-0.2,0.2-0.2,0.4-0.3,0.6s0,0.5,0.1,0.7l-1.3,7.5
				c-0.1,0.5,0.2,0.9,0.7,1h0.2c0.5,0.1,0.9-0.2,1-0.7l1.3-7.5c0.2-0.2,0.3-0.4,0.3-0.6C144.9,144.6,144.4,143.9,143.8,143.9z
				 M143.5,145.8c-0.5,0-0.8-0.3-0.8-0.8c0-0.2,0.1-0.4,0.2-0.5c0.2-0.2,0.3-0.2,0.6-0.2c0.4,0,0.8,0.3,0.8,0.8
				S144,145.8,143.5,145.8z"/>
		</g>
		<g id="LWPOLYLINE_00000115515919514279782110000016854648703813804954_">
			<path class="st8" d="M149.4,144.8c-0.1,0-0.2,0-0.2,0c-0.6,0-1.1,0.4-1.2,1c-0.1,0.2,0,0.5,0.1,0.7l-1.5,8.6
				c-0.1,0.5,0.2,0.9,0.7,1l0.2,0.1c0.5,0.1,0.9-0.2,1-0.7l1.5-8.6c0.2-0.2,0.3-0.4,0.3-0.6C150.5,145.6,150,145,149.4,144.8z
				 M149.1,146.9c-0.4,0-0.8-0.3-0.8-0.8c0-0.5,0.3-0.8,0.8-0.8c0.5,0,0.8,0.3,0.8,0.8C149.9,146.5,149.5,146.9,149.1,146.9z"/>
		</g>
	</g>
</g>
<g id="Steckleiste">
	<path d="M82.9,122v10.2c0,0.2,0.2,0.5,0.5,0.5h84.9c0.2,0,0.5-0.2,0.5-0.5V122c0-0.2-0.2-0.5-0.5-0.5H83.4
		C83,121.6,82.9,121.8,82.9,122z M127.1,122.9v2.8h-2.8v-2.8H127.1z M87.5,131.4h-2.8v-2.8h2.8V131.4z M87.5,125.7h-2.8v-2.8h2.8
		V125.7z M93.2,131.4h-2.8v-2.8h2.8V131.4z M93.2,125.7h-2.8v-2.8h2.8V125.7z M98.8,131.4H96v-2.8h2.8V131.4z M98.8,125.7H96v-2.8
		h2.8V125.7z M104.5,131.4h-2.8v-2.8h2.8V131.4z M104.5,125.7h-2.8v-2.8h2.8V125.7z M110.2,131.4h-2.8v-2.8h2.8V131.4z M110.2,125.7
		h-2.8v-2.8h2.8V125.7z M115.8,131.4H113v-2.8h2.8V131.4z M115.8,125.7H113v-2.8h2.8V125.7z M121.5,131.4h-2.8v-2.8h2.8V131.4z
		 M121.5,125.7h-2.8v-2.8h2.8V125.7z M127.1,131.4h-2.8v-2.8h2.8V131.4z M132.8,131.4H130v-2.8h2.8V131.4z M132.8,125.7H130v-2.8
		h2.8V125.7z M138.4,131.4h-2.8v-2.8h2.8V131.4z M138.4,125.7h-2.8v-2.8h2.8V125.7z M144.1,131.4h-2.8v-2.8h2.8V131.4z M144.1,125.7
		h-2.8v-2.8h2.8V125.7z M149.8,131.4h-2.8v-2.8h2.8V131.4z M149.8,125.7h-2.8v-2.8h2.8V125.7z M155.4,131.4h-2.8v-2.8h2.8V131.4z
		 M155.4,125.7h-2.8v-2.8h2.8V125.7z M161.1,131.4h-2.8v-2.8h2.8V131.4z M161.1,125.7h-2.8v-2.8h2.8V125.7z M166.7,131.4h-2.8v-2.8
		h2.8V131.4z M166.7,125.7h-2.8v-2.8h2.8V125.7z"/>
	<g id="Aussen">
		<path d="M84.7,128.5v2.8h2.8v-2.8H84.7z M87.1,130.9h-1.9V129h1.9V130.9z"/>
		<path d="M90.4,128.5v2.8h2.8v-2.8H90.4z M92.8,130.9h-1.9V129h1.9V130.9z"/>
		<path d="M96,128.5v2.8h2.8v-2.8H96z M98.4,130.9h-2V129h2V130.9z"/>
		<path d="M101.7,128.5v2.8h2.8v-2.8H101.7z M104.1,130.9h-1.9V129h1.9V130.9z"/>
		<path d="M107.3,128.5v2.8h2.8v-2.8H107.3z M109.8,130.9h-2V129h2V130.9z"/>
		<path d="M113,128.5v2.8h2.8v-2.8H113z M115.4,130.9h-1.9V129h1.9V130.9z"/>
		<path d="M118.6,128.5v2.8h2.8v-2.8H118.6z M121.1,130.9h-1.9V129h1.9V130.9z"/>
		<path d="M124.3,128.5v2.8h2.8v-2.8H124.3z M126.7,130.9h-2V129h2V130.9z"/>
		<path d="M130,128.5v2.8h2.8v-2.8H130z M132.4,130.9h-1.9V129h1.9V130.9z"/>
		<path d="M135.6,128.5v2.8h2.8v-2.8H135.6z M138,130.9h-2V129h2V130.9z"/>
		<path d="M141.3,128.5v2.8h2.8v-2.8H141.3z M143.7,130.9h-1.9V129h1.9V130.9z"/>
		<path d="M146.9,128.5v2.8h2.8v-2.8H146.9z M149.4,130.9h-2V129h2V130.9z"/>
		<path d="M152.6,128.5v2.8h2.8v-2.8H152.6z M155,130.9h-2V129h2V130.9z"/>
		<path d="M158.2,128.5v2.8h2.8v-2.8H158.2z M160.7,130.9h-2V129h2V130.9z"/>
		<path d="M163.9,128.5v2.8h2.8v-2.8H163.9z M166.3,130.9h-2V129h2V130.9z"/>
		<path d="M84.7,122.9v2.8h2.8v-2.8H84.7z M87.1,125.2h-1.9v-2h1.9V125.2z"/>
		<path d="M90.4,122.9v2.8h2.8v-2.8H90.4z M92.8,125.2h-1.9v-2h1.9V125.2z"/>
		<path d="M96,122.9v2.8h2.8v-2.8H96z M98.4,125.2h-2v-2h2V125.2z"/>
		<path d="M101.7,122.9v2.8h2.8v-2.8H101.7z M104.1,125.2h-1.9v-2h1.9V125.2z"/>
		<path d="M107.3,122.9v2.8h2.8v-2.8H107.3z M109.8,125.2h-2v-2h2V125.2z"/>
		<path d="M113,122.9v2.8h2.8v-2.8H113z M115.4,125.2h-1.9v-2h1.9V125.2z"/>
		<path d="M118.6,122.9v2.8h2.8v-2.8H118.6z M121.1,125.2h-1.9v-2h1.9V125.2z"/>
		<path d="M124.3,122.9v2.8h2.8v-2.8H124.3z M126.7,125.2h-2v-2h2V125.2z"/>
		<path d="M130,122.9v2.8h2.8v-2.8H130z M132.4,125.2h-1.9v-2h1.9V125.2z"/>
		<path d="M135.6,122.9v2.8h2.8v-2.8H135.6z M138,125.2h-2v-2h2V125.2z"/>
		<path d="M141.3,122.9v2.8h2.8v-2.8H141.3z M143.7,125.2h-1.9v-2h1.9V125.2z"/>
		<path d="M146.9,122.9v2.8h2.8v-2.8H146.9z M149.4,125.2h-2v-2h2V125.2z"/>
		<path d="M152.6,122.9v2.8h2.8v-2.8H152.6z M155,125.2h-2v-2h2V125.2z"/>
		<path d="M158.2,122.9v2.8h2.8v-2.8H158.2z M160.7,125.2h-2v-2h2V125.2z"/>
		<path d="M163.9,122.9v2.8h2.8v-2.8H163.9z M166.3,125.2h-2v-2h2V125.2z"/>
	</g>
	<g id="Innen">
		<rect x="85.2" y="129" class="st9" width="1.9" height="2"/>
		<rect x="90.8" y="129" class="st9" width="1.9" height="2"/>
		<rect x="96.5" y="129" class="st9" width="2" height="2"/>
		<rect x="102.1" y="129" class="st9" width="1.9" height="2"/>
		<rect x="107.8" y="129" class="st9" width="2" height="2"/>
		<rect x="113.5" y="129" class="st9" width="1.9" height="2"/>
		<rect x="119.1" y="129" class="st9" width="1.9" height="2"/>
		<rect x="124.8" y="129" class="st9" width="2" height="2"/>
		<rect x="130.4" y="129" class="st9" width="1.9" height="2"/>
		<rect x="136.1" y="129" class="st9" width="2" height="2"/>
		<rect x="141.7" y="129" class="st9" width="1.9" height="2"/>
		<rect x="147.4" y="129" class="st9" width="2" height="2"/>
		<rect x="153.1" y="129" class="st9" width="2" height="2"/>
		<rect x="158.7" y="129" class="st9" width="2" height="2"/>
		<rect x="164.4" y="129" class="st9" width="2" height="2"/>
		<rect x="85.2" y="123.4" class="st9" width="1.9" height="2"/>
		<rect x="90.8" y="123.4" class="st9" width="1.9" height="2"/>
		<rect x="96.5" y="123.4" class="st9" width="2" height="2"/>
		<rect x="102.1" y="123.4" class="st9" width="1.9" height="2"/>
		<rect x="107.8" y="123.4" class="st9" width="2" height="2"/>
		<rect x="113.5" y="123.4" class="st9" width="1.9" height="2"/>
		<rect x="119.1" y="123.4" class="st9" width="1.9" height="2"/>
		<rect x="124.8" y="123.4" class="st9" width="2" height="2"/>
		<rect x="130.4" y="123.4" class="st9" width="1.9" height="2"/>
		<path id="_x3C_Pfad_x3E_" class="st9" d="M138,125.2h-2v-2h2V125.2z"/>
		<rect x="141.7" y="123.4" class="st9" width="1.9" height="2"/>
		<rect x="147.4" y="123.4" class="st9" width="2" height="2"/>
		<rect x="153.1" y="123.4" class="st9" width="2" height="2"/>
		<rect x="158.7" y="123.4" class="st9" width="2" height="2"/>
		<rect x="164.4" y="123.4" class="st9" width="2" height="2"/>
	</g>
	<g id="Fuesse">
		<rect x="85.6" y="132.7" class="st10" width="1.1" height="2.4"/>
		<rect x="91.2" y="132.7" class="st10" width="1.1" height="2.4"/>
		<rect x="96.9" y="132.7" class="st10" width="1.1" height="2.4"/>
		<rect x="102.5" y="132.7" class="st10" width="1.1" height="2.4"/>
		<rect x="108.2" y="132.7" class="st10" width="1.1" height="2.4"/>
		<rect x="113.8" y="132.7" class="st10" width="1.1" height="2.4"/>
		<rect x="119.5" y="132.7" class="st10" width="1.1" height="2.4"/>
		<rect x="125.2" y="132.7" class="st10" width="1.1" height="2.4"/>
		<rect x="130.8" y="132.7" class="st10" width="1.1" height="2.4"/>
		<rect x="136.5" y="132.7" class="st10" width="1.1" height="2.4"/>
		<rect x="142.1" y="132.7" class="st10" width="1.1" height="2.4"/>
		<rect x="147.8" y="132.7" class="st10" width="1.1" height="2.4"/>
		<rect x="153.4" y="132.7" class="st10" width="1.1" height="2.4"/>
		<rect x="159.1" y="132.7" class="st10" width="1.1" height="2.4"/>
		<rect x="164.8" y="132.7" class="st10" width="1.1" height="2.4"/>
		<rect x="85.6" y="119.1" class="st10" width="1.1" height="2.4"/>
		<rect x="91.2" y="119.1" class="st10" width="1.1" height="2.4"/>
		<rect x="96.9" y="119.1" class="st10" width="1.1" height="2.4"/>
		<rect x="102.5" y="119.1" class="st10" width="1.1" height="2.4"/>
		<rect x="108.2" y="119.1" class="st10" width="1.1" height="2.4"/>
		<rect x="113.8" y="119.1" class="st10" width="1.1" height="2.4"/>
		<rect x="119.5" y="119.1" class="st10" width="1.1" height="2.4"/>
		<rect x="125.2" y="119.1" class="st10" width="1.1" height="2.4"/>
		<rect x="130.8" y="119.1" class="st10" width="1.1" height="2.4"/>
		<rect x="136.5" y="119.1" class="st10" width="1.1" height="2.4"/>
		<rect x="142.1" y="119.1" class="st10" width="1.1" height="2.4"/>
		<rect x="147.8" y="119.1" class="st10" width="1.1" height="2.4"/>
		<rect x="153.4" y="119.1" class="st10" width="1.1" height="2.4"/>
		<rect x="159.1" y="119.1" class="st10" width="1.1" height="2.4"/>
		<rect x="164.8" y="119.1" class="st10" width="1.1" height="2.4"/>
	</g>
</g>
<g id="Mikrofon">
	<path class="st11" d="M189.6,88.7v5.7c0,0.2-0.2,0.5-0.5,0.5h-7.2c-0.2,0-0.5-0.2-0.5-0.5v-5.7c0-0.2,0.2-0.5,0.5-0.5h7.2
		C189.4,88.3,189.6,88.5,189.6,88.7z"/>
	<path class="st8" d="M189.4,88.9v5.3c0,0.2-0.2,0.4-0.4,0.4h-6.8c-0.2,0-0.4-0.2-0.4-0.4v-5.3c0-0.2,0.2-0.4,0.4-0.4h6.8
		C189.2,88.5,189.4,88.6,189.4,88.9z"/>
	<circle cx="183.3" cy="91.5" r="0.5"/>
</g>
<path class="st7" d="M176,78.1l-2-2l2.4-2.4l2,2L176,78.1z"/>
<path class="st7" d="M188.5,65.6l-2-2l2.4-2.4l2,2L188.5,65.6z"/>
<path class="st7" d="M183.1,85.3l-2-2l2.4-2.4l2,2L183.1,85.3z"/>
<path class="st7" d="M195.6,72.7l-2-2l2.4-2.4l2,2L195.6,72.7z"/>
<path class="st7" d="M165,49.1l-0.9-2l9.1-4.2l0.9,2L165,49.1z"/>
<path class="st7" d="M166.9,53.2l-0.9-2l9.1-4.2l0.9,2L166.9,53.2z"/>
<path class="st7" d="M168.8,57.2l-0.9-2l9.1-4.2l0.9,2L168.8,57.2z"/>
<path class="st7" d="M170.7,61.3l-0.9-2l9.1-4.2l0.9,2L170.7,61.3z"/>
<path class="st7" d="M171.3,102.1l6.1,4.8l-1.3,1.7l-6.1-4.8L171.3,102.1z"/>
<path class="st7" d="M178.6,113.8l6,4.6l-2,2.7l-6-4.6L178.6,113.8z"/>
<path class="st7" d="M187.8,102l6,4.6l-2,2.7l-6-4.6L187.8,102z"/>
<path class="st7" d="M174,98.6l6.1,4.8l-1.3,1.7l-6.1-4.8L174,98.6z"/>
<path class="st7" d="M154.5,97.8v0.2l-0.1,0.2l-0.2,0.2l-0.2,0.1h-0.2h-3.6H150l-0.2-0.1l-0.2-0.2l-0.1-0.2v-0.2v-3.6V94l0.1-0.2
	l0.2-0.2l0.2-0.1h0.2h3.6h0.2l0.2,0.1l0.2,0.2l0.1,0.2v0.2L154.5,97.8L154.5,97.8z"/>
<path class="st7" d="M170.3,97.8v0.2l-0.1,0.2l-0.2,0.2l-0.2,0.1h-0.2H166h-0.2l-0.2-0.1l-0.2-0.2l-0.1-0.2v-0.2v-3.6V94l0.1-0.2
	l0.2-0.2l0.2-0.1h0.2h3.6h0.2l0.2,0.1l0.2,0.2l0.1,0.2v0.2V97.8z"/>
<path class="st7" d="M170.3,82v0.2l-0.1,0.2l-0.2,0.2l-0.2,0.1h-0.2H166h-0.2l-0.2-0.1l-0.2-0.2l-0.1-0.2V82v-3.6v-0.2l0.1-0.2
	l0.2-0.2l0.2-0.1h0.2h3.6h0.2l0.2,0.1l0.2,0.2l0.1,0.2v0.2V82z"/>
<path class="st7" d="M154.5,82v0.2l-0.1,0.2l-0.2,0.2l-0.2,0.1h-0.2h-3.6H150l-0.2-0.1l-0.2-0.2l-0.1-0.2V82v-3.6v-0.2l0.1-0.2
	l0.2-0.2l0.2-0.1h0.2h3.6h0.2l0.2,0.1l0.2,0.2l0.1,0.2v0.2L154.5,82L154.5,82z"/>
<path class="st7" d="M81.1,59.3l-0.9,2L71,57.1l0.9-2L81.1,59.3z"/>
<path class="st7" d="M83,55.2l-0.9,2L72.9,53l0.9-2L83,55.2z"/>
<path class="st7" d="M84.9,51.2l-0.9,2L74.8,49l0.9-2L84.9,51.2z"/>
<path class="st7" d="M86.7,47.1l-0.9,2l-9.1-4.2l0.9-2L86.7,47.1z"/>
<path class="st7" d="M87.1,121.6h-2v-4.1h2V121.6z"/>
<path class="st7" d="M87.1,135.8h-2v-4.1h2V135.8z"/>
<path class="st7" d="M92.7,121.6h-2v-4.1h2V121.6z"/>
<path class="st7" d="M92.7,135.8h-2v-4.1h2V135.8z"/>
<path class="st7" d="M98.4,121.6h-2v-4.1h2V121.6z"/>
<path class="st7" d="M98.4,135.8h-2v-4.1h2V135.8z"/>
<path class="st7" d="M104.1,121.6h-2v-4.1h2V121.6z"/>
<path class="st7" d="M104.1,135.8h-2v-4.1h2V135.8z"/>
<path class="st7" d="M109.8,121.6h-2v-4.1h2V121.6z"/>
<path class="st7" d="M109.8,135.8h-2v-4.1h2V135.8z"/>
<path class="st7" d="M115.4,121.6h-2v-4.1h2V121.6z"/>
<path class="st7" d="M115.4,135.8h-2v-4.1h2V135.8z"/>
<path class="st7" d="M121.1,121.6h-2v-4.1h2V121.6z"/>
<path class="st7" d="M121.1,135.8h-2v-4.1h2V135.8z"/>
<path class="st7" d="M126.7,121.6h-2v-4.1h2V121.6z"/>
<path class="st7" d="M126.7,135.8h-2v-4.1h2V135.8z"/>
<path class="st7" d="M132.4,121.6h-2v-4.1h2V121.6z"/>
<path class="st7" d="M132.4,135.8h-2v-4.1h2V135.8z"/>
<path class="st7" d="M138,121.6h-2v-4.1h2V121.6z"/>
<path class="st7" d="M138,135.8h-2v-4.1h2V135.8z"/>
<path class="st7" d="M143.7,121.6h-2v-4.1h2V121.6z"/>
<path class="st7" d="M143.7,135.8h-2v-4.1h2V135.8z"/>
<path class="st7" d="M149.4,121.6h-2v-4.1h2V121.6z"/>
<path class="st7" d="M149.4,135.8h-2v-4.1h2V135.8z"/>
<path class="st7" d="M155,121.6h-2v-4.1h2V121.6z"/>
<path class="st7" d="M155,135.8h-2v-4.1h2V135.8z"/>
<path class="st7" d="M160.7,121.6h-2v-4.1h2V121.6z"/>
<path class="st7" d="M160.7,135.8h-2v-4.1h2V135.8z"/>
<path class="st7" d="M166.3,121.6h-2v-4.1h2V121.6z"/>
<path class="st7" d="M166.3,135.8h-2v-4.1h2V135.8z"/>
<path class="st7" d="M68.4,83.2l-2,2L64,82.8l2-2L68.4,83.2z"/>
<path class="st7" d="M55.9,70.6l-2,2l-2.4-2.4l2-2L55.9,70.6z"/>
<path class="st7" d="M75.5,76.1l-2,2L71,75.7l2-2L75.5,76.1z"/>
<path class="st7" d="M63,63.6l-2,2l-2.4-2.4l2-2L63,63.6z"/>
<path class="st7" d="M76.4,25.2H79v3.1h-2.7V25.2z"/>
<path class="st7" d="M76.4,30.2H79v3.1h-2.7V30.2z"/>
<path class="st7" d="M80.1,30.2h2.7v3.1h-2.7V30.2z"/>
<path class="st7" d="M80.1,25.2h2.7v3.1h-2.7V25.2z"/>
<g>
	<path id="Lautsprecher_00000097491445093581913290000018287520246302512032_" d="M153.9,97.6h11.9c0.2,0,0.2-0.1,0.3-0.2l3.1-3.1
		c0.1-0.1,0.2-0.2,0.2-0.3V82.2c0-0.2-0.1-0.2-0.2-0.3l-3.1-3.1c-0.1-0.1-0.2-0.2-0.3-0.2h-11.9c-0.2,0-0.2,0.1-0.3,0.2l-3.1,3.1
		c-0.1,0.1-0.2,0.2-0.2,0.3v11.9c0,0.2,0.1,0.2,0.2,0.3l3.1,3.1C153.7,97.5,153.8,97.6,153.9,97.6z"/>
</g>
<g id="Anwendungs-Prozessor">
	<path d="M98.4,93.9l-10.4,10.4c-0.2,0.2-0.5,0.2-0.6,0L77.1,93.9c-0.2-0.2-0.2-0.5,0-0.6l10.4-10.4c0.2-0.2,0.5-0.2,0.6,0
		l10.4,10.4C98.6,93.4,98.6,93.7,98.4,93.9z"/>
</g>
<g id="Taste_B">
	<polygon class="st12" points="181.8,83.3 182.9,84.4 183.8,83.5 183.8,83.5 183.8,83.5 183.9,83.4 184.1,83.2 184.2,83.1 
		184.2,83.1 184.4,82.9 184.6,82.7 185.3,82 184.2,80.9 183.3,81.8 183.1,82 183.1,82 183,82.1 182.8,82.3 182.7,82.4 182.5,82.6 	
		"/>
	<polygon class="st12" points="193.7,71.4 194.8,72.5 195.5,71.8 195.6,71.7 195.8,71.5 195.9,71.4 196,71.3 196.1,71.2 196.3,71 
		197.1,70.2 196,69.1 195.3,69.8 195.2,69.9 195,70 194.9,70.2 194.8,70.3 194.7,70.4 194.5,70.6 	"/>
	<polygon class="st12" points="186.6,64.4 187.6,65.5 188.4,64.7 188.6,64.6 188.7,64.4 188.8,64.4 188.9,64.3 189.2,63.9 
		189.2,63.9 189.4,63.7 190.1,63.1 189,62 188.1,62.9 187.9,62.9 187.8,63.2 187.6,63.3 187.6,63.3 187.5,63.4 187.2,63.6 	"/>
	<polygon class="st12" points="174.7,76.1 175.8,77.2 176.6,76.5 176.7,76.5 176.7,76.4 177.2,76 177.3,75.8 177.5,75.6 178.2,74.9 
		177.1,73.8 176.2,74.7 176.1,74.9 176,74.9 175.9,75 175.8,75.2 175.6,75.3 	"/>
	<path class="st13" d="M183.1,75.9c1.5,1.5,4,1.5,5.5,0c1.5-1.5,1.5-4,0-5.5c-1.5-1.5-4-1.5-5.5,0C181.7,72,181.7,74.4,183.1,75.9z"
		/>
	<path class="st10" d="M176.9,73.5l0.2,0.2l1.1,1.1l6,6l1.1,1.1l0.2,0.2c0.2,0.2,0.5,0.2,0.8,0l8.6-8.6c0.2-0.2,0.2-0.5,0-0.8
		l-0.2-0.2l-1.1-1.1l-6-6l-1.1-1.1l-0.2-0.2c-0.2-0.2-0.5-0.2-0.8,0l-8.6,8.6C176.6,73,176.6,73.3,176.9,73.5z M186.8,67.1
		c-0.5,0.5-1.1,0.5-1.6,0c-0.5-0.4-0.5-1.1,0-1.6c0.5-0.4,1.1-0.4,1.6,0C187.2,66,187.2,66.7,186.8,67.1z M191.9,72.4
		c0.4-0.5,1.1-0.5,1.6,0c0.4,0.5,0.4,1.1,0,1.6c-0.5,0.5-1.2,0.5-1.6,0C191.6,73.5,191.6,72.8,191.9,72.4z M185.2,79.2
		c0.5-0.5,1.1-0.5,1.6,0c0.5,0.5,0.5,1.1,0,1.6c-0.5,0.5-1.1,0.5-1.6,0C184.7,80.4,184.7,79.7,185.2,79.2z M183.1,70.4
		c1.5-1.5,4-1.5,5.5,0c1.5,1.5,1.5,4,0,5.5c-1.5,1.5-4,1.5-5.5,0C181.7,74.4,181.7,72,183.1,70.4z M178.4,72.4
		c0.5-0.5,1.1-0.5,1.6,0c0.5,0.5,0.5,1.1,0,1.6c-0.5,0.5-1.1,0.5-1.6,0C177.9,73.5,177.9,72.8,178.4,72.4z"/>
	<path d="M178.4,73.9c0.5,0.5,1.1,0.5,1.6,0c0.5-0.5,0.5-1.1,0-1.6c-0.5-0.5-1.1-0.5-1.6,0S177.9,73.5,178.4,73.9z"/>
	<path d="M185.2,67.1c0.5,0.5,1.1,0.5,1.6,0c0.5-0.4,0.5-1.1,0-1.6c-0.5-0.4-1.1-0.4-1.6,0C184.7,66,184.7,66.7,185.2,67.1z"/>
	<path d="M191.9,73.9c0.4,0.5,1.1,0.5,1.6,0c0.4-0.5,0.4-1.1,0-1.6c-0.5-0.5-1.2-0.5-1.6,0S191.6,73.5,191.9,73.9z"/>
	<path d="M185.2,80.8c0.5,0.5,1.1,0.5,1.6,0c0.5-0.5,0.5-1.1,0-1.6c-0.5-0.5-1.1-0.5-1.6,0C184.7,79.7,184.7,80.4,185.2,80.8z"/>
</g>
<g id="Grove_x5F_rechts">
	<polygon class="st14" points="176.8,37.6 175.5,38.1 175.2,37.3 174.2,37.8 173.6,36.5 175.8,35.5 	"/>
	<polygon class="st14" points="187,59.6 184.8,60.6 184.2,59.4 185.3,58.9 184.9,58.1 186.1,57.5 	"/>
	<polygon class="st15" points="186.1,57.5 184.9,58.1 183.9,58.5 179.5,60.6 179.2,60.7 178.6,61.1 177.4,61.6 175.6,62.5 
		173.9,58.8 175.7,58 175.2,57 176.5,56.4 176.9,57.4 176.9,57.4 177.5,58.6 176.2,59.2 176.2,59.2 175.8,59.3 176.4,60.6 
		176.4,60.6 176.9,60.3 176.9,60.3 184.3,56.9 183.5,55.1 183.1,54.5 182.7,53.4 182.7,53.4 181.3,50.5 180.9,49.5 180.9,49.5 
		179.5,46.7 179.1,45.7 177.7,42.7 177.3,41.7 176.9,41.2 176.1,39.4 168.6,42.8 168.2,43 168.8,44.2 169.2,44 170.4,43.5 171,44.7 
		171.4,45.7 170.3,46.3 170.3,46.3 169.8,45.3 168,46.1 166.3,42.4 168.1,41.6 168.1,41.6 169.3,41 169.9,40.8 174.5,38.6 
		175.5,38.1 176.8,37.6 178.2,40.6 178.4,41.2 178.9,42.2 180.3,45.1 180.8,46.1 182,49 182.5,50 183.9,52.9 184.4,53.9 184.6,54.5 
			"/>
	<polygon class="st14" points="168.9,40.2 169.3,41 168.1,41.6 168.1,41.6 166.3,42.4 165.3,40.5 167.1,39.6 168.9,38.7 169.6,39.9 
			"/>
	<polygon class="st14" points="180.2,62.8 178.4,63.6 176.5,64.4 175.6,62.5 177.4,61.6 178.6,61.1 179,61.8 179.6,61.5 	"/>
	<path class="st16" d="M183.5,55.1l-0.3-0.6l-0.5-1l0,0l-1.3-2.9l-0.5-1l0,0l-1.3-2.8l-0.5-1l-1.3-2.9l-0.5-1l-0.3-0.6l-0.9-1.8
		l-7.5,3.5l-0.4,0.2l0.5,1.2l0.4-0.2l1.2-0.6l0.6,1.2l0.5,1l0,0l0.3,0.6l1.1,2.3l0,0l0.5,1l0,0l1.3,2.8l0,0l0.5,1l0,0l1.1,2.4
		l0.2,0.6l0,0l0.5,1l0,0l0.6,1.2l-1.2,0.5l0,0l-0.4,0.2l0.5,1.2l0.4-0.2l7.5-3.5L183.5,55.1z"/>
	<polygon class="st17" points="175.1,44 174.1,44.5 173.6,43.5 173.8,43.4 174.4,43.1 174.6,43 	"/>
	<polygon class="st17" points="176.9,47.9 176.8,48 176.7,48 176.2,48.3 176.2,48.3 175.9,48.4 175.4,47.4 176.5,46.9 	"/>
	<polygon class="st17" points="178.7,51.8 177.7,52.3 177.3,51.2 177.3,51.2 177.3,51.2 177.4,51.2 178,50.8 178,50.8 178.2,50.8 	
		"/>
	<polygon class="st17" points="180.6,55.7 180.3,55.8 179.8,56.1 179.5,56.2 179.1,55.2 180.1,54.7 	"/>
	<polygon class="st10" points="170.3,46.3 170.3,46.3 170.3,46.3 166.2,48.2 165.3,48.3 165,47.7 165.7,47.1 168,46.1 169.8,45.3 	
		"/>
	<polygon class="st14" points="176.5,56.4 175.2,57 175,56.3 174.4,55.2 173.9,54 173.4,53 172.1,50.2 171.6,49.2 171.6,49.2 
		171,48 170.5,46.8 170.3,46.3 170.3,46.3 171.4,45.7 171.8,46.3 171.8,46.3 172.9,48.6 173.2,49.6 173.2,49.7 174.6,52.4 
		174.6,52.5 175.1,53.4 175.1,53.4 176.2,55.8 	"/>
	<polygon class="st10" points="170.5,50.9 168.1,52.1 167.1,52.3 166.9,51.6 167.6,51.1 170,49.9 	"/>
	<polygon class="st16" points="174.4,55.2 172.8,55.9 172.2,54.8 171.8,53.7 170.5,50.9 170,49.9 169.5,48.8 171,48 171.6,49.2 
		171.6,49.2 172.1,50.2 173.4,53 173.9,54 	"/>
	<polygon class="st10" points="172.2,54.8 169.9,55.9 168.9,56.1 168.6,55.5 169.3,54.9 171.8,53.7 	"/>
	<polygon class="st10" points="175.7,58 173.9,58.8 171.7,59.9 170.7,60 170.5,59.4 171.2,58.9 175.2,57 	"/>
	<polygon class="st12" points="173.6,36.5 174.2,37.8 175.2,37.3 175.5,38.1 169.3,41 168.9,40.2 169.6,39.9 168.9,38.7 	"/>
	<polyline class="st12" points="184.9,58.1 185.3,58.9 184.2,59.4 184.8,60.6 180.2,62.8 179.6,61.5 179,61.8 178.6,61.1 
		179.2,60.7 179.5,60.6 183.9,58.5 184.9,58.1 	"/>
</g>
<g id="Grove_x5F_links_00000016053385867061381090000005071653326402074504_">
	<polygon class="st14" points="74,37.8 75.2,38.3 75.6,37.6 76.6,38 77.2,36.9 75,35.8 	"/>
	<polygon class="st18" points="63.7,59.8 66,60.8 66.5,59.6 65.5,59.2 65.9,58.4 64.7,57.8 	"/>
	<polygon class="st19" points="64.7,57.8 65.9,58.4 66.9,58.9 71.2,60.8 71.6,61 72.1,61.3 73.4,61.8 75.2,62.7 76.8,59.1 75,58.2 
		75.5,57.2 74.3,56.7 73.9,57.7 73.9,57.7 73.3,58.9 74.5,59.4 74.5,59.4 74.9,59.6 74.3,60.8 74.3,60.8 73.9,60.7 73.9,60.7 
		66.5,57.1 67.3,55.3 67.6,54.7 68,53.7 68,53.7 69.5,50.8 69.9,49.8 69.9,49.8 71.2,47 71.7,46 73.1,43 73.5,42 73.8,41.4 
		74.6,39.6 82.1,43.1 82.5,43.2 81.9,44.5 81.6,44.3 80.4,43.7 79.7,44.9 79.3,46 80.5,46.5 80.5,46.5 81,45.5 82.8,46.4 84.5,42.7 
		82.7,41.9 82.7,41.9 81.5,41.3 80.8,41 76.2,38.8 75.2,38.3 74,37.8 72.6,40.9 72.3,41.4 71.8,42.4 70.5,45.4 70,46.4 68.7,49.2 
		68.2,50.2 66.9,53.1 66.4,54.1 66.1,54.8 	"/>
	<polygon class="st14" points="81.9,40.5 81.5,41.3 82.7,41.9 82.7,41.9 84.5,42.7 85.4,40.7 83.6,39.8 81.8,39 81.2,40.2 	"/>
	<polygon class="st14" points="70.6,63 72.4,63.9 74.2,64.7 75.2,62.7 73.4,61.8 72.1,61.3 71.8,62.1 71.2,61.8 	"/>
	<path class="st16" d="M66.5,57.1l7.5,3.5l0.4,0.2l0.5-1.2l-0.4-0.2l0,0l-1.2-0.5l0.6-1.2l0,0l0.5-1l0,0l0.2-0.6l1.1-2.4l0,0l0.5-1
		l0,0l1.3-2.8l0,0l0.5-1l0,0l1.1-2.3l0.3-0.6l0,0l0.5-1l0.5-1.2l1.2,0.6l0.4,0.2l0.6-1.2l-0.4-0.2l-7.5-3.5l-0.9,1.8L73.5,42l-0.5,1
		L71.7,46l-0.5,1l-1.3,2.8l0,0l-0.5,1L68,53.7l0,0l-0.5,1l-0.3,0.6L66.5,57.1z"/>
	<polygon class="st17" points="75.7,44.2 76.7,44.7 77.2,43.7 76.9,43.6 76.4,43.3 76.1,43.2 	"/>
	<polygon class="st17" points="73.9,48.2 73.9,48.2 74,48.2 74.6,48.6 74.6,48.6 74.9,48.6 75.3,47.6 74.3,47.1 	"/>
	<polygon class="st17" points="72,52 73.1,52.5 73.5,51.5 73.5,51.5 73.5,51.5 73.3,51.4 72.8,51.1 72.8,51.1 72.5,51 	"/>
	<polygon class="st17" points="70.2,55.9 70.4,56 71,56.3 71.3,56.4 71.7,55.4 70.7,54.9 	"/>
	<polygon class="st10" points="80.5,46.5 80.5,46.5 80.5,46.5 84.5,48.4 85.5,48.6 85.7,47.9 85,47.4 82.8,46.4 81,45.5 	"/>
	<polygon class="st14" points="74.3,56.7 75.5,57.2 75.8,56.6 76.4,55.4 76.9,54.3 77.4,53.3 78.6,50.4 79.1,49.4 79.1,49.4 
		79.7,48.3 80.2,47.1 80.5,46.5 80.5,46.5 79.3,46 79,46.5 79,46.5 77.9,48.9 77.5,49.9 77.5,49.9 76.1,52.7 76.1,52.7 75.7,53.7 
		75.7,53.7 74.6,56 	"/>
	<polygon class="st10" points="80.3,51.2 82.7,52.3 83.6,52.5 83.9,51.9 83.2,51.3 80.8,50.2 	"/>
	<polygon class="st16" points="76.4,55.4 78,56.2 78.5,55 79,54 80.3,51.2 80.8,50.2 81.3,49 79.7,48.3 79.1,49.4 79.1,49.4 
		78.6,50.4 77.4,53.3 76.9,54.3 	"/>
	<polygon class="st10" points="78.5,55 80.9,56.2 81.9,56.3 82.1,55.7 81.4,55.2 79,54 	"/>
	<polygon class="st10" points="75,58.2 76.8,59.1 79.1,60.1 80,60.3 80.3,59.6 79.6,59.1 75.5,57.2 	"/>
	<polygon class="st12" points="77.2,36.9 76.6,38 75.6,37.6 75.2,38.3 81.5,41.3 81.9,40.5 81.2,40.2 81.8,39 	"/>
	<polyline class="st12" points="65.9,58.4 65.5,59.2 66.5,59.6 66,60.8 70.6,63 71.2,61.8 71.8,62.1 72.1,61.3 71.6,61 71.2,60.8 
		66.9,58.9 65.9,58.4 	"/>
</g>
<g id="RGB-LEDs">
	<g id="RGB-LED">
		<path class="st20" d="M115.1,101.4c0,0.2,0.2,0.5,0.5,0.5v1.1c-0.2,0.1-0.5,0.3-0.5,0.5s0.2,0.5,0.5,0.5v0.3
			c0,0.2-0.1,0.2-0.2,0.2h-4.5c-0.2,0-0.2-0.1-0.2-0.2v-0.3c0.2-0.1,0.5-0.3,0.5-0.5s-0.2-0.5-0.5-0.5v-1.1c0.2-0.1,0.5-0.3,0.5-0.5
			s-0.2-0.5-0.5-0.5v-0.3c0-0.2,0.1-0.2,0.2-0.2h4.5c0.2,0,0.2,0.1,0.2,0.2v0.3C115.3,100.9,115.1,101.1,115.1,101.4z"/>
		<rect x="111.7" y="100.7" class="st21" width="1.6" height="0.7"/>
		<rect x="111.4" y="100.3" class="st22" width="3.2" height="4.5"/>
	</g>
	<g id="RGB-LED_00000158739878078468973790000015867953343331084186_">
		<path class="st20" d="M126.3,101.4c0,0.2,0.2,0.5,0.5,0.5v1.1c-0.2,0.1-0.5,0.3-0.5,0.5s0.2,0.5,0.5,0.5v0.3
			c0,0.2-0.1,0.2-0.2,0.2H122c-0.2,0-0.2-0.1-0.2-0.2v-0.3c0.2-0.1,0.5-0.3,0.5-0.5s-0.2-0.5-0.5-0.5v-1.1c0.2-0.1,0.5-0.3,0.5-0.5
			s-0.2-0.5-0.5-0.5v-0.3c0-0.2,0.1-0.2,0.2-0.2h4.5c0.2,0,0.2,0.1,0.2,0.2v0.3C126.4,100.9,126.3,101.1,126.3,101.4z"/>
		<rect x="122.9" y="100.7" class="st21" width="1.6" height="0.7"/>
		<rect x="122.6" y="100.3" class="st22" width="3.2" height="4.5"/>
	</g>
	<g id="RGB-LED_00000128446559331746034690000000773108269480224647_">
		<path class="st20" d="M137.3,101.4c0,0.2,0.2,0.5,0.5,0.5v1.1c-0.2,0.1-0.5,0.3-0.5,0.5s0.2,0.5,0.5,0.5v0.3
			c0,0.2-0.1,0.2-0.2,0.2h-4.5c-0.2,0-0.2-0.1-0.2-0.2v-0.3c0.2-0.1,0.5-0.3,0.5-0.5s-0.2-0.5-0.5-0.5v-1.1c0.2-0.1,0.5-0.3,0.5-0.5
			s-0.2-0.5-0.5-0.5v-0.3c0-0.2,0.1-0.2,0.2-0.2h4.5c0.2,0,0.2,0.1,0.2,0.2v0.3C137.6,100.9,137.3,101.1,137.3,101.4z"/>
		<rect x="134" y="100.7" class="st21" width="1.6" height="0.7"/>
		<rect x="133.7" y="100.3" class="st22" width="3.2" height="4.5"/>
	</g>
</g>
<g id="Kleine_LEDs">
	<g>
		<g>
			<defs>
				<rect id="SVGID_1_" x="109" y="19.4" width="1.1" height="2.2"/>
			</defs>
			<clipPath id="SVGID_00000104671769299490771360000000480161600365051308_">
				<use xlink:href="#SVGID_1_"  style="overflow:visible;"/>
			</clipPath>
			<g style="clip-path:url(#SVGID_00000104671769299490771360000000480161600365051308_);">
				<g>
					<defs>
						<rect id="SVGID_00000101795599924505793030000003305320573940740481_" x="108.9" y="19.4" width="1.1" height="2.2"/>
					</defs>
					<clipPath id="SVGID_00000051377277302302944390000001119870289475106197_">
						<use xlink:href="#SVGID_00000101795599924505793030000003305320573940740481_"  style="overflow:visible;"/>
					</clipPath>
					
						<g transform="matrix(1 0 0 1 -7.629395e-06 0)" style="clip-path:url(#SVGID_00000051377277302302944390000001119870289475106197_);">
						
							<use xlink:href="#Calliope_x5F_3_x5F_Small_x5F_LED"  width="1.4" height="2.8" id="XMLID_00000081620067914281799210000005554354341423305093_" x="-0.7" y="-1.4" transform="matrix(0.7857 0 0 -0.7857 109.4958 20.4809)" style="overflow:visible;"/>
					</g>
				</g>
			</g>
		</g>
	</g>
	<g>
		<g>
			<defs>
				<rect id="SVGID_00000095339405426281358940000001468623715288010676_" x="106.7" y="19.4" width="1.1" height="2.2"/>
			</defs>
			<clipPath id="SVGID_00000044864491822402649590000008898017714343486365_">
				<use xlink:href="#SVGID_00000095339405426281358940000001468623715288010676_"  style="overflow:visible;"/>
			</clipPath>
			<g style="clip-path:url(#SVGID_00000044864491822402649590000008898017714343486365_);">
				<g>
					<defs>
						<rect id="SVGID_00000078723257507132933960000013179108583306297482_" x="106.7" y="19.4" width="1.1" height="2.2"/>
					</defs>
					<clipPath id="SVGID_00000160191826588186071220000006048132556810605976_">
						<use xlink:href="#SVGID_00000078723257507132933960000013179108583306297482_"  style="overflow:visible;"/>
					</clipPath>
					<g transform="matrix(1 0 0 1 0 0)" style="clip-path:url(#SVGID_00000160191826588186071220000006048132556810605976_);">
						
							<use xlink:href="#Calliope_x5F_3_x5F_Small_x5F_LED"  width="1.4" height="2.8" x="-0.7" y="-1.4" transform="matrix(0.7857 0 0 -0.7857 107.2659 20.4809)" style="overflow:visible;"/>
					</g>
				</g>
			</g>
		</g>
	</g>
	<g>
		<g>
			<defs>
				<rect id="SVGID_00000118362799764441998970000006655293930337720988_" x="190.1" y="85.3" width="2.2" height="1.1"/>
			</defs>
			<clipPath id="SVGID_00000172405242306533839690000016073221246740664964_">
				<use xlink:href="#SVGID_00000118362799764441998970000006655293930337720988_"  style="overflow:visible;"/>
			</clipPath>
			<g style="clip-path:url(#SVGID_00000172405242306533839690000016073221246740664964_);">
				<g>
					<defs>
						<rect id="SVGID_00000173883327589666464970000013646583624668961426_" x="190.1" y="85.3" width="2.2" height="1.1"/>
					</defs>
					<clipPath id="SVGID_00000057148909336885123230000014186791400731329199_">
						<use xlink:href="#SVGID_00000173883327589666464970000013646583624668961426_"  style="overflow:visible;"/>
					</clipPath>
					<g transform="matrix(1 0 0 1 0 0)" style="clip-path:url(#SVGID_00000057148909336885123230000014186791400731329199_);">
						
							<use xlink:href="#Calliope_x5F_3_x5F_Small_x5F_LED"  width="1.4" height="2.8" x="-0.7" y="-1.4" transform="matrix(0 -0.7857 -0.7857 0 191.1712 85.8356)" style="overflow:visible;"/>
					</g>
				</g>
			</g>
		</g>
	</g>
</g>
<path class="st7" d="M92.9,42.4L92.9,42.4L92.9,42.4l-0.1-0.2v-0.1v-1.6v-0.1v-0.1h0.1h0.1h0.3h0.1h0.1v0.1v0.1v1.6v0.1v0.1h-0.1
	h-0.1L92.9,42.4L92.9,42.4z"/>
<path class="st7" d="M93.7,42.4L93.7,42.4L93.7,42.4l-0.1-0.2v-0.1v-1.6v-0.1v-0.1h0.1h0.1h0.3h0.1h0.1v0.1v0.1v1.6v0.1v0.1h-0.1
	h-0.1L93.7,42.4L93.7,42.4z"/>
<path class="st7" d="M94.7,42.4L94.7,42.4L94.7,42.4l-0.1-0.2v-0.1v-1.6v-0.1v-0.1h0.1h0.1h0.2H95h0.1v0.1v0.1v1.6v0.1v0.1H95h-0.1
	L94.7,42.4L94.7,42.4z"/>
<path class="st7" d="M95.5,42.4L95.5,42.4L95.5,42.4l-0.1-0.2v-0.1v-1.6v-0.1v-0.1h0.1h0.1h0.3H96h0.1v0.1v0.1v1.6v0.1v0.1H96h-0.1
	L95.5,42.4L95.5,42.4z"/>
<path class="st7" d="M96.4,42.4L96.4,42.4L96.4,42.4l-0.1-0.2v-0.1v-1.6v-0.1v-0.1h0.1h0.1h0.3h0.1H97v0.1v0.1v1.6v0.1v0.1h-0.1
	h-0.1L96.4,42.4L96.4,42.4z"/>
<path class="st7" d="M97.3,42.4L97.3,42.4L97.3,42.4l-0.1-0.2v-0.1v-1.6v-0.1v-0.1h0.1h0.1h0.3h0.1h0.1v0.1v0.1v1.6v0.1v0.1h-0.1
	h-0.1L97.3,42.4L97.3,42.4z"/>
<path class="st7" d="M98.2,42.4L98.2,42.4L98.2,42.4l-0.1-0.2v-0.1v-1.6v-0.1v-0.1h0.1h0.1h0.3h0.1h0.1v0.1v0.1v1.6v0.1v0.1h-0.1
	h-0.1L98.2,42.4L98.2,42.4z"/>
<path class="st7" d="M99.1,42.4L99.1,42.4L99.1,42.4L99,42.3v-0.1v-1.6v-0.1v-0.1h0.1h0.1h0.3h0.1h0.1v0.1v0.1v1.6v0.1v0.1h-0.1
	h-0.1L99.1,42.4L99.1,42.4z"/>
<path class="st7" d="M100,42.4L100,42.4L100,42.4l-0.1-0.2v-0.1v-1.6v-0.1v-0.1h0.1h0.1h0.3h0.1h0.1v0.1v0.1v1.6v0.1v0.1h-0.1h-0.1
	L100,42.4L100,42.4z"/>
<path class="st7" d="M100.9,42.4L100.9,42.4L100.9,42.4l-0.1-0.2v-0.1v-1.6v-0.1v-0.1h0.1h0.1h0.2h0.1h0.1v0.1v0.1v1.6v0.1v0.1h-0.1
	h-0.1L100.9,42.4L100.9,42.4z"/>
<path class="st7" d="M101.7,40.3L101.7,40.3L101.7,40.3l-0.1-0.2v-0.1v-0.3v-0.1v-0.1h0.1h0.1h1.6h0.1h0.1v0.1v0.1v0.5v0.1v0.1h-0.1
	h-0.1L101.7,40.3L101.7,40.3z"/>
<path class="st7" d="M101.7,39.4L101.7,39.4L101.7,39.4L101.7,39.4l-0.1-0.2V39v-0.1v-0.1h0.1h0.1h1.6h0.1h0.1v0.1V39v0.3v0.1v0.1
	h-0.1h-0.1H101.7z"/>
<path class="st7" d="M101.7,38.6L101.7,38.6L101.7,38.6l-0.1-0.2v-0.1V38V38v-0.1h0.1h0.1h1.6h0.1h0.1V38V38v0.3v0.1v0.1h-0.1h-0.1
	L101.7,38.6L101.7,38.6z"/>
<path class="st7" d="M101.7,37.6L101.7,37.6L101.7,37.6l-0.1-0.2v-0.1v-0.3V37v-0.1h0.1h0.1h1.6h0.1h0.1V37v0.1v0.3v0.1v0.1h-0.1
	h-0.1L101.7,37.6L101.7,37.6z"/>
<path class="st7" d="M101.7,36.8L101.7,36.8L101.7,36.8l-0.1-0.2v-0.1v-0.3v-0.1v-0.1h0.1h0.1h1.6h0.1h0.1v0.1v0.1v0.3v0.1v0.1h-0.1
	h-0.1L101.7,36.8L101.7,36.8z"/>
<path class="st7" d="M101.7,35.9L101.7,35.9L101.7,35.9l-0.1-0.2v-0.1v-0.3v-0.1v-0.1h0.1h0.1h1.6h0.1h0.1v0.1v0.1v0.3v0.1v0.1h-0.1
	h-0.1L101.7,35.9L101.7,35.9z"/>
<path class="st7" d="M101.7,35L101.7,35L101.7,35l-0.1-0.2v-0.1v-0.3v-0.1v-0.1h0.1h0.1h1.6h0.1h0.1v0.1v0.1v0.3v0.1v0.1h-0.1h-0.1
	L101.7,35L101.7,35z"/>
<path class="st7" d="M101.7,34.1L101.7,34.1L101.7,34.1l-0.1-0.2v-0.1v-0.3v-0.1v-0.1h0.1h0.1h1.6h0.1h0.1v0.1v0.1v0.4V34v0.1h-0.1
	h-0.1C103.3,34.1,101.7,34.1,101.7,34.1z"/>
<path class="st7" d="M101.7,33.2L101.7,33.2L101.7,33.2l-0.1-0.2V33v-0.3v-0.1v-0.1h0.1h0.1h1.6h0.1h0.1v0.1v0.1V33v0.1v0.1h-0.1
	h-0.1L101.7,33.2L101.7,33.2z"/>
<path class="st7" d="M101.7,32.3L101.7,32.3L101.7,32.3l-0.1-0.2v-0.1v-0.3v-0.1v-0.1h0.1h0.1h1.6h0.1h0.1v0.1v0.1v0.3v0.1v0.1h-0.1
	h-0.1L101.7,32.3L101.7,32.3z"/>
<path class="st7" d="M100.9,31.5L100.9,31.5L100.9,31.5l-0.1-0.2v-0.1v-1.6v-0.1v-0.1h0.1h0.1h0.2h0.1h0.1v0.1v0.1v1.6v0.1v0.1h-0.1
	h-0.1L100.9,31.5L100.9,31.5z"/>
<path class="st7" d="M100,31.5L100,31.5L100,31.5l-0.1-0.2v-0.1v-1.6v-0.1v-0.1h0.1h0.1h0.3h0.1h0.1v0.1v0.1v1.6v0.1v0.1h-0.1h-0.1
	L100,31.5L100,31.5z"/>
<path class="st7" d="M99.1,31.5L99.1,31.5L99.1,31.5L99,31.4v-0.1v-1.6v-0.1v-0.1h0.1h0.1h0.3h0.1h0.1v0.1v0.1v1.6v0.1v0.1h-0.1
	h-0.1L99.1,31.5L99.1,31.5z"/>
<path class="st7" d="M98.2,31.5L98.2,31.5L98.2,31.5l-0.1-0.2v-0.1v-1.6v-0.1v-0.1h0.1h0.1h0.3h0.1h0.1v0.1v0.1v1.6v0.1v0.1h-0.1
	h-0.1L98.2,31.5L98.2,31.5z"/>
<path class="st7" d="M97.3,31.5L97.3,31.5L97.3,31.5l-0.1-0.2v-0.1v-1.6v-0.1v-0.1h0.1h0.1h0.3h0.1h0.1v0.1v0.1v1.6v0.1v0.1h-0.1
	h-0.1L97.3,31.5L97.3,31.5z"/>
<path class="st7" d="M96.4,31.5L96.4,31.5L96.4,31.5l-0.1-0.2v-0.1v-1.6v-0.1v-0.1h0.1h0.1h0.3h0.1H97v0.1v0.1v1.6v0.1v0.1h-0.1
	h-0.1L96.4,31.5L96.4,31.5z"/>
<path class="st7" d="M95.5,31.5L95.5,31.5L95.5,31.5l-0.1-0.2v-0.1v-1.6v-0.1v-0.1h0.1h0.1h0.3H96h0.1v0.1v0.1v1.6v0.1v0.1H96h-0.1
	L95.5,31.5L95.5,31.5z"/>
<path class="st7" d="M94.7,31.5L94.7,31.5L94.7,31.5l-0.1-0.2v-0.1v-1.6v-0.1v-0.1h0.1h0.1h0.2H95h0.1v0.1v0.1v1.6v0.1v0.1H95h-0.1
	L94.7,31.5L94.7,31.5z"/>
<path class="st7" d="M93.7,31.5L93.7,31.5L93.7,31.5l-0.1-0.2v-0.1v-1.6v-0.1v-0.1h0.1h0.1h0.3h0.1h0.1v0.1v0.1v1.6v0.1v0.1h-0.1
	h-0.1L93.7,31.5L93.7,31.5z"/>
<path class="st7" d="M92.9,31.5L92.9,31.5L92.9,31.5l-0.1-0.2v-0.1v-1.6v-0.1v-0.1h0.1h0.1h0.3h0.1h0.1v0.1v0.1v1.6v0.1v0.1h-0.1
	h-0.1L92.9,31.5L92.9,31.5z"/>
<path class="st7" d="M90.8,32.3L90.8,32.3L90.8,32.3l-0.1-0.2v-0.1v-0.3v-0.1v-0.1h0.1h0.1h1.6h0.1h0.1v0.1v0.1v0.3v0.1v0.1h-0.1
	h-0.1L90.8,32.3L90.8,32.3z"/>
<path class="st7" d="M90.8,33.2L90.8,33.2l-0.2-0.1v-0.1V33v-0.3v-0.1v-0.1h0.1h0.1h1.6h0.1h0.1v0.1v0.1V33v0.1v0.1h-0.1h-0.1
	L90.8,33.2L90.8,33.2z"/>
<path class="st7" d="M90.8,34.1L90.8,34.1L90.8,34.1l-0.1-0.2v-0.1v-0.3v-0.1v-0.1h0.1h0.1h1.6h0.1h0.1v0.1v0.1v0.4V34v0.1h-0.1
	h-0.1C92.5,34.1,90.8,34.1,90.8,34.1z"/>
<path class="st7" d="M90.8,35L90.8,35L90.8,35l-0.1-0.2v-0.1v-0.3v-0.1v-0.1h0.1h0.1h1.6h0.1h0.1v0.1v0.1v0.3v0.1v0.1h-0.1h-0.1
	L90.8,35L90.8,35z"/>
<path class="st7" d="M90.8,35.9L90.8,35.9L90.8,35.9l-0.1-0.2v-0.1v-0.3v-0.1v-0.1h0.1h0.1h1.6h0.1h0.1v0.1v0.1v0.3v0.1v0.1h-0.1
	h-0.1L90.8,35.9L90.8,35.9z"/>
<path class="st7" d="M90.8,36.8L90.8,36.8L90.8,36.8l-0.1-0.2v-0.1v-0.3v-0.1v-0.1h0.1h0.1h1.6h0.1h0.1v0.1v0.1v0.3v0.1v0.1h-0.1
	h-0.1L90.8,36.8L90.8,36.8z"/>
<path class="st7" d="M90.8,37.6L90.8,37.6L90.8,37.6l-0.1-0.2v-0.1v-0.3V37v-0.1h0.1h0.1h1.6h0.1h0.1V37v0.1v0.3v0.1v0.1h-0.1h-0.1
	L90.8,37.6L90.8,37.6z"/>
<path class="st7" d="M90.8,38.6L90.8,38.6L90.8,38.6l-0.1-0.2v-0.1V38V38v-0.1h0.1h0.1h1.6h0.1h0.1V38V38v0.3v0.1v0.1h-0.1h-0.1
	L90.8,38.6L90.8,38.6z"/>
<path class="st7" d="M90.8,39.4L90.8,39.4h-0.2v-0.1v-0.1V39v-0.1v-0.1h0.1h0.1h1.6h0.1h0.1v0.1V39v0.3v0.1v0.1h-0.1h-0.1H90.8z"/>
<path class="st7" d="M90.8,40.3L90.8,40.3L90.8,40.3l-0.1-0.2v-0.1v-0.3v-0.1v-0.1h0.1h0.1h1.6h0.1h0.1v0.1v0.1v0.5v0.1v0.1h-0.1
	h-0.1L90.8,40.3L90.8,40.3z"/>
<g id="USB-C_Vorne">
	<g id="Loetpads">
		<rect x="132.2" y="31.1" class="st26" width="0.5" height="1.6"/>
		<rect x="130.9" y="31.1" class="st26" width="0.5" height="1.6"/>
		<rect x="130.3" y="31.1" class="st26" width="0.5" height="1.6"/>
		<rect x="129.2" y="31.1" class="st26" width="0.5" height="1.6"/>
		<rect x="132.7" y="31.1" class="st26" width="0.5" height="1.6"/>
		<rect x="128.1" y="31.1" class="st26" width="0.5" height="1.6"/>
		<rect x="127" y="31.1" class="st26" width="0.5" height="1.6"/>
		<rect x="125.9" y="31.1" class="st26" width="0.5" height="1.6"/>
		<rect x="124.7" y="31.1" class="st26" width="0.5" height="1.6"/>
		<rect x="123.6" y="31.1" class="st26" width="0.5" height="1.6"/>
		<rect x="122.5" y="31.1" class="st26" width="0.5" height="1.6"/>
		<rect x="121.4" y="31.1" class="st26" width="0.5" height="1.6"/>
		<rect x="120.2" y="31.1" class="st26" width="0.5" height="1.6"/>
		<rect x="119.7" y="31.1" class="st26" width="0.5" height="1.6"/>
		<rect x="118.4" y="31.1" class="st26" width="0.5" height="1.6"/>
		<rect x="117.9" y="31.1" class="st26" width="0.5" height="1.6"/>
	</g>
	<rect id="Bruecke_x5F_unten_x5F_links" x="112.7" y="29.3" class="st12" width="2.9" height="1.8"/>
	<rect id="Brcke_x5F_unten_x5F_rechts" x="135.5" y="29.3" class="st12" width="2.9" height="1.8"/>
	<path id="USB" class="st10" d="M135.5,16.7V20l0,0v11.2h-3.6c-0.1,0-0.1,0-0.2,0c-0.1,0-0.1,0-0.2-0.1c-0.1,0-0.1,0-0.2-0.1
		c-0.1,0-0.1-0.1-0.1-0.1l-0.1-0.1c-0.1-0.1-0.2-0.2-0.2-0.4v-1.3c0-0.2-0.2-0.3-0.3-0.3h-2.7c-0.2,0-0.3,0.2-0.3,0.3v0.2
		c0,0.1,0,0.2,0.1,0.2l0,0l0,0l0.1,0.1h0.2h0.6V31h-6.5v-1.3h0.5c0.1,0,0.2,0,0.2-0.1c0,0,0,0,0.1-0.1l0.1-0.1c0-0.1,0-0.1,0-0.1
		v-0.2c0-0.2-0.2-0.3-0.3-0.3h-2.7c-0.2,0-0.3,0.2-0.3,0.3v1.3c0,0.2,0,0.2-0.2,0.4l-0.1,0.1l-0.1,0.1c-0.1,0-0.1,0.1-0.1,0.1
		c-0.1,0-0.1,0-0.2,0.1c-0.1,0-0.1,0-0.2,0h-3.6V20l0,0v-3.3h17c1.4,0,2.5,0,2.5,0H135.5z"/>
	<path id="Bruecke_x5F_oben_x5F_links" class="st12" d="M138.4,20v0.8h-0.5c-0.2,0-0.3,0.2-0.3,0.3v0.5c0,0.2,0.2,0.3,0.3,0.3h0.5
		v0.8h-2.9V20H138.4z"/>
	<path id="Bruecke_x5F_oben_x5F_links_00000046317777153269327780000000551385265532689583_" class="st12" d="M115.6,20v2.7h-2.9
		v-0.8h0.5c0.2,0,0.3-0.2,0.3-0.3v-0.4c0-0.2-0.2-0.3-0.3-0.3h-0.5V20L115.6,20L115.6,20z"/>
	<path class="st12" d="M122.9,27.1v0.7c0,0.2-0.1,0.2-0.2,0.2h-2.2c-0.2,0-0.2-0.1-0.2-0.2v-0.7c0-0.2,0.1-0.2,0.2-0.2h2.3
		C122.8,26.9,122.9,27,122.9,27.1z"/>
	<path class="st12" d="M130.8,27.1v0.6c0,0.2-0.1,0.2-0.2,0.2h-2.3c-0.2,0-0.2-0.1-0.2-0.2v-0.6c0-0.2,0.1-0.2,0.2-0.2h2.3
		C130.7,26.9,130.8,27,130.8,27.1z"/>
	<path class="st27" d="M131.8,31.1h-3.1v-1.3h-0.5H128l-0.1-0.1l0,0l0,0c-0.1-0.1-0.1-0.2-0.1-0.2v-0.2c0-0.2,0.2-0.3,0.3-0.3h2.7
		c0.2,0,0.3,0.2,0.3,0.3v1.3c0,0.2,0,0.2,0.2,0.4l0.1,0.1l0.1,0.1c0,0,0.1,0.1,0.2,0.1c0,0,0.1,0,0.2,0.1
		C131.8,31.1,131.8,31.1,131.8,31.1z"/>
	<path class="st27" d="M123.1,29.2v0.2v0.1c0,0,0,0.1-0.1,0.1c0,0,0,0-0.1,0.1c-0.1,0.1-0.2,0.1-0.2,0.1h-0.6v1.4H119
		c0.1,0,0.1,0,0.2,0s0.1,0,0.2-0.1c0,0,0.1,0,0.1-0.1l0.1-0.1l0.1-0.1c0.1-0.1,0.2-0.2,0.2-0.4v-1.3c0-0.2,0.2-0.3,0.3-0.3h2.7
		C123,28.9,123.1,29.1,123.1,29.2z"/>
</g>
<g id="Reset-Taste">
	<g id="Button">
		<path class="st27" d="M143.9,18.5L143.9,18.5L143.9,18.5l-2.6,2.6l-0.1,0.1h-0.1l0,0V19c0-0.2,0.2-0.5,0.5-0.5H143.9z"/>
		<path class="st27" d="M148.4,25.2v2.2c0,0.2-0.2,0.5-0.5,0.5h-2.2l0,0l0,0v-0.1L148.4,25.2z"/>
		<path class="st27" d="M148.4,18.9v2.2l-2.7-2.7h2.2C148.2,18.5,148.4,18.7,148.4,18.9z"/>
		<path class="st27" d="M143.9,27.9h-2.2c-0.2,0-0.5-0.2-0.5-0.5v-2.2l0,0l0.1,0.1l0.1,0.1L143.9,27.9L143.9,27.9L143.9,27.9
			L143.9,27.9z"/>
		<path class="st10" d="M145.7,18.5h-1.8l0,0l-0.1,0.1l-2.5,2.5l-0.1,0.1h-0.1l0,0v4l0,0l0.1,0.1l0.1,0.1l2.5,2.5l0.1,0.1l0,0l0,0
			h1.8l0,0l0,0v-0.1l2.6-2.6v-4L145.7,18.5z M147.6,24.1c0,1.5-1.2,2.7-2.7,2.7c-1.5,0-2.7-1.2-2.7-2.7v-1.8c0-1.5,1.2-2.7,2.7-2.7
			c1.5,0,2.7,1.2,2.7,2.7V24.1z"/>
		<path class="st28" d="M147.6,22.3v1.8c0,1.5-1.2,2.7-2.7,2.7c-1.5,0-2.7-1.2-2.7-2.7v-1.8c0-1.5,1.2-2.7,2.7-2.7
			C146.4,19.6,147.6,20.8,147.6,22.3z"/>
	</g>
	<g id="Loetpads_00000043420228105706981810000009200446934696239295_">
		<path class="st29" d="M143.2,27.9v0.5c0,0.1-0.1,0.1-0.1,0.1h-1.3c-0.1,0-0.1-0.1-0.1-0.1v-0.5H143.2z"/>
		<path class="st29" d="M147.9,27.9v0.5c0,0.1-0.1,0.1-0.1,0.1h-1.3c-0.1,0-0.1-0.1-0.1-0.1v-0.5H147.9z"/>
		<path class="st29" d="M147.9,18.1v0.5h-1.4v-0.5c0-0.1,0.1-0.1,0.1-0.1L147.9,18.1C147.9,18,147.9,18,147.9,18.1z"/>
		<path class="st29" d="M143.2,18.1v0.5h-1.4v-0.5c0-0.1,0.1-0.1,0.1-0.1L143.2,18.1C143.2,18,143.2,18,143.2,18.1z"/>
	</g>
</g>
<g id="Oscillator_x5F_Interface">
	<path class="st8" d="M82.3,26.1v6.3c0,0.3-0.2,0.5-0.5,0.5h-4.5c-0.3,0-0.6-0.2-0.6-0.5v-6.3c0-0.3,0.2-0.6,0.6-0.6h4.5
		C82.1,25.5,82.3,25.8,82.3,26.1z"/>
	<path class="st12" d="M82.3,26.2v6.1c0,0.3-0.2,0.5-0.6,0.5h-4.4c-0.3,0-0.5-0.2-0.5-0.5v-6.1c0-0.3,0.2-0.5,0.5-0.5h4.4
		C82,25.6,82.3,25.9,82.3,26.2z"/>
</g>
<path class="st7" d="M93.8,106.7v2.7h-3.1v-2.7H93.8z"/>
<path class="st7" d="M88.9,106.7v2.7h-3.1v-2.7H88.9z"/>
<path class="st7" d="M88.9,110.6v2.7h-3.1v-2.7H88.9z"/>
<path class="st7" d="M93.8,110.6v2.7h-3.1v-2.7H93.8z"/>
<g id="Oscillator_x5F_Interface_00000142174677229098753570000000672237598536849289_">
	<path class="st8" d="M93,112.7h-6.3c-0.3,0-0.5-0.2-0.5-0.5v-4.5c0-0.3,0.2-0.5,0.5-0.5H93c0.3,0,0.5,0.2,0.5,0.5v4.5
		C93.5,112.4,93.3,112.7,93,112.7z"/>
	<path class="st12" d="M92.9,112.6h-6.1c-0.3,0-0.5-0.2-0.5-0.5v-4.4c0-0.3,0.2-0.5,0.5-0.5h6.1c0.3,0,0.5,0.2,0.5,0.5v4.4
		C93.4,112.4,93.2,112.6,92.9,112.6z"/>
</g>
<g id="Batterie">
	<polygon class="st10" points="178.5,102.8 177.8,103.7 177.6,103.6 177.5,103.4 177.3,103.3 177.1,103.1 176.9,103 176.9,103 
		176.8,102.9 176.8,102.9 174,100.7 174,100.7 174,100.7 174,100.7 174,100.7 173.4,99.9 173.4,99.9 173.8,99.5 173.8,99.5 
		174.7,99.8 174.7,99.8 174.7,99.8 177.2,101.8 177.4,102 177.5,102 177.6,102.1 177.6,102.1 177.6,102.1 177.8,102.2 178,102.5 
		178.1,102.5 178.4,102.7 	"/>
	<polygon class="st10" points="175.8,106.3 175.1,107.2 175,107.1 174.7,106.9 174.6,106.8 174.3,106.6 174.2,106.5 174,106.4 
		174,106.4 171.2,104.2 171.2,104.2 171.2,104.2 171.2,104.2 170.7,103.5 170.7,103.5 171,102.9 171,102.9 171.9,103.3 171.9,103.3 
		174.7,105.5 174.7,105.5 174.8,105.6 174.8,105.6 174.9,105.6 175.1,105.8 175.3,105.9 175.4,106.1 175.6,106.2 	"/>
	<polygon class="st14" points="178,109.7 178,109.7 177.3,110.6 176.3,109.8 175.7,110.6 173.6,109.1 174.3,108.2 175,107.3 
		177,108.9 	"/>
	<polygon class="st14" points="182.4,104.2 181.7,105.1 180.6,104.3 178.6,102.7 179.3,101.8 179.9,101 182,102.5 181.3,103.4 	"/>
	<polygon class="st14" points="172.5,110.6 171.4,112 168.5,109.8 169.6,108.4 	"/>
	
		<rect x="179.3" y="95.9" transform="matrix(0.6133 -0.7898 0.7898 0.6133 -7.441 180.0909)" class="st14" width="1.8" height="3.5"/>
	<polygon class="st15" points="192,107.2 191.5,107.9 190.7,108.9 190.5,109.2 189.8,110 187.7,112.7 186.9,113.8 184.8,116.4 
		184.2,117.2 183.9,117.5 183.1,118.6 182.6,119.3 182.4,119.2 182.2,119 181.2,118.2 181.2,118.2 180.5,119 176.6,116.1 
		172.4,112.8 171.4,112 172.5,110.6 173.6,109.1 175.7,110.6 176.7,111.4 180.6,114.6 181.3,113.7 182,112.8 180.3,111.4 178,109.7 
		177,108.9 175,107.3 175.1,107.2 175.8,106.3 177.8,103.7 178.5,102.8 178.6,102.7 180.6,104.3 181.7,105.1 185.6,108.2 
		186.3,107.3 187,106.5 183,103.4 182,102.5 179.9,101 181.1,99.5 182.2,98.1 183.2,98.8 187.5,102.2 191.3,105.2 190.6,106.1 
		190.6,106.1 191.7,106.9 191.9,107.1 	"/>
	<polygon class="st16" points="187,106.5 186.3,107.3 185.6,108.2 181.7,105.1 181.7,105.1 182.4,104.2 181.3,103.4 182,102.5 
		183,103.4 	"/>
	<polygon class="st16" points="182,112.8 181.3,113.7 180.6,114.6 176.7,111.4 175.7,110.6 176.3,109.8 177.3,110.6 178,109.7 
		180.3,111.4 	"/>
</g>
<rect x="65.5" y="69.1" transform="matrix(0.7071 -0.7071 0.7071 0.7071 -31.3594 69.8531)" class="st30" width="6.4" height="7.4"/>
<g id="Taste_A">
	<polygon class="st12" points="67.6,83.3 66.5,84.4 65.8,83.5 65.8,83.5 65.7,83.5 65.6,83.4 65.4,83.2 65.3,83.1 65.2,83.1 
		65.1,82.9 64.9,82.7 64.2,82 65.3,80.9 66.2,81.8 66.3,82 66.4,82 66.5,82.1 66.7,82.3 66.9,82.4 67,82.6 	"/>
	<polygon class="st12" points="55.9,71.4 54.8,72.5 54.1,71.8 53.8,71.7 53.7,71.5 53.7,71.4 53.5,71.3 53.3,71.2 53.3,71 
		52.4,70.2 53.5,69.1 54.1,69.8 54.3,69.9 54.4,70.1 54.6,70.2 54.8,70.3 54.8,70.4 54.9,70.6 	"/>
	<polygon class="st12" points="62.9,64.4 61.8,65.5 61.1,64.7 60.9,64.6 60.7,64.4 60.7,64.4 60.7,64.3 60.3,63.9 60.3,63.9 
		60.1,63.8 59.5,63.1 60.6,62 61.4,62.9 61.5,62.9 61.7,63.2 61.8,63.3 61.9,63.3 62,63.5 62.2,63.6 	"/>
	<polygon class="st12" points="74.7,76.1 73.6,77.2 72.8,76.5 72.8,76.5 72.8,76.4 72.3,76 72.2,75.8 72,75.6 71.3,74.9 72.4,73.8 
		73.3,74.7 73.5,74.9 73.5,74.9 73.6,75 73.8,75.2 73.9,75.3 	"/>
	<path class="st31" d="M66.3,75.9c-1.5,1.5-4,1.5-5.5,0c-1.5-1.5-1.5-4,0-5.5c1.5-1.5,4-1.5,5.5,0C67.8,72,67.8,74.4,66.3,75.9z"/>
	<path class="st10" d="M72.6,72.8L64,64.1c-0.2-0.2-0.5-0.2-0.8,0l-0.2,0.2l-1.1,1.1l-6,6l-1.1,1.1l-0.2,0.2c-0.2,0.2-0.2,0.6,0,0.8
		l8.6,8.6c0.2,0.2,0.5,0.2,0.8,0l0.2-0.2l1.1-1.1l6-6l1.1-1.1l0.2-0.2C72.8,73.4,72.8,73,72.6,72.8z M62.8,65.6
		c0.5-0.4,1.1-0.4,1.6,0c0.5,0.5,0.5,1.2,0,1.6c-0.5,0.5-1.1,0.5-1.6,0C62.3,66.7,62.3,66,62.8,65.6z M57.5,73.9
		c-0.4,0.5-1.1,0.5-1.6,0c-0.4-0.5-0.4-1.1,0-1.6c0.5-0.5,1.2-0.5,1.6,0C58,72.8,58,73.5,57.5,73.9z M64.3,80.8
		c-0.5,0.5-1.1,0.5-1.6,0c-0.5-0.5-0.5-1.1,0-1.6c0.5-0.5,1.1-0.5,1.6,0C64.8,79.7,64.8,80.4,64.3,80.8z M66.3,75.9
		c-1.5,1.5-4,1.5-5.5,0c-1.5-1.5-1.5-4,0-5.5c1.5-1.5,4-1.5,5.5,0C67.8,72,67.8,74.4,66.3,75.9z M71.2,73.9c-0.5,0.5-1.1,0.5-1.6,0
		c-0.5-0.5-0.5-1.1,0-1.6c0.5-0.5,1.1-0.5,1.6,0C71.6,72.8,71.6,73.5,71.2,73.9z"/>
	<path d="M71.2,73.9c-0.5,0.5-1.1,0.5-1.6,0c-0.5-0.5-0.5-1.1,0-1.6c0.5-0.5,1.1-0.5,1.6,0C71.6,72.8,71.6,73.5,71.2,73.9z"/>
	<path d="M64.3,67.2c-0.5,0.5-1.1,0.5-1.6,0c-0.5-0.4-0.5-1.1,0-1.6c0.5-0.4,1.1-0.4,1.6,0C64.8,66,64.8,66.7,64.3,67.2z"/>
	<path d="M57.5,73.9c-0.4,0.5-1.1,0.5-1.6,0c-0.4-0.5-0.4-1.1,0-1.6c0.5-0.5,1.2-0.5,1.6,0C58,72.8,58,73.5,57.5,73.9z"/>
	<path d="M64.3,80.8c-0.5,0.5-1.1,0.5-1.6,0c-0.5-0.5-0.5-1.1,0-1.6c0.5-0.5,1.1-0.5,1.6,0C64.8,79.7,64.8,80.4,64.3,80.8z"/>
</g>
<g id="Interface-Prozessor">
	<g id="_x33_DSOLID_00000006705810440971750700000014439073067158281859_" class="st32">
		<path class="st33" d="M98.8,41.6v0.7h-0.5v-0.7c0-0.2,0.1-0.2,0.2-0.2S98.8,41.6,98.8,41.6z"/>
		<path class="st33" d="M94.8,41.6v0.7h-0.5v-0.7c0-0.2,0.2-0.2,0.2-0.2C94.7,41.4,94.8,41.6,94.8,41.6z"/>
		<path class="st33" d="M91.8,40.7c0,0.2-0.1,0.2-0.2,0.2h-0.7v-0.5h0.7C91.7,40.4,91.8,40.5,91.8,40.7z"/>
		<path class="st33" d="M91.8,39.7c0,0.2-0.1,0.2-0.2,0.2h-0.7v-0.5h0.7C91.7,39.4,91.8,39.5,91.8,39.7z"/>
		<path class="st33" d="M91.8,38.7c0,0.2-0.1,0.2-0.2,0.2h-0.7v-0.5h0.7C91.7,38.4,91.8,38.5,91.8,38.7z"/>
		<path class="st33" d="M91.8,37.6c0,0.2-0.1,0.2-0.2,0.2h-0.7v-0.5h0.7C91.7,37.4,91.8,37.5,91.8,37.6z"/>
		<path class="st33" d="M91.8,36.6c0,0.2-0.1,0.2-0.2,0.2h-0.7v-0.5h0.7C91.7,36.4,91.8,36.5,91.8,36.6z"/>
		<path class="st33" d="M91.8,35.6c0,0.2-0.1,0.2-0.2,0.2h-0.7v-0.5h0.7C91.7,35.4,91.8,35.4,91.8,35.6z"/>
		<path class="st33" d="M91.8,34.6c0,0.2-0.1,0.2-0.2,0.2h-0.7v-0.5h0.7C91.7,34.3,91.8,34.5,91.8,34.6z"/>
		<path class="st33" d="M91.8,33.6c0,0.2-0.1,0.2-0.2,0.2h-0.7v-0.5h0.7C91.7,33.3,91.8,33.5,91.8,33.6z"/>
		<path class="st33" d="M91.8,32.6c0,0.2-0.1,0.2-0.2,0.2h-0.7v-0.5h0.7C91.7,32.3,91.8,32.5,91.8,32.6z"/>
		<path class="st33" d="M91.8,31.6c0,0.2-0.1,0.2-0.2,0.2h-0.7v-0.6h0.7C91.7,31.3,91.8,31.4,91.8,31.6z"/>
		<path class="st33" d="M94.8,29.9v0.7c0,0.2-0.2,0.2-0.2,0.2c-0.2,0-0.2-0.1-0.2-0.2v-0.7H94.8z"/>
		<path class="st33" d="M98.8,29.9v0.7c0,0.2-0.1,0.2-0.2,0.2c-0.2,0-0.2-0.1-0.2-0.2v-0.7H98.8z"/>
		<path class="st33" d="M101.9,41.6v0.7h-0.5v-0.7c0-0.2,0.1-0.2,0.2-0.2C101.8,41.4,101.9,41.6,101.9,41.6z"/>
		<path class="st33" d="M100.9,41.6v0.7h-0.5v-0.7c0-0.2,0.1-0.2,0.2-0.2C100.7,41.4,100.9,41.6,100.9,41.6z"/>
		<path class="st33" d="M99.9,41.6v0.7h-0.5v-0.7c0-0.2,0.1-0.2,0.2-0.2C99.8,41.4,99.9,41.6,99.9,41.6z"/>
		<path class="st33" d="M97.8,41.6v0.7h-0.5v-0.7c0-0.2,0.1-0.2,0.2-0.2S97.8,41.6,97.8,41.6z"/>
		<path class="st33" d="M96.8,41.6v0.7h-0.5v-0.7c0-0.2,0.1-0.2,0.2-0.2S96.8,41.6,96.8,41.6z"/>
		<path class="st33" d="M95.8,41.6v0.7h-0.5v-0.7c0-0.2,0.1-0.2,0.2-0.2C95.7,41.4,95.8,41.6,95.8,41.6z"/>
		<path class="st33" d="M93.8,41.6v0.7h-0.5v-0.7c0-0.2,0.1-0.2,0.2-0.2C93.7,41.4,93.8,41.6,93.8,41.6z"/>
		<path class="st33" d="M92.8,41.6v0.7h-0.5v-0.7c0-0.2,0.1-0.2,0.2-0.2C92.7,41.4,92.8,41.6,92.8,41.6z"/>
		<path class="st33" d="M92.8,29.9v0.7c0,0.2-0.1,0.2-0.2,0.2s-0.2-0.1-0.2-0.2v-0.7H92.8z"/>
		<path class="st33" d="M93.8,29.9v0.7c0,0.2-0.1,0.2-0.2,0.2c-0.2,0-0.2-0.1-0.2-0.2v-0.7H93.8z"/>
		<path class="st33" d="M103.4,39.4v0.5h-0.7c-0.2,0-0.2-0.1-0.2-0.2s0.2-0.2,0.2-0.2H103.4z"/>
		<path class="st33" d="M103.4,38.4v0.5h-0.7c-0.2,0-0.2-0.1-0.2-0.2s0.2-0.2,0.2-0.2H103.4z"/>
		<path class="st33" d="M95.8,29.9v0.7c0,0.2-0.1,0.2-0.2,0.2c-0.2,0-0.2-0.1-0.2-0.2v-0.7H95.8z"/>
		<path class="st33" d="M103.4,37.4v0.5h-0.7c-0.2,0-0.2-0.1-0.2-0.2s0.2-0.2,0.2-0.2H103.4z"/>
		<path class="st33" d="M96.8,29.9v0.7c0,0.2-0.1,0.2-0.2,0.2c-0.2,0-0.2-0.1-0.2-0.2v-0.7H96.8z"/>
		<path class="st33" d="M103.4,36.4v0.6h-0.7c-0.2,0-0.2-0.2-0.2-0.2c0-0.2,0.2-0.2,0.2-0.2L103.4,36.4L103.4,36.4z"/>
		<path class="st33" d="M97.8,29.9v0.7c0,0.2-0.1,0.2-0.2,0.2c-0.2,0-0.2-0.1-0.2-0.2v-0.7H97.8z"/>
		<path class="st33" d="M103.4,35.4v0.6h-0.7c-0.2,0-0.2-0.2-0.2-0.2c0-0.2,0.2-0.2,0.2-0.2L103.4,35.4L103.4,35.4z"/>
		<path class="st33" d="M103.4,34.3v0.5h-0.7c-0.2,0-0.2-0.1-0.2-0.2c0-0.2,0.2-0.2,0.2-0.2H103.4z"/>
		<path class="st33" d="M99.9,29.9v0.7c0,0.2-0.1,0.2-0.2,0.2c-0.2,0-0.2-0.1-0.2-0.2v-0.7H99.9z"/>
		<path class="st33" d="M103.4,33.3v0.5h-0.7c-0.2,0-0.2-0.1-0.2-0.2c0-0.2,0.2-0.2,0.2-0.2H103.4z"/>
		<path class="st33" d="M100.9,29.9v0.7c0,0.2-0.1,0.2-0.2,0.2c-0.2,0-0.2-0.1-0.2-0.2v-0.7H100.9z"/>
		<path class="st33" d="M103.4,32.3v0.5h-0.7c-0.2,0-0.2-0.1-0.2-0.2s0.2-0.2,0.2-0.2H103.4z"/>
		<path class="st33" d="M101.9,29.9v0.7c0,0.2-0.1,0.2-0.2,0.2s-0.2-0.1-0.2-0.2v-0.7H101.9z"/>
		<path class="st33" d="M103.4,31.3v0.6h-0.7c-0.2,0-0.2-0.2-0.2-0.2c0-0.2,0.2-0.2,0.2-0.2L103.4,31.3L103.4,31.3z"/>
		<path class="st33" d="M103.4,40.4v0.5h-0.7c-0.2,0-0.2-0.1-0.2-0.2s0.2-0.2,0.2-0.2H103.4z"/>
	</g>
	<path d="M102.6,31v10.2c0,0.2-0.2,0.5-0.5,0.5H91.9c-0.2,0-0.5-0.2-0.5-0.5V31c0-0.2,0.2-0.5,0.5-0.5h10.2
		C102.5,30.6,102.6,30.8,102.6,31z"/>
</g>
<path id="Reset" class="st6" d="M152.2,21.8L152.2,21.8h0.2h0.1h0.1h0.1h0.1h0.1h0.1h0.1l0.1,0.1l0.1,0.1l0.1,0.1l0.1,0.1l0.1,0.1
	l0.1,0.1l0.1,0.1l0.1,0.1l0.1,0.1l0.1,0.1l0.1,0.1l0.1,0.1v0.1v0.1v0.1V23v0.1v0.1v0.1v0.1v0.1v0.1v2v0.1v0.1v0.1v0.1v0.1v0.1V26
	v0.1v0.1v0.1l-0.1,0.1l-0.1,0.1l-0.1,0.1l-0.1,0.1l-0.1,0.1l-0.1,0.1l-0.1,0.1l-0.1,0.1l-0.1,0.1l-0.1,0.1l-0.1,0.1l-0.1,0.1h-0.1
	h-0.1h-0.1h-0.1h-0.1h-0.1h-0.1h-0.1h-0.1h-0.1l0,0H152H152h-0.1h-0.1h-0.1h-0.1h-0.1h-0.1h-0.1h-0.1l-0.1-0.1l-0.1-0.1l-0.1-0.1
	l-0.1-0.1l-0.1-0.1l-0.1-0.1l-0.1-0.1l-0.1-0.1l-0.1-0.1l-0.1-0.1l-0.1-0.1l-0.1-0.1v-0.1v-0.1V26v-0.1v-0.1v-0.1v-0.1v-0.1v-0.1
	v-0.1V24l-0.7,0.7l-0.5-0.5l1.7-1.7l1.6,1.6l-0.5,0.5l-0.7-0.7v1.5v0.1v0.1v0.1v0.1v0.1v0.1v0.1V26v0.1v0.1v0.1v0.1v0.1l0,0l0,0l0,0
	l0,0l0,0l0,0l0,0h0.1h0.1h0.1h0.1h0.1h0.1h0.1h0.1h0.1h0.1h0.1h0.1l0,0h0.1h0.1h0.1h0.1h0.1h0.1h0.1h0.1h0.1h0.1h0.1h0.1l0,0l0,0
	l0,0l0,0l0,0l0,0l0,0v-0.1v-0.1v-0.1v-0.1V26v-0.1v-0.1v-0.1v-0.1v-0.1v-0.1v-0.1v-0.1v-2v-0.1v-0.1v-0.1v-0.1V23v-0.1v-0.1v-0.1
	v-0.1v-0.1v-0.1v-0.1v-0.1l0,0l0,0l0,0l0,0l0,0l0,0l0,0h-0.1H153h-0.1h-0.1h-0.1h-0.1h-0.1h-0.1h-0.1h-0.1h-0.1h-0.1l0,0l0,0l0,0
	l0,0l0,0l0,0l0,0l0,0l0,0l0,0l0,0l0,0l0,0l0,0l0,0l0,0l0,0l0,0l-0.5-0.6l0.1-0.1h0.1h0.1h0.1H152.2L152.2,21.8L152.2,21.8h0.2h0.1
	h0.1h0.1h0.1h0.1h0.1h0.1l0,0H152.2z"/>
<path class="st6" d="M154.2,12.4h0.9V13h-0.9v1h-0.6v-1h-0.9v-0.6h0.9v-1h0.6V12.4z"/>
<path class="st28" d="M98.6,12.5v-0.2L98.5,12l-0.1-0.2l-0.1-0.2l-0.1-0.2l-0.2-0.2L98,11.2L97.8,11l-0.2-0.2l-0.2-0.1l-0.2-0.1
	l-0.2-0.1l-0.2-0.1h-0.2h-0.2h-0.2h-0.2l-0.2,0.1l-0.2,0.1l-0.2,0.1l-0.2,0.1L95,11l-0.2,0.2l-0.2,0.2l-0.2,0.2l-0.1,0.2l-0.1,0.2
	L94.3,12l-0.1,0.2v0.2v0.2V13v0.2l0.1,0.2l0.1,0.2l0.1,0.2l0.1,0.2l0.2,0.2l0.2,0.2l0.2,0.2l0.2,0.2l0.2,0.1l0.2,0.1l0.2,0.1
	l0.2,0.1h0.2h0.2h0.2h0.2l0.2-0.1l0.2-0.1l0.2-0.1l0.2-0.1l0.2-0.2l0.2-0.2l0.2-0.2l0.2-0.2l0.1-0.2l0.1-0.2l0.1-0.2l0.1-0.2V13
	v-0.2V12.5z M98.1,12.7L98.1,12.7V13v0.2L98,13.4l-0.2,0.2l-0.2,0.2l-0.2,0.2L97.3,14l-0.2,0.1L97,14.1l-0.2,0.1l-0.2,0.1h-0.2h-0.2
	H96l-0.2-0.1l-0.2-0.2l-0.2-0.2l-0.2-0.2l-0.2-0.2l-0.1-0.2l-0.1-0.2L95,13v-0.2v-0.1v-0.2l0.1-0.2l0.1-0.2l0.1-0.2l0.2-0.2l0.2-0.2
	l0.2-0.2l0.2-0.1l0.2-0.1l0.2-0.1h0.2h0.2h0.2H97l0.2,0.1l0.2,0.1l0.2,0.2l0.2,0.2l0.2,0.2l0.1,0.2l0.1,0.2l0.1,0.2L98.1,12.7z"/>
<path class="st28" d="M156,12.5v-0.2l-0.1-0.2l-0.1-0.2l-0.1-0.2l-0.1-0.2l-0.2-0.2l-0.2-0.2l-0.2-0.2l-0.2-0.2l-0.2-0.1l-0.2-0.1
	l-0.2-0.1l-0.2-0.1H154h-0.2h-0.2h-0.2l-0.2,0.1l-0.2,0.1l-0.2,0.1l-0.2,0.1l-0.2,0.2l-0.2,0.2l-0.2,0.2l-0.2,0.2l-0.1,0.2l-0.1,0.2
	l-0.1,0.2l-0.1,0.2v0.2v0.2l0,0v0.1v0.1V13v0.2l0.1,0.2l0.1,0.2l0.1,0.2l0.1,0.2l0.2,0.2l0.2,0.2l0.2,0.2l0.2,0.2l0.2,0.1l0.2,0.1
	l0.2,0.1l0.2,0.1h0.2h0.2h0.2h0.2l0.2-0.1l0.2-0.1l0.2-0.1l0.2-0.1l0.2-0.2l0.2-0.2l0.2-0.2l0.2-0.2l0.1-0.2l0.1-0.2l0.1-0.2
	l0.1-0.2V13v-0.2V12.5z M155.4,12.7v0.2l-0.1,0.2l-0.1,0.2l-0.1,0.2l-0.2,0.2l-0.1,0.1l-0.2,0.2l-0.2,0.1l-0.2,0.1l-0.2,0.1
	l-0.2,0.1h-0.2h-0.2h-0.2h-0.2l-0.2-0.1l-0.2-0.1l-0.2-0.1l-0.2-0.1l-0.2-0.2l-0.2-0.2l-0.1-0.2l-0.1-0.2l-0.1-0.2v-0.2v-0.2v-0.2
	v-0.2l0.1-0.2l0.1-0.2l0.2-0.2l0.2-0.2l0.2-0.2l0.2-0.1l0.2-0.1l0.2-0.1h0.2h0.1h0.2h0.2l0.2,0.1l0.2,0.1l0.2,0.1l0.2,0.2l0.2,0.2
	l0.2,0.2l0.1,0.2l0.1,0.2v0.2v0.2L155.4,12.7z"/>
<path class="st6" d="M97.7,13h-2.5v-0.7h2.5V13z"/>
<g>
	<path class="st6" d="M170.3,72.1c0.3-0.2,0.5-0.6,0.5-1c0-0.8-0.7-1.4-1.7-1.4l0,0h-0.9v5.5h0.9l0,0c1.1,0,2-0.8,2-1.7
		C171.2,72.9,170.8,72.4,170.3,72.1z"/>
	<path class="st30" d="M169.2,70.4c0.5,0,0.8,0.3,0.8,0.7c0,0.4-0.4,0.7-0.8,0.7"/>
	<path class="st30" d="M169.2,72.7c0.6,0,0.9,0.4,0.9,0.9c0,0.5-0.5,0.9-0.9,0.9"/>
</g>
<g>
	<path class="st28" d="M70.6,105.5l-0.2-0.3l0.2-0.2c0-0.1,0-0.2,0-0.2s-0.1-0.2-0.2-0.2c-0.2-0.2-0.3-0.3-0.6-0.3
		c-0.2,0-0.5,0.1-0.7,0.2l-0.1,0.1c-0.2,0.2-0.4,0.4-0.5,0.5c-0.1,0.2,0,0.4,0.1,0.6c0.1,0.1,0.2,0.2,0.2,0.2
		c0.1,0.1,0.2,0.1,0.2,0.1l0.3-0.2l0.2,0.3l-0.5,0.3c-0.2,0-0.3-0.1-0.5-0.2c-0.2-0.1-0.3-0.2-0.4-0.4c-0.2-0.3-0.3-0.6-0.2-0.9
		c0.1-0.4,0.3-0.6,0.6-0.9l0.1-0.1c0.3-0.2,0.6-0.3,1-0.3c0.3,0,0.6,0.2,0.9,0.5c0.1,0.2,0.2,0.4,0.2,0.5c0.1,0.2,0,0.4,0,0.5
		L70.6,105.5z"/>
	<path class="st28" d="M69.6,106.8l0.2,0.2l2.4-0.7l0.3,0.5l-1.5,2.1l0.1,0.2l-0.2,0.2l-0.5-0.8l0.2-0.2l0.2,0.2l0.2-0.3l-0.6-0.7
		l-0.4,0.2l0.1,0.2l-0.2,0.2l-0.6-0.8L69.6,106.8z M70.9,107.2l0.4,0.5l0.6-0.8l0,0L70.9,107.2z"/>
	<path class="st28" d="M71.2,109.5l0.2-0.2l0.2,0.2l1.7-1.2l-0.2-0.2l0.2-0.2l0.2,0.2l0.3,0.5L74,109l-0.2,0.2l-0.2-0.2L72,110
		l0.5,0.6l0.3-0.2l0.2,0.4l-0.6,0.5L71.2,109.5z"/>
	<path class="st28" d="M72.6,111.6l0.2-0.2l0.2,0.2l1.7-1.2l-0.2-0.2l0.2-0.2l0.2,0.2l0.3,0.5l0.2,0.2l-0.2,0.2l-0.2-0.2l-1.6,1.1
		l0.5,0.6l0.3-0.2l0.2,0.4l-0.6,0.5L72.6,111.6z"/>
	<path class="st28" d="M76.1,112.2l0.2-0.2L77,113l-0.2,0.2l-0.2-0.2l-1.7,1.2l0.2,0.2l-0.2,0.2l-0.6-0.9l0.2-0.2l0.2,0.2l1.6-1.2
		L76.1,112.2z"/>
	<path class="st28" d="M77.6,116.2c-0.3,0.2-0.6,0.3-1,0.3c-0.3,0-0.6-0.2-0.9-0.5c-0.2-0.3-0.3-0.6-0.2-0.9
		c0.1-0.4,0.3-0.6,0.6-0.9l0,0c0.3-0.2,0.6-0.3,1-0.3c0.4,0,0.6,0.2,0.9,0.5c0.2,0.3,0.3,0.6,0.2,1
		C78.2,115.7,77.9,115.9,77.6,116.2L77.6,116.2z M77.3,115.7c0.2-0.2,0.4-0.4,0.5-0.5c0.1-0.2,0.1-0.4-0.1-0.6
		c-0.2-0.2-0.3-0.3-0.5-0.2c-0.2,0-0.5,0.1-0.7,0.2l0,0c-0.2,0.2-0.4,0.4-0.5,0.5c-0.1,0.2-0.1,0.4,0.1,0.6c0.2,0.2,0.3,0.3,0.6,0.2
		C76.8,116,77,115.9,77.3,115.7L77.3,115.7z"/>
	<path class="st28" d="M79.8,116.8c0.2,0.2,0.2,0.5,0.2,0.8c0,0.2-0.2,0.5-0.4,0.6c-0.2,0.2-0.5,0.2-0.7,0.2
		c-0.2-0.1-0.5-0.2-0.6-0.5l-0.2-0.4l-0.5,0.4l0.2,0.2l-0.2,0.2l-0.6-0.9l0.2-0.2l0.2,0.2l1.7-1.2l-0.2-0.2l0.2-0.2l0.2,0.2
		L79.8,116.8z M78.5,117.2l0.2,0.4c0.1,0.2,0.2,0.2,0.3,0.2c0.2,0,0.2,0,0.3-0.1c0.2-0.1,0.2-0.2,0.2-0.3s0-0.2-0.1-0.4l-0.2-0.4
		L78.5,117.2z"/>
	<path class="st28" d="M80.5,120.4l-0.6-0.8l-0.6,0.5l0.6,0.7l0.3-0.2l0.2,0.4l-0.6,0.5l-1.3-1.8l0.2-0.2l0.2,0.2l1.7-1.2l-0.2-0.2
		l0.2-0.2l0.2,0.2l1.1,1.6l-0.6,0.5l-0.2-0.4l0.2-0.2l-0.5-0.7l-0.6,0.4l0.6,0.8L80.5,120.4z"/>
	<path class="st28" d="M66.2,107l-0.4,0.3c0.2,0,0.4,0,0.6,0.1c0.2,0.1,0.3,0.2,0.5,0.4c0.1,0.2,0.2,0.3,0.2,0.5
		c0,0.2,0,0.3-0.2,0.5c0.2,0,0.3,0,0.6,0.1c0.2,0.1,0.3,0.2,0.4,0.3c0.1,0.2,0.2,0.2,0.2,0.4c0.1,0.2,0,0.3,0,0.4
		c-0.1,0.2-0.1,0.3-0.2,0.5c-0.1,0.2-0.2,0.3-0.5,0.4l-2.8,2L64,112l2.8-2c0.2-0.1,0.2-0.2,0.2-0.3c0-0.1,0-0.2-0.1-0.3
		c-0.1-0.1-0.2-0.2-0.2-0.2c-0.1,0-0.2,0-0.3,0l-3,2.1l-0.5-0.8l2.8-2c0.2-0.1,0.2-0.2,0.2-0.3c0-0.1,0-0.2-0.1-0.3
		c-0.1-0.1-0.2-0.2-0.2-0.2c-0.1,0-0.2,0-0.2,0l-3,2.2l-0.6-0.8l3.8-2.8L66.2,107z"/>
	<path class="st28" d="M69.1,111.1l1.5,2l-3.1,2.3l0.8,1.2l-0.7,0.5l-2.3-3.2l0.7-0.5l0.9,1.3l2.4-1.7l-0.9-1.3L69.1,111.1z
		 M70.9,111.6c0.1-0.1,0.2-0.2,0.5-0.1c0.2,0,0.2,0.1,0.4,0.3c0.1,0.2,0.2,0.3,0.2,0.5c0,0.2-0.1,0.2-0.2,0.4
		c-0.2,0.1-0.2,0.2-0.5,0.1c-0.2,0-0.2-0.2-0.4-0.3c-0.1-0.2-0.2-0.3-0.2-0.5C70.7,111.8,70.8,111.7,70.9,111.6z"/>
	<path class="st28" d="M72.7,116.1l-0.5,0.4c0.3,0,0.6,0.1,0.8,0.2c0.2,0.2,0.5,0.3,0.6,0.5s0.2,0.4,0.3,0.6c0.1,0.2,0.1,0.4,0,0.6
		c-0.1,0.2-0.1,0.4-0.3,0.6c-0.2,0.2-0.3,0.4-0.6,0.6l-2.4,1.7l-0.6-0.9l2.4-1.7c0.2-0.1,0.3-0.2,0.3-0.3c0-0.1,0.2-0.2,0.2-0.3
		c0-0.2,0-0.2,0-0.3c0-0.1-0.2-0.2-0.2-0.4c-0.2-0.2-0.3-0.3-0.5-0.4c-0.2-0.1-0.4-0.2-0.6-0.1l-2.8,2l-0.6-0.9l3.8-2.7L72.7,116.1z
		"/>
	<path class="st28" d="M75.2,119.7l1.5,2l-3.1,2.3l0.8,1.2l-0.7,0.5l-2.3-3.2L72,122l0.9,1.3l2.4-1.7l-0.9-1.3L75.2,119.7z
		 M77,120.1c0.1-0.1,0.2-0.2,0.5-0.1c0.2,0,0.2,0.1,0.4,0.3c0.1,0.2,0.2,0.3,0.2,0.5c0,0.2-0.1,0.2-0.2,0.4
		c-0.2,0.1-0.2,0.2-0.5,0.1c-0.2,0-0.2-0.2-0.4-0.3c-0.1-0.2-0.2-0.3-0.2-0.5C76.8,120.3,76.9,120.2,77,120.1z"/>
	<g>
		<path class="st28" d="M69.4,99.2l-1.4-2c-0.2-0.3-0.6-0.4-0.9-0.2c0,0-1.7,1.2-1.5,1.1c1.3-0.9,1.6-2.7,0.6-3.9
			c-0.9-1.3-2.7-1.6-3.9-0.6c-0.2,0.2-1.6,1.1-2.5,1.8L55.8,94c-2.7-0.9-4.9,2.2-3.3,4.6l0.4,0.5c1.8-0.9,4.3-1.9,6.4-1.7v0.1
			l1.7,2.4c-0.5,2-2.3,3.9-3.8,5.3l0.5,0.8c0.6,0.9,1.8,1.1,2.7,0.5l5.9-4.2l3-2.1C69.5,99.9,69.6,99.4,69.4,99.2z M64,94.2l1.3,1.9
			L64.1,97c-0.4,0.3-1,0.2-1.3-0.2l-0.3-0.4c-0.3-0.4-0.2-1,0.2-1.3L64,94.2z M60,96.4l2.3-0.3L61,97.7L60,96.4z M61,97.8l2-0.6
			l-1,2L61,97.8z M64.3,99.5l2.8-2l1.7,2.3l-2.8,2L64.3,99.5z"/>
		<path class="st28" d="M56.3,103.9c0-1.8,1.6-4.4,2.9-6.6l-5,3.5L56.3,103.9z"/>
	</g>
</g>
<g id="LED-Matrix_00000112632397963793975980000012638228224718408584_" transform="translate(165.2 60.4) scale(0.45 0.437) rotate(90) ">
	
		<rect id="LED_0_4" x="-21.7" y="126.8" transform="matrix(2.535182e-06 1 -1 2.535182e-06 111.3117 149.7512)" class="st34" width="5" height="7.4"/>
	
		<rect id="LED_1_4" x="-1.3" y="126.8" transform="matrix(2.535182e-06 1 -1 2.535182e-06 131.7401 129.3227)" class="st34" width="5" height="7.4"/>
	
		<rect id="LED_2_4" x="19.1" y="126.8" transform="matrix(2.535182e-06 1 -1 2.535182e-06 152.1685 108.8942)" class="st34" width="5" height="7.4"/>
	
		<rect id="LED_3_4" x="39.6" y="126.8" transform="matrix(2.535182e-06 1 -1 2.535182e-06 172.597 88.4657)" class="st34" width="5" height="7.4"/>
	
		<rect id="LED_4_4" x="60" y="126.8" transform="matrix(2.535182e-06 1 -1 2.535182e-06 193.0254 68.0372)" class="st34" width="5" height="7.4"/>
	
		<rect id="LED_0_3" x="-21.7" y="107.2" transform="matrix(2.535182e-06 1 -1 2.535182e-06 91.6689 130.1085)" class="st34" width="5" height="7.4"/>
	
		<rect id="LED_1_3" x="-1.3" y="107.2" transform="matrix(2.535182e-06 1 -1 2.535182e-06 112.0973 109.68)" class="st34" width="5" height="7.4"/>
	
		<rect id="LED_2_3" x="19.1" y="107.2" transform="matrix(2.535182e-06 1 -1 2.535182e-06 132.5258 89.2515)" class="st34" width="5" height="7.4"/>
	
		<rect id="LED_3_3" x="39.6" y="107.2" transform="matrix(2.535182e-06 1 -1 2.535182e-06 152.9543 68.823)" class="st34" width="5" height="7.4"/>
	
		<rect id="LED_4_3" x="60" y="107.2" transform="matrix(2.535182e-06 1 -1 2.535182e-06 173.3827 48.3945)" class="st34" width="5" height="7.4"/>
	
		<rect id="LED_0_2" x="-21.7" y="87.5" transform="matrix(2.535182e-06 1 -1 2.535182e-06 72.0261 110.4657)" class="st34" width="5" height="7.4"/>
	
		<rect id="LED_1_2" x="-1.3" y="87.5" transform="matrix(2.535182e-06 1 -1 2.535182e-06 92.4545 90.0372)" class="st34" width="5" height="7.4"/>
	
		<rect id="LED_2_2" x="19.1" y="87.5" transform="matrix(2.535182e-06 1 -1 2.535182e-06 112.8829 69.6087)" class="st34" width="5" height="7.4"/>
	
		<rect id="LED_3_2" x="39.6" y="87.5" transform="matrix(2.535182e-06 1 -1 2.535182e-06 133.3114 49.1802)" class="st34" width="5" height="7.4"/>
	
		<rect id="LED_4_2" x="60" y="87.5" transform="matrix(2.535182e-06 1 -1 2.535182e-06 153.7398 28.7517)" class="st34" width="5" height="7.4"/>
	
		<rect id="LED_0_1" x="-21.7" y="67.1" transform="matrix(2.535182e-06 1 -1 2.535182e-06 51.5976 90.0373)" class="st34" width="5" height="7.4"/>
	
		<rect id="LED_1_1" x="-1.3" y="67.1" transform="matrix(2.535182e-06 1 -1 2.535182e-06 72.0261 69.6088)" class="st34" width="5" height="7.4"/>
	
		<rect id="LED_2_1" x="19.1" y="67.1" transform="matrix(2.535182e-06 1 -1 2.535182e-06 92.4545 49.1803)" class="st34" width="5" height="7.4"/>
	
		<rect id="LED_3_1" x="39.6" y="67.1" transform="matrix(2.535182e-06 1 -1 2.535182e-06 112.883 28.7518)" class="st34" width="5" height="7.4"/>
	
		<rect id="LED_4_1" x="60" y="67.1" transform="matrix(2.535182e-06 1 -1 2.535182e-06 133.3114 8.3233)" class="st34" width="5" height="7.4"/>
	
		<rect id="LED_0_0" x="-21.7" y="47.5" transform="matrix(2.535182e-06 1 -1 2.535182e-06 31.9549 70.3946)" class="st34" width="5" height="7.4"/>
	
		<rect id="LED_1_0" x="-1.3" y="47.5" transform="matrix(2.535182e-06 1 -1 2.535182e-06 52.3833 49.9661)" class="st34" width="5" height="7.4"/>
	
		<rect id="LED_2_0" x="19.1" y="47.5" transform="matrix(2.535182e-06 1 -1 2.535182e-06 72.8117 29.5376)" class="st34" width="5" height="7.4"/>
	
		<rect id="LED_3_0" x="39.6" y="47.5" transform="matrix(2.535182e-06 1 -1 2.535182e-06 93.2402 9.1091)" class="st34" width="5" height="7.4"/>
	
		<rect id="LED_4_0" x="60" y="47.5" transform="matrix(2.535182e-06 1 -1 2.535182e-06 113.6686 -11.3194)" class="st34" width="5" height="7.4"/>
</g>
<path class="st35" d="M168,91V58h36v33H168z"/>
<path class="st36" d="M254,63l-10-5.8v11.5L254,63z M245,62h-41v2h41V62z"/>
</svg>
