<?xml version="1.0" encoding="utf-8"?>
<!-- Generator: Adobe Illustrator 28.0.0, SVG Export Plug-In . SVG Version: 6.00 Build 0)  -->
<svg version="1.1" xmlns="http://www.w3.org/2000/svg" xmlns:xlink="http://www.w3.org/1999/xlink" x="0px" y="0px"
	 viewBox="0 0 298 219.4" style="enable-background:new 0 0 298 219.4;" xml:space="preserve">
<style type="text/css">
	.st0{fill:#FBF2A8;}
	.st1{fill:#EBE7E7;}
	.st2{fill:#D9D8D7;}
	.st3{fill:#F1E9A1;}
	.st4{fill:#1E1E21;}
	.st5{opacity:0.9;}
	.st6{fill-rule:evenodd;clip-rule:evenodd;fill:#FFFFFF;}
	.st7{fill-rule:evenodd;clip-rule:evenodd;fill:#4E4E51;}
	.st8{fill:#FFD700;}
	.st9{fill:#FFFFFF;stroke:#000000;stroke-miterlimit:10;}
	.st10{fill:#C2C5C6;}
	.st11{fill:#C77C11;}
	.st12{fill:#B4B5B5;}
	.st13{fill:#C43B3A;}
	.st14{fill:#D3CCA5;}
	.st15{fill:#E6E2C2;}
	.st16{fill:#B6B083;}
	.st17{fill:#EAE8E7;}
	.st18{fill:#D2CAA4;}
	.st19{fill:#E5E0C0;}
	.st20{fill:#D6D2D1;}
	.st21{fill:#181716;}
	.st22{opacity:0.9;fill:#FFFFFF;enable-background:new    ;}
	.st23{clip-path:url(#SVGID_00000064344045233523203470000017634413650947236247_);}
	.st24{clip-path:url(#SVGID_00000131336045977578153140000014234889201969224590_);}
	.st25{clip-path:url(#SVGID_00000150087305503469726310000014062744148629595788_);}
	.st26{fill:#C8CCCF;}
	.st27{fill:#59595A;}
	.st28{fill:#FFFFFF;}
	.st29{fill:#6B6D6D;}
	.st30{fill-rule:evenodd;clip-rule:evenodd;fill:#1E1E21;}
	.st31{fill:#3AA5C6;}
	.st32{display:none;}
	.st33{display:inline;fill:#6B6D6D;}
	.st34{fill:#EA3D3D;}
	.st35{fill:none;}
	.st36{fill:none;stroke:#FF0000;stroke-width:2;}
	.st37{fill:#FF0000;}
</style>
<symbol  id="Calliope_x5F_3_x5F_Small_x5F_LED" viewBox="-0.7 -1.4 1.4 2.8">
	<g>
		<rect x="-0.7" y="-0.9" class="st0" width="1.4" height="1.8"/>
		<rect x="-0.7" y="-1.1" class="st1" width="1.4" height="0.2"/>
		<rect x="-0.7" y="-1.4" class="st2" width="1.4" height="0.2"/>
		<rect x="-0.7" y="1.2" class="st2" width="1.4" height="0.2"/>
		<rect x="-0.7" y="1" class="st1" width="1.4" height="0.2"/>
		<circle class="st3" cx="0" cy="0" r="0.1"/>
	</g>
</symbol>
<g id="Ebene_2">
	<path id="Platine_00000027604989600263327870000014450026629395007642_" class="st4" d="M264.7,120.7c-0.2,0.1-0.4,0.1-0.6,0.2
		c-0.3,0.1-0.5,0.2-0.8,0.2c-0.1,0-0.2,0-0.3,0.1c-0.3,0.1-0.5,0.1-0.8,0.2c-0.3,0-0.6,0.1-0.8,0.1c-0.1,0-0.2,0-0.3,0
		c-0.3,0-0.6,0-0.9,0c-7.2,0-13-5.8-13-13c0-2.2,0.5-4.2,1.5-6c0.6-1.2,1.4-2.3,2.3-3.2c0.1-0.1,0.2-0.1,0.2-0.2
		c0.1-0.1,0.3-0.3,0.4-0.4c0.1-0.1,0.2-0.2,0.4-0.3c0.2-0.2,0.5-0.4,0.7-0.5c0.2-0.2,0.5-0.3,0.7-0.5c0.2-0.1,0.4-0.3,0.7-0.4
		c0.2-0.1,0.5-0.2,0.7-0.4s0.5-0.2,0.7-0.3c0.4-0.2,0.8-0.3,1.2-0.4c0.2,0,0.3-0.1,0.5-0.1c0.3-0.1,0.6-0.1,1-0.2s0.7-0.1,1.1-0.1
		c0.1,0,0.2,0,0.4,0c0.2,0,0.3,0,0.5,0c0.6,0,1.2,0,1.8,0.1c0.1,0,0.3,0,0.4,0.1c0.7,0.1,1.4,0.3,2,0.5
		c-31.5-12.7-50.5-46-45.6-79.7c-0.1,0.3-0.3,1.4-0.4,1.7c-0.2,0.7-0.4,1.3-0.7,1.9c-0.1,0.2-0.3,0.4-0.4,0.6s-0.1,0.5-0.2,0.7
		s-0.3,0.5-0.4,0.7c-0.1,0.2-0.3,0.4-0.4,0.6c-0.1,0.2-0.2,0.2-0.4,0.4c-0.1,0.2-0.3,0.4-0.5,0.5c-0.2,0.2-0.3,0.3-0.5,0.5
		s-0.3,0.3-0.5,0.5s-0.4,0.3-0.6,0.4c-0.2,0.1-0.4,0.3-0.6,0.4c-0.2,0.1-0.3,0.4-0.5,0.5c-0.3,0.2-0.5,0.3-0.8,0.4s-0.3,0.3-0.6,0.4
		c-0.1,0.1-0.4,0.2-0.5,0.2c-1.1,0.4-2.1,0.7-3.3,0.8c-0.4,0-0.8,0.1-1.2,0.1c-2.6,0-5.1-0.8-7.1-2.1c-1.4-0.9-2.7-2.2-3.6-3.5
		c-1.4-2.1-2.3-4.6-2.3-7.4c0-0.2,0-0.5,0-0.7c0-0.1,0-0.3,0-0.4c0-0.2,0.1-0.5,0.1-0.7c0-0.1,0-0.3,0.1-0.4c0-0.1,0-0.3,0.1-0.4
		c0.1-0.2,0.1-0.5,0.2-0.8c0.1-0.3,0.2-0.6,0.3-1c0-0.1,0.1-0.2,0.1-0.3s0.1-0.2,0.1-0.4c0.1-0.3,0.2-0.5,0.4-0.8
		c0.1-0.2,0.3-0.5,0.4-0.7c0.4-0.7,0.9-1.4,1.5-2c0.2-0.2,0.4-0.4,0.6-0.6c0.1-0.1,0.2-0.2,0.3-0.3c0.1-0.1,0.2-0.2,0.3-0.3
		c0.2-0.2,0.4-0.4,0.6-0.5l0,0c0.2-0.2,0.4-0.3,0.7-0.5c0.2-0.1,0.4-0.3,0.6-0.4c-0.2,0.1-0.4,0.2-0.5,0.3c-0.3,0.2-0.6,0.4-0.9,0.6
		c-9.7,7.7-20.9,13.2-32.8,16.1v19c0,0.3-0.2,0.6-0.4,0.7c-0.4,0.2-0.9,0.1-1.2-0.3c-0.2-0.3-0.4-0.4-0.7-0.4h-21.5
		c-0.3,0-0.6,0.2-0.7,0.4c-0.2,0.3-0.4,0.4-0.7,0.4c-0.5,0-0.9-0.4-0.9-0.8V20.5c-11.4-2.8-22.1-7.9-31.4-15
		c0.2,0.2,0.4,0.4,0.6,0.7l0,0c0.2,0.2,0.4,0.5,0.6,0.8c0.1,0.1,0.2,0.3,0.3,0.4c0.1,0.2,0.2,0.4,0.3,0.5c0.1,0.2,0.2,0.4,0.3,0.6
		c0.6,1.1,1,2.3,1.2,3.5c0,0.1,0.1,0.3,0.1,0.4c0,0.2,0.1,0.5,0.1,0.7s0,0.3,0,0.5c0,0,0,0,0,0.1l0,0c0,0.2,0,0.5,0,0.8
		c0,7.2-5.8,13.1-13.1,13.1c-0.2,0-0.5,0-0.7,0c-0.5,0-1-0.1-1.6-0.2c-0.3-0.1-0.6-0.1-0.9-0.2c-0.4-0.1-0.8-0.2-1.2-0.4
		c-0.3-0.1-0.7-0.2-1-0.4c-0.3-0.1-0.6-0.3-0.9-0.4c0,0-0.1-0.1-0.2-0.1c-0.3-0.1-0.6-0.3-0.8-0.5c-0.3-0.2-0.6-0.4-0.9-0.6
		c-0.2-0.2-0.4-0.3-0.6-0.5s-0.4-0.4-0.6-0.5c-0.6-0.6-1.1-1.2-1.6-1.9c-0.1-0.1-0.2-0.2-0.2-0.4c-0.1-0.2-0.2-0.3-0.3-0.5
		s-0.2-0.3-0.3-0.5s-0.2-0.4-0.3-0.5c-0.2-0.4-0.4-0.8-0.5-1.3c0-0.1-0.1-0.3-0.1-0.4c-0.1-0.2-0.1-0.4-0.2-0.6
		c-0.1-0.3-0.1-0.6-0.2-0.8c0-0.1,0-0.2-0.1-0.4v-0.1c0,0.1,0,0.1,0,0.2c4.9,33.8-13.6,66.5-45,79.4c0.8-0.2,1.6-0.4,2.4-0.5
		c0.2,0,0.4,0,0.6-0.1c0.2,0,0.4,0,0.7,0c3.6,0,6.8,1.4,9.2,3.8c2.4,2.4,3.9,5.7,3.9,9.3c0,7.2-5.8,13.1-13.1,13.1
		c-0.4,0-0.9,0-1.3-0.1c-0.2,0-0.4,0-0.6-0.1c-0.2,0-0.4-0.1-0.7-0.1c-0.4-0.1-0.8-0.2-1.2-0.3c-0.4-0.1-0.8-0.3-1.2-0.4
		c0.1,0,0.2,0.1,0.3,0.1C70.6,133,89.5,165,85.4,198.3c0.1-0.2,0.1-0.4,0.2-0.6c0-0.1,0.1-0.2,0.1-0.3s0.1-0.2,0.1-0.3
		c0.1-0.2,0.2-0.4,0.3-0.6v-0.1c0.1-0.2,0.2-0.3,0.2-0.4v-0.1c0.1-0.3,0.3-0.5,0.5-0.8c0.1-0.1,0.1-0.2,0.2-0.2l0.1-0.1
		c0.1-0.1,0.2-0.3,0.3-0.4c0.2-0.3,0.5-0.6,0.8-0.9c0,0,0,0,0.1-0.1c0,0,0,0,0.1-0.1s0.2-0.3,0.4-0.4l0,0c0.2-0.2,0.3-0.3,0.5-0.4
		c0.2-0.2,0.3-0.3,0.5-0.4c0.2-0.1,0.3-0.3,0.5-0.4l0.1-0.1c0.1-0.1,0.3-0.2,0.4-0.3c0.7-0.5,1.4-0.8,2.1-1.2
		c0.4-0.2,0.9-0.4,1.4-0.5c0.6-0.2,1.3-0.3,1.9-0.4c0.2,0,0.5-0.1,0.7-0.1c0.4,0,0.9-0.1,1.4-0.1c0.4,0,0.9,0,1.3,0.1
		c0.2,0,0.4,0,0.5,0.1c0.2,0,0.4,0,0.5,0.1c0.2,0,0.3,0.1,0.5,0.1c0.8,0.2,1.7,0.5,2.4,0.8c0.3,0.1,0.6,0.3,0.9,0.4
		c0.3,0.2,0.6,0.3,0.9,0.5s0.6,0.4,0.8,0.6c0.3,0.2,0.6,0.5,0.9,0.7c0.2,0.2,0.4,0.4,0.6,0.6l0,0c0.2,0.2,0.4,0.4,0.5,0.6
		c0.1,0.1,0.2,0.2,0.2,0.3c0.2,0.2,0.4,0.4,0.5,0.7c0.2,0.2,0.3,0.5,0.5,0.7c0.2,0.3,0.4,0.6,0.6,1c0.1,0.2,0.3,0.5,0.4,0.8
		c0,0.1,0.1,0.2,0.1,0.2c0.1,0.3,0.2,0.5,0.3,0.8v0.1c0.1,0.3,0.2,0.6,0.3,0.9l-1.8-10.4c-0.2-1.3,0.4-2.6,1.7-3.1l2-0.4
		c1.5-0.3,3,0.8,3.3,2.3l2,11.4c0.2,1.2,1.4,2.1,2.6,1.8l0,0l13.4-2.4l0.6-0.1c1.2-0.2,2.1-1.4,1.8-2.6l-1.9-10.9l-0.1-0.6
		c-0.3-1.5,0.8-3,2.3-3.3l1.8-0.3c1.4,0,2.5,1,2.8,2.3l2,11.3c0.2,1.4,1.6,2.5,3,2.3c3.8-0.3,7.6-0.3,11.4,0c1.5,0.1,2.8-0.9,3-2.3
		l2-11.3c0.2-1.3,1.3-2.3,2.6-2.4l2,0.3c1.5,0.3,2.6,1.7,2.3,3.3l-2,11.4c-0.2,1.2,0.6,2.4,1.8,2.6l0,0l13.4,2.4l0.6,0.1
		c1.2,0.2,2.4-0.6,2.6-1.8l1.9-10.9l0.1-0.6c0.3-1.5,1.7-2.6,3.3-2.3l1.8,0.3c1.3,0.5,2,1.8,1.8,3.1l-1.8,9.9
		c0.1-0.2,0.1-0.3,0.2-0.5c0.2-0.5,0.3-0.9,0.5-1.4s0.5-1,0.8-1.5c0.2-0.3,0.4-0.6,0.6-0.9c1.3-1.7,3-3.1,4.9-4
		c0.2-0.1,0.4-0.2,0.6-0.3c0.2-0.1,0.4-0.2,0.6-0.2c0.2-0.1,0.4-0.2,0.6-0.2c0.6-0.2,1.1-0.3,1.7-0.4c0.2,0,0.4-0.1,0.5-0.1
		c0.3,0,0.7-0.1,1-0.1c0.2,0,0.4,0,0.7,0s0.5,0,0.7,0s0.5,0,0.7,0s0.4,0,0.6,0.1c0.3,0,0.5,0.1,0.8,0.1c0.2,0,0.4,0.1,0.5,0.1
		c0.4,0.1,0.9,0.2,1.3,0.4c0.2,0.1,0.3,0.1,0.5,0.2c0.3,0.1,0.7,0.3,1,0.5c0.2,0.1,0.3,0.2,0.5,0.2c0.2,0.1,0.4,0.2,0.6,0.4
		c0.1,0.1,0.2,0.1,0.3,0.2c0.2,0.1,0.3,0.2,0.5,0.4c0.2,0.1,0.4,0.3,0.6,0.5c0.1,0.1,0.3,0.2,0.4,0.4c0.8,0.7,1.4,1.5,2,2.3
		c0.1,0.1,0.1,0.2,0.2,0.3c0.4,0.6,0.7,1.2,1,1.8c0.1,0.1,0.1,0.2,0.2,0.3c0.2,0.5,0.4,1,0.5,1.6c0.1,0.2,0.1,0.3,0.1,0.5
		C214.3,165.7,233.2,133.2,264.7,120.7z M174.5,183.9c0-0.2,0.1-0.5,0.2-0.6c0.2-0.2,0.4-0.3,0.7-0.3c0.5,0,1,0.4,1,1s-0.4,1-1,1
		C175,184.9,174.5,184.5,174.5,183.9z M121.5,186.2c-0.5,0-1-0.4-1-1s0.5-1,1-1s1,0.4,1,1C122.5,185.7,122,186.2,121.5,186.2z
		 M125,185.5c-0.5,0-1-0.4-1-1s0.5-1,1-1s1,0.4,1,1S125.6,185.5,125,185.5z M128.6,184.9c-0.5,0-1-0.5-1-1c0-0.6,0.4-1,1-1
		c0.6,0,1,0.4,1,1C129.5,184.5,129.1,184.9,128.6,184.9z M179.1,183.6c0.5,0,1,0.4,1,1s-0.4,1-1,1s-1-0.4-1-1
		S178.5,183.6,179.1,183.6z M182.6,184.2c0.6,0,1,0.4,1,1c0,0.5-0.4,1-1,1c-0.5,0-1-0.4-1-1C181.6,184.6,182.1,184.2,182.6,184.2z
		 M119.4,194.2c-0.1,0-0.1,0-0.2,0c-0.5,0-0.9-0.3-1-0.8l-0.4-2.2c-0.1-0.5,0.3-1.1,0.8-1.2c0.5-0.1,1.1,0.3,1.1,0.8l0.4,2.2
		C120.3,193.6,120,194.1,119.4,194.2z M133.5,191.7c-0.5,0.1-1.1-0.3-1.2-0.8l-0.4-2.2c-0.1-0.5,0.3-1.1,0.8-1.1
		c0.5-0.1,1,0.3,1.2,0.8l0.4,2.2C134.4,191.1,134.1,191.6,133.5,191.7z M171.7,190.9c-0.1,0.5-0.6,0.9-1.2,0.8
		c-0.5-0.1-0.9-0.6-0.8-1.2l0.4-2.2c0.1-0.5,0.6-0.9,1.2-0.8c0.5,0.1,0.9,0.6,0.8,1.1L171.7,190.9z M185.8,193.4
		c-0.1,0.5-0.6,0.9-1.2,0.8c-0.5-0.1-0.8-0.5-0.8-1c0-0.1,0-0.1,0-0.2l0.4-2.2c0.1-0.5,0.6-0.9,1.1-0.8c0.5,0.1,0.9,0.6,0.8,1.2
		L185.8,193.4z"/>
	<g id="Silk-Screen_00000156564562992357658380000008843783073325291959_" class="st5">
		<path id="Motoren-Pinleiste_00000151532735225376680180000017000290609210411934_" class="st6" d="M185.1,173.6H200v-6.7h-14.9"/>
		<path id="Motoren-Pinleiste_00000140711661458049027030000008556681755740489390_" class="st6" d="M185.1,155.7H200v-8.3h-14.9
			V155.7z"/>
		<g id="Power_00000142157708998170595400000002001234340547575197_">
			<path class="st6" d="M241.7,127.5h2.6l-3.2,4.5l0.6-3.2h-3.2l4-4.5L241.7,127.5z"/>
		</g>
		<g id="Taste_B_00000081637263451911482780000012368230356577217450_">
			<path class="st6" d="M197.4,91v-0.6l0.1-0.5l0.1-0.5l0.1-0.5l0.1-0.5l0.2-0.5l0.2-0.5l0.2-0.5l0.2-0.5l0.3-0.5l0.3-0.4l0.3-0.4
				l0.3-0.4l0.3-0.4l0.4-0.4l0.4-0.4l0.4-0.3l0.4-0.3l0.4-0.3l0.4-0.3L203,82l0.5-0.2l0.5-0.2l0.5-0.2l0.5-0.2l0.5-0.1L206,81
				l0.5-0.1l0.5-0.1h0.6h0.6h0.6h0.6l0.5,0.1l0.5,0.1l0.5,0.1l0.5,0.1l0.5,0.2l0.7,0.1l0.5,0.2l0.5,0.2l0.5,0.3l0.4,0.3l0.4,0.3
				l0.4,0.3l0.4,0.3l0.4,0.4l0.4,0.4l0.3,0.4l0.3,0.4l0.3,0.4l0.3,0.4l0.3,0.5l0.2,0.5l0.2,0.5l0.2,0.5l0.2,0.5l0.1,0.5l0.1,0.5
				l0.1,0.5l0.1,0.5v0.6v0.6v0.6v0.6l-0.1,0.5l-0.1,0.5l-0.1,0.5l-0.1,0.5l-0.2,0.5l-0.2,0.5l-0.2,0.5l-0.2,0.5l-0.3,0.5l-0.3,0.4
				l-0.3,0.4l-0.3,0.4l-0.3,0.4l-0.4,0.4l-0.4,0.4l-0.4,0.3l-0.4,0.3l-0.4,0.3l-0.4,0.3l-0.5,0.3l-0.5,0.2l-0.5,0.2l-0.5,0.2
				l-0.5,0.2l-0.5,0.1l-0.5,0.1l-0.5,0.1l-0.5,0.1H209h-0.6h-0.6h-0.6l-0.5-0.1l-0.5-0.1l-0.5-0.1l-0.5-0.1l-0.5-0.2l-0.5-0.2
				l-0.5-0.2l-0.5-0.2l-0.5-0.3l-0.4-0.3l-0.4-0.3l-0.4-0.3l-0.4-0.3l-0.4-0.4l-0.4-0.4l-0.3-0.4l-0.3-0.4l-0.3-0.4l-0.3-0.4
				l-0.3-0.5l-0.2-0.5l-0.2-0.5l-0.2-0.5l-0.2-0.5l-0.1-0.5l-0.1-0.5l-0.1-0.5l-0.1-0.5v-0.6v-0.6h1.9V92v0.5l0.1,0.4l0.1,0.4
				l0.1,0.4l0.1,0.4l0.1,0.4l0.2,0.4l0.2,0.4l0.2,0.4l0.2,0.4l0.2,0.4l0.3,0.4l0.3,0.3l0.3,0.3l0.3,0.3l0.3,0.3l0.3,0.3l0.3,0.3
				l0.4,0.3l0.4,0.2l0.4,0.2l0.4,0.2l0.4,0.2l0.4,0.2l0.4,0.1l0.4,0.1l0.4,0.1l0.4,0.1l0.4,0.1h0.5h0.5h0.5h0.5l0.4-0.1l0.4-0.1
				l0.4-0.1l0.4-0.1l0.4-0.1l0.4-0.2l0.4-0.2l0.4-0.2l0.4-0.2l0.4-0.2l0.4-0.3l0.3-0.3l0.3-0.3l0.3-0.3l0.3-0.3l0.3-0.3l0.3-0.3
				l0.3-0.4l0.2-0.4l0.2-0.4l0.2-0.4l0.2-0.4l0.2-0.4l0.1-0.4l0.1-0.4l0.1-0.4l0.1-0.4l0.1-0.4V92v-0.5V91v-0.5l-0.1-0.4l-0.1-0.4
				l-0.1-0.4l-0.1-0.4l-0.1-0.4l-0.2-0.4l-0.2-0.4l-0.2-0.4l-0.2-0.4l-0.2-0.4l-0.3-0.4l-0.3-0.3l-0.3-0.3l-0.3-0.3l-0.3-0.3
				l-0.3-0.3l-0.3-0.3l-0.4-0.3l-0.4-0.2l-0.4-0.2l-0.4-0.2l-0.4-0.2l-0.4-0.2l-0.4-0.1l-0.4-0.1l-0.4-0.1l-0.4-0.1l-0.4-0.1H209
				h-0.5H208h-0.5l-0.4,0.1l-0.4,0.1l-0.4,0.1l-0.4,0.1l-0.4,0.1l-0.4,0.2l-0.4,0.2l-0.4,0.2l-0.4,0.2l-0.4,0.2l-0.4,0.3l-0.3,0.3
				l-0.3,0.3l-0.3,0.3l-0.3,0.3l-0.3,0.3l-0.3,0.3l-0.3,0.4l-0.2,0.4l-0.2,0.4l-0.2,0.4l-0.2,0.4l-0.2,0.4l-0.1,0.4l-0.1,0.4
				l-0.1,0.4l-0.1,0.4l-0.1,0.4V91v0.5h-1.9l0,0L197.4,91z"/>
		</g>
		<g id="Taste_A_00000115484528763488918300000006036429577312913843_">
			<path class="st6" d="M94.4,91.8l2.1,6.7h-1.4l-0.4-1.4l0,0h-1.8l-0.4,1.4h-1.4l0.8-2.5h1.3h1.2l-0.6-2.4L93.2,96h-1.3l1.3-4.2
				H94.4z"/>
			<path class="st6" d="M93.8,80.6L79.1,95.2l14.6,14.6l14.6-14.6L93.8,80.6z M81.8,95.2l12-12l12,12l-12,12L81.8,95.2z"/>
		</g>
		<g>
			<path class="st7" d="M174.3,66.6h0.2l0.2,0.1l0.1,0.2v0.2v1.4v0.2l-0.1,0.2l-0.2,0.1h-0.2h-1.5h-0.2l-0.2-0.1l-0.1-0.2v-0.2v-1.2
				v-0.2l0.1-0.2l0.2-0.1h0.2h1.5V66.6z"/>
			<path class="st7" d="M174.3,62.1h0.2l0.2,0.1l0.1,0.2v0.2v1.2V64l-0.1,0.2l-0.2,0.1h-0.2h-1.5h-0.2l-0.2-0.1l-0.1-0.2v-0.2v-1.2
				v-0.2l0.1-0.2l0.2-0.1h0.2H174.3z"/>
			<path class="st7" d="M140.3,66.6h0.2l0.2,0.1l0.1,0.2v0.2v1.4v0.2l-0.1,0.2l-0.2,0.1h-0.2h-1.5h-0.2l-0.2-0.1l-0.1-0.2v-0.2v-1.2
				v-0.2l0.1-0.2l0.2-0.1h0.2h1.5V66.6z"/>
			<path class="st7" d="M140.3,62.1h0.2l0.2,0.1l0.1,0.2v0.2v1.2V64l-0.1,0.2l-0.2,0.1h-0.2h-1.5h-0.2l-0.2-0.1l-0.1-0.2v-0.2v-1.2
				v-0.2l0.1-0.2l0.2-0.1h0.2H140.3z"/>
			<path class="st7" d="M128.9,66.6h0.2l0.2,0.1l0.1,0.2v0.2v1.4v0.2l-0.1,0.2l-0.2,0.1h-0.2h-1.5h-0.2l-0.2-0.1l-0.1-0.2v-0.2v-1.2
				v-0.2l0.1-0.2l0.2-0.1h0.2h1.5V66.6z"/>
			<path class="st7" d="M128.9,62.1h0.2l0.2,0.1l0.1,0.2v0.2v1.2V64l-0.1,0.2l-0.2,0.1h-0.2h-1.5h-0.2l-0.2-0.1l-0.1-0.2v-0.2v-1.2
				v-0.2l0.1-0.2l0.2-0.1h0.2H128.9z"/>
			<path class="st7" d="M140.3,78h0.2l0.2,0.1l0.1,0.2v0.2v1.2v0.2l-0.1,0.2l-0.2,0.1h-0.2h-1.5h-0.2l-0.2-0.1l-0.1-0.2v-0.2v-1.2
				v-0.2l0.1-0.2l0.2-0.1h0.2C138.8,78,140.3,78,140.3,78z"/>
			<path class="st7" d="M140.3,73.5h0.2l0.2,0.1l0.1,0.2V74v1.2v0.2l-0.1,0.2l-0.2,0.1h-0.2h-1.5h-0.2l-0.2-0.1l-0.1-0.2v-0.2V74
				v-0.2l0.1-0.2l0.2-0.1h0.2H140.3z"/>
			<path class="st7" d="M128.9,100.7h0.2l0.2,0.1l0.1,0.2v0.2v1.2v0.2l-0.1,0.2l-0.2,0.1h-0.2h-1.5h-0.2l-0.2-0.1l-0.1-0.2v-0.2
				v-1.2V101l0.1-0.2l0.2-0.1h0.2H128.9z"/>
			<path class="st7" d="M128.9,96.2h0.2l0.2,0.1l0.1,0.2v0.2v1.2v0.2l-0.1,0.2l-0.2,0.1h-0.2h-1.5h-0.2l-0.2-0.1l-0.1-0.2v-0.2v-1.2
				v-0.2l0.1-0.2l0.2-0.1h0.2C127.4,96.2,128.9,96.2,128.9,96.2z"/>
			<path class="st7" d="M152.5,132.3v-2h2v2H152.5z"/>
			<path class="st7" d="M152.5,129.2v-2h2v2H152.5z"/>
			<path class="st7" d="M147.3,129.2v-2h2v2H147.3z"/>
			<path class="st7" d="M147.3,132.3v-2h2v2H147.3z"/>
			<path class="st7" d="M140.3,89.3h0.2l0.2,0.1l0.1,0.2v0.2V91v0.2l-0.1,0.2l-0.2,0.1h-0.2h-1.5h-0.2l-0.2-0.1l-0.1-0.2V91v-1.2
				v-0.2l0.1-0.2l0.2-0.1h0.2H140.3z"/>
			<path class="st7" d="M140.3,84.8h0.2l0.2,0.1l0.1,0.2v0.2v1.2v0.2l-0.1,0.2l-0.2,0.1h-0.2h-1.5h-0.2l-0.2-0.1l-0.1-0.2v-0.2v-1
				v-0.2l0.1-0.2l0.2-0.1h0.2h1.5V84.8z"/>
			<path class="st7" d="M151.6,89.3h0.2l0.2,0.1l0.1,0.2v0.2V91v0.2l-0.1,0.2l-0.2,0.1h-0.2h-1.5h-0.2l-0.2-0.1l-0.1-0.2V91v-1.2
				v-0.2l0.1-0.2l0.2-0.1h0.2H151.6z"/>
			<path class="st7" d="M151.6,84.8h0.2l0.2,0.1l0.1,0.2v0.2v1.2v0.2l-0.1,0.2l-0.2,0.1h-0.2h-1.5h-0.2l-0.2-0.1l-0.1-0.2v-0.2v-1
				v-0.2l0.1-0.2l0.2-0.1h0.2h1.5V84.8z"/>
			<path class="st7" d="M174.3,100.7h0.2l0.2,0.1l0.1,0.2v0.2v1.2v0.2l-0.1,0.2l-0.2,0.1h-0.2h-1.5h-0.2l-0.2-0.1l-0.1-0.2v-0.2
				v-1.2V101l0.1-0.2l0.2-0.1h0.2H174.3z"/>
			<path class="st7" d="M174.3,96.2h0.2l0.2,0.1l0.1,0.2v0.2v1.2v0.2l-0.1,0.2l-0.2,0.1h-0.2h-1.5h-0.2l-0.2-0.1l-0.1-0.2v-0.2v-1.2
				v-0.2l0.1-0.2l0.2-0.1h0.2C172.8,96.2,174.3,96.2,174.3,96.2z"/>
			<path class="st7" d="M128.9,89.3h0.2l0.2,0.1l0.1,0.2v0.2V91v0.2l-0.1,0.2l-0.2,0.1h-0.2h-1.5h-0.2l-0.2-0.1l-0.1-0.2V91v-1.2
				v-0.2l0.1-0.2l0.2-0.1h0.2L128.9,89.3L128.9,89.3z"/>
			<path class="st7" d="M128.9,84.8h0.2l0.2,0.1l0.1,0.2v0.2v1.2v0.2l-0.1,0.2l-0.2,0.1h-0.2h-1.5h-0.2l-0.2-0.1l-0.1-0.2v-0.2v-1
				v-0.2l0.1-0.2l0.2-0.1h0.2h1.5V84.8z"/>
			<path class="st7" d="M174.3,112h0.2l0.2,0.1l0.1,0.2v0.2v1.2v0.2l-0.1,0.2l-0.1,0.4h-0.2h-1.5h-0.2l-0.2-0.1l-0.1-0.2V114v-1.2
				v-0.2l0.1-0.2l0.2-0.1h0.2h1.4V112z"/>
			<path class="st7" d="M174.3,107.6h0.2l0.2,0.1l0.1,0.2v0.2v1.2v0.2l-0.1,0.2l-0.2,0.1h-0.2h-1.5h-0.2l-0.2-0.1l-0.1-0.2v-0.2
				v-1.2v-0.2l0.1-0.2l0.2-0.1h0.2H174.3z"/>
			<path class="st7" d="M163,78h0.2l0.2,0.1l0.1,0.2v0.2v1.2v0.2l-0.1,0.2l-0.2,0.1H163h-1.5h-0.2l-0.2-0.1l-0.1-0.2v-0.2v-1.2v-0.2
				l0.1-0.2l0.2-0.1h0.2C161.5,78,163,78,163,78z"/>
			<path class="st7" d="M163,73.5h0.2l0.2,0.1l0.1,0.2V74v1.2v0.2l-0.1,0.2l-0.2,0.1H163h-1.5h-0.2l-0.2-0.1l-0.1-0.2v-0.2V74v-0.2
				l0.1-0.2l0.2-0.1h0.2H163z"/>
			<path class="st7" d="M151.6,100.7h0.2l0.2,0.1l0.1,0.2v0.2v1.2v0.2l-0.1,0.2l-0.2,0.1h-0.2h-1.5h-0.2l-0.2-0.1l-0.1-0.2v-0.2
				v-1.2V101l0.1-0.2l0.2-0.1h0.2H151.6z"/>
			<path class="st7" d="M151.6,96.2h0.2l0.2,0.1l0.1,0.2v0.2v1.2v0.2l-0.1,0.2l-0.2,0.1h-0.2h-1.5h-0.2l-0.2-0.1l-0.1-0.2v-0.2v-1.2
				v-0.2l0.1-0.2l0.2-0.1h0.2C150.1,96.2,151.6,96.2,151.6,96.2z"/>
			<path class="st7" d="M151.6,78h0.2l0.2,0.1l0.1,0.2v0.2v1.2v0.2l-0.1,0.2l-0.2,0.1h-0.2h-1.5h-0.2l-0.2-0.1l-0.1-0.2v-0.2v-1.2
				v-0.2l0.1-0.2l0.2-0.1h0.2C150.1,78,151.6,78,151.6,78z"/>
			<path class="st7" d="M151.6,73.5h0.2l0.2,0.1l0.1,0.2V74v1.2v0.2l-0.1,0.2l-0.2,0.1h-0.2h-1.5h-0.2l-0.2-0.1l-0.1-0.2v-0.2V74
				v-0.2l0.1-0.2l0.2-0.1h0.2H151.6z"/>
			<path class="st7" d="M174.3,89.3h0.2l0.2,0.1l0.1,0.2v0.2V91v0.2l-0.1,0.2l-0.2,0.1h-0.2h-1.5h-0.2l-0.2-0.1l-0.1-0.2V91v-1.2
				v-0.2l0.1-0.2l0.2-0.1h0.2H174.3z"/>
			<path class="st7" d="M174.3,84.8h0.2l0.2,0.1l0.1,0.2v0.2v1.2v0.2l-0.1,0.2l-0.2,0.1h-0.2h-1.5h-0.2l-0.2-0.1l-0.1-0.2v-0.2v-1
				v-0.2l0.1-0.2l0.2-0.1h0.2h1.5V84.8z"/>
			<path class="st7" d="M151.6,112h0.2l0.2,0.1l0.1,0.2v0.2v1.2v0.2l-0.1,0.2l-0.2,0.1h-0.2h-1.5h-0.2l-0.2-0.1l-0.1-0.2v-0.2v-1.2
				v-0.2l0.1-0.2l0.2-0.1h0.2C150.1,112,151.6,112,151.6,112z"/>
			<path class="st7" d="M151.6,107.6h0.2l0.2,0.1l0.1,0.2v0.2v1.2v0.2l-0.1,0.2l-0.2,0.1h-0.2h-1.5h-0.2l-0.2-0.1l-0.1-0.2v-0.2
				v-1.2v-0.2l0.1-0.2l0.2-0.1h0.2L151.6,107.6L151.6,107.6z"/>
			<path class="st7" d="M166.7,132.3v-2h2v2H166.7z"/>
			<path class="st7" d="M166.7,129.2v-2h2v2H166.7z"/>
			<path class="st7" d="M161.5,129.2v-2h2v2H161.5z"/>
			<path class="st7" d="M161.5,132.3v-2h2v2H161.5z"/>
			<path class="st7" d="M140.3,112h0.2l0.2,0.1l0.1,0.2v0.2v1.2v0.2l-0.1,0.2l-0.2,0.1h-0.2h-1.5h-0.2l-0.2-0.1l-0.1-0.2v-0.2v-1.2
				v-0.2l0.1-0.2l0.2-0.1h0.2C138.8,112,140.3,112,140.3,112z"/>
			<path class="st7" d="M140.3,107.6h0.2l0.2,0.1l0.1,0.2v0.2v1.2v0.2l-0.1,0.2l-0.2,0.1h-0.2h-1.5h-0.2l-0.2-0.1l-0.1-0.2v-0.2
				v-1.2v-0.2l0.1-0.2l0.2-0.1h0.2H140.3z"/>
			<path class="st7" d="M138.3,132.3v-2h2v2H138.3z"/>
			<path class="st7" d="M138.3,129.2v-2h2v2H138.3z"/>
			<path class="st7" d="M133.1,129.2v-2h2v2H133.1z"/>
			<path class="st7" d="M133.1,132.3v-2h2v2H133.1z"/>
			<path class="st7" d="M140.3,100.7h0.2l0.2,0.1l0.1,0.2v0.2v1.2v0.2l-0.1,0.2l-0.2,0.1h-0.2h-1.5h-0.2l-0.2-0.1l-0.1-0.2v-0.2
				v-1.2V101l0.1-0.2l0.2-0.1h0.2H140.3z"/>
			<path class="st7" d="M140.3,96.2h0.2l0.2,0.1l0.1,0.2v0.2v1.2v0.2l-0.1,0.2l-0.2,0.1h-0.2h-1.5h-0.2l-0.2-0.1l-0.1-0.2v-0.2v-1.2
				v-0.2l0.1-0.2l0.2-0.1h0.2C138.8,96.2,140.3,96.2,140.3,96.2z"/>
			<path class="st7" d="M163,66.6h0.2l0.2,0.1l0.1,0.2v0.2v1.4v0.2l-0.1,0.2l-0.2,0.1H163h-1.5h-0.2l-0.2-0.1l-0.1-0.2v-0.2v-1.2
				v-0.2l0.1-0.2l0.2-0.1h0.2h1.5V66.6z"/>
			<path class="st7" d="M163,62.1h0.2l0.2,0.1l0.1,0.2v0.2v1.2V64l-0.1,0.2l-0.2,0.1H163h-1.5h-0.2l-0.2-0.1L161,64v-0.2v-1.2v-0.2
				l0.1-0.2l0.2-0.1h0.2H163z"/>
			<path class="st7" d="M163,100.7h0.2l0.2,0.1l0.1,0.2v0.2v1.2v0.2l-0.1,0.2l-0.2,0.1H163h-1.5h-0.2l-0.2-0.1l-0.1-0.2v-0.2v-1.2
				V101l0.1-0.2l0.2-0.1h0.2H163z"/>
			<path class="st7" d="M163,96.2h0.2l0.2,0.1l0.1,0.2v0.2v1.2v0.2l-0.1,0.2l-0.2,0.1H163h-1.5h-0.2l-0.2-0.1l-0.1-0.2v-0.2v-1.2
				v-0.2l0.1-0.2l0.2-0.1h0.2C161.5,96.2,163,96.2,163,96.2z"/>
			<path class="st7" d="M163,112h0.2l0.2,0.1l0.1,0.2v0.2v1.2v0.2l-0.1,0.2l-0.2,0.1H163h-1.5h-0.2l-0.2-0.1l-0.1-0.2v-0.2v-1.2
				v-0.2l0.1-0.2l0.2-0.1h0.2C161.5,112,163,112,163,112z"/>
			<path class="st7" d="M163,107.6h0.2l0.2,0.1l0.1,0.2v0.2v1.2v0.2l-0.1,0.2l-0.2,0.1H163h-1.5h-0.2l-0.2-0.1l-0.1-0.2v-0.2v-1.2
				v-0.2l0.1-0.2l0.2-0.1h0.2H163z"/>
			<path class="st7" d="M128.9,112h0.2l0.2,0.1l0.1,0.2v0.2v1.2v0.2l-0.1,0.2l-0.2,0.1h-0.2h-1.5h-0.2l-0.2-0.1l-0.1-0.2v-0.2v-1.2
				v-0.2l0.1-0.2l0.2-0.1h0.2C127.4,112,128.9,112,128.9,112z"/>
			<path class="st7" d="M128.9,107.6h0.2l0.2,0.1l0.1,0.2v0.2v1.2v0.2l-0.1,0.2l-0.2,0.1h-0.2h-1.5h-0.2l-0.2-0.1l-0.1-0.2v-0.2
				v-1.2v-0.2l0.1-0.2l0.2-0.1h0.2H128.9z"/>
			<path class="st7" d="M151.6,66.6h0.2l0.2,0.1l0.1,0.2v0.2v1.4v0.2l-0.1,0.2l-0.2,0.1h-0.2h-1.5h-0.2l-0.2-0.1l-0.1-0.2v-0.2v-1.2
				v-0.2l0.1-0.2l0.2-0.1h0.2h1.5V66.6z"/>
			<path class="st7" d="M151.6,62.1h0.2l0.2,0.1l0.1,0.2v0.2v1.2V64l-0.1,0.2l-0.2,0.1h-0.2h-1.5h-0.2l-0.2-0.1l-0.1-0.2v-0.2v-1.2
				v-0.2l0.1-0.2l0.2-0.1h0.2H151.6z"/>
			<path class="st7" d="M128.9,78h0.2l0.2,0.1l0.1,0.2v0.2v1.2v0.2l-0.1,0.2l-0.2,0.1h-0.2h-1.5h-0.2l-0.2-0.1l-0.1-0.2v-0.2v-1.2
				v-0.2l0.1-0.2l0.2-0.1h0.2C127.4,78,128.9,78,128.9,78z"/>
			<path class="st7" d="M128.9,73.5h0.2l0.2,0.1l0.1,0.2V74v1.2v0.2l-0.1,0.2l-0.2,0.1h-0.2h-1.5h-0.2l-0.2-0.1l-0.1-0.2v-0.2V74
				v-0.2l0.1-0.2l0.2-0.1h0.2H128.9z"/>
			<path class="st7" d="M174.3,78h0.2l0.2,0.1l0.1,0.2v0.2v1.2v0.2l-0.1,0.2l-0.2,0.1h-0.2h-1.5h-0.2l-0.2-0.1l-0.1-0.2v-0.2v-1.2
				v-0.2l0.1-0.2l0.2-0.1h0.2C172.8,78,174.3,78,174.3,78z"/>
			<path class="st7" d="M174.3,73.5h0.2l0.2,0.1l0.1,0.2V74v1.2v0.2l-0.1,0.2l-0.2,0.1h-0.2h-1.5h-0.2l-0.2-0.1l-0.1-0.2v-0.2V74
				v-0.2l0.1-0.2l0.2-0.1h0.2H174.3z"/>
			<path class="st7" d="M163,89.3h0.2l0.2,0.1l0.1,0.2v0.2V91v0.2l-0.1,0.2l-0.2,0.1H163h-1.5h-0.2l-0.2-0.1l-0.1-0.2V91v-1.2v-0.2
				l0.1-0.2l0.2-0.1h0.2H163z"/>
			<path class="st7" d="M163,84.8h0.2l0.2,0.1l0.1,0.2v0.2v1.2v0.2l-0.1,0.2l-0.2,0.1H163h-1.5h-0.2l-0.2-0.1l-0.1-0.2v-0.2v-1v-0.2
				l0.1-0.2l0.2-0.1h0.2h1.5V84.8z"/>
		</g>
	</g>
	<g id="Touchpins_00000139271503392515676730000002795967379766398089_">
		<path id="Plus-Pin_00000178921160323096869550000002813336249314124451_" class="st8" d="M206.1,1.8c-2.5,0-4.8,0.7-6.8,1.9
			c-0.2,0.1-0.4,0.2-0.5,0.3c0,0,0,0-0.1,0c-0.2,0.2-0.5,0.3-0.7,0.5l0,0c-0.2,0.2-0.4,0.3-0.6,0.5c-0.1,0.1-0.2,0.2-0.3,0.3
			c-0.1,0.1-0.2,0.2-0.3,0.3c-0.2,0.2-0.4,0.4-0.6,0.6c-0.6,0.6-1,1.3-1.5,2c-0.1,0.2-0.3,0.5-0.4,0.7c-0.1,0.2-0.2,0.5-0.4,0.8
			c-0.1,0.1-0.1,0.2-0.1,0.4c0,0.1-0.1,0.2-0.1,0.3c-0.1,0.3-0.2,0.6-0.3,1c-0.1,0.2-0.1,0.5-0.2,0.8c0,0.1,0,0.3-0.1,0.4
			c0,0.1,0,0.3-0.1,0.4c0,0.2-0.1,0.5-0.1,0.7c0,0.1,0,0.2,0,0.4s0,0.5,0,0.7c0,7.2,5.8,13,13,13c0.4,0,0.8,0,1.2-0.1
			c1.2-0.1,2.4-0.4,3.5-0.8c0.1,0,0.2-0.1,0.3-0.1c0.3-0.1,0.6-0.2,0.8-0.4c0.3-0.1,0.5-0.3,0.8-0.4c0.2-0.1,0.4-0.3,0.6-0.4
			c0.2-0.1,0.4-0.3,0.6-0.4c0.2-0.1,0.4-0.3,0.6-0.4c0.2-0.2,0.4-0.3,0.5-0.5c0.2-0.2,0.4-0.3,0.5-0.5c0.2-0.2,0.3-0.4,0.5-0.5
			c0.2-0.2,0.3-0.4,0.5-0.6c0.1-0.2,0.3-0.4,0.4-0.6c0.2-0.2,0.3-0.5,0.4-0.7c0.1-0.2,0.2-0.4,0.3-0.6s0.2-0.5,0.3-0.7
			c0.3-0.6,0.5-1.3,0.7-1.9c0.1-0.3,0.1-0.6,0.2-0.9l0,0c0.1-0.8,0.2-1.5,0.2-2.3C219.1,7.7,213.3,1.8,206.1,1.8z M206.1,20.5
			c-3.1,0-5.7-2.5-5.7-5.7c0-3.1,2.5-5.7,5.7-5.7c3.1,0,5.7,2.5,5.7,5.7S209.3,20.5,206.1,20.5z"/>
		<path id="Minus-Pin_00000170264777065447236630000013191258381611018665_" class="st8" d="M111.6,14L111.6,14
			C111.7,13.9,111.7,13.9,111.6,14c0-0.2,0-0.4,0-0.6c0-0.2-0.1-0.5-0.1-0.7c0-0.1-0.1-0.3-0.1-0.4c-0.2-1.3-0.6-2.5-1.3-3.7
			c-0.1-0.2-0.2-0.4-0.3-0.6c0-0.3-0.2-0.5-0.3-0.6c-0.1-0.2-0.2-0.3-0.3-0.4c-0.2-0.3-0.4-0.5-0.6-0.8l0,0
			c-0.2-0.2-0.4-0.5-0.6-0.7c-2.5-2.6-6-4.3-10-4.3c-7.6,0-13.7,6.1-13.7,13.7c0,0.6,0,1.3,0.1,1.9l0,0v0.1c0,0.1,0,0.2,0.1,0.4
			c0,0.3,0.1,0.6,0.2,0.8c0,0.2,0.1,0.4,0.2,0.6c0,0.1,0.1,0.3,0.1,0.4c0.1,0.4,0.3,0.9,0.5,1.4c0.1,0.2,0.2,0.4,0.3,0.5
			c0.1,0.2,0.2,0.3,0.3,0.5s0.2,0.3,0.3,0.5c0.1,0.1,0.1,0.2,0.2,0.4c0.5,0.7,1,1.4,1.7,2c0.2,0.2,0.4,0.4,0.6,0.5
			c0.2,0.2,0.4,0.3,0.6,0.5c0.3,0.2,0.6,0.4,0.9,0.6c0.3,0.2,0.5,0.3,0.8,0.5c0.1,0,0.1,0.1,0.2,0.1c0.3,0.2,0.6,0.3,0.9,0.4
			c0.3,0.1,0.6,0.3,1,0.4s0.8,0.2,1.3,0.4c0.3,0.1,0.6,0.1,0.9,0.2c0.5,0.1,1,0.2,1.7,0.2c0.2,0,0.4,0,0.7,0
			C105.8,28.4,111.6,21.6,111.6,14C111.4,13.8,111.7,14.2,111.6,14z M98,20.4c-3.1,0-5.7-2.5-5.7-5.7c0-3.1,2.5-5.7,5.7-5.7
			c3.1,0,5.7,2.5,5.7,5.7S101.1,20.4,98,20.4z"/>
		<path id="Pin_3_00000083796466605679300150000005513055920930589580_" class="st8" d="M264.3,96.2c-0.6-0.2-1.3-0.4-2-0.5
			c-0.1,0-0.2,0-0.4-0.1c-0.6-0.1-1.2-0.1-1.8-0.1c-0.2,0-0.3,0-0.5,0c-0.1,0-0.2,0-0.4,0c-0.4,0-0.7,0-1.1,0.1
			c-0.3,0.1-0.6,0.1-1,0.2c-0.2,0-0.3,0.1-0.5,0.1c-0.4,0.1-0.8,0.2-1.2,0.4c-0.2,0.1-0.5,0.2-0.7,0.3s-0.5,0.2-0.7,0.4
			c-0.2,0.1-0.5,0.2-0.7,0.4c-0.2,0.2-0.5,0.3-0.7,0.5s-0.5,0.3-0.7,0.5c-0.1,0.1-0.2,0.2-0.4,0.3c-0.2,0.1-0.3,0.3-0.4,0.4
			c-0.1,0.1-0.2,0.1-0.2,0.2c-2.4,2.4-3.8,5.6-3.8,9.2c0,7.2,5.8,13,13,13c0.3,0,0.6,0,0.9,0c0.1,0,0.2,0,0.3,0c0.3,0,0.6,0,0.8-0.1
			c0.3,0,0.6-0.1,0.8-0.2c0.1,0,0.2,0,0.3-0.1c0.3-0.1,0.5-0.1,0.8-0.2c0.2-0.1,0.4-0.1,0.6-0.2c5-1.8,8.5-6.6,8.5-12.2
			C273.2,102.8,269.5,97.9,264.3,96.2z M260.2,114.2c-3.1,0-5.7-2.5-5.7-5.7s2.5-5.7,5.7-5.7c3.1,0,5.7,2.5,5.7,5.7
			S263.3,114.2,260.2,114.2z"/>
		<path id="Pin_2_00000065070803778863995450000008210996574819710604_" class="st8" d="M218.8,199.2c0-0.2-0.1-0.3-0.1-0.5
			c-0.1-0.6-0.3-1.1-0.5-1.6c-0.1-0.1-0.1-0.2-0.2-0.3c-0.3-0.6-0.6-1.2-1-1.8c-0.1-0.1-0.1-0.2-0.2-0.3c-0.6-0.9-1.2-1.6-2-2.3
			c-0.1-0.1-0.3-0.2-0.4-0.4c-0.2-0.2-0.4-0.3-0.6-0.5c-0.2-0.1-0.3-0.2-0.5-0.4c-0.3-0.2-0.6-0.4-0.9-0.6c-0.2-0.1-0.3-0.2-0.5-0.2
			c-0.3-0.2-0.7-0.3-1-0.5c-0.2-0.1-0.3-0.1-0.5-0.2c-0.4-0.2-0.8-0.3-1.3-0.4c-0.2-0.1-0.3-0.1-0.5-0.1c-0.3-0.1-0.5-0.1-0.8-0.1
			c-0.2,0-0.4,0-0.6-0.1c-0.2,0-0.4,0-0.7,0c-0.2,0-0.4,0-0.7,0s-0.5,0-0.7,0c-0.3,0-0.7,0-1,0.1c-0.2,0-0.4,0-0.5,0.1
			c-0.6,0.1-1.2,0.2-1.7,0.4c-0.2,0.1-0.4,0.1-0.6,0.2c-0.2,0.1-0.4,0.2-0.6,0.2c-0.2,0.1-0.4,0.2-0.6,0.3c-1.9,0.9-3.6,2.3-4.9,4
			c-0.2,0.3-0.4,0.6-0.6,0.9c-0.3,0.5-0.6,1-0.8,1.5c-0.2,0.4-0.4,0.9-0.5,1.4c-0.1,0.2-0.1,0.3-0.2,0.5c-0.3,1.2-0.5,2.4-0.5,3.7
			c0,7.3,5.9,13.2,13.2,13.2s13.2-5.9,13.2-13.2C219.2,201.1,219.1,200.1,218.8,199.2z M205.9,207.8c-3.1,0-5.7-2.5-5.7-5.7
			c0-3.1,2.5-5.7,5.7-5.7s5.7,2.5,5.7,5.7S209.1,207.8,205.9,207.8z"/>
		<path id="Pin_1_00000097500062191813233010000011048663671842669974_" class="st8" d="M111,199c-0.1-0.3-0.2-0.6-0.3-0.9V198
			c-0.1-0.3-0.2-0.5-0.3-0.8c0-0.1-0.1-0.1-0.1-0.2c-0.1-0.3-0.2-0.5-0.4-0.8c-0.2-0.3-0.4-0.7-0.6-1c-0.2-0.2-0.3-0.5-0.5-0.7
			s-0.3-0.5-0.5-0.7c-0.1-0.1-0.2-0.2-0.2-0.3c-0.2-0.2-0.3-0.4-0.5-0.6l0,0c-0.2-0.2-0.4-0.4-0.6-0.6c-0.3-0.2-0.6-0.5-0.9-0.7
			s-0.5-0.4-0.8-0.6c-0.3-0.2-0.6-0.3-0.9-0.5s-0.6-0.3-0.9-0.4c-0.8-0.3-1.6-0.6-2.4-0.8c-0.2,0-0.3-0.1-0.5-0.1s-0.3-0.1-0.5-0.1
			s-0.3,0-0.5-0.1c-0.4,0-0.9-0.1-1.3-0.1c-0.5,0-0.9,0-1.4,0.1c-0.2,0-0.4,0-0.7,0.1c-0.7,0.1-1.3,0.2-1.9,0.4
			c-1.2,0.4-2.4,1-3.5,1.7c-0.2,0.1-0.3,0.2-0.5,0.4c-0.2,0.1-0.3,0.3-0.5,0.4c-0.2,0.1-0.3,0.3-0.5,0.4c-0.2,0.1-0.3,0.3-0.5,0.4
			c-0.1,0.1-0.3,0.3-0.4,0.5c-0.4,0.5-0.8,1-1.2,1.5c-0.2,0.4-0.5,0.7-0.7,1.1c-0.1,0.2-0.2,0.4-0.3,0.6c-0.2,0.4-0.3,0.8-0.5,1.2
			c-0.5,1.4-0.8,3-0.8,4.6c0,7.4,6,13.3,13.3,13.3s13.3-6,13.3-13.3C111.4,201.1,111.2,200,111,199z M98.1,208
			c-3.2,0-5.7-2.5-5.7-5.7c0-3.1,2.6-5.7,5.7-5.7s5.7,2.6,5.7,5.7S101.2,208,98.1,208z"/>
		<path id="Pin_0_00000000943262699669736540000006022539635673579454_" class="st8" d="M43.9,95.4c-0.2,0-0.4,0-0.7,0
			c-0.2,0-0.4,0-0.6,0.1c-0.8,0.1-1.6,0.2-2.4,0.5c-5.4,1.5-9.4,6.6-9.4,12.5c0,5.4,3.3,10.1,8,12.1c0.4,0.2,0.8,0.3,1.2,0.4
			c0.4,0.1,0.8,0.2,1.2,0.3c0.2,0.1,0.4,0.1,0.7,0.1c0.2,0,0.4,0.1,0.6,0.1c0.4,0,0.9,0.1,1.3,0.1c7.2,0,13.1-5.8,13.1-13.1
			C57,101.3,51.2,95.4,43.9,95.4z M43.9,114.2c-3.1,0-5.7-2.5-5.7-5.7s2.5-5.7,5.7-5.7s5.7,2.5,5.7,5.7S47.1,114.2,43.9,114.2z"/>
	</g>
	<g id="JacDac_00000000919614553938945210000015069493834843081129_">
		<g>
			<g id="LWPOLYLINE_00000131368977942021519940000007889413617030538897_">
				<path class="st8" d="M122.9,185.8c0.1-0.3,0.2-0.6,0.1-0.9c-0.1-0.8-0.8-1.3-1.6-1.3c-0.1,0-0.1,0-0.2,0c-0.9,0.2-1.4,1-1.3,1.8
					c0.1,0.3,0.2,0.6,0.4,0.8l1.7,9.5c0.1,0.6,0.7,1,1.3,0.9h0.3c0.6-0.1,1-0.7,0.9-1.3L122.9,185.8z M121.5,186.2c-0.5,0-1-0.4-1-1
					s0.5-1,1-1s1,0.4,1,1C122.5,185.7,122,186.2,121.5,186.2z"/>
			</g>
			<g id="ARC_00000069389641737834511640000005678364412744464823_">
				<path class="st8" d="M126.4,185.2L126.4,185.2c0.1-0.3,0.2-0.6,0.1-0.9c-0.2-0.8-1-1.4-1.8-1.3c-0.9,0.2-1.4,1-1.3,1.8
					c0.1,0.3,0.2,0.6,0.4,0.8l1.9,10.9c0.1,0.6,0.7,1,1.3,0.9l0.3-0.1c0.6-0.1,1-0.7,0.9-1.3L126.4,185.2z M125,185.5
					c-0.5,0-1-0.4-1-1s0.5-1,1-1s1,0.4,1,1S125.6,185.5,125,185.5z"/>
			</g>
			<g id="LWPOLYLINE_00000032609604622027046060000015163873948334292396_">
				<path class="st8" d="M130,184.6c0.1-0.3,0.2-0.6,0.1-0.9c-0.1-0.3-0.2-0.6-0.4-0.8c-0.3-0.4-0.8-0.5-1.4-0.4
					c-0.8,0.2-1.4,1-1.3,1.8c0.1,0.3,0.2,0.6,0.4,0.8l1.9,10.9c0.1,0.6,0.7,1,1.3,0.9l0.3-0.1c0.6-0.1,1-0.7,0.9-1.3L130,184.6z
					 M128.6,184.9c-0.5,0-1-0.5-1-1c0-0.6,0.4-1,1-1c0.6,0,1,0.4,1,1C129.5,184.5,129.1,184.9,128.6,184.9z"/>
			</g>
		</g>
		<g>
			<g id="LINE_00000037693602809263690890000017519103626193007523_">
				<path class="st8" d="M179.3,183c-0.8-0.1-1.7,0.4-1.8,1.3c-0.1,0.3,0,0.6,0.1,0.9l0,0l-1.9,10.9c-0.1,0.6,0.3,1.2,0.9,1.3
					l0.3,0.1c0.6,0.1,1.2-0.3,1.3-0.9l1.9-10.9c0.2-0.2,0.4-0.5,0.4-0.8C180.7,184,180.2,183.2,179.3,183z M179.1,185.5
					c-0.5,0-1-0.4-1-1s0.4-1,1-1s1,0.4,1,1S179.6,185.5,179.1,185.5z"/>
			</g>
			<g id="LWPOLYLINE_00000146494337451588206130000000330923966153665168_">
				<path class="st8" d="M175.8,182.4c-0.5-0.1-1.1,0.1-1.4,0.5c-0.2,0.2-0.3,0.5-0.4,0.8c-0.1,0.3,0,0.6,0.1,0.9l-1.7,9.5
					c-0.1,0.6,0.3,1.2,0.9,1.3h0.3c0.6,0.1,1.2-0.3,1.3-0.9l1.7-9.5c0.2-0.2,0.4-0.5,0.4-0.8C177.2,183.3,176.6,182.5,175.8,182.4z
					 M175.5,184.9c-0.6,0-1-0.4-1-1c0-0.2,0.1-0.5,0.2-0.6c0.2-0.2,0.4-0.3,0.7-0.3c0.5,0,1,0.4,1,1S176.1,184.9,175.5,184.9z"/>
			</g>
			<g id="LWPOLYLINE_00000178887215092609855100000010700920426796864904_">
				<path class="st8" d="M182.9,183.6c-0.1,0-0.2,0-0.3,0c-0.8,0-1.4,0.5-1.5,1.3c-0.1,0.3,0,0.6,0.1,0.9l-1.9,10.9
					c-0.1,0.6,0.3,1.2,0.9,1.3l0.3,0.1c0.6,0.1,1.2-0.3,1.3-0.9l1.9-10.9c0.2-0.2,0.4-0.5,0.4-0.8
					C184.3,184.6,183.7,183.8,182.9,183.6z M182.6,186.2c-0.5,0-1-0.4-1-1s0.4-1,1-1s1,0.4,1,1C183.6,185.7,183.1,186.2,182.6,186.2
					z"/>
			</g>
		</g>
	</g>
	<g id="Steckleiste_00000176749214818614105320000015436944731572348804_">
		<path d="M98.3,154.6v13c0,0.3,0.3,0.6,0.6,0.6h108c0.3,0,0.6-0.3,0.6-0.6v-13c0-0.3-0.3-0.6-0.6-0.6h-108
			C98.5,154,98.3,154.3,98.3,154.6z M154.6,155.7v3.6H151v-3.6H154.6z M104.2,166.5h-3.6v-3.6h3.6V166.5z M104.2,159.3h-3.6v-3.6
			h3.6V159.3z M111.4,166.5h-3.6v-3.6h3.6V166.5z M111.4,159.3h-3.6v-3.6h3.6V159.3z M118.6,166.5H115v-3.6h3.6V166.5z M118.6,159.3
			H115v-3.6h3.6V159.3z M125.8,166.5h-3.6v-3.6h3.6V166.5z M125.8,159.3h-3.6v-3.6h3.6V159.3z M133,166.5h-3.6v-3.6h3.6V166.5z
			 M133,159.3h-3.6v-3.6h3.6V159.3z M140.2,166.5h-3.6v-3.6h3.6V166.5z M140.2,159.3h-3.6v-3.6h3.6V159.3z M147.4,166.5h-3.6v-3.6
			h3.6V166.5z M147.4,159.3h-3.6v-3.6h3.6V159.3z M154.6,166.5H151v-3.6h3.6V166.5z M161.8,166.5h-3.6v-3.6h3.6V166.5z M161.8,159.3
			h-3.6v-3.6h3.6V159.3z M169,166.5h-3.6v-3.6h3.6V166.5z M169,159.3h-3.6v-3.6h3.6V159.3z M176.2,166.5h-3.6v-3.6h3.6V166.5z
			 M176.2,159.3h-3.6v-3.6h3.6V159.3z M183.4,166.5h-3.6v-3.6h3.6V166.5z M183.4,159.3h-3.6v-3.6h3.6V159.3z M190.6,166.5H187v-3.6
			h3.6V166.5z M190.6,159.3H187v-3.6h3.6V159.3z M197.8,166.5h-3.6v-3.6h3.6V166.5z M197.8,159.3h-3.6v-3.6h3.6V159.3z M205,166.5
			h-3.6v-3.6h3.6V166.5z M205,159.3h-3.6v-3.6h3.6V159.3z"/>
		<g id="Aussen_00000181064667433945344860000013200175322496186038_">
			<path d="M100.6,162.9v3.6h3.6v-3.6H100.6z M103.7,165.9h-2.4v-2.4h2.4V165.9z"/>
			<path d="M107.8,162.9v3.6h3.6v-3.6H107.8z M110.9,165.9h-2.4v-2.4h2.4V165.9z"/>
			<path d="M115,162.9v3.6h3.6v-3.6H115z M118.1,165.9h-2.5v-2.4h2.5V165.9z"/>
			<path d="M122.2,162.9v3.6h3.6v-3.6H122.2z M125.3,165.9h-2.4v-2.4h2.4V165.9z"/>
			<path d="M129.4,162.9v3.6h3.6v-3.6H129.4z M132.5,165.9H130v-2.4h2.5V165.9z"/>
			<path d="M136.6,162.9v3.6h3.6v-3.6H136.6z M139.7,165.9h-2.4v-2.4h2.4V165.9z"/>
			<path d="M143.8,162.9v3.6h3.6v-3.6H143.8z M146.9,165.9h-2.4v-2.4h2.4V165.9z"/>
			<path d="M151,162.9v3.6h3.6v-3.6H151z M154.1,165.9h-2.5v-2.4h2.5V165.9z"/>
			<path d="M158.2,162.9v3.6h3.6v-3.6H158.2z M161.3,165.9h-2.4v-2.4h2.4V165.9z"/>
			<path d="M165.4,162.9v3.6h3.6v-3.6H165.4z M168.5,165.9H166v-2.4h2.5V165.9z"/>
			<path d="M172.6,162.9v3.6h3.6v-3.6H172.6z M175.7,165.9h-2.4v-2.4h2.4V165.9z"/>
			<path d="M179.8,162.9v3.6h3.6v-3.6H179.8z M182.9,165.9h-2.5v-2.4h2.5V165.9z"/>
			<path d="M187,162.9v3.6h3.6v-3.6H187z M190.1,165.9h-2.5v-2.4h2.5V165.9z"/>
			<path d="M194.2,162.9v3.6h3.6v-3.6H194.2z M197.3,165.9h-2.5v-2.4h2.5V165.9z"/>
			<path d="M201.4,162.9v3.6h3.6v-3.6H201.4z M204.5,165.9H202v-2.4h2.5V165.9z"/>
			<path d="M100.6,155.7v3.6h3.6v-3.6H100.6z M103.7,158.7h-2.4v-2.5h2.4V158.7z"/>
			<path d="M107.8,155.7v3.6h3.6v-3.6H107.8z M110.9,158.7h-2.4v-2.5h2.4V158.7z"/>
			<path d="M115,155.7v3.6h3.6v-3.6H115z M118.1,158.7h-2.5v-2.5h2.5V158.7z"/>
			<path d="M122.2,155.7v3.6h3.6v-3.6H122.2z M125.3,158.7h-2.4v-2.5h2.4V158.7z"/>
			<path d="M129.4,155.7v3.6h3.6v-3.6H129.4z M132.5,158.7H130v-2.5h2.5V158.7z"/>
			<path d="M136.6,155.7v3.6h3.6v-3.6H136.6z M139.7,158.7h-2.4v-2.5h2.4V158.7z"/>
			<path d="M143.8,155.7v3.6h3.6v-3.6H143.8z M146.9,158.7h-2.4v-2.5h2.4V158.7z"/>
			<path d="M151,155.7v3.6h3.6v-3.6H151z M154.1,158.7h-2.5v-2.5h2.5V158.7z"/>
			<path d="M158.2,155.7v3.6h3.6v-3.6H158.2z M161.3,158.7h-2.4v-2.5h2.4V158.7z"/>
			<path d="M165.4,155.7v3.6h3.6v-3.6H165.4z M168.5,158.7H166v-2.5h2.5V158.7z"/>
			<path d="M172.6,155.7v3.6h3.6v-3.6H172.6z M175.7,158.7h-2.4v-2.5h2.4V158.7z"/>
			<path d="M179.8,155.7v3.6h3.6v-3.6H179.8z M182.9,158.7h-2.5v-2.5h2.5V158.7z"/>
			<path d="M187,155.7v3.6h3.6v-3.6H187z M190.1,158.7h-2.5v-2.5h2.5V158.7z"/>
			<path d="M194.2,155.7v3.6h3.6v-3.6H194.2z M197.3,158.7h-2.5v-2.5h2.5V158.7z"/>
			<path d="M201.4,155.7v3.6h3.6v-3.6H201.4z M204.5,158.7H202v-2.5h2.5V158.7z"/>
		</g>
		<g id="Innen_00000142876270676718662780000009597090428899291012_">
			<rect x="101.2" y="163.5" class="st9" width="2.4" height="2.5"/>
			<rect x="108.4" y="163.5" class="st9" width="2.4" height="2.5"/>
			<rect x="115.6" y="163.5" class="st9" width="2.5" height="2.5"/>
			<rect x="122.8" y="163.5" class="st9" width="2.4" height="2.5"/>
			<rect x="130" y="163.5" class="st9" width="2.5" height="2.5"/>
			<rect x="137.2" y="163.5" class="st9" width="2.4" height="2.5"/>
			<rect x="144.4" y="163.5" class="st9" width="2.4" height="2.5"/>
			<rect x="151.6" y="163.5" class="st9" width="2.5" height="2.5"/>
			<rect x="158.8" y="163.5" class="st9" width="2.4" height="2.5"/>
			<rect x="166" y="163.5" class="st9" width="2.5" height="2.5"/>
			<rect x="173.2" y="163.5" class="st9" width="2.4" height="2.5"/>
			<rect x="180.4" y="163.5" class="st9" width="2.5" height="2.5"/>
			<rect x="187.6" y="163.5" class="st9" width="2.5" height="2.5"/>
			<rect x="194.8" y="163.5" class="st9" width="2.5" height="2.5"/>
			<rect x="202" y="163.5" class="st9" width="2.5" height="2.5"/>
			<rect x="101.2" y="156.3" class="st9" width="2.4" height="2.5"/>
			<rect x="108.4" y="156.3" class="st9" width="2.4" height="2.5"/>
			<rect x="115.6" y="156.3" class="st9" width="2.5" height="2.5"/>
			<rect x="122.8" y="156.3" class="st9" width="2.4" height="2.5"/>
			<rect x="130" y="156.3" class="st9" width="2.5" height="2.5"/>
			<rect x="137.2" y="156.3" class="st9" width="2.4" height="2.5"/>
			<rect x="144.4" y="156.3" class="st9" width="2.4" height="2.5"/>
			<rect x="151.6" y="156.3" class="st9" width="2.5" height="2.5"/>
			<rect x="158.8" y="156.3" class="st9" width="2.4" height="2.5"/>
			<path id="_x3C_Pfad_x3E__00000062873809900043009730000010135882875268676757_" class="st9" d="M168.5,158.7H166v-2.5h2.5V158.7z
				"/>
			<rect x="173.2" y="156.3" class="st9" width="2.4" height="2.5"/>
			<rect x="180.4" y="156.3" class="st9" width="2.5" height="2.5"/>
			<rect x="187.6" y="156.3" class="st9" width="2.5" height="2.5"/>
			<rect x="194.8" y="156.3" class="st9" width="2.5" height="2.5"/>
			<rect x="202" y="156.3" class="st9" width="2.5" height="2.5"/>
		</g>
		<g id="Fuesse_00000085949916456665332350000017828188897229262489_">
			<rect x="101.7" y="168.2" class="st10" width="1.4" height="3.1"/>
			<rect x="108.9" y="168.2" class="st10" width="1.4" height="3.1"/>
			<rect x="116.1" y="168.2" class="st10" width="1.4" height="3.1"/>
			<rect x="123.3" y="168.2" class="st10" width="1.4" height="3.1"/>
			<rect x="130.5" y="168.2" class="st10" width="1.4" height="3.1"/>
			<rect x="137.7" y="168.2" class="st10" width="1.4" height="3.1"/>
			<rect x="144.9" y="168.2" class="st10" width="1.4" height="3.1"/>
			<rect x="152.1" y="168.2" class="st10" width="1.4" height="3.1"/>
			<rect x="159.3" y="168.2" class="st10" width="1.4" height="3.1"/>
			<rect x="166.5" y="168.2" class="st10" width="1.4" height="3.1"/>
			<rect x="173.7" y="168.2" class="st10" width="1.4" height="3.1"/>
			<rect x="180.9" y="168.2" class="st10" width="1.4" height="3.1"/>
			<rect x="188.1" y="168.2" class="st10" width="1.4" height="3.1"/>
			<rect x="195.3" y="168.2" class="st10" width="1.4" height="3.1"/>
			<rect x="202.5" y="168.2" class="st10" width="1.4" height="3.1"/>
			<rect x="101.7" y="150.9" class="st10" width="1.4" height="3.1"/>
			<rect x="108.9" y="150.9" class="st10" width="1.4" height="3.1"/>
			<rect x="116.1" y="150.9" class="st10" width="1.4" height="3.1"/>
			<rect x="123.3" y="150.9" class="st10" width="1.4" height="3.1"/>
			<rect x="130.5" y="150.9" class="st10" width="1.4" height="3.1"/>
			<rect x="137.7" y="150.9" class="st10" width="1.4" height="3.1"/>
			<rect x="144.9" y="150.9" class="st10" width="1.4" height="3.1"/>
			<rect x="152.1" y="150.9" class="st10" width="1.4" height="3.1"/>
			<rect x="159.3" y="150.9" class="st10" width="1.4" height="3.1"/>
			<rect x="166.5" y="150.9" class="st10" width="1.4" height="3.1"/>
			<rect x="173.7" y="150.9" class="st10" width="1.4" height="3.1"/>
			<rect x="180.9" y="150.9" class="st10" width="1.4" height="3.1"/>
			<rect x="188.1" y="150.9" class="st10" width="1.4" height="3.1"/>
			<rect x="195.3" y="150.9" class="st10" width="1.4" height="3.1"/>
			<rect x="202.5" y="150.9" class="st10" width="1.4" height="3.1"/>
		</g>
	</g>
	<g id="Mikrofon_00000101080674966302880780000005609076374920050330_">
		<path class="st11" d="M234.1,112.2v7.2c0,0.3-0.3,0.6-0.6,0.6h-9.2c-0.3,0-0.6-0.3-0.6-0.6v-7.2c0-0.3,0.3-0.6,0.6-0.6h9.2
			C233.8,111.7,234.1,111.9,234.1,112.2z"/>
		<path class="st8" d="M233.8,112.4v6.8c0,0.3-0.2,0.5-0.5,0.5h-8.7c-0.3,0-0.5-0.2-0.5-0.5v-6.8c0-0.3,0.2-0.5,0.5-0.5h8.7
			C233.6,111.9,233.8,112.1,233.8,112.4z"/>
		<circle cx="226.1" cy="115.8" r="0.6"/>
	</g>
	<path class="st7" d="M216.8,98.7l-2.6-2.6l3.1-3.1l2.6,2.6L216.8,98.7z"/>
	<path class="st7" d="M232.7,82.8l-2.6-2.6l3.1-3.1l2.6,2.6L232.7,82.8z"/>
	<path class="st7" d="M225.8,107.8l-2.6-2.6l3.1-3.1l2.6,2.6L225.8,107.8z"/>
	<path class="st7" d="M241.7,91.8l-2.6-2.6l3.1-3.1l2.6,2.6L241.7,91.8z"/>
	<path class="st7" d="M202.8,61.8l-1.2-2.6l11.6-5.4l1.2,2.6L202.8,61.8z"/>
	<path class="st7" d="M205.2,67l-1.2-2.6l11.6-5.4l1.2,2.6L205.2,67z"/>
	<path class="st7" d="M207.6,72.1l-1.2-2.6l11.6-5.4l1.2,2.6L207.6,72.1z"/>
	<path class="st7" d="M210,77.3l-1.2-2.6l11.6-5.4l1.2,2.6L210,77.3z"/>
	<path class="st7" d="M210.8,129.3l7.8,6.1l-1.7,2.2l-7.8-6.1L210.8,129.3z"/>
	<path class="st7" d="M220.1,144.1l7.6,5.9l-2.6,3.4l-7.6-5.9L220.1,144.1z"/>
	<path class="st7" d="M231.8,129.1l7.6,5.9l-2.6,3.4l-7.6-5.9L231.8,129.1z"/>
	<path class="st7" d="M214.3,124.8l7.8,6.1l-1.7,2.2l-7.8-6.1L214.3,124.8z"/>
	<path class="st7" d="M189.5,123.8v0.3l-0.1,0.3l-0.2,0.2l-0.3,0.1h-0.3H184h-0.3l-0.3-0.1l-0.2-0.2l-0.1-0.3v-0.3v-4.6v-0.3
		l0.1-0.3l0.2-0.2l0.3-0.1h0.3h4.6h0.3l0.3,0.1l0.2,0.2l0.1,0.3v0.3L189.5,123.8L189.5,123.8z"/>
	<path class="st7" d="M209.6,123.8v0.3l-0.1,0.3l-0.2,0.2l-0.3,0.1h-0.3h-4.6h-0.3l-0.3-0.1l-0.2-0.2l-0.1-0.3v-0.3v-4.6v-0.3
		l0.1-0.3l0.2-0.2l0.3-0.1h0.3h4.6h0.3l0.3,0.1l0.2,0.2l0.1,0.3v0.3V123.8z"/>
	<path class="st7" d="M209.6,103.7v0.3l-0.1,0.3l-0.2,0.2l-0.3,0.1h-0.3h-4.6h-0.3l-0.3-0.1l-0.2-0.2l-0.1-0.3v-0.3v-4.6v-0.3
		l0.1-0.3l0.2-0.2l0.3-0.1h0.3h4.6h0.3l0.3,0.1l0.2,0.2l0.1,0.3v0.3V103.7z"/>
	<path class="st7" d="M189.5,103.7v0.3l-0.1,0.3l-0.2,0.2l-0.3,0.1h-0.3H184h-0.3l-0.3-0.1l-0.2-0.2l-0.1-0.3v-0.3v-4.6v-0.3
		l0.1-0.3l0.2-0.2l0.3-0.1h0.3h4.6h0.3l0.3,0.1l0.2,0.2l0.1,0.3v0.3L189.5,103.7L189.5,103.7z"/>
	<path class="st7" d="M96,74.8l-1.2,2.6L83.2,72l1.2-2.6L96,74.8z"/>
	<path class="st7" d="M98.4,69.6l-1.2,2.6l-11.6-5.4l1.2-2.6L98.4,69.6z"/>
	<path class="st7" d="M100.8,64.5L99.6,67L88,61.6l1.2-2.6L100.8,64.5z"/>
	<path class="st7" d="M103.2,59.3l-1.2,2.6l-11.6-5.4l1.2-2.6L103.2,59.3z"/>
	<path class="st7" d="M103.6,154.1h-2.5v-5.2h2.5V154.1z"/>
	<path class="st7" d="M103.6,172.1h-2.5v-5.2h2.5V172.1z"/>
	<path class="st7" d="M110.8,154.1h-2.5v-5.2h2.5V154.1z"/>
	<path class="st7" d="M110.8,172.1h-2.5v-5.2h2.5V172.1z"/>
	<path class="st7" d="M118,154.1h-2.5v-5.2h2.5V154.1z"/>
	<path class="st7" d="M118,172.1h-2.5v-5.2h2.5V172.1z"/>
	<path class="st7" d="M125.3,154.1h-2.5v-5.2h2.5V154.1z"/>
	<path class="st7" d="M125.3,172.1h-2.5v-5.2h2.5V172.1z"/>
	<path class="st7" d="M132.5,154.1H130v-5.2h2.5V154.1z"/>
	<path class="st7" d="M132.5,172.1H130v-5.2h2.5V172.1z"/>
	<path class="st7" d="M139.7,154.1h-2.5v-5.2h2.5V154.1z"/>
	<path class="st7" d="M139.7,172.1h-2.5v-5.2h2.5V172.1z"/>
	<path class="st7" d="M146.9,154.1h-2.5v-5.2h2.5V154.1z"/>
	<path class="st7" d="M146.9,172.1h-2.5v-5.2h2.5V172.1z"/>
	<path class="st7" d="M154.1,154.1h-2.5v-5.2h2.5V154.1z"/>
	<path class="st7" d="M154.1,172.1h-2.5v-5.2h2.5V172.1z"/>
	<path class="st7" d="M161.3,154.1h-2.5v-5.2h2.5V154.1z"/>
	<path class="st7" d="M161.3,172.1h-2.5v-5.2h2.5V172.1z"/>
	<path class="st7" d="M168.5,154.1H166v-5.2h2.5V154.1z"/>
	<path class="st7" d="M168.5,172.1H166v-5.2h2.5V172.1z"/>
	<path class="st7" d="M175.7,154.1h-2.5v-5.2h2.5V154.1z"/>
	<path class="st7" d="M175.7,172.1h-2.5v-5.2h2.5V172.1z"/>
	<path class="st7" d="M182.9,154.1h-2.5v-5.2h2.5V154.1z"/>
	<path class="st7" d="M182.9,172.1h-2.5v-5.2h2.5V172.1z"/>
	<path class="st7" d="M190.1,154.1h-2.5v-5.2h2.5V154.1z"/>
	<path class="st7" d="M190.1,172.1h-2.5v-5.2h2.5V172.1z"/>
	<path class="st7" d="M197.3,154.1h-2.5v-5.2h2.5V154.1z"/>
	<path class="st7" d="M197.3,172.1h-2.5v-5.2h2.5V172.1z"/>
	<path class="st7" d="M204.5,154.1H202v-5.2h2.5V154.1z"/>
	<path class="st7" d="M204.5,172.1H202v-5.2h2.5V172.1z"/>
	<path class="st7" d="M79.9,105.2l-2.6,2.6l-3.1-3.1l2.6-2.6L79.9,105.2z"/>
	<path class="st7" d="M63.9,89.2l-2.6,2.6l-3.1-3.1l2.6-2.6L63.9,89.2z"/>
	<path class="st7" d="M88.9,96.1l-2.6,2.6l-3.1-3.1l2.6-2.6L88.9,96.1z"/>
	<path class="st7" d="M73,80.2l-2.6,2.6l-3.1-3.1l2.6-2.6L73,80.2z"/>
	<path class="st7" d="M90,31.4h3.4v4H90V31.4z"/>
	<path class="st7" d="M90,37.7h3.4v4H90V37.7z"/>
	<path class="st7" d="M94.8,37.7h3.4v4h-3.4V37.7z"/>
	<path class="st7" d="M94.8,31.4h3.4v4h-3.4V31.4z"/>
	<g>
		<path id="Lautsprecher_00000053504555574880353370000012212953516825648524_" d="M188.7,123.5h15.1c0.2,0,0.3-0.1,0.4-0.2l3.9-3.9
			c0.1-0.1,0.2-0.3,0.2-0.4v-15.1c0-0.2-0.1-0.3-0.2-0.4l-3.9-3.9c-0.1-0.1-0.3-0.2-0.4-0.2h-15.1c-0.2,0-0.3,0.1-0.4,0.2l-3.9,3.9
			c-0.1,0.1-0.2,0.3-0.2,0.4V119c0,0.2,0.1,0.3,0.2,0.4l3.9,3.9C188.4,123.4,188.6,123.5,188.7,123.5z"/>
	</g>
	<g id="Anwendungs-Prozessor_00000047026578747862525020000002787143372999157405_">
		<path d="M118.1,118.8L104.9,132c-0.2,0.2-0.6,0.2-0.8,0l-13.2-13.2c-0.2-0.2-0.2-0.6,0-0.8l13.2-13.2c0.2-0.2,0.6-0.2,0.8,0
			l13.2,13.2C118.3,118.2,118.3,118.6,118.1,118.8z"/>
	</g>
	<g id="Taste_B_00000049912624587092784180000009890538791792000128_">
		<polygon class="st12" points="224.2,105.3 225.6,106.7 226.7,105.6 226.7,105.6 226.7,105.6 226.9,105.4 227.1,105.2 227.2,105.1 
			227.3,105 227.5,104.8 227.8,104.6 228.6,103.6 227.2,102.2 226.1,103.4 225.9,103.6 225.8,103.6 225.7,103.8 225.5,104 
			225.3,104.2 225.1,104.4 		"/>
		<polygon class="st12" points="239.3,90.2 240.7,91.6 241.6,90.7 241.8,90.5 242,90.3 242.1,90.2 242.2,90.1 242.4,89.9 
			242.6,89.7 243.7,88.6 242.3,87.2 241.4,88.1 241.2,88.2 241,88.4 240.8,88.7 240.7,88.8 240.6,88.9 240.4,89.1 		"/>
		<polygon class="st12" points="230.3,81.2 231.6,82.6 232.6,81.7 232.8,81.5 233,81.3 233.1,81.2 233.2,81.1 233.6,80.6 
			233.6,80.6 233.8,80.4 234.7,79.6 233.3,78.2 232.2,79.3 232,79.4 231.8,79.7 231.6,79.8 231.6,79.9 231.4,80 231.1,80.3 		"/>
		<polygon class="st12" points="215.2,96.2 216.6,97.6 217.6,96.6 217.7,96.6 217.7,96.5 218.3,96 218.5,95.8 218.7,95.5 
			219.6,94.6 218.2,93.2 217.1,94.4 216.9,94.6 216.8,94.6 216.7,94.8 216.5,95 216.3,95.1 		"/>
		<path class="st13" d="M225.9,95.9c1.9,1.9,5.1,1.9,7,0s1.9-5.1,0-7s-5.1-1.9-7,0C224,90.9,224,94,225.9,95.9z"/>
		<path class="st10" d="M217.9,92.9l0.3,0.3l1.4,1.4l7.6,7.6l1.4,1.4l0.3,0.3c0.3,0.3,0.7,0.3,1,0l11-11c0.3-0.3,0.3-0.7,0-1
			l-0.3-0.3l-1.4-1.4l-7.6-7.6l-1.4-1.4l-0.3-0.3c-0.3-0.3-0.7-0.3-1,0l-11,11C217.6,92.2,217.6,92.6,217.9,92.9z M230.5,84.7
			c-0.6,0.6-1.4,0.6-2,0c-0.6-0.5-0.6-1.4,0-2c0.6-0.5,1.4-0.5,2,0C231,83.3,231,84.2,230.5,84.7z M237.1,91.4c0.5-0.6,1.4-0.6,2,0
			c0.5,0.6,0.5,1.4,0,2c-0.6,0.6-1.5,0.6-2,0C236.6,92.9,236.6,92,237.1,91.4z M228.5,100.1c0.6-0.6,1.4-0.6,2,0s0.6,1.4,0,2
			s-1.4,0.6-2,0C227.9,101.6,227.9,100.7,228.5,100.1z M225.9,88.9c1.9-1.9,5.1-1.9,7,0s1.9,5.1,0,7s-5.1,1.9-7,0
			C224,94,224,90.9,225.9,88.9z M219.8,91.4c0.6-0.6,1.4-0.6,2,0s0.6,1.4,0,2s-1.4,0.6-2,0C219.2,92.9,219.2,92,219.8,91.4z"/>
		<path d="M219.8,93.4c0.6,0.6,1.4,0.6,2,0s0.6-1.4,0-2s-1.4-0.6-2,0C219.2,92,219.2,92.9,219.8,93.4z"/>
		<path d="M228.5,84.7c0.6,0.6,1.4,0.6,2,0c0.6-0.5,0.6-1.4,0-2c-0.6-0.5-1.4-0.5-2,0C227.9,83.3,227.9,84.2,228.5,84.7z"/>
		<path d="M237.1,93.4c0.5,0.6,1.4,0.6,2,0c0.5-0.6,0.5-1.4,0-2c-0.6-0.6-1.5-0.6-2,0S236.6,92.9,237.1,93.4z"/>
		<path d="M228.5,102.1c0.6,0.6,1.4,0.6,2,0s0.6-1.4,0-2s-1.4-0.6-2,0C227.9,100.7,227.9,101.6,228.5,102.1z"/>
	</g>
	<g id="Grove_x5F_rechts_00000052810511576963817160000012477901605613848749_">
		<polygon class="st14" points="217.8,47.1 216.2,47.8 215.8,46.8 214.5,47.4 213.7,45.8 216.6,44.5 		"/>
		<polygon class="st14" points="230.8,75.1 228,76.4 227.3,74.9 228.6,74.3 228.1,73.3 229.6,72.5 		"/>
		<polygon class="st15" points="229.6,72.5 228.1,73.2 226.8,73.8 221.3,76.4 220.9,76.6 220.1,77 218.6,77.7 216.3,78.8 
			214.1,74.1 216.4,73.1 215.8,71.8 217.4,71.1 218,72.3 218,72.3 218.7,73.9 217.1,74.6 217.1,74.6 216.6,74.8 217.3,76.4 
			217.3,76.4 217.9,76.1 217.9,76.1 227.4,71.7 226.3,69.4 225.9,68.6 225.3,67.3 225.3,67.3 223.6,63.6 223,62.3 223,62.3 
			221.3,58.7 220.7,57.5 219,53.7 218.4,52.4 218,51.7 216.9,49.4 207.4,53.8 206.9,54 207.6,55.6 208.2,55.3 209.7,54.6 
			210.4,56.2 211,57.4 209.5,58.2 209.5,58.2 208.9,56.9 206.6,58 204.4,53.3 206.7,52.3 206.7,52.2 208.3,51.5 209,51.2 
			214.9,48.4 216.2,47.8 217.8,47.1 219.6,51 219.9,51.7 220.5,53 222.3,56.7 222.9,58 224.5,61.6 225.1,62.9 226.9,66.6 
			227.5,67.9 227.8,68.7 		"/>
		<polygon class="st14" points="207.8,50.5 208.3,51.5 206.7,52.2 206.7,52.3 204.4,53.3 203.2,50.8 205.5,49.7 207.8,48.6 
			208.6,50.1 		"/>
		<polygon class="st14" points="222.1,79.2 219.8,80.2 217.5,81.3 216.3,78.8 218.6,77.7 220.1,77 220.6,78 221.4,77.6 		"/>
		<path class="st16" d="M226.3,69.4l-0.4-0.8l-0.6-1.3l0,0l-1.7-3.7l-0.6-1.3l0,0l-1.7-3.6l-0.6-1.3l-1.7-3.7l-0.6-1.3l-0.4-0.8
			l-1.1-2.3l-9.5,4.4l-0.5,0.2l0.7,1.5l0.5-0.2l1.5-0.7l0.7,1.5l0.6,1.3l0,0l0.4,0.8l1.4,2.9l0,0l0.6,1.3l0,0l1.7,3.6l0,0l0.6,1.3
			l0,0l1.4,3l0.3,0.8l0,0l0.6,1.3l0,0l0.7,1.5l-1.5,0.7l0,0l-0.5,0.2l0.7,1.5l0.5-0.2l9.5-4.4L226.3,69.4z"/>
		<polygon class="st17" points="215.6,55.3 214.4,55.9 213.8,54.6 214,54.5 214.8,54.1 215,54 		"/>
		<polygon class="st17" points="218,60.3 217.8,60.4 217.7,60.4 217,60.8 217,60.8 216.7,60.9 216.1,59.6 217.4,59 		"/>
		<polygon class="st17" points="220.3,65.2 219,65.8 218.4,64.5 218.4,64.5 218.4,64.5 218.6,64.4 219.4,64 219.4,64 219.6,63.9 		
			"/>
		<polygon class="st17" points="222.6,70.2 222.3,70.3 221.6,70.7 221.3,70.8 220.7,69.5 222,68.9 		"/>
		<polygon class="st10" points="209.5,58.2 209.5,58.2 209.5,58.2 204.3,60.6 203.2,60.8 202.8,60 203.7,59.3 206.6,58 208.9,56.9 
					"/>
		<polygon class="st14" points="217.4,71.1 215.8,71.8 215.5,71 214.8,69.5 214.1,68 213.5,66.8 211.8,63.2 211.2,61.9 211.2,61.9 
			210.5,60.4 209.8,58.9 209.5,58.2 209.5,58.2 211,57.4 211.4,58.2 211.4,58.2 212.8,61.2 213.3,62.4 213.3,62.5 215,66 215,66.1 
			215.6,67.3 215.6,67.3 217,70.3 		"/>
		<polygon class="st10" points="209.8,64.1 206.7,65.6 205.5,65.8 205.2,65 206.1,64.3 209.2,62.8 		"/>
		<polygon class="st16" points="214.8,69.5 212.7,70.4 212,69 211.4,67.7 209.8,64.1 209.2,62.8 208.5,61.4 210.5,60.4 211.2,61.9 
			211.2,61.9 211.8,63.2 213.5,66.8 214.1,68 		"/>
		<polygon class="st10" points="212,69 209,70.4 207.8,70.7 207.4,69.9 208.3,69.2 211.4,67.7 		"/>
		<polygon class="st10" points="216.4,73.1 214.1,74.1 211.3,75.5 210.1,75.7 209.8,74.9 210.7,74.2 215.8,71.8 		"/>
		<polygon class="st12" points="213.7,45.8 214.5,47.4 215.8,46.8 216.2,47.8 208.3,51.5 207.8,50.5 208.6,50.1 207.8,48.6 		"/>
		<polyline class="st12" points="228.1,73.3 228.6,74.3 227.3,74.9 228,76.4 222.1,79.2 221.4,77.6 220.6,78 220.1,77 220.9,76.6 
			221.3,76.4 226.8,73.8 228.1,73.2 		"/>
	</g>
	<g id="Grove_x5F_links_00000131351598816933417170000005592795087468958374_">
		<polygon class="st14" points="87,47.4 88.5,48.1 89,47.1 90.3,47.7 91,46.2 88.2,44.8 		"/>
		<polygon class="st18" points="73.9,75.4 76.8,76.7 77.5,75.2 76.2,74.6 76.7,73.6 75.1,72.9 		"/>
		<polygon class="st19" points="75.1,72.9 76.7,73.6 78,74.2 83.4,76.7 83.9,76.9 84.6,77.3 86.2,78 88.5,79.1 90.6,74.5 88.3,73.4 
			88.9,72.1 87.4,71.4 86.8,72.7 86.8,72.7 86.1,74.2 87.6,74.9 87.6,74.9 88.1,75.2 87.4,76.7 87.4,76.7 86.9,76.5 86.9,76.5 
			77.4,72 78.5,69.7 78.8,68.9 79.4,67.7 79.4,67.7 81.2,63.9 81.8,62.7 81.8,62.7 83.4,59.1 84,57.8 85.8,54 86.4,52.8 86.7,52 
			87.8,49.7 97.3,54.1 97.8,54.3 97.1,55.9 96.6,55.7 95.1,54.9 94.3,56.5 93.7,57.8 95.3,58.5 95.3,58.5 95.9,57.2 98.2,58.3 
			100.3,53.6 98,52.6 98,52.6 96.5,51.9 95.7,51.5 89.8,48.7 88.5,48.1 87,47.4 85.2,51.3 84.8,52 84.2,53.3 82.5,57.1 81.9,58.3 
			80.2,61.9 79.6,63.2 77.9,66.9 77.3,68.2 76.9,69 		"/>
		<polygon class="st14" points="97,50.8 96.5,51.9 98,52.6 98,52.6 100.3,53.6 101.5,51.1 99.2,50 96.9,48.9 96.2,50.5 		"/>
		<polygon class="st14" points="82.7,79.5 85,80.6 87.3,81.6 88.5,79.1 86.2,78 84.6,77.3 84.2,78.3 83.4,78 		"/>
		<path class="st16" d="M77.4,72l9.5,4.4l0.5,0.2l0.7-1.5l-0.5-0.2l0,0l-1.5-0.7l0.7-1.5l0,0l0.6-1.3l0,0l0.3-0.8l1.4-3l0,0l0.6-1.3
			l0,0l1.7-3.6l0,0l0.6-1.3l0,0l1.4-2.9l0.4-0.8l0,0l0.6-1.3l0.7-1.5l1.5,0.7l0.5,0.2l0.7-1.5l-0.5-0.2l-9.5-4.4L86.7,52l-0.4,0.8
			l-0.6,1.3L84,57.8l-0.6,1.3l-1.7,3.6l0,0L81.1,64l-1.7,3.7l0,0L78.8,69l-0.4,0.8L77.4,72z"/>
		<polygon class="st17" points="89.1,55.6 90.4,56.2 91,54.9 90.7,54.8 90,54.4 89.7,54.3 		"/>
		<polygon class="st17" points="86.8,60.6 86.9,60.7 87,60.7 87.8,61.1 87.8,61.1 88.1,61.2 88.7,59.9 87.4,59.3 		"/>
		<polygon class="st17" points="84.5,65.5 85.8,66.1 86.4,64.8 86.4,64.8 86.4,64.8 86.1,64.7 85.4,64.3 85.4,64.3 85.1,64.2 		"/>
		<polygon class="st17" points="82.2,70.5 82.4,70.6 83.2,71 83.5,71.1 84.1,69.8 82.8,69.2 		"/>
		<polygon class="st10" points="95.3,58.5 95.3,58.5 95.3,58.5 100.4,60.9 101.6,61.1 101.9,60.3 101,59.6 98.2,58.3 95.9,57.2 		
			"/>
		<polygon class="st14" points="87.4,71.4 88.9,72.1 89.3,71.3 90,69.8 90.7,68.4 91.3,67.1 92.9,63.5 93.5,62.2 93.5,62.2 
			94.2,60.8 94.9,59.2 95.3,58.5 95.3,58.5 93.7,57.8 93.4,58.5 93.4,58.5 92,61.5 91.4,62.8 91.4,62.8 89.7,66.4 89.7,66.4 
			89.1,67.6 89.1,67.7 87.8,70.6 		"/>
		<polygon class="st10" points="95,64.4 98.1,65.9 99.2,66.1 99.6,65.3 98.7,64.6 95.6,63.2 		"/>
		<polygon class="st16" points="90,69.8 92.1,70.8 92.7,69.3 93.3,68 95,64.4 95.6,63.2 96.3,61.7 94.2,60.8 93.5,62.2 93.5,62.2 
			92.9,63.5 91.3,67.1 90.7,68.4 		"/>
		<polygon class="st10" points="92.7,69.3 95.8,70.8 97,71 97.3,70.2 96.4,69.5 93.3,68 		"/>
		<polygon class="st10" points="88.3,73.4 90.6,74.5 93.5,75.8 94.6,76 95,75.2 94.1,74.5 88.9,72.1 		"/>
		<polygon class="st12" points="91,46.2 90.3,47.7 89,47.1 88.5,48.1 96.5,51.9 97,50.8 96.2,50.5 96.9,48.9 		"/>
		<polyline class="st12" points="76.7,73.6 76.2,74.6 77.5,75.2 76.8,76.7 82.7,79.5 83.4,78 84.2,78.3 84.6,77.3 83.9,76.9 
			83.4,76.7 78,74.2 76.7,73.6 		"/>
	</g>
	<g id="RGB-LEDs_00000008149239370998542470000005861587640314418311_">
		<g id="RGB-LED_00000072995651674197313160000001621251157957362583_">
			<path class="st20" d="M139.3,128.3c0,0.3,0.2,0.6,0.6,0.7v1.4c-0.3,0.1-0.6,0.4-0.6,0.7s0.2,0.6,0.6,0.7v0.4
				c0,0.2-0.1,0.3-0.3,0.3h-5.7c-0.2,0-0.3-0.1-0.3-0.3v-0.4c0.3-0.1,0.6-0.4,0.6-0.7s-0.2-0.6-0.6-0.7V129c0.3-0.1,0.6-0.4,0.6-0.7
				s-0.2-0.6-0.6-0.7v-0.4c0-0.2,0.1-0.3,0.3-0.3h5.7c0.2,0,0.3,0.1,0.3,0.3v0.4C139.5,127.7,139.3,128,139.3,128.3z"/>
			<rect x="135" y="127.4" class="st21" width="2" height="0.9"/>
			<rect x="134.6" y="126.9" class="st22" width="4.1" height="5.7"/>
		</g>
		<g id="RGB-LED_00000142167515609031229670000008386100271220633479_">
			<path class="st20" d="M153.5,128.3c0,0.3,0.2,0.6,0.6,0.7v1.4c-0.3,0.1-0.6,0.4-0.6,0.7s0.2,0.6,0.6,0.7v0.4
				c0,0.2-0.1,0.3-0.3,0.3h-5.7c-0.2,0-0.3-0.1-0.3-0.3v-0.4c0.3-0.1,0.6-0.4,0.6-0.7s-0.2-0.6-0.6-0.7V129c0.3-0.1,0.6-0.4,0.6-0.7
				s-0.2-0.6-0.6-0.7v-0.4c0-0.2,0.1-0.3,0.3-0.3h5.7c0.2,0,0.3,0.1,0.3,0.3v0.4C153.7,127.7,153.5,128,153.5,128.3z"/>
			<rect x="149.2" y="127.4" class="st21" width="2" height="0.9"/>
			<rect x="148.8" y="126.9" class="st22" width="4.1" height="5.7"/>
		</g>
		<g id="RGB-LED_00000136399258916589362990000015274837233638520247_">
			<path class="st20" d="M167.6,128.3c0,0.3,0.2,0.6,0.6,0.7v1.4c-0.3,0.1-0.6,0.4-0.6,0.7s0.2,0.6,0.6,0.7v0.4
				c0,0.2-0.1,0.3-0.3,0.3h-5.7c-0.2,0-0.3-0.1-0.3-0.3v-0.4c0.3-0.1,0.6-0.4,0.6-0.7s-0.2-0.6-0.6-0.7V129c0.3-0.1,0.6-0.4,0.6-0.7
				s-0.2-0.6-0.6-0.7v-0.4c0-0.2,0.1-0.3,0.3-0.3h5.7c0.2,0,0.3,0.1,0.3,0.3v0.4C167.9,127.7,167.6,128,167.6,128.3z"/>
			<rect x="163.4" y="127.4" class="st21" width="2" height="0.9"/>
			<rect x="163" y="126.9" class="st22" width="4.1" height="5.7"/>
		</g>
	</g>
	<g id="Kleine_LEDs_00000108301392374657817850000002156709983651878572_">
		<g>
			<g>
				<defs>
					<rect id="SVGID_1_" x="131.5" y="24" width="1.4" height="2.8"/>
				</defs>
				<clipPath id="SVGID_00000047749952196678838370000011049996735295572364_">
					<use xlink:href="#SVGID_1_"  style="overflow:visible;"/>
				</clipPath>
				<g style="clip-path:url(#SVGID_00000047749952196678838370000011049996735295572364_);">
					<g>
						<defs>
							<rect id="SVGID_00000142868850730712623660000005769520962799198141_" x="131.5" y="24" width="1.4" height="2.8"/>
						</defs>
						<clipPath id="SVGID_00000081609191756115919670000017683616521285734570_">
							<use xlink:href="#SVGID_00000142868850730712623660000005769520962799198141_"  style="overflow:visible;"/>
						</clipPath>
						<g style="clip-path:url(#SVGID_00000081609191756115919670000017683616521285734570_);">
							
								<use xlink:href="#Calliope_x5F_3_x5F_Small_x5F_LED"  width="1.4" height="2.8" id="XMLID_00000044885334099629177620000011116433395956763553_" x="-0.7" y="-1.4" transform="matrix(1 0 0 -1 132.1629 25.3503)" style="overflow:visible;"/>
						</g>
					</g>
				</g>
			</g>
		</g>
		<g>
			<g>
				<defs>
					<rect id="SVGID_00000030460581092503661670000008936134556611634073_" x="128.6" y="24" width="1.4" height="2.8"/>
				</defs>
				<clipPath id="SVGID_00000017495752094258648950000015075622326870351522_">
					<use xlink:href="#SVGID_00000030460581092503661670000008936134556611634073_"  style="overflow:visible;"/>
				</clipPath>
				<g style="clip-path:url(#SVGID_00000017495752094258648950000015075622326870351522_);">
					<g>
						<defs>
							<rect id="SVGID_00000023981356197184441530000015286988577767765404_" x="128.6" y="24" width="1.4" height="2.8"/>
						</defs>
						<clipPath id="SVGID_00000127024542718385414010000006310967309616876165_">
							<use xlink:href="#SVGID_00000023981356197184441530000015286988577767765404_"  style="overflow:visible;"/>
						</clipPath>
						<g style="clip-path:url(#SVGID_00000127024542718385414010000006310967309616876165_);">
							
								<use xlink:href="#Calliope_x5F_3_x5F_Small_x5F_LED"  width="1.4" height="2.8" x="-0.7" y="-1.4" transform="matrix(1 0 0 -1 129.3249 25.3503)" style="overflow:visible;"/>
						</g>
					</g>
				</g>
			</g>
		</g>
		<g>
			<g>
				<defs>
					<rect id="SVGID_00000057838004328023581220000016630734996062698941_" x="234.7" y="107.8" width="2.8" height="1.4"/>
				</defs>
				<clipPath id="SVGID_00000007413057689133677120000017135124261100535937_">
					<use xlink:href="#SVGID_00000057838004328023581220000016630734996062698941_"  style="overflow:visible;"/>
				</clipPath>
				<g style="clip-path:url(#SVGID_00000007413057689133677120000017135124261100535937_);">
					<g>
						<defs>
							<rect id="SVGID_00000152963283707870850610000015557656479093067665_" x="234.7" y="107.8" width="2.8" height="1.4"/>
						</defs>
						<clipPath id="SVGID_00000016033203151418150240000014977664421107879576_">
							<use xlink:href="#SVGID_00000152963283707870850610000015557656479093067665_"  style="overflow:visible;"/>
						</clipPath>
						<g style="clip-path:url(#SVGID_00000016033203151418150240000014977664421107879576_);">
							
								<use xlink:href="#Calliope_x5F_3_x5F_Small_x5F_LED"  width="1.4" height="2.8" x="-0.7" y="-1.4" transform="matrix(0 -1 -1 0 236.1136 108.5291)" style="overflow:visible;"/>
						</g>
					</g>
				</g>
			</g>
		</g>
	</g>
	<path class="st7" d="M111,53.3L111,53.3L111,53.3l-0.1-0.2V53v-2v-0.1v-0.1h0.1h0.1h0.4h0.1h0.1v0.1V51v2v0.1v0.1h-0.1h-0.1
		L111,53.3L111,53.3z"/>
	<path class="st7" d="M112.1,53.3L112.1,53.3L112.1,53.3l-0.1-0.2V53v-2v-0.1v-0.1h0.1h0.1h0.4h0.1h0.1v0.1V51v2v0.1v0.1h-0.1h-0.1
		L112.1,53.3L112.1,53.3z"/>
	<path class="st7" d="M113.3,53.3L113.3,53.3L113.3,53.3l-0.1-0.2V53v-2v-0.1v-0.1h0.1h0.1h0.2h0.1h0.1v0.1V51v2v0.1v0.1h-0.1h-0.1
		L113.3,53.3L113.3,53.3z"/>
	<path class="st7" d="M114.4,53.3L114.4,53.3L114.4,53.3l-0.1-0.2V53v-2v-0.1v-0.1h0.1h0.1h0.4h0.1h0.1v0.1V51v2v0.1v0.1H115h-0.1
		L114.4,53.3L114.4,53.3z"/>
	<path class="st7" d="M115.5,53.3L115.5,53.3L115.5,53.3l-0.1-0.2V53v-2v-0.1v-0.1h0.1h0.1h0.4h0.1h0.1v0.1V51v2v0.1v0.1h-0.1H116
		L115.5,53.3L115.5,53.3z"/>
	<path class="st7" d="M116.7,53.3L116.7,53.3L116.7,53.3l-0.1-0.2V53v-2v-0.1v-0.1h0.1h0.1h0.4h0.1h0.1v0.1V51v2v0.1v0.1h-0.1h-0.1
		L116.7,53.3L116.7,53.3z"/>
	<path class="st7" d="M117.8,53.3L117.8,53.3L117.8,53.3l-0.1-0.2V53v-2v-0.1v-0.1h0.1h0.1h0.4h0.1h0.1v0.1V51v2v0.1v0.1h-0.1h-0.1
		L117.8,53.3L117.8,53.3z"/>
	<path class="st7" d="M118.9,53.3L118.9,53.3L118.9,53.3l-0.1-0.2V53v-2v-0.1v-0.1h0.1h0.1h0.4h0.1h0.1v0.1V51v2v0.1v0.1h-0.1h-0.1
		L118.9,53.3L118.9,53.3z"/>
	<path class="st7" d="M120.1,53.3L120.1,53.3L120.1,53.3l-0.1-0.2V53v-2v-0.1v-0.1h0.1h0.1h0.4h0.1h0.1v0.1V51v2v0.1v0.1h-0.1h-0.1
		L120.1,53.3L120.1,53.3z"/>
	<path class="st7" d="M121.2,53.3L121.2,53.3L121.2,53.3l-0.1-0.2V53v-2v-0.1v-0.1h0.1h0.1h0.3h0.1h0.1v0.1V51v2v0.1v0.1h-0.1h-0.1
		L121.2,53.3L121.2,53.3z"/>
	<path class="st7" d="M122.2,50.6L122.2,50.6L122.2,50.6l-0.1-0.2v-0.1v-0.4v-0.1v-0.1h0.1h0.1h2h0.1h0.1v0.1v0.1v0.6v0.1v0.1h-0.1
		h-0.1L122.2,50.6L122.2,50.6z"/>
	<path class="st7" d="M122.2,49.5L122.2,49.5L122.2,49.5L122.2,49.5l-0.1-0.2v-0.4v-0.1v-0.1h0.1h0.1h2h0.1h0.1v0.1v0.1v0.4v0.1v0.1
		h-0.1h-0.1H122.2z"/>
	<path class="st7" d="M122.2,48.4L122.2,48.4L122.2,48.4l-0.1-0.2v-0.1v-0.4v-0.1v-0.1h0.1h0.1h2h0.1h0.1v0.1v0.1v0.4v0.1v0.1h-0.1
		h-0.1L122.2,48.4L122.2,48.4z"/>
	<path class="st7" d="M122.2,47.2L122.2,47.2L122.2,47.2l-0.1-0.2v-0.1v-0.4v-0.1v-0.1h0.1h0.1h2h0.1h0.1v0.1v0.1v0.4V47v0.1h-0.1
		h-0.1L122.2,47.2L122.2,47.2z"/>
	<path class="st7" d="M122.2,46.1L122.2,46.1L122.2,46.1l-0.1-0.2v-0.1v-0.4v-0.1v-0.1h0.1h0.1h2h0.1h0.1v0.1v0.1v0.4v0.1V46h-0.1
		h-0.1L122.2,46.1L122.2,46.1z"/>
	<path class="st7" d="M122.2,45L122.2,45L122.2,45l-0.1-0.2v-0.1v-0.4v-0.1v-0.1h0.1h0.1h2h0.1h0.1v0.1v0.1v0.4v0.1v0.1h-0.1h-0.1
		L122.2,45L122.2,45z"/>
	<path class="st7" d="M122.2,43.8L122.2,43.8L122.2,43.8l-0.1-0.2v-0.1v-0.4V43v-0.1h0.1h0.1h2h0.1h0.1V43v0.1v0.4v0.1v0.1h-0.1
		h-0.1L122.2,43.8L122.2,43.8z"/>
	<path class="st7" d="M122.2,42.7L122.2,42.7L122.2,42.7l-0.1-0.2v-0.1V42v-0.1v-0.1h0.1h0.1h2h0.1h0.1v0.1V42v0.5v0.1v0.1h-0.1
		h-0.1C124.3,42.7,122.2,42.7,122.2,42.7z"/>
	<path class="st7" d="M122.2,41.6L122.2,41.6L122.2,41.6l-0.1-0.2v-0.1v-0.4v-0.1v-0.1h0.1h0.1h2h0.1h0.1v0.1v0.1v0.4v0.1v0.1h-0.1
		h-0.1L122.2,41.6L122.2,41.6z"/>
	<path class="st7" d="M122.2,40.4L122.2,40.4L122.2,40.4l-0.1-0.2v-0.1v-0.4v-0.1v-0.1h0.1h0.1h2h0.1h0.1v0.1v0.1v0.4v0.1v0.1h-0.1
		h-0.1L122.2,40.4L122.2,40.4z"/>
	<path class="st7" d="M121.2,39.4L121.2,39.4L121.2,39.4l-0.1-0.2v-0.1v-2V37v-0.1h0.1h0.1h0.3h0.1h0.1V37v0.1v2v0.1v0.1h-0.1h-0.1
		L121.2,39.4L121.2,39.4z"/>
	<path class="st7" d="M120.1,39.4L120.1,39.4L120.1,39.4l-0.1-0.2v-0.1v-2V37v-0.1h0.1h0.1h0.4h0.1h0.1V37v0.1v2v0.1v0.1h-0.1h-0.1
		L120.1,39.4L120.1,39.4z"/>
	<path class="st7" d="M118.9,39.4L118.9,39.4L118.9,39.4l-0.1-0.2v-0.1v-2V37v-0.1h0.1h0.1h0.4h0.1h0.1V37v0.1v2v0.1v0.1h-0.1h-0.1
		L118.9,39.4L118.9,39.4z"/>
	<path class="st7" d="M117.8,39.4L117.8,39.4L117.8,39.4l-0.1-0.2v-0.1v-2V37v-0.1h0.1h0.1h0.4h0.1h0.1V37v0.1v2v0.1v0.1h-0.1h-0.1
		L117.8,39.4L117.8,39.4z"/>
	<path class="st7" d="M116.7,39.4L116.7,39.4L116.7,39.4l-0.1-0.2v-0.1v-2V37v-0.1h0.1h0.1h0.4h0.1h0.1V37v0.1v2v0.1v0.1h-0.1h-0.1
		L116.7,39.4L116.7,39.4z"/>
	<path class="st7" d="M115.5,39.4L115.5,39.4L115.5,39.4l-0.1-0.2v-0.1v-2V37v-0.1h0.1h0.1h0.4h0.1h0.1V37v0.1v2v0.1v0.1h-0.1H116
		L115.5,39.4L115.5,39.4z"/>
	<path class="st7" d="M114.4,39.4L114.4,39.4L114.4,39.4l-0.1-0.2v-0.1v-2V37v-0.1h0.1h0.1h0.4h0.1h0.1V37v0.1v2v0.1v0.1H115h-0.1
		L114.4,39.4L114.4,39.4z"/>
	<path class="st7" d="M113.3,39.4L113.3,39.4L113.3,39.4l-0.1-0.2v-0.1v-2V37v-0.1h0.1h0.1h0.2h0.1h0.1V37v0.1v2v0.1v0.1h-0.1h-0.1
		L113.3,39.4L113.3,39.4z"/>
	<path class="st7" d="M112.1,39.4L112.1,39.4L112.1,39.4l-0.1-0.2v-0.1v-2V37v-0.1h0.1h0.1h0.4h0.1h0.1V37v0.1v2v0.1v0.1h-0.1h-0.1
		L112.1,39.4L112.1,39.4z"/>
	<path class="st7" d="M111,39.4L111,39.4L111,39.4l-0.1-0.2v-0.1v-2V37v-0.1h0.1h0.1h0.4h0.1h0.1V37v0.1v2v0.1v0.1h-0.1h-0.1
		L111,39.4L111,39.4z"/>
	<path class="st7" d="M108.4,40.4L108.4,40.4L108.4,40.4l-0.1-0.2v-0.1v-0.4v-0.1v-0.1h0.1h0.1h2h0.1h0.1v0.1v0.1v0.4v0.1v0.1h-0.1
		h-0.1L108.4,40.4L108.4,40.4z"/>
	<path class="st7" d="M108.4,41.6L108.4,41.6l-0.2-0.1v-0.1v-0.1v-0.4v-0.1v-0.1h0.1h0.1h2h0.1h0.1v0.1v0.1v0.4v0.1v0.1h-0.1h-0.1
		L108.4,41.6L108.4,41.6z"/>
	<path class="st7" d="M108.4,42.7L108.4,42.7L108.4,42.7l-0.1-0.2v-0.1V42v-0.1v-0.1h0.1h0.1h2h0.1h0.1v0.1V42v0.5v0.1v0.1h-0.1
		h-0.1C110.5,42.7,108.4,42.7,108.4,42.7z"/>
	<path class="st7" d="M108.4,43.8L108.4,43.8L108.4,43.8l-0.1-0.2v-0.1v-0.4V43v-0.1h0.1h0.1h2h0.1h0.1V43v0.1v0.4v0.1v0.1h-0.1
		h-0.1L108.4,43.8L108.4,43.8z"/>
	<path class="st7" d="M108.4,45L108.4,45L108.4,45l-0.1-0.2v-0.1v-0.4v-0.1v-0.1h0.1h0.1h2h0.1h0.1v0.1v0.1v0.4v0.1v0.1h-0.1h-0.1
		L108.4,45L108.4,45z"/>
	<path class="st7" d="M108.4,46.1L108.4,46.1L108.4,46.1l-0.1-0.2v-0.1v-0.4v-0.1v-0.1h0.1h0.1h2h0.1h0.1v0.1v0.1v0.4v0.1V46h-0.1
		h-0.1L108.4,46.1L108.4,46.1z"/>
	<path class="st7" d="M108.4,47.2L108.4,47.2L108.4,47.2l-0.1-0.2v-0.1v-0.4v-0.1v-0.1h0.1h0.1h2h0.1h0.1v0.1v0.1v0.4V47v0.1h-0.1
		h-0.1L108.4,47.2L108.4,47.2z"/>
	<path class="st7" d="M108.4,48.4L108.4,48.4L108.4,48.4l-0.1-0.2v-0.1v-0.4v-0.1v-0.1h0.1h0.1h2h0.1h0.1v0.1v0.1v0.4v0.1v0.1h-0.1
		h-0.1L108.4,48.4L108.4,48.4z"/>
	<path class="st7" d="M108.4,49.5L108.4,49.5h-0.2v-0.1v-0.1v-0.4v-0.1v-0.1h0.1h0.1h2h0.1h0.1v0.1v0.1v0.4v0.1v0.1h-0.1h-0.1H108.4
		z"/>
	<path class="st7" d="M108.4,50.6L108.4,50.6L108.4,50.6l-0.1-0.2v-0.1v-0.4v-0.1v-0.1h0.1h0.1h2h0.1h0.1v0.1v0.1v0.6v0.1v0.1h-0.1
		h-0.1L108.4,50.6L108.4,50.6z"/>
	<g id="USB-C_Vorne_00000126308927250333229400000013607238539198651836_">
		<g id="Loetpads_00000075139919310771214050000005361915510977803424_">
			<rect x="161" y="38.9" class="st26" width="0.6" height="2"/>
			<rect x="159.4" y="38.9" class="st26" width="0.6" height="2"/>
			<rect x="158.7" y="38.9" class="st26" width="0.6" height="2"/>
			<rect x="157.2" y="38.9" class="st26" width="0.6" height="2"/>
			<rect x="161.7" y="38.9" class="st26" width="0.6" height="2"/>
			<rect x="155.8" y="38.9" class="st26" width="0.6" height="2"/>
			<rect x="154.4" y="38.9" class="st26" width="0.6" height="2"/>
			<rect x="153" y="38.9" class="st26" width="0.6" height="2"/>
			<rect x="151.5" y="38.9" class="st26" width="0.6" height="2"/>
			<rect x="150.1" y="38.9" class="st26" width="0.6" height="2"/>
			<rect x="148.7" y="38.9" class="st26" width="0.6" height="2"/>
			<rect x="147.3" y="38.9" class="st26" width="0.6" height="2"/>
			<rect x="145.8" y="38.9" class="st26" width="0.6" height="2"/>
			<rect x="145.1" y="38.9" class="st26" width="0.6" height="2"/>
			<rect x="143.5" y="38.9" class="st26" width="0.6" height="2"/>
			<rect x="142.8" y="38.9" class="st26" width="0.6" height="2"/>
		</g>
		
			<rect id="Bruecke_x5F_unten_x5F_links_00000109715968627363164740000004012661238417657528_" x="136.2" y="36.6" class="st12" width="3.7" height="2.3"/>
		
			<rect id="Brcke_x5F_unten_x5F_rechts_00000060735692093952530760000011639474898912545675_" x="165.2" y="36.6" class="st12" width="3.7" height="2.3"/>
		<path id="USB_00000122693779815124767630000010039714020210631358_" class="st10" d="M165.2,20.5v4.2l0,0v14.2h-4.6
			c-0.1,0-0.1,0-0.2,0c-0.1,0-0.1,0-0.2-0.1c-0.1,0-0.1,0-0.2-0.1c-0.1,0-0.1-0.1-0.1-0.1l-0.1-0.1c-0.1-0.1-0.2-0.3-0.2-0.5v-1.6
			c0-0.2-0.2-0.4-0.4-0.4h-3.4c-0.2,0-0.4,0.2-0.4,0.4v0.2c0,0.1,0,0.2,0.1,0.3l0,0l0,0l0.1,0.1h0.2h0.7v1.8h-8.3v-1.6h0.7
			c0.1,0,0.2,0,0.3-0.1c0,0,0,0,0.1-0.1l0.1-0.1c0-0.1,0-0.1,0-0.1v-0.2c0-0.2-0.2-0.4-0.4-0.4h-3.4c-0.2,0-0.4,0.2-0.4,0.4v1.6
			c0,0.2,0,0.3-0.2,0.5l-0.1,0.1l-0.1,0.1c-0.1,0-0.1,0.1-0.1,0.1c-0.1,0-0.1,0-0.2,0.1c-0.1,0-0.1,0-0.2,0h-4.6V24.7l0,0v-4.2h21.7
			c1.8,0,3.2,0,3.2,0H165.2z"/>
		<path id="Bruecke_x5F_oben_x5F_links_00000025438559705303964290000017755828484209893002_" class="st12" d="M168.9,24.7v1h-0.7
			c-0.2,0-0.4,0.2-0.4,0.4v0.6c0,0.2,0.2,0.4,0.4,0.4h0.7v1h-3.7v-3.4H168.9z"/>
		<path id="Bruecke_x5F_oben_x5F_links_00000127766371676123026890000002860542838624071857_" class="st12" d="M139.9,24.7v3.4h-3.7
			v-1h0.7c0.2,0,0.4-0.2,0.4-0.4v-0.5c0-0.2-0.2-0.4-0.4-0.4h-0.7v-1h3.7V24.7z"/>
		<path class="st12" d="M149.2,33.8v0.9c0,0.2-0.1,0.3-0.3,0.3h-2.8c-0.2,0-0.3-0.1-0.3-0.3v-0.9c0-0.2,0.1-0.3,0.3-0.3h2.9
			C149.1,33.5,149.2,33.6,149.2,33.8z"/>
		<path class="st12" d="M159.3,33.8v0.8c0,0.2-0.1,0.3-0.3,0.3h-2.9c-0.2,0-0.3-0.1-0.3-0.3v-0.8c0-0.2,0.1-0.3,0.3-0.3h2.9
			C159.2,33.5,159.3,33.6,159.3,33.8z"/>
		<path class="st27" d="M160.6,38.9h-4v-1.7h-0.7h-0.2l-0.1-0.1l0,0l0,0c-0.1-0.1-0.1-0.2-0.1-0.3v-0.2c0-0.2,0.2-0.4,0.4-0.4h3.4
			c0.2,0,0.4,0.2,0.4,0.4v1.6c0,0.2,0,0.3,0.2,0.5l0.1,0.1l0.1,0.1c0,0,0.1,0.1,0.2,0.1c0,0,0.1,0,0.2,0.1
			C160.5,38.9,160.6,38.9,160.6,38.9z"/>
		<path class="st27" d="M149.5,36.5v0.2v0.1c0,0,0,0.1-0.1,0.1c0,0,0,0-0.1,0.1c-0.1,0.1-0.2,0.1-0.3,0.1h-0.7v1.8h-4
			c0.1,0,0.1,0,0.2,0c0.1,0,0.1,0,0.2-0.1c0,0,0.1,0,0.1-0.1l0.1-0.1l0.1-0.1c0.1-0.1,0.2-0.3,0.2-0.5v-1.6c0-0.2,0.2-0.4,0.4-0.4
			h3.4C149.3,36.1,149.5,36.3,149.5,36.5z"/>
	</g>
	<g id="Reset-Taste_00000183940555477991778840000014942461288168840877_">
		<g id="Button_00000169522751876904051330000005175278169483452843_">
			<path class="st27" d="M176,22.9L176,22.9L176,22.9l-3.3,3.3l-0.1,0.1h-0.1l0,0v-2.8c0-0.3,0.2-0.6,0.6-0.6H176z"/>
			<path class="st27" d="M181.7,31.4v2.8c0,0.3-0.3,0.6-0.6,0.6h-2.8l0,0l0,0v-0.1L181.7,31.4z"/>
			<path class="st27" d="M181.7,23.4v2.8l-3.4-3.4h2.8C181.4,22.9,181.7,23.1,181.7,23.4z"/>
			<path class="st27" d="M176,34.8h-2.8c-0.3,0-0.6-0.2-0.6-0.6v-2.8l0,0l0.1,0.1l0.1,0.1L176,34.8L176,34.8L176,34.8L176,34.8z"/>
			<path class="st10" d="M178.3,22.9H176l0,0l-0.1,0.1l-3.2,3.2l-0.1,0.1h-0.1l0,0v5.1l0,0l0.1,0.1l0.1,0.1l3.2,3.2l0.1,0.1l0,0l0,0
				h2.3l0,0l0,0v-0.1l3.3-3.3v-5.1L178.3,22.9z M180.6,30c0,1.9-1.5,3.4-3.4,3.4s-3.4-1.5-3.4-3.4v-2.3c0-1.9,1.5-3.4,3.4-3.4
				s3.4,1.5,3.4,3.4V30z"/>
			<path class="st28" d="M180.6,27.7V30c0,1.9-1.5,3.4-3.4,3.4s-3.4-1.5-3.4-3.4v-2.3c0-1.9,1.5-3.4,3.4-3.4S180.6,25.8,180.6,27.7z
				"/>
		</g>
		<g id="Loetpads_00000111893125865574602030000007906232713803432122_">
			<path class="st29" d="M175,34.8v0.6c0,0.1-0.1,0.1-0.1,0.1h-1.6c-0.1,0-0.1-0.1-0.1-0.1v-0.6H175z"/>
			<path class="st29" d="M181.1,34.8v0.6c0,0.1-0.1,0.1-0.1,0.1h-1.6c-0.1,0-0.1-0.1-0.1-0.1v-0.6H181.1z"/>
			<path class="st29" d="M181.1,22.3v0.6h-1.8v-0.6c0-0.1,0.1-0.1,0.1-0.1h1.6C181,22.2,181.1,22.2,181.1,22.3z"/>
			<path class="st29" d="M175,22.3v0.6h-1.8v-0.6c0-0.1,0.1-0.1,0.1-0.1h1.6C175,22.2,175,22.2,175,22.3z"/>
		</g>
	</g>
	<g id="Oscillator_x5F_Interface_00000059294052337360137030000012916070862789562767_">
		<path class="st8" d="M97.6,32.5v8c0,0.4-0.3,0.7-0.7,0.7h-5.7c-0.4,0-0.7-0.3-0.7-0.7v-8c0-0.4,0.3-0.7,0.7-0.7h5.7
			C97.3,31.8,97.6,32.1,97.6,32.5z"/>
		<path class="st12" d="M97.5,32.6v7.8c0,0.4-0.3,0.7-0.7,0.7h-5.6c-0.4,0-0.7-0.3-0.7-0.7v-7.8c0-0.4,0.3-0.7,0.7-0.7h5.6
			C97.2,31.9,97.5,32.2,97.5,32.6z"/>
	</g>
	<path class="st7" d="M112.2,135.1v3.4h-4v-3.4H112.2z"/>
	<path class="st7" d="M106,135.1v3.4h-4v-3.4H106z"/>
	<path class="st7" d="M106,140v3.4h-4V140H106z"/>
	<path class="st7" d="M112.2,140v3.4h-4V140H112.2z"/>
	<g id="Oscillator_x5F_Interface_00000013187113529207550510000013758777172389128064_">
		<path class="st8" d="M111.2,142.7h-8c-0.4,0-0.7-0.3-0.7-0.7v-5.7c0-0.4,0.3-0.7,0.7-0.7h8c0.4,0,0.7,0.3,0.7,0.7v5.7
			C111.8,142.4,111.5,142.7,111.2,142.7z"/>
		<path class="st12" d="M111.1,142.6h-7.8c-0.4,0-0.7-0.3-0.7-0.7v-5.6c0-0.4,0.3-0.7,0.7-0.7h7.8c0.4,0,0.7,0.3,0.7,0.7v5.6
			C111.7,142.3,111.4,142.6,111.1,142.6z"/>
	</g>
	<g id="Batterie_00000179644458883406962950000008608806863203287485_">
		<polygon class="st10" points="220,130.1 219.1,131.3 218.9,131.1 218.7,130.9 218.5,130.8 218.2,130.5 218,130.4 218,130.4 
			217.8,130.3 217.8,130.2 214.2,127.5 214.2,127.4 214.2,127.4 214.2,127.4 214.2,127.4 213.5,126.5 213.5,126.5 214,125.9 
			214,125.9 215.1,126.3 215.1,126.3 215.1,126.3 218.3,128.9 218.6,129.1 218.7,129.1 218.8,129.2 218.8,129.3 218.9,129.3 
			219.1,129.4 219.3,129.7 219.5,129.8 219.8,130 		"/>
		<polygon class="st10" points="216.5,134.6 215.6,135.7 215.5,135.6 215.2,135.4 215,135.2 214.7,135 214.5,134.9 214.3,134.7 
			214.3,134.7 210.7,131.9 210.7,131.9 210.7,131.9 210.7,131.9 210,131 210,131 210.5,130.3 210.5,130.3 211.6,130.8 211.6,130.8 
			215.2,133.6 215.2,133.6 215.3,133.7 215.3,133.7 215.4,133.7 215.6,133.9 215.9,134.1 216.1,134.3 216.3,134.5 		"/>
		<polygon class="st14" points="219.4,138.9 219.4,138.9 218.5,140.1 217.2,139 216.4,140.1 213.8,138.1 214.6,137 215.5,135.8 
			218.1,137.9 		"/>
		<polygon class="st14" points="224.9,131.9 224,133.1 222.6,132 220.1,130 221,128.9 221.8,127.8 224.4,129.8 223.6,130.9 		"/>
		<polygon class="st14" points="212.3,140 210.9,141.8 207.3,139 208.7,137.2 		"/>
		
			<rect x="221" y="121.3" transform="matrix(0.6133 -0.7898 0.7898 0.6133 -11.6869 223.2466)" class="st14" width="2.3" height="4.5"/>
		<polygon class="st15" points="237.2,135.7 236.5,136.6 235.5,137.9 235.2,138.3 234.4,139.3 231.7,142.7 230.7,144.1 228,147.5 
			227.2,148.5 226.9,148.9 225.9,150.2 225.2,151.1 225,151 224.7,150.8 223.4,149.7 223.4,149.7 222.5,150.8 217.6,147 
			212.2,142.8 210.9,141.8 212.3,140 213.8,138.1 216.4,140.1 217.7,141.1 222.7,145.1 223.6,144 224.5,142.8 222.3,141.1 
			219.4,138.9 218.1,137.9 215.5,135.8 215.6,135.7 216.5,134.6 219.1,131.3 220,130.1 220.1,130 222.6,132 224,133.1 229,137 
			229.9,135.8 230.8,134.8 225.7,130.9 224.4,129.8 221.8,127.8 223.3,125.9 224.7,124.1 226,125.1 231.4,129.4 236.3,133.2 
			235.4,134.3 235.4,134.3 236.8,135.4 237.1,135.6 		"/>
		<polygon class="st16" points="230.8,134.8 229.9,135.8 229,137 224,133.1 224,133.1 224.9,131.9 223.6,130.9 224.4,129.8 
			225.7,130.9 		"/>
		<polygon class="st16" points="224.5,142.8 223.6,144 222.7,145.1 217.7,141.1 216.4,140.1 217.2,139 218.5,140.1 219.4,138.9 
			222.3,141.1 		"/>
	</g>
	
		<rect x="76.1" y="87.2" transform="matrix(0.7071 -0.7071 0.7071 0.7071 -41.513 83.6062)" class="st30" width="8.1" height="9.4"/>
	<g id="Taste_A_00000086664738396326682660000017306090893461777338_">
		<polygon class="st12" points="78.9,105.3 77.5,106.7 76.5,105.6 76.5,105.6 76.4,105.6 76.3,105.4 76,105.2 75.9,105.1 75.8,105 
			75.6,104.8 75.4,104.6 74.5,103.7 75.9,102.3 77.1,103.4 77.2,103.6 77.3,103.7 77.4,103.8 77.7,104 77.9,104.2 78.1,104.4 		"/>
		<polygon class="st12" points="63.9,90.2 62.5,91.6 61.6,90.7 61.3,90.5 61.1,90.3 61.1,90.2 60.9,90.1 60.7,89.9 60.6,89.7 
			59.5,88.6 60.9,87.2 61.7,88.1 61.9,88.3 62.1,88.5 62.3,88.7 62.5,88.8 62.5,88.9 62.7,89.1 		"/>
		<polygon class="st12" points="72.9,81.2 71.5,82.6 70.6,81.7 70.3,81.5 70.1,81.3 70.1,81.2 70,81.1 69.5,80.6 69.5,80.6 
			69.3,80.5 68.5,79.6 69.9,78.2 71,79.3 71.1,79.4 71.3,79.7 71.5,79.8 71.6,79.9 71.7,80.1 72,80.3 		"/>
		<polygon class="st12" points="87.9,96.2 86.5,97.6 85.5,96.6 85.5,96.6 85.4,96.5 84.8,96 84.7,95.8 84.4,95.5 83.5,94.6 
			84.9,93.2 86.1,94.4 86.3,94.6 86.3,94.6 86.5,94.8 86.7,95 86.8,95.1 		"/>
		<path class="st31" d="M77.2,95.9c-1.9,1.9-5.1,1.9-7,0s-1.9-5.1,0-7s5.1-1.9,7,0C79.1,90.9,79.1,94,77.2,95.9z"/>
		<path class="st10" d="M85.2,91.9l-11-11c-0.3-0.3-0.7-0.3-1,0l-0.3,0.3l-1.4,1.4l-7.6,7.6l-1.4,1.4l-0.3,0.3c-0.3,0.3-0.3,0.7,0,1
			l11,11c0.3,0.3,0.7,0.3,1,0l0.3-0.3l1.4-1.4l7.6-7.6l1.4-1.4l0.3-0.3C85.5,92.7,85.5,92.2,85.2,91.9z M72.7,82.8
			c0.6-0.5,1.4-0.5,2,0c0.6,0.6,0.6,1.5,0,2c-0.6,0.6-1.4,0.6-2,0C72.1,84.2,72.1,83.3,72.7,82.8z M66,93.4c-0.5,0.6-1.4,0.6-2,0
			c-0.5-0.6-0.5-1.4,0-2c0.6-0.6,1.5-0.6,2,0C66.6,92,66.6,92.9,66,93.4z M74.7,102.1c-0.6,0.6-1.4,0.6-2,0s-0.6-1.4,0-2
			s1.4-0.6,2,0S75.3,101.6,74.7,102.1z M77.2,95.9c-1.9,1.9-5.1,1.9-7,0s-1.9-5.1,0-7s5.1-1.9,7,0C79.1,90.9,79.1,94,77.2,95.9z
			 M83.4,93.4c-0.6,0.6-1.4,0.6-2,0s-0.6-1.4,0-2s1.4-0.6,2,0C83.9,92,83.9,92.9,83.4,93.4z"/>
		<path d="M83.4,93.4c-0.6,0.6-1.4,0.6-2,0s-0.6-1.4,0-2s1.4-0.6,2,0C83.9,92,83.9,92.9,83.4,93.4z"/>
		<path d="M74.7,84.8c-0.6,0.6-1.4,0.6-2,0c-0.6-0.5-0.6-1.4,0-2c0.6-0.5,1.4-0.5,2,0S75.3,84.2,74.7,84.8z"/>
		<path d="M66,93.4c-0.5,0.6-1.4,0.6-2,0c-0.5-0.6-0.5-1.4,0-2c0.6-0.6,1.5-0.6,2,0C66.6,92,66.6,92.9,66,93.4z"/>
		<path d="M74.7,102.1c-0.6,0.6-1.4,0.6-2,0s-0.6-1.4,0-2s1.4-0.6,2,0S75.3,101.6,74.7,102.1z"/>
	</g>
	<g id="Interface-Prozessor_00000026874356725371144500000007242379979984400022_">
		<g id="_x33_DSOLID_00000059274332358884241030000012779442185728611510_" class="st32">
			<path class="st33" d="M118.6,52.3v0.9H118v-0.9c0-0.2,0.1-0.3,0.3-0.3C118.5,52,118.6,52.2,118.6,52.3z"/>
			<path class="st33" d="M113.5,52.3v0.9h-0.7v-0.9c0-0.2,0.2-0.3,0.3-0.3C113.3,52,113.5,52.2,113.5,52.3z"/>
			<path class="st33" d="M109.6,51.1c0,0.2-0.1,0.3-0.3,0.3h-0.9v-0.6h0.9C109.5,50.7,109.6,50.9,109.6,51.1z"/>
			<path class="st33" d="M109.6,49.8c0,0.2-0.1,0.3-0.3,0.3h-0.9v-0.6h0.9C109.5,49.4,109.6,49.6,109.6,49.8z"/>
			<path class="st33" d="M109.6,48.5c0,0.2-0.1,0.3-0.3,0.3h-0.9v-0.6h0.9C109.5,48.2,109.6,48.3,109.6,48.5z"/>
			<path class="st33" d="M109.6,47.2c0,0.2-0.1,0.3-0.3,0.3h-0.9v-0.6h0.9C109.5,46.9,109.6,47,109.6,47.2z"/>
			<path class="st33" d="M109.6,45.9c0,0.2-0.1,0.3-0.3,0.3h-0.9v-0.7h0.9C109.5,45.6,109.6,45.7,109.6,45.9z"/>
			<path class="st33" d="M109.6,44.6c0,0.2-0.1,0.3-0.3,0.3h-0.9v-0.7h0.9C109.5,44.3,109.6,44.4,109.6,44.6z"/>
			<path class="st33" d="M109.6,43.3c0,0.2-0.1,0.3-0.3,0.3h-0.9V43h0.9C109.5,43,109.6,43.2,109.6,43.3z"/>
			<path class="st33" d="M109.6,42c0,0.2-0.1,0.3-0.3,0.3h-0.9v-0.6h0.9C109.5,41.7,109.6,41.9,109.6,42z"/>
			<path class="st33" d="M109.6,40.8c0,0.2-0.1,0.3-0.3,0.3h-0.9v-0.6h0.9C109.5,40.4,109.6,40.6,109.6,40.8z"/>
			<path class="st33" d="M109.6,39.5c0,0.2-0.1,0.3-0.3,0.3h-0.9v-0.7h0.9C109.5,39.1,109.6,39.3,109.6,39.5z"/>
			<path class="st33" d="M113.5,37.3v0.9c0,0.2-0.2,0.3-0.3,0.3c-0.2,0-0.3-0.1-0.3-0.3v-0.9H113.5z"/>
			<path class="st33" d="M118.6,37.3v0.9c0,0.2-0.1,0.3-0.3,0.3c-0.2,0-0.3-0.1-0.3-0.3v-0.9H118.6z"/>
			<path class="st33" d="M122.5,52.3v0.9h-0.6v-0.9c0-0.2,0.1-0.3,0.3-0.3S122.5,52.2,122.5,52.3z"/>
			<path class="st33" d="M121.2,52.3v0.9h-0.6v-0.9c0-0.2,0.1-0.3,0.3-0.3C121,52,121.2,52.2,121.2,52.3z"/>
			<path class="st33" d="M119.9,52.3v0.9h-0.6v-0.9c0-0.2,0.1-0.3,0.3-0.3C119.8,52,119.9,52.2,119.9,52.3z"/>
			<path class="st33" d="M117.3,52.3v0.9h-0.6v-0.9c0-0.2,0.1-0.3,0.3-0.3C117.2,52,117.3,52.2,117.3,52.3z"/>
			<path class="st33" d="M116,52.3v0.9h-0.6v-0.9c0-0.2,0.1-0.3,0.3-0.3C115.9,52,116,52.2,116,52.3z"/>
			<path class="st33" d="M114.7,52.3v0.9h-0.6v-0.9c0-0.2,0.1-0.3,0.3-0.3S114.7,52.2,114.7,52.3z"/>
			<path class="st33" d="M112.2,52.3v0.9h-0.6v-0.9c0-0.2,0.1-0.3,0.3-0.3C112,52,112.2,52.2,112.2,52.3z"/>
			<path class="st33" d="M110.9,52.3v0.9h-0.6v-0.9c0-0.2,0.1-0.3,0.3-0.3S110.9,52.2,110.9,52.3z"/>
			<path class="st33" d="M110.9,37.3v0.9c0,0.2-0.1,0.3-0.3,0.3s-0.3-0.1-0.3-0.3v-0.9H110.9z"/>
			<path class="st33" d="M112.2,37.3v0.9c0,0.2-0.1,0.3-0.3,0.3c-0.2,0-0.3-0.1-0.3-0.3v-0.9H112.2z"/>
			<path class="st33" d="M124.4,49.4V50h-0.9c-0.2,0-0.3-0.1-0.3-0.3s0.2-0.3,0.3-0.3H124.4z"/>
			<path class="st33" d="M124.4,48.2v0.6h-0.9c-0.2,0-0.3-0.1-0.3-0.3s0.2-0.3,0.3-0.3H124.4z"/>
			<path class="st33" d="M114.7,37.3v0.9c0,0.2-0.1,0.3-0.3,0.3s-0.3-0.1-0.3-0.3v-0.9H114.7z"/>
			<path class="st33" d="M124.4,46.9v0.6h-0.9c-0.2,0-0.3-0.1-0.3-0.3s0.2-0.3,0.3-0.3H124.4z"/>
			<path class="st33" d="M116,37.3v0.9c0,0.2-0.1,0.3-0.3,0.3c-0.2,0-0.3-0.1-0.3-0.3v-0.9H116z"/>
			<path class="st33" d="M124.4,45.6v0.7h-0.9c-0.2,0-0.3-0.2-0.3-0.3c0-0.2,0.2-0.3,0.3-0.3h0.9V45.6z"/>
			<path class="st33" d="M117.3,37.3v0.9c0,0.2-0.1,0.3-0.3,0.3c-0.2,0-0.3-0.1-0.3-0.3v-0.9H117.3z"/>
			<path class="st33" d="M124.4,44.3V45h-0.9c-0.2,0-0.3-0.2-0.3-0.3c0-0.2,0.2-0.3,0.3-0.3h0.9V44.3z"/>
			<path class="st33" d="M124.4,43v0.6h-0.9c-0.2,0-0.3-0.1-0.3-0.3s0.2-0.3,0.3-0.3H124.4z"/>
			<path class="st33" d="M119.9,37.3v0.9c0,0.2-0.1,0.3-0.3,0.3c-0.2,0-0.3-0.1-0.3-0.3v-0.9H119.9z"/>
			<path class="st33" d="M124.4,41.7v0.6h-0.9c-0.2,0-0.3-0.1-0.3-0.3s0.2-0.3,0.3-0.3H124.4z"/>
			<path class="st33" d="M121.2,37.3v0.9c0,0.2-0.1,0.3-0.3,0.3c-0.2,0-0.3-0.1-0.3-0.3v-0.9H121.2z"/>
			<path class="st33" d="M124.4,40.4V41h-0.9c-0.2,0-0.3-0.1-0.3-0.3s0.2-0.3,0.3-0.3H124.4z"/>
			<path class="st33" d="M122.5,37.3v0.9c0,0.2-0.1,0.3-0.3,0.3s-0.3-0.1-0.3-0.3v-0.9H122.5z"/>
			<path class="st33" d="M124.4,39.1v0.7h-0.9c-0.2,0-0.3-0.2-0.3-0.3c0-0.2,0.2-0.3,0.3-0.3h0.9V39.1z"/>
			<path class="st33" d="M124.4,50.7v0.6h-0.9c-0.2,0-0.3-0.1-0.3-0.3s0.2-0.3,0.3-0.3H124.4z"/>
		</g>
		<path d="M123.4,38.8v13c0,0.3-0.3,0.6-0.6,0.6h-13c-0.3,0-0.6-0.3-0.6-0.6v-13c0-0.3,0.3-0.6,0.6-0.6h13
			C123.2,38.2,123.4,38.5,123.4,38.8z"/>
	</g>
	<path id="Reset_00000070106289663066812860000010058412633481848198_" class="st6" d="M186.5,27h0.1h0.1h0.1h0.1h0.1h0.1h0.1h0.1
		h0.1l0.1,0.1l0.1,0.1l0.1,0.1l0.1,0.1l0.1,0.1l0.1,0.1l0.1,0.1l0.1,0.1l0.1,0.1l0.1,0.1l0.1,0.1l0.1,0.1v0.1v0.1v0.1v0.1v0.1v0.1
		v0.1V29v0.1v0.1v2.5v0.1v0.1V32v0.1v0.1v0.1v0.1v0.1v0.1v0.1l-0.1,0.1l-0.1,0.1l-0.1,0.1l-0.1,0.1l-0.1,0.1l-0.1,0.1l-0.1,0.1
		l-0.1,0.1l-0.1,0.1l-0.1,0.1l-0.1,0.1l-0.1,0.1h-0.1h-0.1h-0.1H187h-0.1h-0.1h-0.1h-0.1h-0.1h-0.1l0,0h-0.1h-0.1h-0.1H186h-0.1
		h-0.1h-0.1h-0.1h-0.1h-0.1l-0.1-0.1l-0.1-0.1l-0.1-0.1l-0.1-0.1l-0.1-0.1l-0.1-0.1l-0.1-0.1l-0.1-0.1l-0.1-0.1l-0.1-0.1l-0.1-0.1
		l-0.1-0.1v-0.1v-0.1v-0.1v-0.1v-0.1v-0.1V32v-0.1v-0.1v-0.1v-1.9l-0.9,0.9l-0.6-0.6l2.1-2.2l2,2.1l-0.6,0.6l-0.9-0.9v1.9v0.1v0.1
		v0.1V32v0.1v0.1v0.1v0.1v0.1v0.1v0.1v0.1v0.1l0,0l0,0l0,0l0,0l0,0l0,0l0,0h0.1h0.1h0.1h0.1h0.1h0.1h0.1h0.1h0.1h0.1h0.1h0.1l0,0
		h0.1h0.1h0.1h0.1h0.1h0.1h0.1h0.1h0.1h0.1h0.1h0.1l0,0l0,0l0,0l0,0l0,0l0,0l0,0v-0.1v-0.1v-0.1v-0.1v-0.1v-0.1v-0.1v-0.1V32v-0.1
		v-0.1v-0.1v-0.1v-2.5V29v-0.1v-0.1v-0.1v-0.1v-0.1v-0.1v-0.1v-0.1v-0.1V28v-0.1v-0.1l0,0l0,0l0,0l0,0l0,0l0,0l0,0h-0.1h-0.1h-0.1
		h-0.1h-0.1h-0.1H187h-0.1h-0.1h-0.1h-0.1h-0.1l0,0l0,0l0,0l0,0l0,0l0,0l0,0l0,0l0,0l0,0l0,0l0,0l0,0l0,0l0,0l0,0l0,0l0,0l-0.6-0.7
		L186,27h0.1h0.1h0.1h0.1H186.5L186.5,27h0.2h0.1h0.1h0.1h0.1h0.1h0.1h0.1l0,0H186.5z"/>
	<path class="st6" d="M189,15.1h1.2v0.8H189v1.3h-0.8v-1.3H187v-0.8h1.2v-1.3h0.8V15.1z"/>
	<path class="st28" d="M118.3,15.2v-0.3l-0.1-0.3l-0.1-0.3l-0.1-0.2l-0.1-0.2l-0.2-0.2l-0.2-0.2l-0.2-0.2l-0.2-0.2l-0.2-0.1
		l-0.2-0.1l-0.3-0.1l-0.3-0.1h-0.3h-0.3h-0.3h-0.3l-0.3,0.1l-0.3,0.1l-0.2,0.1l-0.2,0.1l-0.2,0.2l-0.2,0.2l-0.2,0.2l-0.2,0.2
		l-0.1,0.2l-0.1,0.2l-0.1,0.3l-0.1,0.3v0.3v0.3v0.3v0.3l0.1,0.3l0.1,0.3l0.1,0.2l0.1,0.2l0.2,0.2l0.2,0.2l0.2,0.2l0.2,0.2l0.2,0.1
		l0.2,0.1l0.3,0.1l0.3,0.1h0.3h0.3h0.3h0.3l0.3-0.1l0.3-0.1l0.2-0.1l0.2-0.1l0.2-0.2l0.2-0.2l0.2-0.2l0.2-0.2l0.1-0.2l0.1-0.2
		l0.1-0.3l0.1-0.3v-0.3v-0.3V15.2z M117.6,15.5v0.1v0.2V16l-0.1,0.3l-0.2,0.2l-0.2,0.2l-0.2,0.2l-0.2,0.2l-0.2,0.1l-0.3,0.1
		l-0.3,0.1l-0.3,0.1h-0.2h-0.2H115l-0.2-0.1l-0.2-0.2l-0.2-0.2l-0.2-0.2l-0.2-0.2l-0.1-0.2l-0.1-0.3l-0.1-0.3v-0.3v-0.1v-0.2
		l0.1-0.3l0.1-0.2l0.1-0.3l0.2-0.2l0.2-0.2l0.2-0.2l0.2-0.1l0.3-0.1l0.3-0.1h0.3h0.2h0.2h0.2l0.2,0.1l0.3,0.1l0.2,0.2l0.2,0.2
		l0.2,0.2l0.1,0.2l0.1,0.3l0.1,0.3L117.6,15.5z"/>
	<path class="st28" d="M191.3,15.2v-0.3l-0.1-0.3l-0.1-0.3l-0.1-0.2l-0.1-0.2l-0.2-0.2l-0.2-0.2l-0.2-0.2l-0.2-0.2l-0.2-0.1
		l-0.2-0.1l-0.3-0.1l-0.3-0.1h-0.3h-0.3h-0.3h-0.3l-0.3,0.1l-0.3,0.1l-0.2,0.1l-0.2,0.1l-0.2,0.2l-0.2,0.2l-0.2,0.2l-0.2,0.2
		l-0.1,0.2l-0.1,0.2l-0.1,0.3l-0.1,0.3v0.3v0.2l0,0v0.1v0.1v0.2v0.3l0.1,0.3l0.1,0.3l0.1,0.2l0.1,0.2l0.2,0.2l0.2,0.2l0.2,0.2
		l0.2,0.2l0.2,0.1l0.2,0.1l0.3,0.1l0.3,0.1h0.3h0.3h0.3h0.3l0.3-0.1l0.3-0.1l0.2-0.1l0.2-0.1l0.2-0.2l0.2-0.2l0.2-0.2l0.2-0.2
		l0.1-0.2l0.1-0.2l0.1-0.3l0.1-0.3v-0.3v-0.3V15.2z M190.6,15.5v0.2l-0.1,0.3l-0.1,0.3l-0.1,0.2l-0.2,0.2l-0.1,0.1l-0.2,0.2
		l-0.2,0.1l-0.2,0.1l-0.3,0.1l-0.3,0.1h-0.2h-0.2h-0.2H188l-0.3-0.1l-0.2-0.1l-0.2-0.1l-0.2-0.1l-0.2-0.2l-0.2-0.2l-0.1-0.2
		l-0.1-0.3l-0.1-0.3v-0.3v-0.2v-0.2v-0.2l0.1-0.3l0.1-0.2l0.2-0.2L187,14l0.2-0.2l0.3-0.1l0.2-0.1l0.3-0.1h0.3h0.1h0.2h0.2l0.2,0.1
		l0.3,0.1l0.2,0.1l0.2,0.2l0.2,0.2l0.2,0.2l0.1,0.2l0.1,0.3v0.2v0.2L190.6,15.5z"/>
	<path class="st6" d="M117.2,15.9H114V15h3.2V15.9z"/>
	<g>
		<path class="st6" d="M209.6,91.1c0.4-0.3,0.6-0.8,0.6-1.3c0-1-0.9-1.8-2.1-1.8l0,0h-1.2v7h1.2l0,0c1.4,0,2.6-1,2.6-2.2
			C210.7,92.1,210.2,91.5,209.6,91.1z"/>
		<path class="st30" d="M208.1,88.9c0.6,0,1,0.4,1,0.9s-0.5,0.9-1,0.9"/>
		<path class="st30" d="M208.1,91.8c0.7,0,1.2,0.5,1.2,1.1s-0.6,1.1-1.2,1.1"/>
	</g>
	<g>
		<path class="st28" d="M82.7,133.6l-0.3-0.4l0.3-0.3c0-0.1,0-0.2,0-0.3s-0.1-0.2-0.2-0.3c-0.2-0.3-0.4-0.4-0.7-0.4
			c-0.3,0-0.6,0.1-0.9,0.3l-0.1,0.1c-0.3,0.2-0.5,0.5-0.6,0.7c-0.1,0.3,0,0.5,0.1,0.8c0.1,0.1,0.2,0.2,0.3,0.3s0.2,0.1,0.3,0.1
			l0.4-0.2l0.3,0.4l-0.6,0.4c-0.2,0-0.4-0.1-0.6-0.2c-0.2-0.1-0.4-0.3-0.5-0.5c-0.3-0.4-0.4-0.8-0.3-1.2c0.1-0.5,0.4-0.8,0.8-1.1
			l0.1-0.1c0.4-0.3,0.8-0.4,1.3-0.4c0.4,0,0.8,0.3,1.1,0.7c0.1,0.2,0.2,0.5,0.3,0.7s0,0.5,0,0.7L82.7,133.6z"/>
		<path class="st28" d="M81.4,135.2l0.2,0.2l3.1-0.9l0.4,0.6l-1.9,2.7l0.1,0.2l-0.3,0.2l-0.7-1l0.3-0.2l0.2,0.2l0.3-0.4l-0.7-0.9
			l-0.5,0.2l0.1,0.2l-0.3,0.2l-0.7-1L81.4,135.2z M83,135.7l0.5,0.7l0.8-1l0,0L83,135.7z"/>
		<path class="st28" d="M83.4,138.7l0.3-0.2l0.3,0.3l2.1-1.5l-0.2-0.3l0.3-0.2l0.2,0.3l0.4,0.6L87,138l-0.3,0.2l-0.3-0.3l-2,1.4
			l0.6,0.8l0.4-0.2l0.3,0.5l-0.8,0.6L83.4,138.7z"/>
		<path class="st28" d="M85.2,141.3l0.3-0.2l0.3,0.3l2.1-1.5l-0.2-0.3l0.3-0.2l0.2,0.3l0.4,0.6l0.2,0.3l-0.3,0.2l-0.3-0.3l-2,1.4
			l0.6,0.8l0.4-0.2l0.3,0.5l-0.8,0.6L85.2,141.3z"/>
		<path class="st28" d="M89.7,142.1l0.3-0.2l0.8,1.2l-0.3,0.2l-0.3-0.3l-2.1,1.5l0.2,0.3L88,145l-0.8-1.2l0.3-0.2l0.3,0.3l2.1-1.5
			L89.7,142.1z"/>
		<path class="st28" d="M91.6,147.2c-0.4,0.3-0.8,0.4-1.3,0.4c-0.4,0-0.8-0.2-1.1-0.7c-0.3-0.4-0.4-0.8-0.3-1.2
			c0.1-0.5,0.4-0.8,0.8-1.1l0,0c0.4-0.3,0.8-0.4,1.3-0.4s0.8,0.2,1.1,0.7c0.3,0.4,0.4,0.8,0.3,1.3C92.3,146.5,92,146.8,91.6,147.2
			L91.6,147.2z M91.2,146.6c0.3-0.2,0.5-0.5,0.6-0.7c0.1-0.3,0.1-0.5-0.1-0.8c-0.2-0.2-0.4-0.4-0.7-0.3c-0.3,0-0.6,0.1-0.9,0.3l0,0
			c-0.3,0.2-0.5,0.5-0.6,0.7c-0.1,0.3-0.1,0.5,0.1,0.8c0.2,0.2,0.4,0.4,0.7,0.3C90.6,146.9,90.8,146.8,91.2,146.6L91.2,146.6z"/>
		<path class="st28" d="M94.4,148c0.2,0.3,0.3,0.7,0.3,1s-0.2,0.6-0.5,0.8c-0.3,0.2-0.6,0.3-0.9,0.2s-0.6-0.3-0.8-0.6l-0.3-0.5
			l-0.6,0.5l0.2,0.3l-0.3,0.2l-0.8-1.2l0.3-0.2l0.3,0.3l2.1-1.5l-0.2-0.3l0.3-0.2l0.2,0.3L94.4,148z M92.7,148.5L93,149
			c0.1,0.2,0.3,0.3,0.4,0.3c0.2,0,0.3,0,0.4-0.1c0.2-0.1,0.2-0.2,0.2-0.4s0-0.3-0.1-0.5l-0.3-0.5L92.7,148.5z"/>
		<path class="st28" d="M95.2,152.5l-0.7-1l-0.8,0.6l0.7,0.9l0.4-0.2l0.3,0.5l-0.8,0.6l-1.6-2.3l0.3-0.2l0.3,0.3l2.1-1.5l-0.2-0.3
			l0.3-0.2l0.2,0.3l1.4,2l-0.8,0.6l-0.3-0.5l0.3-0.3l-0.7-0.9l-0.7,0.5l0.7,1L95.2,152.5z"/>
		<path class="st28" d="M77,135.5l-0.5,0.4c0.3,0,0.5,0,0.7,0.1c0.2,0.1,0.4,0.2,0.6,0.5c0.1,0.2,0.2,0.4,0.3,0.6
			c0,0.2,0,0.4-0.2,0.6c0.2,0,0.4,0,0.7,0.1c0.2,0.1,0.4,0.2,0.5,0.4s0.2,0.3,0.3,0.5s0,0.4,0,0.5c-0.1,0.2-0.1,0.4-0.3,0.6
			c-0.1,0.2-0.3,0.4-0.6,0.5l-3.6,2.6l-0.7-1l3.6-2.6c0.2-0.1,0.3-0.3,0.3-0.4c0-0.1,0-0.3-0.1-0.4s-0.2-0.2-0.3-0.2s-0.2,0-0.4,0
			l-3.8,2.7l-0.7-1l3.6-2.6c0.2-0.1,0.3-0.3,0.3-0.4c0-0.1,0-0.3-0.1-0.4c-0.1-0.1-0.2-0.2-0.3-0.3c-0.1,0-0.2,0-0.3,0l-3.8,2.8
			l-0.7-1l4.9-3.5L77,135.5z"/>
		<path class="st28" d="M80.8,140.7l1.9,2.6l-4,2.9l1,1.5l-0.9,0.7l-2.9-4.1l0.9-0.7l1.1,1.6L81,143l-1.1-1.6L80.8,140.7z
			 M83.1,141.3c0.1-0.1,0.3-0.2,0.6-0.1c0.2,0,0.3,0.1,0.5,0.4c0.1,0.2,0.2,0.4,0.2,0.6c0,0.2-0.1,0.3-0.3,0.5
			c-0.2,0.1-0.3,0.2-0.6,0.1c-0.2,0-0.3-0.2-0.5-0.4c-0.1-0.2-0.2-0.4-0.2-0.6C82.8,141.6,82.9,141.4,83.1,141.3z"/>
		<path class="st28" d="M85.3,147.1l-0.6,0.5c0.4,0,0.7,0.1,1,0.2c0.3,0.2,0.6,0.4,0.8,0.7c0.2,0.3,0.3,0.5,0.4,0.8
			c0.1,0.3,0.1,0.5,0,0.8c-0.1,0.2-0.1,0.5-0.4,0.8c-0.2,0.3-0.4,0.5-0.8,0.8l-3.1,2.2l-0.8-1.1l3.1-2.2c0.2-0.1,0.4-0.3,0.4-0.4
			s0.2-0.3,0.2-0.4c0-0.2,0-0.3,0-0.4s-0.2-0.3-0.2-0.5c-0.2-0.2-0.4-0.4-0.6-0.5c-0.3-0.1-0.5-0.2-0.7-0.1l-3.6,2.5l-0.8-1.1
			l4.9-3.5L85.3,147.1z"/>
		<path class="st28" d="M88.5,151.7l1.9,2.6l-4,2.9l1,1.5l-0.9,0.7l-2.9-4.1l0.9-0.7l1.1,1.6l3.1-2.2l-1.1-1.6L88.5,151.7z
			 M90.8,152.2c0.1-0.1,0.3-0.2,0.6-0.1c0.2,0,0.3,0.1,0.5,0.4c0.1,0.2,0.2,0.4,0.2,0.6c0,0.2-0.1,0.3-0.3,0.5
			c-0.2,0.1-0.3,0.2-0.6,0.1c-0.2,0-0.3-0.2-0.5-0.4c-0.1-0.2-0.2-0.4-0.2-0.6C90.6,152.4,90.7,152.3,90.8,152.2z"/>
		<g>
			<path class="st28" d="M81.1,125.5l-1.8-2.6c-0.3-0.4-0.8-0.5-1.2-0.2c0,0-2.2,1.5-1.9,1.4c1.6-1.1,2-3.4,0.8-5
				c-1.1-1.6-3.4-2-5-0.8c-0.2,0.2-2,1.4-3.2,2.3l-5-1.7c-3.5-1.1-6.3,2.8-4.2,5.8l0.5,0.7c2.3-1.2,5.5-2.4,8.1-2.2v0.1l2.2,3.1
				c-0.6,2.5-2.9,5-4.8,6.8l0.7,1c0.8,1.1,2.3,1.4,3.4,0.6l7.5-5.3l3.8-2.7C81.2,126.4,81.4,125.8,81.1,125.5z M74.3,119.2l1.7,2.4
				l-1.6,1.2c-0.5,0.4-1.3,0.2-1.6-0.3l-0.4-0.5c-0.4-0.5-0.2-1.3,0.3-1.6L74.3,119.2z M69.2,122l2.9-0.4l-1.7,2.1L69.2,122z
				 M70.5,123.8l2.6-0.8l-1.3,2.6L70.5,123.8z M74.6,125.9l3.6-2.5l2.1,2.9l-3.6,2.5L74.6,125.9z"/>
			<path class="st28" d="M64.4,131.5c0-2.3,2-5.6,3.7-8.4l-6.4,4.5L64.4,131.5z"/>
		</g>
	</g>
	
		<g id="LED-Matrix_00000167381326375349098430000012602291653046004661_" transform="translate(165.2 60.4) scale(0.45 0.437) rotate(90) ">
		
			<rect id="LED_0_4_00000083770928251844503200000003530846887304080315_" x="8.4" y="77.3" transform="matrix(2.535182e-06 1 -1 2.535182e-06 93.5938 70.4051)" class="st34" width="6.4" height="9.4"/>
		
			<rect id="LED_1_4_00000133523837892509883830000016706952627846862240_" x="34.4" y="77.3" transform="matrix(2.535182e-06 1 -1 2.535182e-06 119.5937 44.4052)" class="st34" width="6.4" height="9.4"/>
		
			<rect id="LED_2_4_00000174602792416058375500000016644574640252238722_" x="60.4" y="77.3" transform="matrix(2.535182e-06 1 -1 2.535182e-06 145.5935 18.4053)" class="st34" width="6.4" height="9.4"/>
		
			<rect id="LED_3_4_00000113311488985539353400000004761952538491083947_" x="86.4" y="77.3" transform="matrix(2.535182e-06 1 -1 2.535182e-06 171.5935 -7.5947)" class="st34" width="6.4" height="9.4"/>
		
			<rect id="LED_4_4_00000114056987667265247340000015552022737636199066_" x="112.4" y="77.3" transform="matrix(2.535182e-06 1 -1 2.535182e-06 197.5933 -33.5946)" class="st34" width="6.4" height="9.4"/>
		
			<rect id="LED_0_3_00000003808781206973134840000010700210968266420902_" x="8.4" y="52.3" transform="matrix(2.535182e-06 1 -1 2.535182e-06 68.594 45.4053)" class="st34" width="6.4" height="9.4"/>
		
			<rect id="LED_1_3_00000183245067142764186090000013846548986479568793_" x="34.4" y="52.3" transform="matrix(2.535182e-06 1 -1 2.535182e-06 94.5938 19.4054)" class="st34" width="6.4" height="9.4"/>
		
			<rect id="LED_2_3_00000129916109695000489880000013567477096007036802_" x="60.4" y="52.3" transform="matrix(2.535182e-06 1 -1 2.535182e-06 120.5936 -6.5945)" class="st34" width="6.4" height="9.4"/>
		
			<rect id="LED_3_3_00000093882149430499550190000014258808975024681104_" x="86.4" y="52.3" transform="matrix(2.535182e-06 1 -1 2.535182e-06 146.5936 -32.5945)" class="st34" width="6.4" height="9.4"/>
		
			<rect id="LED_4_3_00000177481878910110230910000010257716213880999303_" x="112.4" y="52.3" transform="matrix(2.535182e-06 1 -1 2.535182e-06 172.5934 -58.5944)" class="st34" width="6.4" height="9.4"/>
		
			<rect id="LED_0_2_00000003825427895165773120000004475728365340051852_" x="8.4" y="27.3" transform="matrix(2.535182e-06 1 -1 2.535182e-06 43.594 20.4053)" class="st34" width="6.4" height="9.4"/>
		
			<rect id="LED_1_2_00000180353196852719095390000014353643468184974754_" x="34.4" y="27.3" transform="matrix(2.535182e-06 1 -1 2.535182e-06 69.5938 -5.5946)" class="st34" width="6.4" height="9.4"/>
		
			<rect id="LED_2_2_00000067198087904103691490000015568727266122906498_" x="60.4" y="27.3" transform="matrix(2.535182e-06 1 -1 2.535182e-06 95.5936 -31.5945)" class="st34" width="6.4" height="9.4"/>
		
			<rect id="LED_3_2_00000170957652872368812980000002544899698398524036_" x="86.4" y="27.3" transform="matrix(2.535182e-06 1 -1 2.535182e-06 121.5936 -57.5945)" class="st34" width="6.4" height="9.4"/>
		
			<rect id="LED_4_2_00000039855210733504448440000000457696279226885567_" x="112.4" y="27.3" transform="matrix(2.535182e-06 1 -1 2.535182e-06 147.5934 -83.5944)" class="st34" width="6.4" height="9.4"/>
		
			<rect id="LED_0_1_00000127045331415197134670000005008521760724330685_" x="8.4" y="1.3" transform="matrix(2.535182e-06 1 -1 2.535182e-06 17.5941 -5.5945)" class="st34" width="6.4" height="9.4"/>
		
			<rect id="LED_1_1_00000007410293183272705250000013423326262977448841_" x="34.4" y="1.3" transform="matrix(2.535182e-06 1 -1 2.535182e-06 43.5939 -31.5944)" class="st34" width="6.4" height="9.4"/>
		
			<rect id="LED_2_1_00000148636376544368973760000011511560427785626765_" x="60.4" y="1.3" transform="matrix(2.535182e-06 1 -1 2.535182e-06 69.5937 -57.5943)" class="st34" width="6.4" height="9.4"/>
		
			<rect id="LED_3_1_00000181797770963357910740000002978695215286137013_" x="86.4" y="1.3" transform="matrix(2.535182e-06 1 -1 2.535182e-06 95.5937 -83.5943)" class="st34" width="6.4" height="9.4"/>
		
			<rect id="LED_4_1_00000154421002596003491040000009091249553329931179_" x="112.4" y="1.3" transform="matrix(2.535182e-06 1 -1 2.535182e-06 121.5935 -109.5942)" class="st34" width="6.4" height="9.4"/>
		
			<rect id="LED_0_0_00000090284950861883549690000008591689655961160078_" x="8.4" y="-23.7" transform="matrix(2.535182e-06 1 -1 2.535182e-06 -7.4058 -30.5943)" class="st34" width="6.4" height="9.4"/>
		
			<rect id="LED_1_0_00000092447317917529462060000017147438343688566445_" x="34.4" y="-23.7" transform="matrix(2.535182e-06 1 -1 2.535182e-06 18.594 -56.5942)" class="st34" width="6.4" height="9.4"/>
		
			<rect id="LED_2_0_00000148663419574836722220000015099661855015071408_" x="60.4" y="-23.7" transform="matrix(2.535182e-06 1 -1 2.535182e-06 44.5938 -82.5941)" class="st34" width="6.4" height="9.4"/>
		
			<rect id="LED_3_0_00000044879800703628542870000012186746328426443955_" x="86.4" y="-23.7" transform="matrix(2.535182e-06 1 -1 2.535182e-06 70.5938 -108.5941)" class="st34" width="6.4" height="9.4"/>
		
			<rect id="LED_4_0_00000063601602422085558120000000144592098744871609_" x="112.4" y="-23.7" transform="matrix(2.535182e-06 1 -1 2.535182e-06 96.5936 -134.594)" class="st34" width="6.4" height="9.4"/>
	</g>
</g>
<g id="Ebene_1">
	<rect x="44" y="0" class="st35" width="210" height="171"/>
	<path class="st36" d="M105,130V46h92v84H105z"/>
	<path class="st36" d="M211,108V75h36v33H211z"/>
	<path class="st37" d="M0,50.5l10,5.8V44.7L0,50.5z M105,49.5H9v2h96V49.5z"/>
	<path class="st37" d="M297,80l-10-5.8v11.5L297,80z M288,79h-41v2h41V79z"/>
</g>
</svg>
